<svg id="Layer_1" data-name="Layer 1" xmlns="http://www.w3.org/2000/svg" viewBox="0 0 24 24"><title>Add Shopping Cart copy</title><path d="M9,20.5A1.5,1.5,0,1,1,10.5,22,1.5,1.5,0,0,1,9,20.5Zm10,0A1.5,1.5,0,1,0,17.5,22,1.5,1.5,0,0,0,19,20.5ZM11,7h1V8a1,1,0,0,0,2,0V7h1a1,1,0,0,0,0-2H14V4a1,1,0,0,0-2,0V5H11a1,1,0,0,0,0,2ZM3,4H4.19L7,17.21A1,1,0,0,0,8,18H19a1,1,0,0,0,0-2H8.81l-.43-2H19a1,1,0,0,0,1-.76l2-8a1,1,0,0,0-.18-.86A1,1,0,0,0,21,4H17a.5.5,0,0,0-.5.5.54.54,0,0,0,.08.28l.08.1A2,2,0,0,1,17,6a2,2,0,0,1-1.67,2,.45.45,0,0,0-.36.36,2,2,0,0,1-3.94,0A.45.45,0,0,0,10.67,8,2,2,0,0,1,9,6a2,2,0,0,1,.34-1.12l.08-.1A.54.54,0,0,0,9.5,4.5.5.5,0,0,0,9,4H6.24L6,2.79A1,1,0,0,0,5,2H3A1,1,0,0,0,3,4Z"/></svg>