<svg id="Layer_1" data-name="Layer 1" xmlns="http://www.w3.org/2000/svg" viewBox="0 0 24 24"><title>Alarm Add copy</title><path d="M12,3A9,9,0,0,0,6,18.64L4.29,20.29a1,1,0,0,0,0,1.42,1,1,0,0,0,1.42,0l1.87-1.88a8.93,8.93,0,0,0,8.84,0l1.87,1.88a1,1,0,0,0,1.42,0,1,1,0,0,0,0-1.42l-1.66-1.65A9,9,0,0,0,12,3Zm2,10H13v1a1,1,0,0,1-2,0V13H10a1,1,0,0,1,0-2h1V10a1,1,0,0,1,2,0v1h1a1,1,0,0,1,0,2ZM2,5.93A4,4,0,0,1,5.93,2H6a1,1,0,0,1,.56,1.83A10,10,0,0,0,3.83,6.51,1,1,0,0,1,3,7a.79.79,0,0,1-.3,0A1,1,0,0,1,2,5.93Zm19.38,1a1,1,0,0,1-1.1-.24h0l-.11-.13A9.62,9.62,0,0,0,17.5,3.84a.27.27,0,0,1-.08-.07,1,1,0,0,1-.37-.67h0S17,3,17,3h0a1,1,0,0,1,1-1h.07A4,4,0,0,1,22,5.93,1,1,0,0,1,21.38,6.88Z"/></svg>