<svg id="Layer_1" data-name="Layer 1" xmlns="http://www.w3.org/2000/svg" viewBox="0 0 24 24"><title>Alarm Off copy</title><path d="M13.7,3.16a9,9,0,0,1,6.7,12.06.51.51,0,0,1-.83.19l-11-11a.51.51,0,0,1,.19-.83A8.92,8.92,0,0,1,13.7,3.16Zm3.69.63.07,0A9.56,9.56,0,0,1,20.14,6.5l.11.13h0A1,1,0,0,0,21,7a1,1,0,0,0,.38-.07,1,1,0,0,0,.63-1A4,4,0,0,0,18.05,2H18a1,1,0,0,0-1,1h0V3.1h0A1,1,0,0,0,17.39,3.79ZM3.71,2.29A1,1,0,0,0,2.29,3.71L2.55,4a4,4,0,0,0-.55,2,1,1,0,0,0,.7,1A.79.79,0,0,0,3,7a1,1,0,0,0,.83-.44C4,6.26,4.2,6,4.39,5.8L5,6.39A9,9,0,0,0,6,18.64L4.29,20.29a1,1,0,0,0,0,1.42,1,1,0,0,0,1.42,0l1.87-1.88a9,9,0,0,0,10-.8l2.68,2.68a1,1,0,0,0,1.42,0,1,1,0,0,0,0-1.42Z"/></svg>