<svg id="Layer_1" data-name="Layer 1" xmlns="http://www.w3.org/2000/svg" viewBox="0 0 24 24"><title>Antenna copy</title><path d="M15,11.6a4,4,0,0,0,0-5.2,1,1,0,1,1,1.52-1.3,6,6,0,0,1,0,7.8A1,1,0,0,1,15,11.6ZM7.44,5.1a6,6,0,0,0,0,7.8A1,1,0,1,0,9,11.6,4,4,0,0,1,9,6.4,1,1,0,1,0,7.44,5.1ZM19.59,2.5a1,1,0,1,0-1.52,1.3,8,8,0,0,1,0,10.4,1,1,0,0,0,1.52,1.3,10,10,0,0,0,0-13ZM5.17,15.85a1,1,0,0,0,.76-1.65,8,8,0,0,1,0-10.4A1,1,0,1,0,4.41,2.5a10,10,0,0,0,0,13A1,1,0,0,0,5.17,15.85Zm.92,4.74,4.59-10.1a2,2,0,1,1,2.64,0l4.59,10.1a1,1,0,0,1-.22,1.13A1,1,0,0,1,17,22a.93.93,0,0,1-.45-.11L12,19.62,7.45,21.89a1,1,0,0,1-1.14-.17A1,1,0,0,1,6.09,20.59Zm4.07-4.13,1.84.92,1.84-.92-1.84-4Z"/></svg>