<svg id="Layer_1" data-name="Layer 1" xmlns="http://www.w3.org/2000/svg" viewBox="0 0 24 24"><title>Auto renew copy</title><path d="M12,21.5V20a8,8,0,0,1-8-8,7.8,7.8,0,0,1,.14-1.47,1,1,0,0,1,2,.38A5.52,5.52,0,0,0,6,12a6,6,0,0,0,6,6V16.5a.5.5,0,0,1,.82-.38l3,2.5a.49.49,0,0,1,0,.76l-3,2.5a.47.47,0,0,1-.32.12.54.54,0,0,1-.21-.05A.49.49,0,0,1,12,21.5Zm6.83-7.79H19a1,1,0,0,0,1-.87A6.15,6.15,0,0,0,20,12a8,8,0,0,0-8-8V2.5a.5.5,0,0,0-.82-.38l-3,2.5a.49.49,0,0,0,0,.76l3,2.5A.47.47,0,0,0,11.5,8a.54.54,0,0,0,.21,0A.49.49,0,0,0,12,7.5V6a6,6,0,0,1,6,6q0,.3,0,.6A1,1,0,0,0,18.83,13.71Z"/></svg>