<svg id="Layer_1" data-name="Layer 1" xmlns="http://www.w3.org/2000/svg" viewBox="0 0 24 24"><title>Birthday copy</title><path d="M2,18V15.92a.5.5,0,0,1,.74-.43,5.28,5.28,0,0,0,2.59.68,5.45,5.45,0,0,0,3.1-1,.48.48,0,0,1,.54,0,5.88,5.88,0,0,0,6.06,0,.48.48,0,0,1,.54,0,5.45,5.45,0,0,0,5.7.28.49.49,0,0,1,.73.43V18a3,3,0,0,1-3,3H5A3,3,0,0,1,2,18ZM6,9H5a3,3,0,0,0-2.68,1.64,2,2,0,0,0,.23,2.14,2.3,2.3,0,0,0,.16.2l.19.19a3.44,3.44,0,0,0,4.86,0L8,13a1,1,0,0,1,1.41,0,3.82,3.82,0,0,0,5.26,0A1,1,0,0,1,16,13l.19.2a3.45,3.45,0,0,0,4.87,0l.19-.19.16-.19a2,2,0,0,0,.22-2.15A3,3,0,0,0,19,9H18V8a1,1,0,0,0-2,0V9H13V8a1,1,0,0,0-2,0V9H8V8A1,1,0,0,0,6,8ZM16.54,3.28A7.1,7.1,0,0,0,16,5a1,1,0,1,0,2,0,7.1,7.1,0,0,0-.54-1.71A.52.52,0,0,0,16.54,3.28Zm-5,0A7.1,7.1,0,0,0,11,5a1,1,0,1,0,2,0,7.1,7.1,0,0,0-.54-1.71A.52.52,0,0,0,11.54,3.28ZM7,6A1,1,0,0,0,8,5a7.1,7.1,0,0,0-.54-1.71.52.52,0,0,0-.92,0A7.1,7.1,0,0,0,6,5,1,1,0,0,0,7,6Z"/></svg>