<svg id="Layer_1" data-name="Layer 1" xmlns="http://www.w3.org/2000/svg" viewBox="0 0 24 24"><title>Cached copy</title><path d="M8.18,19.38a.49.49,0,0,1,0-.76l3-2.5a.47.47,0,0,1,.53-.07.49.49,0,0,1,.29.45V18a6,6,0,0,0,6-6,5.52,5.52,0,0,0-.1-1.09,1,1,0,0,1,2-.38A7.8,7.8,0,0,1,20,12a8,8,0,0,1-8,8v1.5a.49.49,0,0,1-.29.45.54.54,0,0,1-.21.05.47.47,0,0,1-.32-.12ZM12,6V7.5a.49.49,0,0,0,.29.45.54.54,0,0,0,.21,0,.47.47,0,0,0,.32-.12l3-2.5a.49.49,0,0,0,0-.76l-3-2.5A.5.5,0,0,0,12,2.5V4a8,8,0,0,0-8,8,6.15,6.15,0,0,0,0,.85,1,1,0,0,0,1,.87h.13A1,1,0,0,0,6,12.6q0-.3,0-.6A6,6,0,0,1,12,6Z"/></svg>