<svg id="Layer_1" data-name="Layer 1" xmlns="http://www.w3.org/2000/svg" viewBox="0 0 24 24"><title>Class copy</title><path d="M13,12.5a.5.5,0,0,1-.5.5H12V12h.5A.5.5,0,0,1,13,12.5ZM8,10.92,7.6,12h.8ZM12.5,10H12v1h.5a.5.5,0,0,0,0-1ZM22,8v8a3,3,0,0,1-3,3H5a3,3,0,0,1-3-3V8A3,3,0,0,1,5,5H19A3,3,0,0,1,22,8ZM6.32,14A.52.52,0,0,0,7,13.68L7.22,13H8.78l.25.68A.51.51,0,0,0,9.5,14l.18,0a.51.51,0,0,0,.29-.65l-1.5-4a.52.52,0,0,0-.94,0l-1.5,4A.51.51,0,0,0,6.32,14ZM10,16a1,1,0,0,0-1-1H7a1,1,0,0,0,0,2H9A1,1,0,0,0,10,16Zm3.61-4.5A1.49,1.49,0,0,0,12.5,9h-1a.5.5,0,0,0-.5.5v4a.5.5,0,0,0,.5.5h1a1.49,1.49,0,0,0,1.11-2.5Zm2.39,0A1.5,1.5,0,0,1,17.5,10a.5.5,0,0,0,0-1,2.5,2.5,0,0,0,0,5,.5.5,0,0,0,0-1A1.5,1.5,0,0,1,16,11.5Z"/></svg>