<svg id="Layer_1" data-name="Layer 1" xmlns="http://www.w3.org/2000/svg" viewBox="0 0 24 24"><title>Commute copy</title><path d="M22,13.47a3,3,0,0,0-.32-1.34L20.45,9.66A3,3,0,0,0,17.76,8H11.24A3,3,0,0,0,8.55,9.66L7.32,12.13A3,3,0,0,0,7,13.47V21a1,1,0,0,0,2,0V20H20v1a1,1,0,0,0,2,0ZM11,17a1,1,0,1,1,1-1A1,1,0,0,1,11,17Zm7,0a1,1,0,1,1,1-1A1,1,0,0,1,18,17ZM9.62,12l.72-1.45a1,1,0,0,1,.9-.55h6.52a1,1,0,0,1,.9.55L19.38,12ZM2,18V5A3,3,0,0,1,5,2H15a3,3,0,0,1,3,3V6a1,1,0,0,1-1,1h0a1,1,0,0,1-1-1V5H4v6H6a.49.49,0,0,1,.49.55,2.15,2.15,0,0,1-.18.48,4.45,4.45,0,0,0-.19.65,4.15,4.15,0,0,0-.08.79v.12a.51.51,0,0,1-.3.46l-.1,0A1,1,0,0,0,5,15a1,1,0,0,0,.67.94.5.5,0,0,1,.33.47V20a1,1,0,0,1-2,0V19H3A1,1,0,0,1,2,18Z"/></svg>