<svg id="Layer_1" data-name="Layer 1" xmlns="http://www.w3.org/2000/svg" viewBox="0 0 24 24"><title>Compress copy</title><path d="M21.71,3.71,17.06,8.35l1.79,1.8a.47.47,0,0,1,.11.54.5.5,0,0,1-.46.31h-5a.5.5,0,0,1-.5-.5v-5A.5.5,0,0,1,13.31,5a.48.48,0,0,1,.54.11l1.8,1.79,4.64-4.65a1,1,0,1,1,1.42,1.42ZM3,22a1,1,0,0,0,.71-.29l4.64-4.65,1.8,1.79a.47.47,0,0,0,.35.15.43.43,0,0,0,.19,0A.5.5,0,0,0,11,18.5v-5a.5.5,0,0,0-.5-.5h-5a.5.5,0,0,0-.46.31.47.47,0,0,0,.11.54l1.79,1.8L2.29,20.29a1,1,0,0,0,0,1.42A1,1,0,0,0,3,22Z"/></svg>