<svg id="Layer_1" data-name="Layer 1" xmlns="http://www.w3.org/2000/svg" viewBox="0 0 24 24"><title>Date copy</title><path d="M19,4H18V3a1,1,0,0,0-2,0V4H8V3A1,1,0,0,0,6,3V4H5A3,3,0,0,0,2,7V19a3,3,0,0,0,3,3H19a3,3,0,0,0,3-3V7A3,3,0,0,0,19,4ZM9,17.8a.2.2,0,0,1-.2.2H7.2a.2.2,0,0,1-.2-.2V16.2a.2.2,0,0,1,.2-.2H8.8a.2.2,0,0,1,.2.2Zm0-4a.2.2,0,0,1-.2.2H7.2a.2.2,0,0,1-.2-.2V12.2a.2.2,0,0,1,.2-.2H8.8a.2.2,0,0,1,.2.2Zm4,4a.2.2,0,0,1-.2.2H11.2a.2.2,0,0,1-.2-.2V16.2a.2.2,0,0,1,.2-.2h1.6a.2.2,0,0,1,.2.2Zm0-4a.2.2,0,0,1-.2.2H11.2a.2.2,0,0,1-.2-.2V12.2a.2.2,0,0,1,.2-.2h1.6a.2.2,0,0,1,.2.2Zm4,4a.2.2,0,0,1-.2.2H15.2a.2.2,0,0,1-.2-.2V16.2a.2.2,0,0,1,.2-.2h1.6a.2.2,0,0,1,.2.2Zm0-4a.2.2,0,0,1-.2.2H15.2a.2.2,0,0,1-.2-.2V12.2a.2.2,0,0,1,.2-.2h1.6a.2.2,0,0,1,.2.2ZM20,8H4V7A1,1,0,0,1,5,6H6A1,1,0,0,0,8,6h8a1,1,0,0,0,2,0h1a1,1,0,0,1,1,1Z"/></svg>