<svg id="Layer_1" data-name="Layer 1" xmlns="http://www.w3.org/2000/svg" viewBox="0 0 24 24"><title>Day View copy</title><path d="M2,4.5A1.5,1.5,0,0,1,3.5,3h17a1.5,1.5,0,0,1,0,3H3.5A1.5,1.5,0,0,1,2,4.5ZM3.5,11A1.5,1.5,0,1,0,2,9.5,1.5,1.5,0,0,0,3.5,11Zm17-3H8.5a1.5,1.5,0,0,0,0,3h12a1.5,1.5,0,0,0,0-3Zm-17,8A1.5,1.5,0,1,0,2,14.5,1.5,1.5,0,0,0,3.5,16Zm17-3H8.5a1.5,1.5,0,0,0,0,3h12a1.5,1.5,0,0,0,0-3Zm-17,8A1.5,1.5,0,1,0,2,19.5,1.5,1.5,0,0,0,3.5,21Zm17-3H8.5a1.5,1.5,0,0,0,0,3h12a1.5,1.5,0,0,0,0-3Z"/></svg>