<svg id="Layer_1" data-name="Layer 1" xmlns="http://www.w3.org/2000/svg" viewBox="0 0 24 24"><title>DNS copy</title><path d="M4,16.17a1,1,0,0,1,1.38.28,8,8,0,0,0,4.52,3.26,11.9,11.9,0,0,1-1.53-2.25,1,1,0,0,1,1.78-.92A9.45,9.45,0,0,0,12,19.05a9.45,9.45,0,0,0,1.87-2.51,1,1,0,0,1,1.78.92,11.9,11.9,0,0,1-1.53,2.25,8,8,0,0,0,4.52-3.26,1,1,0,1,1,1.66,1.1,10,10,0,0,1-16.6,0A1,1,0,0,1,4,16.17ZM20.3,6.45a10,10,0,0,0-16.6,0,1,1,0,0,0,1.66,1.1A8,8,0,0,1,9.88,4.29,11.9,11.9,0,0,0,8.35,6.54a1,1,0,0,0,.43,1.35A1.07,1.07,0,0,0,9.24,8a1,1,0,0,0,.89-.54A9.45,9.45,0,0,1,12,5a9.45,9.45,0,0,1,1.87,2.51,1,1,0,0,0,.89.54,1.07,1.07,0,0,0,.46-.11,1,1,0,0,0,.43-1.35,11.9,11.9,0,0,0-1.53-2.25,8,8,0,0,1,4.52,3.26,1,1,0,0,0,.83.45A.94.94,0,0,0,20,7.83,1,1,0,0,0,20.3,6.45ZM4.5,15a.5.5,0,0,1-.5-.5v-5A.5.5,0,0,1,4.5,9H5a3,3,0,0,1,0,6ZM5,14a2,2,0,0,0,0-4Zm5.5,1a.5.5,0,0,0,.5-.5V11.31l2.07,3.45a.51.51,0,0,0,.43.24l.13,0A.5.5,0,0,0,14,14.5v-5a.5.5,0,0,0-1,0v3.19L10.93,9.24A.5.5,0,0,0,10,9.5v5A.5.5,0,0,0,10.5,15Zm7.75-1H16.5a.5.5,0,0,0,0,1h1.75a1.75,1.75,0,0,0,0-3.5h-.5a.75.75,0,0,1,0-1.5H19.5a.5.5,0,0,0,0-1H17.75a1.75,1.75,0,0,0,0,3.5h.5a.75.75,0,0,1,0,1.5Z"/></svg>