<svg id="Layer_1" data-name="Layer 1" xmlns="http://www.w3.org/2000/svg" viewBox="0 0 24 24"><title>donut Chart copy</title><path d="M22,12a10,10,0,0,1-1.91,5.87.49.49,0,0,1-.75.05L16.44,15a.51.51,0,0,1-.07-.61,5,5,0,0,0,0-4.84A.51.51,0,0,1,16.44,9l2.9-2.89a.49.49,0,0,1,.75,0A10,10,0,0,1,22,12ZM6.13,3.91a.49.49,0,0,0,0,.75L9,7.56a.51.51,0,0,0,.61.07,5,5,0,0,1,4.84,0A.51.51,0,0,0,15,7.56l2.89-2.9a.49.49,0,0,0-.05-.75,10,10,0,0,0-11.74,0Zm-4,9.44a10,10,0,0,0,15.78,6.74.49.49,0,0,0,.05-.75L15,16.44a.51.51,0,0,0-.61-.07A5,5,0,0,1,7.63,9.58.51.51,0,0,0,7.56,9L4.66,6.08a.49.49,0,0,0-.75,0A10,10,0,0,0,2.09,13.35Z"/></svg>