<svg id="Layer_1" data-name="Layer 1" xmlns="http://www.w3.org/2000/svg" viewBox="0 0 24 24"><title>Explore Off copy</title><path d="M12,22a10,10,0,0,0,6.32-2.27l2,2a1,1,0,0,0,1.42,0,1,1,0,0,0,0-1.42l-18-18A1,1,0,0,0,2.29,3.71l2,2A10,10,0,0,0,12,22ZM7.72,17A.54.54,0,0,1,7.5,17a.55.55,0,0,1-.34-.13A.5.5,0,0,1,7,16.31L9.29,10.7l3.64,3.64ZM17,7.69a.5.5,0,0,0-.68-.64L13.21,8.59a.49.49,0,0,1-.57-.09L7.8,3.66a.5.5,0,0,1,.13-.8A10,10,0,0,1,21.14,16.07a.5.5,0,0,1-.8.13l-4.62-4.62a.5.5,0,0,1-.11-.53Z"/></svg>