<svg id="Layer_1" data-name="Layer 1" xmlns="http://www.w3.org/2000/svg" viewBox="0 0 24 24"><title>Flip To Front copy</title><path d="M21,16V4a1,1,0,0,0-1-1H8A1,1,0,0,0,7,4V16a1,1,0,0,0,1,1H20A1,1,0,0,0,21,16Zm-2-1H9V5H19Zm-2,6a1,1,0,0,1,0-2h1a1,1,0,0,1,0,2Zm-4.62,0a1,1,0,0,1,0-2h1.85a1,1,0,1,1,0,2ZM6.77,20a1,1,0,0,1,1-1H9.62a1,1,0,0,1,0,2H7.77A1,1,0,0,1,6.77,20ZM3,19a1,1,0,0,1,2,0,1,1,0,0,1,0,2H4a1,1,0,0,1-1-1Zm0-4.62a1,1,0,0,1,2,0v1.85a1,1,0,0,1-2,0ZM3,9.77a1,1,0,0,1,2,0v1.85a1,1,0,0,1-2,0ZM3,7V6A1,1,0,0,1,5,6V7A1,1,0,0,1,3,7Z"/></svg>