<svg id="Layer_1" data-name="Layer 1" xmlns="http://www.w3.org/2000/svg" viewBox="0 0 24 24"><title>GIF copy</title><path d="M3,5A3,3,0,0,1,6,2H18a3,3,0,0,1,3,3V6a1,1,0,0,1-2,0V5a1,1,0,0,0-1-1H6A1,1,0,0,0,5,5V6A1,1,0,0,1,3,6ZM3,19a3,3,0,0,0,3,3H18a3,3,0,0,0,3-3V18a1,1,0,0,0-2,0v1a1,1,0,0,1-1,1H6a1,1,0,0,1-1-1V18a1,1,0,0,0-2,0ZM21,8H17a1,1,0,0,0-1,1v6a1,1,0,0,0,2,0V14h2a1,1,0,0,0,0-2H18V10h3a1,1,0,0,0,0-2ZM12,9v6a1,1,0,0,0,2,0V9a1,1,0,0,0-2,0ZM7,16H8a3,3,0,0,0,3-3,2,2,0,0,0-2-2H8a1,1,0,0,0,0,2H9a1,1,0,0,1-1,1H7a2,2,0,0,1,0-4h3a1,1,0,0,0,0-2H7a4,4,0,0,0,0,8Z"/></svg>