<svg id="Layer_1" data-name="Layer 1" xmlns="http://www.w3.org/2000/svg" viewBox="0 0 24 24"><title>Gift Card copy</title><path d="M19,5a3,3,0,0,0-3-3c-1.07,0-2.88,1.07-4,1.8C10.88,3.07,9.07,2,8,2A3,3,0,0,0,8,8a2.85,2.85,0,0,0,.71-.12l-.42.41a1,1,0,0,0,0,1.42,1,1,0,0,0,1.42,0L12,7.41l2.29,2.3a1,1,0,0,0,1.42,0,1,1,0,0,0,0-1.42l-.42-.41A2.85,2.85,0,0,0,16,8,3,3,0,0,0,19,5Zm-9,.07A6.93,6.93,0,0,1,8,6,1,1,0,0,1,8,4a6.93,6.93,0,0,1,2,.93Zm4,0V4.93A6.93,6.93,0,0,1,16,4a1,1,0,0,1,0,2A6.93,6.93,0,0,1,14,5.07ZM2,11.5V9A3,3,0,0,1,3.65,6.34a.49.49,0,0,1,.68.23,4,4,0,0,0,2.34,2.2A.51.51,0,0,1,7,9.22a2,2,0,0,0,.92,1.47,2.07,2.07,0,0,0,2.55-.34l1.18-1.18a.48.48,0,0,1,.68,0l1.25,1.24A2,2,0,0,0,17,9.21a.49.49,0,0,1,.32-.43,4,4,0,0,0,2.36-2.21.49.49,0,0,1,.68-.23A3,3,0,0,1,22,9v2.5a.5.5,0,0,1-.5.5H2.5A.5.5,0,0,1,2,11.5ZM2,19V15.5a.5.5,0,0,1,.5-.5h19a.5.5,0,0,1,.5.5V19a3,3,0,0,1-3,3H5A3,3,0,0,1,2,19Z"/></svg>