<svg id="Layer_1" data-name="Layer 1" xmlns="http://www.w3.org/2000/svg" viewBox="0 0 24 24"><title>HTTP copy</title><path d="M20,8a1,1,0,0,1-1-1V5a1,1,0,0,0-1-1H6A1,1,0,0,0,5,5V7A1,1,0,0,1,3,7V5A3,3,0,0,1,6,2H18a3,3,0,0,1,3,3V7A1,1,0,0,1,20,8ZM3,19a3,3,0,0,0,3,3H18a3,3,0,0,0,3-3V16a1,1,0,0,0-2,0v3a1,1,0,0,1-1,1H6a1,1,0,0,1-1-1V16a1,1,0,0,0-2,0Zm4.5-5a.5.5,0,0,0,.5-.5v-4a.5.5,0,0,0-1,0V11H5V9.5a.5.5,0,0,0-1,0v4a.5.5,0,0,0,1,0V12H7v1.5A.5.5,0,0,0,7.5,14Zm11-5a1.5,1.5,0,0,1,0,3H18v1.5a.5.5,0,0,1-1,0v-4a.5.5,0,0,1,.5-.5Zm0,1H18v1h.5a.5.5,0,0,0,0-1Zm-8,4a.5.5,0,0,0,.5-.5V10h.5a.5.5,0,0,0,0-1h-2a.5.5,0,0,0,0,1H10v3.5A.5.5,0,0,0,10.5,14Zm4,0a.5.5,0,0,0,.5-.5V10h.5a.5.5,0,0,0,0-1h-2a.5.5,0,0,0,0,1H14v3.5A.5.5,0,0,0,14.5,14Z"/></svg>