<svg id="Layer_1" data-name="Layer 1" xmlns="http://www.w3.org/2000/svg" viewBox="0 0 24 24"><title>In Progress copy</title><path d="M12,22a10.24,10.24,0,0,1-1.66-.14,1,1,0,1,1,.33-2A8.42,8.42,0,0,0,12,20,8,8,0,0,0,12,4a8.42,8.42,0,0,0-1.33.11H10.5a1,1,0,0,1-.16-2A10.24,10.24,0,0,1,12,2a10,10,0,0,1,0,20ZM3.85,17.79a9.88,9.88,0,0,0,2.37,2.37,1,1,0,0,0,.58.18,1,1,0,0,0,.81-.42,1,1,0,0,0-.23-1.39,7.79,7.79,0,0,1-1.9-1.9,1,1,0,0,0-1.4-.23A1,1,0,0,0,3.85,17.79Zm-.73-3.28h.17a1,1,0,0,0,.82-1.16,8.22,8.22,0,0,1,0-2.68,1,1,0,1,0-2-.33A10.26,10.26,0,0,0,2,12a10.48,10.48,0,0,0,.14,1.68A1,1,0,0,0,3.12,14.51ZM4.66,7.79a1,1,0,0,0,.81-.42,8.36,8.36,0,0,1,1.9-1.9A1,1,0,0,0,6.22,3.84,10.06,10.06,0,0,0,3.85,6.21,1,1,0,0,0,4.08,7.6,1,1,0,0,0,4.66,7.79Zm3.63,4.92,2,2a1,1,0,0,0,1.42,0l4-4a1,1,0,0,0-1.42-1.42L11,12.59l-1.29-1.3a1,1,0,0,0-1.42,1.42Z"/></svg>