<svg id="Layer_1" data-name="Layer 1" xmlns="http://www.w3.org/2000/svg" viewBox="0 0 24 24"><title>Input Component copy</title><path d="M2,15V6A1,1,0,0,1,3,5H4V3A1,1,0,0,1,6,3V5H7A1,1,0,0,1,8,6v9a3,3,0,0,1-2,2.82V21a1,1,0,0,1-2,0V17.82A3,3,0,0,1,2,15ZM12,2a1,1,0,0,0-1,1V5H10A1,1,0,0,0,9,6v9a3,3,0,0,0,2,2.82V21a1,1,0,0,0,2,0V17.82A3,3,0,0,0,15,15V6a1,1,0,0,0-1-1H13V3A1,1,0,0,0,12,2Zm8,15.82A3,3,0,0,0,22,15V6a1,1,0,0,0-1-1H20V3a1,1,0,0,0-2,0V5H17a1,1,0,0,0-1,1v9a3,3,0,0,0,2,2.82V21a1,1,0,0,0,2,0Z"/></svg>