<svg id="Layer_1" data-name="Layer 1" xmlns="http://www.w3.org/2000/svg" viewBox="0 0 24 24"><title>Language copy</title><path d="M10.27,8a.5.5,0,0,1-.48-.66A12.47,12.47,0,0,1,11.6,4a.52.52,0,0,1,.8,0,12.47,12.47,0,0,1,1.81,3.38.5.5,0,0,1-.48.66ZM11.6,20a.52.52,0,0,0,.8,0,12.47,12.47,0,0,0,1.81-3.38.5.5,0,0,0-.48-.66H10.27a.5.5,0,0,0-.48.66A12.47,12.47,0,0,0,11.6,20Zm-2.5-9.6A13.33,13.33,0,0,0,9,12a13.33,13.33,0,0,0,.1,1.56.51.51,0,0,0,.5.44h4.8a.51.51,0,0,0,.5-.44A13.33,13.33,0,0,0,15,12a13.33,13.33,0,0,0-.1-1.56.51.51,0,0,0-.5-.44H9.6A.51.51,0,0,0,9.1,10.44Zm12.77,0a.5.5,0,0,0-.5-.42H17.42a.51.51,0,0,0-.5.56,13,13,0,0,1,0,2.88.51.51,0,0,0,.5.56h3.95a.5.5,0,0,0,.5-.42,9.67,9.67,0,0,0,0-3.16ZM2.63,14h4a.51.51,0,0,0,.5-.56,13,13,0,0,1,0-2.88.51.51,0,0,0-.5-.56H2.63a.5.5,0,0,0-.5.42,9.67,9.67,0,0,0,0,3.16A.5.5,0,0,0,2.63,14Zm.58,2.76a10,10,0,0,0,6,4.82.5.5,0,0,0,.53-.77,15,15,0,0,1-2.08-4.44A.49.49,0,0,0,7.14,16H3.65A.51.51,0,0,0,3.21,16.76Zm17.58,0a.51.51,0,0,0-.44-.76H16.86a.49.49,0,0,0-.47.37,15,15,0,0,1-2.08,4.44.5.5,0,0,0,.53.77A10,10,0,0,0,20.79,16.76ZM3.65,8H7.14a.49.49,0,0,0,.47-.37A15,15,0,0,1,9.69,3.19a.5.5,0,0,0-.53-.77A10,10,0,0,0,3.21,7.24.51.51,0,0,0,3.65,8Zm17.14-.76a10,10,0,0,0-5.95-4.82.5.5,0,0,0-.53.77,15,15,0,0,1,2.08,4.44.49.49,0,0,0,.47.37h3.49A.51.51,0,0,0,20.79,7.24Z"/></svg>