<svg id="Layer_1" data-name="Layer 1" xmlns="http://www.w3.org/2000/svg" viewBox="0 0 24 24"><title>Merge Files copy</title><path d="M5,16H8v3a3,3,0,0,0,3,3h8a3,3,0,0,0,3-3V11a3,3,0,0,0-3-3H16V5a3,3,0,0,0-3-3H5A3,3,0,0,0,2,5v8A3,3,0,0,0,5,16ZM4,5A1,1,0,0,1,5,4h8a1,1,0,0,1,1,1V8.59l-.23.23a1,1,0,0,0,1.41,1.41l.23-.23H19a1,1,0,0,1,1,1v8a1,1,0,0,1-1,1H11a1,1,0,0,1-1-1V15.41l.23-.23a1,1,0,0,0-1.41-1.41L8.59,14H5a1,1,0,0,1-1-1Zm6.94,8.06a1,1,0,0,1,0-1.41l.71-.71a1,1,0,0,1,1.41,1.41l-.71.71A1,1,0,0,1,10.94,13.06ZM5.29,6.71A1,1,0,0,1,6.71,5.29L8.35,6.94l.8-.79A.48.48,0,0,1,9.69,6,.5.5,0,0,1,10,6.5v3a.5.5,0,0,1-.5.5h-3A.5.5,0,0,1,6,9.69a.47.47,0,0,1,.11-.54l.79-.8ZM14,17.5v-3a.5.5,0,0,1,.5-.5h3a.5.5,0,0,1,.46.31.47.47,0,0,1-.11.54l-.79.8,1.65,1.64a1,1,0,0,1,0,1.42,1,1,0,0,1-1.42,0l-1.64-1.65-.8.79a.47.47,0,0,1-.35.15.43.43,0,0,1-.19,0A.5.5,0,0,1,14,17.5Z"/></svg>