<svg id="Layer_1" data-name="Layer 1" xmlns="http://www.w3.org/2000/svg" viewBox="0 0 24 24"><title>Minimize copy</title><path d="M22,5V19a3,3,0,0,1-3,3H14a1,1,0,0,1,0-2h5a1,1,0,0,0,1-1V5a1,1,0,0,0-1-1H5A1,1,0,0,0,4,5v5a1,1,0,0,1-2,0V5A3,3,0,0,1,5,2H19A3,3,0,0,1,22,5ZM2,19V16a3,3,0,0,1,3-3H8a3,3,0,0,1,3,3v3a3,3,0,0,1-3,3H5A3,3,0,0,1,2,19Zm2,0a1,1,0,0,0,1,1H8a1,1,0,0,0,1-1V16a1,1,0,0,0-1-1H5a1,1,0,0,0-1,1ZM17.71,6.29a1,1,0,0,0-1.42,0L12.65,9.94l-.8-.79A.47.47,0,0,0,11.31,9,.5.5,0,0,0,11,9.5v3a.5.5,0,0,0,.5.5h3a.5.5,0,0,0,.46-.31.47.47,0,0,0-.11-.54l-.79-.8,3.65-3.64A1,1,0,0,0,17.71,6.29Z"/></svg>