<svg id="Layer_1" data-name="Layer 1" xmlns="http://www.w3.org/2000/svg" viewBox="0 0 24 24"><title>Open With copy</title><path d="M9.12,5.18l2.5-3a.5.5,0,0,1,.76,0l2.5,3a.47.47,0,0,1,.07.53A.49.49,0,0,1,14.5,6H13V9a1,1,0,0,1-2,0V6H9.5a.49.49,0,0,1-.45-.29A.47.47,0,0,1,9.12,5.18Zm-3.94,9.7A.47.47,0,0,0,5.5,15,.54.54,0,0,0,5.71,15,.49.49,0,0,0,6,14.5V13H9a1,1,0,0,0,0-2H6V9.5a.5.5,0,0,0-.82-.38l-3,2.5a.49.49,0,0,0,0,.76Zm16.64-3.26-3-2.5A.5.5,0,0,0,18,9.5V11H15a1,1,0,0,0,0,2h3v1.5a.49.49,0,0,0,.29.45.54.54,0,0,0,.21.05.47.47,0,0,0,.32-.12l3-2.5a.49.49,0,0,0,0-.76ZM9.5,18a.49.49,0,0,0-.45.29.47.47,0,0,0,.07.53l2.5,3a.49.49,0,0,0,.76,0l2.5-3a.47.47,0,0,0,.07-.53A.49.49,0,0,0,14.5,18H13V15a1,1,0,0,0-2,0v3Z"/></svg>