<svg id="Layer_1" data-name="Layer 1" xmlns="http://www.w3.org/2000/svg" viewBox="0 0 24 24"><title>Open New copy</title><path d="M19.17,3.89l.95.95a.5.5,0,0,1,0,.71l-4,4a.53.53,0,0,1-.23.13c-.35.09-1.28.28-1.28.28H14.5a.47.47,0,0,1-.35-.15A.46.46,0,0,1,14,9.42s.19-.92.27-1.27a.58.58,0,0,1,.13-.23l4-4A.51.51,0,0,1,19.17,3.89Zm2,.51a.32.32,0,0,0,.24-.13,2.67,2.67,0,0,0,.42-.47A1.19,1.19,0,0,0,22,3.32a1.21,1.21,0,0,0-.33-1,1.17,1.17,0,0,0-1.67,0c-.1.11-.21.22-.34.38a.21.21,0,0,0,0,.11.28.28,0,0,0,.07.17L20.9,4.22C21,4.3,21,4.4,21.17,4.4Zm0,1.5-4.35,4.39a1.41,1.41,0,0,1-.69.39c-.31.08-1.6.32-1.6.32a1.44,1.44,0,0,1-1.09-.48A1.38,1.38,0,0,1,13,9.24s.19-1,.28-1.34a1.55,1.55,0,0,1,.4-.69L18.1,2.86A.5.5,0,0,0,17.74,2H5A3,3,0,0,0,2,5V19a3,3,0,0,0,3,3H19a3,3,0,0,0,3-3V6.26A.51.51,0,0,0,21.14,5.9Z"/></svg>