<svg id="Layer_1" data-name="Layer 1" xmlns="http://www.w3.org/2000/svg" viewBox="0 0 24 24"><title>Perm Phone Msg copy</title><path d="M22,5V7a3,3,0,0,1-3,3H15.3l-2.75,1.83A1,1,0,0,1,11,11V5a3,3,0,0,1,3-3h5A3,3,0,0,1,22,5ZM2.62,2.71A15.09,15.09,0,0,0,2,7a15.61,15.61,0,0,0,.15,2.14,15,15,0,0,0,8.42,11.41A14.79,14.79,0,0,0,17,22a1,1,0,0,0,1-1V17.78a2,2,0,0,0-1.51-1.94L13.24,15a1,1,0,0,0-1,.26L9.78,17.81a12.94,12.94,0,0,1-5.21-7l0,0,4-3A1,1,0,0,0,9,7V4A2,2,0,0,0,7,2H3.58A1,1,0,0,0,2.62,2.71Z"/></svg>