<svg id="Layer_1" data-name="Layer 1" xmlns="http://www.w3.org/2000/svg" viewBox="0 0 24 24"><title>Perm Contact Calendar copy</title><path d="M3,22H21a1,1,0,0,0,1-1V5a1,1,0,0,0-1-1H19.5a.5.5,0,0,0-.5.5V6.88A2.07,2.07,0,0,1,17.34,9,2,2,0,0,1,15,7V4.5a.5.5,0,0,0-.5-.5h-5a.5.5,0,0,0-.5.5V6.88A2.07,2.07,0,0,1,7.34,9,2,2,0,0,1,5,7V4.5A.5.5,0,0,0,4.5,4H3A1,1,0,0,0,2,5V21A1,1,0,0,0,3,22ZM12,9a2,2,0,1,1-2,2A2,2,0,0,1,12,9Zm0,5a6.09,6.09,0,0,1,6,4.8,1,1,0,0,1-.2.83A1,1,0,0,1,17,20H7a1,1,0,0,1-.78-.37A1,1,0,0,1,6,18.8,6.09,6.09,0,0,1,12,14ZM7,2A1,1,0,0,1,8,3V7A1,1,0,0,1,6,7V3A1,1,0,0,1,7,2ZM17,2a1,1,0,0,1,1,1V7a1,1,0,0,1-2,0V3A1,1,0,0,1,17,2Z"/></svg>