<svg id="Layer_1" data-name="Layer 1" xmlns="http://www.w3.org/2000/svg" viewBox="0 0 24 24"><title>Record Voice Over copy</title><path d="M2,21v-.78a.92.92,0,0,1,0-.29,8.31,8.31,0,0,1,15.92,0,.92.92,0,0,1,0,.29V21a1,1,0,0,1-1,1H3A1,1,0,0,1,2,21ZM7,9a3,3,0,1,0,3-3A3,3,0,0,0,7,9ZM18.67,2.16a1,1,0,0,0-.29,1.39,10,10,0,0,1,0,10.9,1,1,0,0,0,1.68,1.1,12,12,0,0,0,0-13.1A1,1,0,0,0,18.67,2.16ZM15.15,13.82a1,1,0,0,0,.58.19,1,1,0,0,0,.81-.42A7.79,7.79,0,0,0,18,9a7.79,7.79,0,0,0-1.46-4.59,1,1,0,0,0-1.62,1.16,6,6,0,0,1,0,6.86A1,1,0,0,0,15.15,13.82Z"/></svg>