<svg id="Layer_1" data-name="Layer 1" xmlns="http://www.w3.org/2000/svg" viewBox="0 0 24 24"><title>Remove Shopping Cart copy</title><path d="M9.26,4H21a1,1,0,0,1,.79.38,1,1,0,0,1,.18.86l-2,8A1,1,0,0,1,19,14h-.74a.52.52,0,0,1-.32-.11l-.07-.07-9-9A.5.5,0,0,1,9.26,4ZM12,20.5A1.5,1.5,0,1,0,10.5,22,1.5,1.5,0,0,0,12,20.5Zm8.29,1.21L19,20.4s0,.07,0,.1A1.5,1.5,0,1,1,17.5,19h.1l-1-1H8a1,1,0,0,1-1-.79L4.63,6,2.29,3.71a.75.75,0,0,1-.07-.12.77.77,0,0,1-.14-.21,1,1,0,0,1,0-.76.77.77,0,0,1,.14-.21.75.75,0,0,1,.07-.12l.12-.07a.77.77,0,0,1,.21-.14A1,1,0,0,1,3,2h.23l.06.06a.92.92,0,0,1,.42.23l18,18a1,1,0,0,1,0,1.42,1,1,0,0,1-1.42,0ZM14.59,16l-2-2H8.38l.43,2Z"/></svg>