<svg id="Layer_1" data-name="Layer 1" xmlns="http://www.w3.org/2000/svg" viewBox="0 0 24 24"><title>Restore Page copy</title><path d="M12.17,2H7A3,3,0,0,0,4,5V19a3,3,0,0,0,3,3H17a3,3,0,0,0,3-3V9.83a3,3,0,0,0-.88-2.12L14.29,2.88A3,3,0,0,0,12.17,2ZM12,20a4,4,0,0,1-3-1.33,1,1,0,1,1,1.49-1.34A2,2,0,0,0,12,18a2,2,0,1,0-1.55-3.25l.4.4a.47.47,0,0,1,.11.54.5.5,0,0,1-.46.31h-2a.5.5,0,0,1-.5-.5v-2A.5.5,0,0,1,8.31,13a.47.47,0,0,1,.54.11l.19.18A4,4,0,1,1,12,20ZM17.92,9.38A1,1,0,0,1,17,10H13a1,1,0,0,1-1-1V5a1,1,0,0,1,.62-.92,1,1,0,0,1,1.09.21l4,4A1,1,0,0,1,17.92,9.38Z"/></svg>