<svg id="Layer_1" data-name="Layer 1" xmlns="http://www.w3.org/2000/svg" viewBox="0 0 24 24"><title>Rowing copy</title><path d="M12,9a2,2,0,0,1,4,0v5h5.5a.5.5,0,0,1,.42.78l-1.34,2a.49.49,0,0,1-.41.22h-.72a.51.51,0,0,1-.35-.14L17.74,15.5a.51.51,0,0,0-.36-.15h-1a.47.47,0,0,1-.36-.14l-.26-.27L14.82,14l-1.27-1.27L12,12.61l4,3.95h1.21a.47.47,0,0,1,.35.15L19.85,19a.5.5,0,0,1,0,.71l-2.11,2.11a.5.5,0,0,1-.71,0l-2.32-2.32a.47.47,0,0,1-.15-.35V18L9,12.39,7.9,12.31A1,1,0,0,1,7,11.24a1,1,0,0,1,.27-.59l-.54-.54a1,1,0,0,1,0-1.41h0a1,1,0,0,1,1.4,0l1.75,1.75,2.14.16Zm2-3a2,2,0,1,0-2-2A2,2,0,0,0,14,6ZM2.08,14.78l1.34,2a.49.49,0,0,0,.41.22H11a.5.5,0,0,0,.36-.85l-2-2A.49.49,0,0,0,9,14H2.5A.5.5,0,0,0,2.08,14.78Z"/></svg>