<svg id="Layer_1" data-name="Layer 1" xmlns="http://www.w3.org/2000/svg" viewBox="0 0 24 24"><title>Search Document copy</title><path d="M20,9.83a3,3,0,0,0-.88-2.12L14.29,2.88A3,3,0,0,0,12.17,2H7A3,3,0,0,0,4,5V19a3,3,0,0,0,3,3H17a3,3,0,0,0,3-3Zm-3.29,9.88a1,1,0,0,1-1.42,0l-2-2a1.4,1.4,0,0,1-.1-.16,3.54,3.54,0,1,1,1.36-1.36l.16.1,2,2A1,1,0,0,1,16.71,19.71ZM17.92,9.38A1,1,0,0,1,17,10H13a1,1,0,0,1-1-1V5a1,1,0,0,1,.62-.92,1,1,0,0,1,1.09.21l4,4A1,1,0,0,1,17.92,9.38ZM13,14.5A1.5,1.5,0,1,1,11.5,13,1.5,1.5,0,0,1,13,14.5Z"/></svg>