<svg id="Layer_1" data-name="Layer 1" xmlns="http://www.w3.org/2000/svg" viewBox="0 0 24 24"><title>Settings Overscan copy</title><path d="M3,20H21a1,1,0,0,0,1-1V5a1,1,0,0,0-1-1H3A1,1,0,0,0,2,5V19A1,1,0,0,0,3,20Zm14-9.5a.49.49,0,0,1,.36-.48.51.51,0,0,1,.56.2l1,1.5a.52.52,0,0,1,0,.56l-1,1.5a.52.52,0,0,1-.42.22l-.14,0A.49.49,0,0,1,17,13.5ZM10.22,8.08l1.5-1a.52.52,0,0,1,.56,0l1.5,1a.51.51,0,0,1,.2.56A.49.49,0,0,1,13.5,9h-3A.49.49,0,0,1,10,8.64.51.51,0,0,1,10.22,8.08ZM10.5,15h3a.49.49,0,0,1,.48.36.51.51,0,0,1-.2.56l-1.5,1a.53.53,0,0,1-.56,0l-1.5-1a.51.51,0,0,1-.2-.56A.49.49,0,0,1,10.5,15ZM5.08,11.72l1-1.5a.51.51,0,0,1,.56-.2A.49.49,0,0,1,7,10.5v3a.49.49,0,0,1-.36.48L6.5,14a.52.52,0,0,1-.42-.22l-1-1.5A.52.52,0,0,1,5.08,11.72Z"/></svg>