<svg id="Layer_1" data-name="Layer 1" xmlns="http://www.w3.org/2000/svg" viewBox="0 0 24 24"><title>Settings copy</title><path d="M14,12a2,2,0,1,1-2-2A2,2,0,0,1,14,12Zm8-7V19a3,3,0,0,1-3,3H5a3,3,0,0,1-3-3V5A3,3,0,0,1,5,2H19A3,3,0,0,1,22,5Zm-5.08,6.21.38-.3a1,1,0,0,0,.25-1.29l-.71-1.24A1,1,0,0,0,15.6,8l-.46.19a5.11,5.11,0,0,0-1.31-.78l-.08-.51a1,1,0,0,0-1-.85H11.24a1,1,0,0,0-1,.85l-.08.51a5.11,5.11,0,0,0-1.31.78L8.4,8a1,1,0,0,0-1.24.43L6.45,9.62a1,1,0,0,0,.25,1.29l.38.3A5.16,5.16,0,0,0,7,12a5.16,5.16,0,0,0,.08.79l-.38.3a1,1,0,0,0-.25,1.29l.71,1.24a1,1,0,0,0,.87.5,1,1,0,0,0,.37-.07l.46-.19a5.11,5.11,0,0,0,1.31.78l.08.51a1,1,0,0,0,1,.85h1.52a1,1,0,0,0,1-.85l.08-.51a5.11,5.11,0,0,0,1.31-.78l.46.19a1,1,0,0,0,.37.07,1,1,0,0,0,.87-.5l.71-1.24a1,1,0,0,0-.25-1.29l-.38-.3A5.16,5.16,0,0,0,17,12,5.16,5.16,0,0,0,16.92,11.21Z"/></svg>