<svg id="Layer_1" data-name="Layer 1" xmlns="http://www.w3.org/2000/svg" viewBox="0 0 24 24"><title>Settings Button copy</title><path d="M2.7,15.88,4,18.12a1,1,0,0,0,1.24.43L6.69,18,7,18.2a7.1,7.1,0,0,0,.91.64,7.67,7.67,0,0,0,1.41.67l.38,1.71a1,1,0,0,0,1,.78h2.74a1,1,0,0,0,1-.78l.38-1.7A7.68,7.68,0,0,0,17.33,18l1.45.59A1,1,0,0,0,20,18.12l1.28-2.24A1,1,0,0,0,21,14.59l-1.21-.94a8.09,8.09,0,0,0,0-3.3L21,9.41a1,1,0,0,0,.26-1.29L20,5.88a1,1,0,0,0-1.24-.43L17.33,6a7.68,7.68,0,0,0-2.6-1.56l-.38-1.7a1,1,0,0,0-1-.78H10.63a1,1,0,0,0-1,.78c0,.18-.07.36-.11.55l-.1.47c0,.09,0,.21-.06.33s0,.23-.06.34l-.22.07A9.4,9.4,0,0,0,8,5.07a8.83,8.83,0,0,0-1,.67L6.71,6l0,0-1.47-.6A1,1,0,0,0,4,5.88L2.7,8.12A1,1,0,0,0,3,9.41l1.21.94a8.09,8.09,0,0,0,0,3.3L3,14.59A1,1,0,0,0,2.7,15.88ZM12,8a4,4,0,1,1-4,4A4,4,0,0,1,12,8Zm-2,4a2,2,0,1,1,2,2A2,2,0,0,1,10,12Z"/></svg>