<svg id="Layer_1" data-name="Layer 1" xmlns="http://www.w3.org/2000/svg" viewBox="0 0 24 24"><title>Settings Phone copy</title><path d="M4.6,10.8l0,0a12.94,12.94,0,0,0,5.21,7l2.51-2.52a1,1,0,0,1,1-.26l3.25.81A2,2,0,0,1,18,17.78V21a1,1,0,0,1-1,1,14.79,14.79,0,0,1-6.43-1.45A15,15,0,0,1,2.15,9.14,15.61,15.61,0,0,1,2,7a15.09,15.09,0,0,1,.62-4.29,1,1,0,0,1,1-.71H7A2,2,0,0,1,9,4V7a1,1,0,0,1-.4.8Zm8.29-3.09.53-.41c0-.1,0-.2,0-.3s0-.2,0-.3l-.53-.41A1,1,0,0,1,12.64,5l.57-1a1,1,0,0,1,1.24-.42l.62.25a3.35,3.35,0,0,1,.52-.3l.1-.67a1,1,0,0,1,1-.86h1.14a1,1,0,0,1,1,.86l.1.67a3.35,3.35,0,0,1,.52.3l.62-.25A1,1,0,0,1,21.3,4l.57,1a1,1,0,0,1-.25,1.29l-.54.41c0,.1,0,.2,0,.3s0,.2,0,.3l.54.41A1,1,0,0,1,21.87,9l-.57,1a1,1,0,0,1-1.25.42l-.62-.25a3.35,3.35,0,0,1-.52.3l-.1.67a1,1,0,0,1-1,.86H16.68a1,1,0,0,1-1-.86l-.1-.67a3.35,3.35,0,0,1-.52-.3l-.62.25a1,1,0,0,1-.38.08,1,1,0,0,1-.86-.5l-.57-1A1,1,0,0,1,12.89,7.71ZM15.39,7a1.86,1.86,0,1,0,1.86-1.86A1.87,1.87,0,0,0,15.39,7Z"/></svg>