<svg id="Layer_1" data-name="Layer 1" xmlns="http://www.w3.org/2000/svg" viewBox="0 0 24 24"><title>Speaker Notes Off copy</title><path d="M22,5V16a1,1,0,0,1-.62.92A.84.84,0,0,1,21,17a1,1,0,0,1-.71-.29l-8-8A1,1,0,0,0,13,9h4a1,1,0,0,0,0-2H13a1,1,0,0,0-1,1,1,1,0,0,0,.29.71l-5-5a1,1,0,0,1-.21-1.09A1,1,0,0,1,8,2H19A3,3,0,0,1,22,5ZM2,15V5a3,3,0,0,1,.3-1.29h0A1,1,0,0,1,3.71,2.29l.58.59h0l.16.16L21.71,20.29a1,1,0,0,1,0,1.42,1,1,0,0,1-1.42,0L16.59,18H12.35L7.62,21.78A1,1,0,0,1,7,22a.94.94,0,0,1-.43-.1A1,1,0,0,1,6,21V18H5A3,3,0,0,1,2,15Zm6-3a1,1,0,1,0-1,1A1,1,0,0,0,8,12Zm3.59,1L9.66,11.07A1,1,0,0,0,10,13ZM6.13,7.54A.91.91,0,0,0,6,8,1,1,0,0,0,7,9a.91.91,0,0,0,.46-.13Z"/></svg>