<svg id="Layer_1" data-name="Layer 1" xmlns="http://www.w3.org/2000/svg" viewBox="0 0 24 24"><title>Tab Unselected copy</title><path d="M12.23,5a1,1,0,0,1-1,1H8.35a1,1,0,0,1,0-2h2.88A1,1,0,0,1,12.23,5ZM8.39,19a1,1,0,0,0,1,1h2.88a1,1,0,0,0,0-2H9.39A1,1,0,0,0,8.39,19ZM4.08,17.39a1,1,0,1,0-1.84.79A3,3,0,0,0,5,20h.55a1,1,0,1,0,0-2H5A1,1,0,0,1,4.08,17.39ZM2,14a1,1,0,0,0,2,0V11.08a1,1,0,0,0-2,0ZM4.27,4.09A3,3,0,0,0,2,7v.23a1,1,0,0,0,2,0V7a1,1,0,0,1,.75-1,1,1,0,0,0-.48-1.94ZM19,20a1,1,0,0,0,1-1,1,1,0,0,0-1-1H16.12a1,1,0,0,0,0,2Zm2-7.61a1,1,0,0,0-1,1v2.88a1,1,0,0,0,2,0V13.39A1,1,0,0,0,21,12.39ZM19,4H17a3,3,0,0,0,0,6h2a3,3,0,0,0,0-6Z"/></svg>