<svg id="Layer_1" data-name="Layer 1" xmlns="http://www.w3.org/2000/svg" viewBox="0 0 24 24"><title>User Group Add copy</title><path d="M18,19.93a.92.92,0,0,1,0,.29V21a1,1,0,0,1-1,1H3a1,1,0,0,1-1-1v-.78a.92.92,0,0,1,0-.29,8.31,8.31,0,0,1,15.92,0ZM10,6a3,3,0,1,0,3,3A3,3,0,0,0,10,6ZM21.86,17.62c0-.05,0-.09,0-.14-.08-.22-.17-.44-.27-.65s-.2-.42-.32-.62a5.8,5.8,0,0,0-.36-.59c-.13-.19-.27-.37-.41-.55s-.29-.35-.45-.52-.32-.32-.49-.47L19,13.65l-.56-.38c-.19-.12-.39-.23-.59-.34l-.61-.29-.65-.23c-.21-.07-.44-.14-.66-.19l-.68-.13-.35,0a1.2,1.2,0,0,0-.42,0,.51.51,0,0,0-.39.49.51.51,0,0,0,.22.42l.09,0c.24.11.47.23.7.36a11.35,11.35,0,0,1,1,.64,10,10,0,0,1,.93.77q.22.21.42.42l.18.19a11.44,11.44,0,0,1,.75.94,11,11,0,0,1,.65,1,11.45,11.45,0,0,1,.53,1.12c.08.19.15.39.21.58s.07.2.1.3a1.6,1.6,0,0,1,.05.21.65.65,0,0,0,0,.2.48.48,0,0,0,.44.27H21a1,1,0,0,0,1-1v-.62l-.09-.62A.58.58,0,0,0,21.86,17.62ZM15.5,9.5a.38.38,0,0,0,.21-.05,1.12,1.12,0,0,0,.22-.16,3.56,3.56,0,0,0,.42-.45,2.84,2.84,0,0,0,.56-1.11,3.06,3.06,0,0,0,0-1.38,3,3,0,0,0-3.77-2.23A.51.51,0,0,0,13,5a5,5,0,0,1,2,4A.5.5,0,0,0,15.5,9.5ZM5,2A1,1,0,0,0,4,3V4H3A1,1,0,0,0,3,6H4V7A1,1,0,0,0,6,7V6H7A1,1,0,0,0,7,4H6V3A1,1,0,0,0,5,2Z"/></svg>