<svg id="Layer_1" data-name="Layer 1" xmlns="http://www.w3.org/2000/svg" viewBox="0 0 24 24"><title>View Module copy</title><path d="M14,13.5v7a.5.5,0,0,1-.5.5h-3a.5.5,0,0,1-.5-.5v-7a.5.5,0,0,1,.5-.5h3A.5.5,0,0,1,14,13.5ZM19,3H16.5a.5.5,0,0,0-.5.5v7a.5.5,0,0,0,.5.5h5a.51.51,0,0,0,.5-.5V6A3,3,0,0,0,19,3Zm-5,.5a.5.5,0,0,0-.5-.5h-3a.5.5,0,0,0-.5.5v7a.5.5,0,0,0,.5.5h3a.5.5,0,0,0,.5-.5ZM21.5,13h-5a.5.5,0,0,0-.5.5v7a.5.5,0,0,0,.5.5H19a3,3,0,0,0,3-3V13.5A.5.5,0,0,0,21.5,13ZM5,21H7.5a.5.5,0,0,0,.5-.5v-7a.5.5,0,0,0-.5-.5h-5a.5.5,0,0,0-.5.5V18A3,3,0,0,0,5,21ZM2.5,11h5a.5.5,0,0,0,.5-.5v-7A.5.5,0,0,0,7.5,3H5A3,3,0,0,0,2,6v4.5A.5.5,0,0,0,2.5,11Z"/></svg>