<svg id="Layer_1" data-name="Layer 1" xmlns="http://www.w3.org/2000/svg" viewBox="0 0 24 24"><title>View Week copy</title><path d="M10,7.51v-5A.49.49,0,0,1,10.49,2h3a.49.49,0,0,1,.49.49v5a.49.49,0,0,1-.49.49h-3A.49.49,0,0,1,10,7.51ZM19,2H16.49a.49.49,0,0,0-.49.49v5a.49.49,0,0,0,.49.49h5A.49.49,0,0,0,22,7.51V5A3,3,0,0,0,19,2ZM10,21.51a.49.49,0,0,0,.49.49h3a.49.49,0,0,0,.49-.49v-11a.49.49,0,0,0-.49-.49h-3a.49.49,0,0,0-.49.49ZM2.49,8h5A.49.49,0,0,0,8,7.51v-5A.49.49,0,0,0,7.51,2H5A3,3,0,0,0,2,5V7.51A.49.49,0,0,0,2.49,8Zm19,2h-5a.49.49,0,0,0-.49.49v11a.49.49,0,0,0,.49.49H19a3,3,0,0,0,3-3V10.49A.49.49,0,0,0,21.51,10ZM2,19a3,3,0,0,0,3,3H7.51A.49.49,0,0,0,8,21.51v-11A.49.49,0,0,0,7.51,10h-5a.49.49,0,0,0-.49.49Z"/></svg>