<svg id="Layer_1" data-name="Layer 1" xmlns="http://www.w3.org/2000/svg" viewBox="0 0 24 24"><title>View Day copy</title><path d="M2,15.5v-2a.51.51,0,0,1,.5-.5h3a.51.51,0,0,1,.5.5v2a.51.51,0,0,1-.5.5h-3A.51.51,0,0,1,2,15.5ZM21.5,13H8.5a.51.51,0,0,0-.5.5v2a.51.51,0,0,0,.5.5h13a.51.51,0,0,0,.5-.5v-2A.51.51,0,0,0,21.5,13Zm-19-2h3a.51.51,0,0,0,.5-.5v-2A.51.51,0,0,0,5.5,8h-3a.51.51,0,0,0-.5.5v2A.51.51,0,0,0,2.5,11Zm19-3H8.5a.51.51,0,0,0-.5.5v2a.51.51,0,0,0,.5.5h13a.51.51,0,0,0,.5-.5v-2A.51.51,0,0,0,21.5,8ZM5.5,18h-3a.52.52,0,0,0-.39.6A3,3,0,0,0,5,21h.5a.51.51,0,0,0,.5-.5v-2A.51.51,0,0,0,5.5,18Zm3-15a.51.51,0,0,0-.5.5v2a.51.51,0,0,0,.5.5H21.44a.51.51,0,0,0,.5-.61A3,3,0,0,0,19,3Zm0,18H19a3,3,0,0,0,2.94-2.39.51.51,0,0,0-.5-.61H8.5a.51.51,0,0,0-.5.5v2A.51.51,0,0,0,8.5,21ZM2.06,5.39a.52.52,0,0,0,.39.6H5.5A.51.51,0,0,0,6,5.5v-2A.51.51,0,0,0,5.5,3H5A3,3,0,0,0,2.06,5.39Z"/></svg>