<svg id="Layer_1" data-name="Layer 1" xmlns="http://www.w3.org/2000/svg" viewBox="0 0 24 24"><title>Visibility Off copy</title><path d="M21.92,11.61a1,1,0,0,1,0,.78,11.27,11.27,0,0,1-1.79,2.87.5.5,0,0,1-.73,0L16.12,12a.47.47,0,0,1-.14-.31A4,4,0,0,0,12.32,8,.52.52,0,0,1,12,7.88L10.11,6a.51.51,0,0,1,.29-.86A10.57,10.57,0,0,1,12,5,10.8,10.8,0,0,1,21.92,11.61Zm-.21,8.68a1,1,0,0,1,0,1.42,1,1,0,0,1-1.42,0L16.55,18A10.61,10.61,0,0,1,12,19a10.8,10.8,0,0,1-9.92-6.61,1,1,0,0,1,0-.78A11,11,0,0,1,5.67,7.08L2.29,3.71A1,1,0,0,1,3.71,2.29ZM14,15.44,12.5,13.92a1.95,1.95,0,0,1-2.42-2.42L8.56,10A3.92,3.92,0,0,0,8,12a4,4,0,0,0,4,4A3.92,3.92,0,0,0,14,15.44Z"/></svg>