<svg id="Layer_1" data-name="Layer 1" xmlns="http://www.w3.org/2000/svg" viewBox="0 0 24 24"><title>Voice Over Off copy</title><path d="M10.11,6A3,3,0,0,1,13,8.89Zm8.56-3.85a1,1,0,0,0-.29,1.39,9.95,9.95,0,0,1,.06,10.79l1.42,1.42a.67.67,0,0,0,.2-.21,12,12,0,0,0,0-13.1A1,1,0,0,0,18.67,2.16ZM17,12.89A7.78,7.78,0,0,0,18,9a7.79,7.79,0,0,0-1.46-4.59,1,1,0,0,0-1.62,1.16,6,6,0,0,1,.58,5.83ZM3.71,2.29A1,1,0,0,0,2.29,3.71L7.06,8.47A3.19,3.19,0,0,0,7,9a3,3,0,0,0,3,3,3.07,3.07,0,0,0,.53-.06l2.75,2.75A8.41,8.41,0,0,0,10,14a8.25,8.25,0,0,0-8,5.93.92.92,0,0,0,0,.29V21a1,1,0,0,0,1,1H17a1,1,0,0,0,1-1v-.78a.92.92,0,0,0,0-.29,9,9,0,0,0-.35-.91l2.68,2.69a1,1,0,0,0,1.42,0,1,1,0,0,0,0-1.42Z"/></svg>