<svg id="Layer_1" data-name="Layer 1" xmlns="http://www.w3.org/2000/svg" viewBox="0 0 24 24"><title>Watch Later copy</title><path d="M21.45,11.11l-18-9A1,1,0,0,0,2,3V21a1,1,0,0,0,.47.85A1,1,0,0,0,3,22a1,1,0,0,0,.45-.11l3.63-1.81A4.94,4.94,0,0,0,11,22a5,5,0,0,0,5-5,4.74,4.74,0,0,0-.18-1.3l5.63-2.81A1,1,0,0,0,22,12,1,1,0,0,0,21.45,11.11ZM11,20a3,3,0,0,1-2.67-1.65h0A2.87,2.87,0,0,1,8,17a3,3,0,0,1,3-3,3,3,0,0,1,2.67,1.65h0A2.87,2.87,0,0,1,14,17,3,3,0,0,1,11,20Zm1.35-2.35a.48.48,0,0,1,0,.7.48.48,0,0,1-.7,0l-1-1A.47.47,0,0,1,10.5,17V16a.5.5,0,0,1,1,0v.79Z"/></svg>