<svg id="Layer_1" data-name="Layer 1" xmlns="http://www.w3.org/2000/svg" viewBox="0 0 24 24"><title>Waves copy</title><path d="M22,20.83A1,1,0,0,1,21.15,22a2.34,2.34,0,0,1-.38,0A2.48,2.48,0,0,1,19,21.27l-.23-.22a1.11,1.11,0,0,0-1.58,0,3.13,3.13,0,0,1-4.42,0,1.11,1.11,0,0,0-1.58,0,3.13,3.13,0,0,1-4.42,0,1.11,1.11,0,0,0-1.58,0L5,21.27a2.49,2.49,0,0,1-2.13.7A1,1,0,0,1,2,20.83,1,1,0,0,1,3.15,20a.45.45,0,0,0,.42-.13l.22-.23a3.14,3.14,0,0,1,4.42,0,1.11,1.11,0,0,0,1.58,0,3.14,3.14,0,0,1,4.42,0,1.11,1.11,0,0,0,1.58,0,3.14,3.14,0,0,1,4.42,0l.22.23a.45.45,0,0,0,.42.13A1,1,0,0,1,22,20.83ZM20.85,16a.45.45,0,0,1-.42-.13l-.22-.23a3.14,3.14,0,0,0-4.42,0,1.11,1.11,0,0,1-1.58,0,3.14,3.14,0,0,0-4.42,0,1.11,1.11,0,0,1-1.58,0,3.14,3.14,0,0,0-4.42,0l-.22.23a.45.45,0,0,1-.42.13A1,1,0,0,0,2,16.83,1,1,0,0,0,2.85,18,2.49,2.49,0,0,0,5,17.27l.23-.22a1.11,1.11,0,0,1,1.58,0,3.13,3.13,0,0,0,4.42,0,1.11,1.11,0,0,1,1.58,0,3.13,3.13,0,0,0,4.42,0,1.11,1.11,0,0,1,1.58,0l.23.22a2.48,2.48,0,0,0,1.75.73,2.34,2.34,0,0,0,.38,0A1,1,0,0,0,22,16.83,1,1,0,0,0,20.85,16Zm0-4a.45.45,0,0,1-.42-.13l-.22-.23a3.14,3.14,0,0,0-4.42,0,1.11,1.11,0,0,1-1.58,0,3.14,3.14,0,0,0-4.42,0,1.11,1.11,0,0,1-1.58,0,3.14,3.14,0,0,0-4.42,0l-.22.23a.45.45,0,0,1-.42.13A1,1,0,0,0,2,12.83,1,1,0,0,0,2.85,14,2.49,2.49,0,0,0,5,13.27l.23-.22a1.11,1.11,0,0,1,1.58,0,3.13,3.13,0,0,0,4.42,0,1.11,1.11,0,0,1,1.58,0,3.13,3.13,0,0,0,4.42,0,1.11,1.11,0,0,1,1.58,0l.23.22a2.48,2.48,0,0,0,1.75.73,2.34,2.34,0,0,0,.38,0A1,1,0,0,0,22,12.83,1,1,0,0,0,20.85,12Zm0-4.72a.48.48,0,0,1-.42-.13l-.22-.23a3.14,3.14,0,0,0-4.42,0,1.13,1.13,0,0,1-1.58,0,3.14,3.14,0,0,0-4.42,0,1.13,1.13,0,0,1-1.58,0,3.14,3.14,0,0,0-4.42,0l-.22.23a.48.48,0,0,1-.42.13,1,1,0,0,0-.3,2A2.49,2.49,0,0,0,5,8.55l.23-.22a1.11,1.11,0,0,1,1.58,0,3.2,3.2,0,0,0,4.42,0,1.11,1.11,0,0,1,1.58,0,3.2,3.2,0,0,0,4.42,0,1.11,1.11,0,0,1,1.58,0l.23.22a2.48,2.48,0,0,0,1.75.73,2.34,2.34,0,0,0,.38,0,1,1,0,0,0-.3-2Zm0-4a.51.51,0,0,1-.42-.13l-.22-.23a3.14,3.14,0,0,0-4.42,0,1.13,1.13,0,0,1-1.58,0,3.14,3.14,0,0,0-4.42,0,1.13,1.13,0,0,1-1.58,0,3.14,3.14,0,0,0-4.42,0l-.22.23a.51.51,0,0,1-.42.13,1,1,0,1,0-.3,2A2.49,2.49,0,0,0,5,4.55l.23-.22a1.11,1.11,0,0,1,1.58,0,3.2,3.2,0,0,0,4.42,0,1.11,1.11,0,0,1,1.58,0,3.2,3.2,0,0,0,4.42,0,1.11,1.11,0,0,1,1.58,0l.23.22a2.48,2.48,0,0,0,1.75.73,2.34,2.34,0,0,0,.38,0,1,1,0,0,0-.3-2Z"/></svg>