<svg id="Layer_1" data-name="Layer 1" xmlns="http://www.w3.org/2000/svg" viewBox="0 0 24 24"><title>3D_Rotation</title><path d="M2,12a1,1,0,0,1,2,0,8,8,0,0,0,12.73,6.44l-.58-.59a.47.47,0,0,1-.11-.54A.5.5,0,0,1,16.5,17h3a.5.5,0,0,1,.5.5v3a.5.5,0,0,1-.31.46.43.43,0,0,1-.19,0,.47.47,0,0,1-.35-.15l-1-1A10,10,0,0,1,2,12ZM4.5,7h3A.5.5,0,0,0,8,6.69a.47.47,0,0,0-.11-.54l-.58-.59A8,8,0,0,1,20,12a1,1,0,0,0,2,0A10,10,0,0,0,5.84,4.14l-1-1A.47.47,0,0,0,4.31,3,.5.5,0,0,0,4,3.5v3A.5.5,0,0,0,4.5,7ZM7,14a1,1,0,0,0,0,2h3a1,1,0,0,0,1-1V9a1,1,0,0,0-1-1H7a1,1,0,0,0,0,2H9v1H7a1,1,0,0,0,0,2H9v1Zm11-2a4,4,0,0,1-4,4H13a1,1,0,0,1-1-1V9a1,1,0,0,1,1-1h1A4,4,0,0,1,18,12Zm-2,0a2,2,0,0,0-2-2v4A2,2,0,0,0,16,12Z"/></svg>