<svg id="Layer_1" data-name="Layer 1" xmlns="http://www.w3.org/2000/svg" viewBox="0 0 24 24"><title>Accessible Forward</title><path d="M15,4a2,2,0,1,1,2,2A2,2,0,0,1,15,4ZM8.34,21.72a5.1,5.1,0,0,0,2.91.12,1,1,0,0,0,.48-1.69,1,1,0,0,0-.94-.26,2.6,2.6,0,0,1-.74.11A3,3,0,0,1,7,17a2.73,2.73,0,0,1,.11-.81,1,1,0,0,0-.26-.94,1,1,0,0,0-1.69.48,5.08,5.08,0,0,0,.11,2.88A4.89,4.89,0,0,0,8.34,21.72ZM9.41,8l1.81-1.83,1.94,1L10.4,10.8A2,2,0,0,0,10,12h0a5.26,5.26,0,0,0-1.27.16,1,1,0,0,0-.46,1.69,1,1,0,0,0,.93.26A3,3,0,0,1,10,14a2.87,2.87,0,0,1,1,.18A3,3,0,0,1,12.81,16,2.67,2.67,0,0,1,13,17a3,3,0,0,1-.11.8,1,1,0,0,0,.26.93,1,1,0,0,0,1.69-.46A5.26,5.26,0,0,0,15,17a4.71,4.71,0,0,0-.1-1,5.31,5.31,0,0,0-.26-.86A4.91,4.91,0,0,0,14,14h2v5a1,1,0,0,0,2,0V13a1,1,0,0,0-1-1H14.5l2.1-2.8a2,2,0,0,0-.4-2.8L16,6.27h0l0,0-.15-.08L11.48,4a1,1,0,0,0-1.16.2L8,6.59A1,1,0,0,0,9.41,8Z"/></svg>