<svg id="Layer_1" data-name="Layer 1" xmlns="http://www.w3.org/2000/svg" viewBox="0 0 24 24"><title>Accessibility Settings</title><path d="M10,7a2,2,0,1,1,2,2A2,2,0,0,1,10,7Zm7,3.07a1,1,0,0,0-1.21-.53,12.92,12.92,0,0,1-3.76.58,13.36,13.36,0,0,1-3.78-.6,1,1,0,0,0-.59,1.91A16.36,16.36,0,0,0,10,12v1.91l-.73,2.91a1,1,0,0,0,1.94.48L11.78,15h.44l.57,2.27a1,1,0,0,0,1.94-.48L14,13.88V12a13.3,13.3,0,0,0,2.39-.55A1,1,0,0,0,17,10.07ZM22,12A10,10,0,1,1,12,2,10,10,0,0,1,22,12Zm-2,0a8,8,0,1,0-8,8A8,8,0,0,0,20,12Z"/></svg>