<svg id="Layer_1" data-name="Layer 1" xmlns="http://www.w3.org/2000/svg" viewBox="0 0 24 24"><title>Account Box</title><path d="M5,22H19a3,3,0,0,0,3-3V5a3,3,0,0,0-3-3H5A3,3,0,0,0,2,5V19A3,3,0,0,0,5,22ZM4,5A1,1,0,0,1,5,4H19a1,1,0,0,1,1,1V19a1,1,0,0,1-1,1H5a1,1,0,0,1-1-1Zm8,6A3,3,0,1,0,9,8,3,3,0,0,0,12,11Zm0-4a1,1,0,1,1-1,1A1,1,0,0,1,12,7ZM6,19H18a1,1,0,0,0,1-1V17a1,1,0,0,0-.06-.35A7.35,7.35,0,0,0,12,12a7.35,7.35,0,0,0-6.94,4.65A1,1,0,0,0,5,17v1A1,1,0,0,0,6,19Zm6-5a5.38,5.38,0,0,1,4.92,3H7.08A5.38,5.38,0,0,1,12,14Z"/></svg>