<svg id="Layer_1" data-name="Layer 1" xmlns="http://www.w3.org/2000/svg" viewBox="0 0 24 24"><title>Alarm Add</title><path d="M15,12a1,1,0,0,1-1,1H13v1a1,1,0,0,1-2,0V13H10a1,1,0,0,1,0-2h1V10a1,1,0,0,1,2,0v1h1A1,1,0,0,1,15,12Zm3.05,6.64,1.66,1.65a1,1,0,0,1,0,1.42,1,1,0,0,1-1.42,0l-1.87-1.88a8.93,8.93,0,0,1-8.84,0L5.71,21.71a1,1,0,0,1-1.42,0,1,1,0,0,1,0-1.42L6,18.64a9,9,0,1,1,12.1,0ZM12,19a7,7,0,1,0-7-7A7,7,0,0,0,12,19ZM2.7,6.9A.79.79,0,0,0,3,7a1,1,0,0,0,.83-.44A10,10,0,0,1,6.51,3.83,1,1,0,0,0,5.93,2,4,4,0,0,0,2,5.93,1,1,0,0,0,2.7,6.9Zm19.3-1A4,4,0,0,0,18.09,2H18a1,1,0,0,0-1,1h0s0,.07,0,.11h0a1,1,0,0,0,.38.69l.07,0A9.62,9.62,0,0,1,20.16,6.5l.11.13h0a1,1,0,0,0,1.1.24A1,1,0,0,0,22,5.93Z"/></svg>