<svg id="Layer_1" data-name="Layer 1" xmlns="http://www.w3.org/2000/svg" viewBox="0 0 24 24"><title>Alarm On</title><path d="M12,3A9,9,0,0,0,6,18.64L4.29,20.29a1,1,0,0,0,0,1.42,1,1,0,0,0,1.42,0l1.87-1.88a8.93,8.93,0,0,0,8.84,0l1.87,1.88a1,1,0,0,0,1.42,0,1,1,0,0,0,0-1.42l-1.66-1.65A9,9,0,0,0,12,3Zm0,16a7,7,0,1,1,7-7A7,7,0,0,1,12,19ZM2,5.93A4,4,0,0,1,5.93,2a1,1,0,0,1,.58,1.83A10,10,0,0,0,3.83,6.51,1,1,0,0,1,3,7a.79.79,0,0,1-.3,0A1,1,0,0,1,2,5.93Zm20,0a1,1,0,0,1-.62,1,1,1,0,0,1-1.1-.24h0l-.11-.13A9.62,9.62,0,0,0,17.5,3.84l-.07,0a1,1,0,0,1-.38-.69h0S17,3,17,3h0a1,1,0,0,1,1-1h.07A4,4,0,0,1,22,5.93ZM15.71,9.29a1,1,0,0,1,0,1.42l-4,4a1,1,0,0,1-1.42,0l-2-2a1,1,0,0,1,1.42-1.42L11,12.59l3.29-3.3A1,1,0,0,1,15.71,9.29Z"/></svg>