<svg id="Layer_1" data-name="Layer 1" xmlns="http://www.w3.org/2000/svg" viewBox="0 0 24 24"><title>Alarm Off</title><path d="M12,3a9,9,0,0,1,8.09,12.93l-1.52-1.52A6.87,6.87,0,0,0,19,12a7,7,0,0,0-7-7,6.87,6.87,0,0,0-2.41.43L8.07,3.91A8.94,8.94,0,0,1,12,3Zm5.39.79.07,0A9.56,9.56,0,0,1,20.14,6.5l.11.13h0A1,1,0,0,0,21,7a1,1,0,0,0,.38-.07,1,1,0,0,0,.63-1A4,4,0,0,0,18.05,2H18a1,1,0,0,0-1,1h0V3.1h0A1,1,0,0,0,17.39,3.79Zm4.32,16.5a1,1,0,0,1,0,1.42,1,1,0,0,1-1.42,0L17.61,19a9,9,0,0,1-10,.8L5.71,21.71a1,1,0,0,1-1.42,0,1,1,0,0,1,0-1.42L6,18.64A9,9,0,0,1,5,6.39L4.39,5.8c-.19.23-.39.46-.56.71A1,1,0,0,1,3,7a.79.79,0,0,1-.3,0,1,1,0,0,1-.7-1,4,4,0,0,1,.55-2l-.26-.26A1,1,0,0,1,3.71,2.29ZM16.18,17.6,6.4,7.82a7,7,0,0,0,9.78,9.78Z"/></svg>