<svg id="Layer_1" data-name="Layer 1" xmlns="http://www.w3.org/2000/svg" viewBox="0 0 24 24"><title>All Out</title><path d="M22,2.5v3a.5.5,0,0,1-.31.46.43.43,0,0,1-.19,0,.47.47,0,0,1-.35-.15l-.8-.79L15.71,9.71a1,1,0,0,1-1.42,0,1,1,0,0,1,0-1.42l4.65-4.64-.79-.8A.47.47,0,0,1,18,2.31.5.5,0,0,1,18.5,2h3A.5.5,0,0,1,22,2.5ZM2.5,22h3A.5.5,0,0,0,6,21.69a.47.47,0,0,0-.11-.54l-.79-.8,4.65-4.64a1,1,0,0,0-1.42-1.42L3.65,18.94l-.8-.79A.47.47,0,0,0,2.31,18,.5.5,0,0,0,2,18.5v3A.5.5,0,0,0,2.5,22Zm19.19-4a.48.48,0,0,0-.54.11l-.8.79-4.64-4.65a1,1,0,0,0-1.42,1.42l4.65,4.64-.79.8a.47.47,0,0,0-.11.54.5.5,0,0,0,.46.31h3a.5.5,0,0,0,.5-.5v-3A.5.5,0,0,0,21.69,18ZM2.31,6A.43.43,0,0,0,2.5,6a.47.47,0,0,0,.35-.15l.8-.79L8.29,9.71a1,1,0,0,0,1.42,0,1,1,0,0,0,0-1.42L5.06,3.65l.79-.8A.47.47,0,0,0,6,2.31.5.5,0,0,0,5.5,2h-3a.5.5,0,0,0-.5.5v3A.5.5,0,0,0,2.31,6ZM5.76,8.71a1,1,0,0,0-1.29.59,8,8,0,0,0,0,5.4,1,1,0,0,0,.94.65,1.07,1.07,0,0,0,.35-.06A1,1,0,0,0,6.35,14a5.89,5.89,0,0,1,0-4A1,1,0,0,0,5.76,8.71Zm12.48,6.58a1.07,1.07,0,0,0,.35.06,1,1,0,0,0,.94-.65,8,8,0,0,0,0-5.4,1,1,0,0,0-1.88.7,5.89,5.89,0,0,1,0,4A1,1,0,0,0,18.24,15.29ZM14,17.65a6,6,0,0,1-4,0,1,1,0,1,0-.7,1.88,8,8,0,0,0,5.4,0,1,1,0,0,0-.7-1.88Zm.35-11.24a1,1,0,0,0,.35-1.94,8.07,8.07,0,0,0-5.4,0A1,1,0,0,0,10,6.35a6,6,0,0,1,4,0A1.07,1.07,0,0,0,14.35,6.41Z"/></svg>