<svg id="Layer_1" data-name="Layer 1" xmlns="http://www.w3.org/2000/svg" viewBox="0 0 24 24"><title>Android</title><path d="M8,10A1,1,0,0,1,9,9h6a1,1,0,0,1,1,1v6a1,1,0,0,1-1,1v4a1,1,0,0,1-2,0V17H11v4a1,1,0,0,1-2,0V17a1,1,0,0,1-1-1ZM7,15V10a1,1,0,0,0-2,0v5a1,1,0,0,0,2,0Zm12,0V10a1,1,0,0,0-2,0v5a1,1,0,0,0,2,0ZM9.33,4,8.15,2.85a.49.49,0,0,1,.7-.7l1.32,1.31a3.87,3.87,0,0,1,3.66,0l1.32-1.31a.49.49,0,0,1,.7.7L14.67,4A4,4,0,0,1,16,7a1,1,0,0,1-1,1H9A1,1,0,0,1,8,7,4,4,0,0,1,9.33,4ZM13,5.5a.5.5,0,1,0,.5-.5A.5.5,0,0,0,13,5.5ZM10.5,5a.5.5,0,1,0,.5.5A.5.5,0,0,0,10.5,5Z"/></svg>