<svg id="Layer_1" data-name="Layer 1" xmlns="http://www.w3.org/2000/svg" viewBox="0 0 24 24"><title>Assignment Return</title><path d="M21,19V7a3,3,0,0,0-3-3H16V3a1,1,0,0,0-1-1H9A1,1,0,0,0,8,3V4H6A3,3,0,0,0,3,7V19a3,3,0,0,0,3,3H18A3,3,0,0,0,21,19ZM10,4h4V6H10Zm9,15a1,1,0,0,1-1,1H6a1,1,0,0,1-1-1V7A1,1,0,0,1,6,6H8V7A1,1,0,0,0,9,8h6a1,1,0,0,0,1-1V6h2a1,1,0,0,1,1,1Zm-4-5a1,1,0,0,1-1,1H12v1.5a.5.5,0,0,1-.33.47.5.5,0,0,1-.56-.16l-2-2.5a.48.48,0,0,1,0-.62l2-2.5a.5.5,0,0,1,.89.31V13h2A1,1,0,0,1,15,14Z"/></svg>