<svg id="Layer_1" data-name="Layer 1" xmlns="http://www.w3.org/2000/svg" viewBox="0 0 24 24"><title>Assignment</title><path d="M3,19a3,3,0,0,0,3,3H18a3,3,0,0,0,3-3V7a3,3,0,0,0-3-3H16V3a1,1,0,0,0-1-1H9A1,1,0,0,0,8,3V4H6A3,3,0,0,0,3,7ZM10,4h4V6H10ZM5,7A1,1,0,0,1,6,6H8V7A1,1,0,0,0,9,8h6a1,1,0,0,0,1-1V6h2a1,1,0,0,1,1,1V19a1,1,0,0,1-1,1H6a1,1,0,0,1-1-1ZM8.2,17.8A.62.62,0,0,1,8,17.23l.24-1.53a.66.66,0,0,1,.19-.37l3.24-3.24a.48.48,0,0,1,.7,0l1.53,1.52a.51.51,0,0,1,0,.71l-3.24,3.24a.73.73,0,0,1-.37.19L8.77,18h-.1A.63.63,0,0,1,8.2,17.8Zm4.89-6.42a.51.51,0,0,1,0-.7l.19-.18A1.66,1.66,0,0,1,14.65,10a1.34,1.34,0,0,1,.63.23l.12.09a1.28,1.28,0,0,1,.26.26.44.44,0,0,1,.08.11,1.4,1.4,0,0,1,.15.3,1.64,1.64,0,0,1,.1.38,1.69,1.69,0,0,1,0,.5,1.36,1.36,0,0,1-.26.59,1.71,1.71,0,0,1-.21.26l-.18.18a.5.5,0,0,1-.7,0Z"/></svg>