<svg id="Layer_1" data-name="Layer 1" xmlns="http://www.w3.org/2000/svg" viewBox="0 0 24 24"><title>Birthday</title><path d="M5,21H19a3,3,0,0,0,3-3V12a3,3,0,0,0-3-3H18V8a1,1,0,0,0-2,0V9H13V8a1,1,0,0,0-2,0V9H8V8A1,1,0,0,0,6,8V9H5a3,3,0,0,0-3,3v6A3,3,0,0,0,5,21Zm14-2H5a1,1,0,0,1-1-1V15.68a5,5,0,0,0,5-.6,5.28,5.28,0,0,0,5.94,0,5,5,0,0,0,5,.6V18A1,1,0,0,1,19,19ZM5,11H19a1,1,0,0,1,1,1v1.32a3.07,3.07,0,0,1-4.12-.1l-.17-.17a1,1,0,0,0-1.42,0,3.25,3.25,0,0,1-4.58,0,1,1,0,0,0-1.42,0l-.17.17a3.07,3.07,0,0,1-4.12.1V12A1,1,0,0,1,5,11ZM16,5a6.87,6.87,0,0,1,.54-1.69.52.52,0,0,1,.92,0A6.87,6.87,0,0,1,18,5a1,1,0,0,1-2,0ZM12.46,3.31A6.87,6.87,0,0,1,13,5a1,1,0,0,1-2,0,6.87,6.87,0,0,1,.54-1.69A.52.52,0,0,1,12.46,3.31Zm-5,0A6.87,6.87,0,0,1,8,5,1,1,0,0,1,6,5a6.87,6.87,0,0,1,.54-1.69A.52.52,0,0,1,7.46,3.31Z"/></svg>