<svg id="Layer_1" data-name="Layer 1" xmlns="http://www.w3.org/2000/svg" viewBox="0 0 24 24"><title>Bug</title><path d="M4,13a1,1,0,0,0,0,2H6v1a5.92,5.92,0,0,0,.17,1.41L4.29,19.29a1,1,0,0,0,0,1.42,1,1,0,0,0,1.42,0L7,19.37a6,6,0,0,0,9.92,0l1.33,1.34a1,1,0,0,0,1.42,0,1,1,0,0,0,0-1.42l-1.88-1.88A5.92,5.92,0,0,0,18,16V15h2a1,1,0,0,0,0-2H18V10.54l2.55-1.71a1,1,0,1,0-1.1-1.66L17.75,8.3a6,6,0,0,0-1.82-2.82l1.78-1.77a1,1,0,1,0-1.42-1.42l-2,2a.64.64,0,0,0-.08.14,5.89,5.89,0,0,0-4.42,0,.64.64,0,0,0-.08-.14l-2-2A1,1,0,0,0,6.29,3.71L8.07,5.48A6,6,0,0,0,6.25,8.3L4.55,7.17a1,1,0,1,0-1.1,1.66L6,10.54V13Zm4,3V11h3v8.86A4,4,0,0,1,8,16Zm5,3.86V11h3v5A4,4,0,0,1,13,19.86ZM15.86,9H8.14a4,4,0,0,1,7.72,0Z"/></svg>