<svg id="Layer_1" data-name="Layer 1" xmlns="http://www.w3.org/2000/svg" viewBox="0 0 24 24"><title>Camera Enhance</title><path d="M19,5H17.62l-.17-.34A3,3,0,0,0,14.76,3H9.24A3,3,0,0,0,6.55,4.66L6.38,5H5A3,3,0,0,0,2,8V18a3,3,0,0,0,3,3H19a3,3,0,0,0,3-3V8A3,3,0,0,0,19,5Zm1,13a1,1,0,0,1-1,1H5a1,1,0,0,1-1-1V8A1,1,0,0,1,5,7H7a1,1,0,0,0,.89-.55l.45-.9A1,1,0,0,1,9.24,5h5.52a1,1,0,0,1,.9.55l.45.9A1,1,0,0,0,17,7h2a1,1,0,0,1,1,1ZM12,8a5,5,0,1,0,5,5A5,5,0,0,0,12,8Zm0,8a3,3,0,1,1,3-3A3,3,0,0,1,12,16Zm1.29-3.16L14,13l-.77.2a1.5,1.5,0,0,0-1.1,1.15L12,15l-.16-.71a1.51,1.51,0,0,0-1.13-1.13L10,13l.71-.16a1.51,1.51,0,0,0,1.13-1.13L12,11l.16.71A1.51,1.51,0,0,0,13.29,12.84Z"/></svg>