<svg id="Layer_1" data-name="Layer 1" xmlns="http://www.w3.org/2000/svg" viewBox="0 0 24 24"><title>Card Travel</title><path d="M15,15.5a.5.5,0,0,1,.5-.5h2a.5.5,0,0,1,0,1h-2A.5.5,0,0,1,15,15.5Zm.5-1.5h3a.5.5,0,0,0,0-1h-3a.5.5,0,0,0,0,1ZM5,16V11a1,1,0,0,1,1-1H7V8A1,1,0,0,1,8,7h3a1,1,0,0,1,1,1v2h1a1,1,0,0,1,1,1v5a1,1,0,0,1-1,1H6A1,1,0,0,1,5,16Zm3-6h3V8H8ZM2,17V7A3,3,0,0,1,5,4H19a3,3,0,0,1,3,3V17a3,3,0,0,1-3,3H5A3,3,0,0,1,2,17Zm2,0a1,1,0,0,0,1,1H19a1,1,0,0,0,1-1V7a1,1,0,0,0-1-1H5A1,1,0,0,0,4,7Z"/></svg>