<svg id="Layer_1" data-name="Layer 1" xmlns="http://www.w3.org/2000/svg" viewBox="0 0 24 24"><title>Card Membership</title><path d="M5,20H19a3,3,0,0,0,3-3V7a3,3,0,0,0-3-3H5A3,3,0,0,0,2,7V17A3,3,0,0,0,5,20ZM4,7A1,1,0,0,1,5,6H19a1,1,0,0,1,1,1V17a1,1,0,0,1-1,1H5a1,1,0,0,1-1-1Zm1.21,3.9A.49.49,0,0,1,5,10.35.5.5,0,0,1,5.5,10H8L8.7,7.67a.51.51,0,0,1,1,0L10.41,10h2.45a.5.5,0,0,1,.48.35.49.49,0,0,1-.19.55l-2,1.44.76,2.33a.5.5,0,0,1-.18.56.49.49,0,0,1-.59,0l-2-1.44-2,1.44a.5.5,0,0,1-.59,0,.5.5,0,0,1-.18-.56l.76-2.33ZM14,15.5a.5.5,0,0,1,.5-.5h2a.5.5,0,0,1,0,1h-2A.5.5,0,0,1,14,15.5Zm0-2a.5.5,0,0,1,.5-.5h4a.5.5,0,0,1,0,1h-4A.5.5,0,0,1,14,13.5Z"/></svg>