<svg id="Layer_1" data-name="Layer 1" xmlns="http://www.w3.org/2000/svg" viewBox="0 0 24 24"><title>Class</title><path d="M19,5H5A3,3,0,0,0,2,8v8a3,3,0,0,0,3,3H19a3,3,0,0,0,3-3V8A3,3,0,0,0,19,5Zm1,11a1,1,0,0,1-1,1H9a1,1,0,0,0,0-2H7a1,1,0,0,0,0,2H5a1,1,0,0,1-1-1V8A1,1,0,0,1,5,7H19a1,1,0,0,1,1,1ZM8.47,9.32a.52.52,0,0,0-.94,0l-1.5,4a.5.5,0,0,0,.94.36L7.22,13H8.78l.25.68A.51.51,0,0,0,9.5,14l.18,0a.52.52,0,0,0,.29-.65ZM7.6,12,8,10.92,8.4,12Zm4.9-3h-1a.5.5,0,0,0-.5.5v4a.5.5,0,0,0,.5.5h1a1.49,1.49,0,0,0,1.11-2.5A1.49,1.49,0,0,0,12.5,9ZM12,10h.5a.5.5,0,0,1,0,1H12Zm.5,3H12V12h.5a.5.5,0,0,1,0,1ZM16,11.5A1.5,1.5,0,0,0,17.5,13a.5.5,0,0,1,0,1,2.5,2.5,0,0,1,0-5,.5.5,0,0,1,0,1A1.5,1.5,0,0,0,16,11.5Z"/></svg>