<svg id="Layer_1" data-name="Layer 1" xmlns="http://www.w3.org/2000/svg" viewBox="0 0 24 24"><title>Commute</title><path d="M3,19H4v1a1,1,0,0,0,2,0V19H7v2a1,1,0,0,0,2,0V20H20v1a1,1,0,0,0,2,0V13.47a3,3,0,0,0-.32-1.34h0L20.45,9.66A3,3,0,0,0,18,8V5a3,3,0,0,0-3-3H5A3,3,0,0,0,2,5V18A1,1,0,0,0,3,19ZM16,5h0V8H11.24A3,3,0,0,0,8.55,9.66L7.88,11H4V5H16ZM4,17V13H7.06a2.52,2.52,0,0,0-.06.47V14a1,1,0,0,0,0,2v1Zm5-3H20v4H9Zm9.66-3.45L19.38,12H9.62l.72-1.45a1,1,0,0,1,.9-.55h6.52A1,1,0,0,1,18.66,10.55ZM12,16a1,1,0,1,1-1-1A1,1,0,0,1,12,16Zm7,0a1,1,0,1,1-1-1A1,1,0,0,1,19,16Z"/></svg>