<svg id="Layer_1" data-name="Layer 1" xmlns="http://www.w3.org/2000/svg" viewBox="0 0 24 24"><title>Contact Support</title><path d="M5,18H6v3a1,1,0,0,0,.57.9A.94.94,0,0,0,7,22a1,1,0,0,0,.62-.22L12.35,18H19a3,3,0,0,0,3-3V5a3,3,0,0,0-3-3H5A3,3,0,0,0,2,5V15A3,3,0,0,0,5,18ZM4,5A1,1,0,0,1,5,4H19a1,1,0,0,1,1,1V15a1,1,0,0,1-1,1H12a1,1,0,0,0-.62.22L8,18.92V17a1,1,0,0,0-1-1H5a1,1,0,0,1-1-1Zm9,9a1,1,0,1,1-1-1A1,1,0,0,1,13,14ZM9,8a3,3,0,0,1,6,0,3,3,0,0,1-1.62,2.66.65.65,0,0,0-.38.45A1,1,0,0,1,12,12h-.12a1,1,0,0,1-.87-1.1,2.59,2.59,0,0,1,1.44-2A1,1,0,1,0,11,8,1,1,0,0,1,9,8Z"/></svg>