<svg id="Layer_1" data-name="Layer 1" xmlns="http://www.w3.org/2000/svg" viewBox="0 0 24 24"><title>CV</title><path d="M10,11a2,2,0,1,1,2,2A2,2,0,0,1,10,11Zm7,6.79A1,1,0,0,1,16,19H8a1,1,0,0,1-1-1.21A5,5,0,0,1,12,14,5,5,0,0,1,17,17.79ZM14.38,17a3.33,3.33,0,0,0-4.76,0ZM16,3V4h2a3,3,0,0,1,3,3V19a3,3,0,0,1-3,3H6a3,3,0,0,1-3-3V7A3,3,0,0,1,6,4H8V3A1,1,0,0,1,9,2h6A1,1,0,0,1,16,3ZM10,6h4V4H10Zm6,0V7a1,1,0,0,1-1,1H9A1,1,0,0,1,8,7V6H6A1,1,0,0,0,5,7V19a1,1,0,0,0,1,1H18a1,1,0,0,0,1-1V7a1,1,0,0,0-1-1Z"/></svg>