<svg id="Layer_1" data-name="Layer 1" xmlns="http://www.w3.org/2000/svg" viewBox="0 0 24 24"><title>Data Setting</title><path d="M21.93,16.44l-.5-.87a.5.5,0,0,0-.62-.22l-.73.3a3.14,3.14,0,0,0-.75-.44l-.12-.78a.49.49,0,0,0-.49-.43h-1a.49.49,0,0,0-.49.43l-.12.78a3.14,3.14,0,0,0-.75.44l-.73-.3a.5.5,0,0,0-.62.22l-.5.87a.5.5,0,0,0,.12.64l.63.49a2.33,2.33,0,0,0,0,.86l-.63.49a.5.5,0,0,0-.12.64l.5.87a.51.51,0,0,0,.43.26.65.65,0,0,0,.19,0l.73-.3a3.14,3.14,0,0,0,.75.44l.12.78a.49.49,0,0,0,.49.43h1a.49.49,0,0,0,.49-.43l.12-.78a3.14,3.14,0,0,0,.75-.44l.73.3a.65.65,0,0,0,.19,0,.51.51,0,0,0,.43-.26l.5-.87a.5.5,0,0,0-.12-.64l-.63-.49a2.33,2.33,0,0,0,0-.86l.63-.49A.5.5,0,0,0,21.93,16.44ZM18.22,19a1,1,0,1,1,1-1A1,1,0,0,1,18.22,19ZM20,3v8a1,1,0,0,1-2,0V5.41L5.41,18H12a1,1,0,0,1,0,2H3a1,1,0,0,1-.92-.62,1,1,0,0,1,.21-1.09l16-16a1,1,0,0,1,1.09-.21A1,1,0,0,1,20,3Z"/></svg>