<svg id="Layer_1" data-name="Layer 1" xmlns="http://www.w3.org/2000/svg" viewBox="0 0 24 24"><title>Date</title><path d="M19,4H18V3a1,1,0,0,0-2,0V4H8V3A1,1,0,0,0,6,3V4H5A3,3,0,0,0,2,7V19a3,3,0,0,0,3,3H19a3,3,0,0,0,3-3V7A3,3,0,0,0,19,4ZM4,7A1,1,0,0,1,5,6H6A1,1,0,0,0,8,6h8a1,1,0,0,0,2,0h1a1,1,0,0,1,1,1V8H4ZM20,19a1,1,0,0,1-1,1H5a1,1,0,0,1-1-1V10H20ZM7,13.8V12.2a.2.2,0,0,1,.2-.2H8.8a.2.2,0,0,1,.2.2v1.6a.2.2,0,0,1-.2.2H7.2A.2.2,0,0,1,7,13.8Zm4,0V12.2a.2.2,0,0,1,.2-.2h1.6a.2.2,0,0,1,.2.2v1.6a.2.2,0,0,1-.2.2H11.2A.2.2,0,0,1,11,13.8Zm4,0V12.2a.2.2,0,0,1,.2-.2h1.6a.2.2,0,0,1,.2.2v1.6a.2.2,0,0,1-.2.2H15.2A.2.2,0,0,1,15,13.8Zm-8,4V16.2a.2.2,0,0,1,.2-.2H8.8a.2.2,0,0,1,.2.2v1.6a.2.2,0,0,1-.2.2H7.2A.2.2,0,0,1,7,17.8Zm4,0V16.2a.2.2,0,0,1,.2-.2h1.6a.2.2,0,0,1,.2.2v1.6a.2.2,0,0,1-.2.2H11.2A.2.2,0,0,1,11,17.8Zm4,0V16.2a.2.2,0,0,1,.2-.2h1.6a.2.2,0,0,1,.2.2v1.6a.2.2,0,0,1-.2.2H15.2A.2.2,0,0,1,15,17.8Z"/></svg>