<svg id="Layer_1" data-name="Layer 1" xmlns="http://www.w3.org/2000/svg" viewBox="0 0 24 24"><title>Delete Forever</title><path d="M8,22h8a3,3,0,0,0,3-3V7a1,1,0,0,0-1-1H6A1,1,0,0,0,5,7V19A3,3,0,0,0,8,22ZM7,8H17V19a1,1,0,0,1-1,1H8a1,1,0,0,1-1-1ZM5,5A1,1,0,0,1,5,3H9a1,1,0,0,1,1-1h4a1,1,0,0,1,1,1h4a1,1,0,0,1,0,2H5ZM9.29,15.29,10.59,14l-1.3-1.29a1,1,0,0,1,1.42-1.42L12,12.59l1.29-1.3a1,1,0,0,1,1.42,1.42L13.41,14l1.3,1.29a1,1,0,0,1,0,1.42,1,1,0,0,1-1.42,0L12,15.41l-1.29,1.3a1,1,0,0,1-1.42,0A1,1,0,0,1,9.29,15.29Z"/></svg>