<svg id="Layer_1" data-name="Layer 1" xmlns="http://www.w3.org/2000/svg" viewBox="0 0 24 24"><title>Explore Off</title><path d="M12,22a10,10,0,0,0,6.32-2.27l2,2a1,1,0,0,0,1.42,0,1,1,0,0,0,0-1.42l-18-18A1,1,0,0,0,2.29,3.71l2,2A10,10,0,0,0,12,22ZM9.29,10.7,7,16.31a.5.5,0,0,0,.12.56A.55.55,0,0,0,7.5,17,.54.54,0,0,0,7.72,17l5.21-2.61,4,4A8,8,0,0,1,5.69,7.11Zm10,4.49A7.92,7.92,0,0,0,20,12a8,8,0,0,0-8-8,7.92,7.92,0,0,0-3.19.67l-1.5-1.5A9.91,9.91,0,0,1,12,2,10,10,0,0,1,22,12a9.91,9.91,0,0,1-1.17,4.69ZM16.84,7.13a.5.5,0,0,1,.12.56l-1.47,3.66-2.6-2.6,3.39-1.7A.5.5,0,0,1,16.84,7.13Z"/></svg>