<svg id="Layer_1" data-name="Layer 1" xmlns="http://www.w3.org/2000/svg" viewBox="0 0 24 24"><title>Extension</title><path d="M6.53,13.93A2,2,0,0,0,5,15.87V17a2,2,0,0,0,2,2H9a3.11,3.11,0,0,0,2.49,3A2.92,2.92,0,0,0,12,22a3,3,0,0,0,3-3h2a2,2,0,0,0,2-2V15.87a2,2,0,0,0-1.53-1.94,2,2,0,0,1,0-3.86A2,2,0,0,0,19,8.13V7a2,2,0,0,0-2-2H15a3.11,3.11,0,0,0-2.49-3,3,3,0,0,0-2.44.67A3,3,0,0,0,9,5H7A2,2,0,0,0,5,7V8.13a2,2,0,0,0,1.53,1.94,2,2,0,0,1,0,3.86ZM7,8.13V7h3a1,1,0,0,0,1-1V5a1,1,0,0,1,.36-.76A.93.93,0,0,1,12.18,4,1.09,1.09,0,0,1,13,5.12V6a1,1,0,0,0,1,1h3V8.13h-.06A4,4,0,0,0,17,15.87V17H14a1,1,0,0,0-1,1v1a1,1,0,0,1-.36.76,1,1,0,0,1-.82.22,1.09,1.09,0,0,1-.82-1.1V18a1,1,0,0,0-1-1H7l.06-1.14A4,4,0,0,0,7,8.13Z"/></svg>