<svg id="Layer_1" data-name="Layer 1" xmlns="http://www.w3.org/2000/svg" viewBox="0 0 24 24"><title>Feedback</title><path d="M9.19,9.11l2.5-2a.48.48,0,0,1,.62,0l2.5,2a.5.5,0,0,1-.31.89H13v2a1,1,0,0,1-2,0V10H9.5a.5.5,0,0,1-.31-.89ZM2,19V10.93A3,3,0,0,1,3.06,8.64l7-5.9a3,3,0,0,1,4,0l7,5.9A3,3,0,0,1,22,10.93V19a3,3,0,0,1-3,3H5A3,3,0,0,1,2,19Zm18,0V12.16l-6,5.11a3,3,0,0,1-4,0l-6-5.1V19a1,1,0,0,0,1,1H19A1,1,0,0,0,20,19ZM4.55,10l6.77,5.74a1,1,0,0,0,1.35,0L19.45,10,12.68,4.26A1.05,1.05,0,0,0,12,4a1,1,0,0,0-.67.25h0Z"/></svg>