<svg id="Layer_1" data-name="Layer 1" xmlns="http://www.w3.org/2000/svg" viewBox="0 0 24 24"><title>Find Replace</title><path d="M3,12a8,8,0,0,1,8-8V2.5a.5.5,0,0,1,.82-.38l3,2.5a.49.49,0,0,1,0,.76l-3,2.5A.49.49,0,0,1,11.5,8a.54.54,0,0,1-.21,0A.49.49,0,0,1,11,7.5V6a6,6,0,0,0-6,6,5.67,5.67,0,0,0,.06.85A1,1,0,0,1,4.22,14H4.07a1,1,0,0,1-1-.85A8.42,8.42,0,0,1,3,12Zm7.71,4.05a.49.49,0,0,0-.53.07l-3,2.5a.49.49,0,0,0,0,.76l3,2.5a.49.49,0,0,0,.32.12.54.54,0,0,0,.21-.05A.49.49,0,0,0,11,21.5V20a7.92,7.92,0,0,0,4.9-1.69l3.39,3.4a1,1,0,0,0,1.42,0,1,1,0,0,0,0-1.42l-3.4-3.39A7.92,7.92,0,0,0,19,12a8.38,8.38,0,0,0-.08-1.14,1,1,0,1,0-2,.28A6.11,6.11,0,0,1,17,12a6,6,0,0,1-6,6V16.5A.49.49,0,0,0,10.71,16.05Z"/></svg>