<svg id="Layer_1" data-name="Layer 1" xmlns="http://www.w3.org/2000/svg" viewBox="0 0 24 24"><title>Fingerprint</title><path d="M21.79,11.79a3.93,3.93,0,0,1-7.86,0,1.93,1.93,0,0,0-3.86,0,7.76,7.76,0,0,0,6,7.57,1,1,0,0,1,.74,1.21,1,1,0,0,1-1,.76l-.23,0a9.76,9.76,0,0,1-7.5-9.52,3.93,3.93,0,0,1,7.86,0,1.93,1.93,0,0,0,3.86,0,7.79,7.79,0,0,0-15.58,0,13.79,13.79,0,0,0,1,5.14,1,1,0,0,1-.55,1.3,1,1,0,0,1-.37.07,1,1,0,0,1-.93-.63,15.71,15.71,0,0,1-1.15-5.88,9.79,9.79,0,0,1,19.58,0Zm-1,5.17a1,1,0,0,0-1.28-.6A4.86,4.86,0,0,1,13,11.79a1,1,0,0,0-2,0,6.85,6.85,0,0,0,9.19,6.45A1,1,0,0,0,20.78,17ZM12,6.93a4.87,4.87,0,0,1,4.86,4.86,1,1,0,0,0,2,0,6.86,6.86,0,0,0-13.72,0v0a12.43,12.43,0,0,0,1.5,6,12.25,12.25,0,0,0,3.38,4,1,1,0,0,0,.61.21,1,1,0,0,0,.79-.39,1,1,0,0,0-.18-1.4A10.31,10.31,0,0,1,8.4,16.83a10.59,10.59,0,0,1-1.26-5v0A4.87,4.87,0,0,1,12,6.93Z"/></svg>