<svg id="Layer_1" data-name="Layer 1" xmlns="http://www.w3.org/2000/svg" viewBox="0 0 24 24"><title>Flip To Back</title><path d="M19,17a1,1,0,0,1,0-2,1,1,0,0,1,2,0v1a1,1,0,0,1-1,1Zm-6.25,0h2.5a1,1,0,0,0,0-2h-2.5a1,1,0,0,0,0,2ZM7,16a1,1,0,0,0,1,1H9a1,1,0,0,0,0-2,1,1,0,0,0-2,0Zm0-4.75a1,1,0,0,0,2,0V8.75a1,1,0,0,0-2,0ZM8,6A1,1,0,0,0,9,5,1,1,0,0,0,9,3H8A1,1,0,0,0,7,4V5A1,1,0,0,0,8,6Zm4.75-1h2.5a1,1,0,0,0,0-2h-2.5a1,1,0,0,0,0,2ZM21,4a1,1,0,0,0-1-1H19a1,1,0,0,0,0,2,1,1,0,0,0,2,0Zm0,4.75a1,1,0,0,0-2,0v2.5a1,1,0,0,0,2,0ZM4,5A1,1,0,0,0,3,6V20a1,1,0,0,0,1,1H18a1,1,0,0,0,0-2H5V6A1,1,0,0,0,4,5Z"/></svg>