<svg id="Layer_1" data-name="Layer 1" xmlns="http://www.w3.org/2000/svg" viewBox="0 0 24 24"><title>Gavel</title><path d="M15.12,7.25,12.29,4.41a1,1,0,0,1,0-1.41L13,2.29a1,1,0,0,1,1.41,0l2.84,2.83a1,1,0,0,1,0,1.41l-.72.72A1,1,0,0,1,15.12,7.25Zm6.59,11.63-9.1-9.1.71-.71a1,1,0,0,0,0-1.41L11.9,6.24a1,1,0,0,0-1.41,0L6.24,10.49a1,1,0,0,0,0,1.41l1.42,1.42a1,1,0,0,0,1.41,0l.71-.71,9.1,9.1a1,1,0,0,0,1.41,0l1.42-1.42A1,1,0,0,0,21.71,18.88ZM5.12,17.25a1,1,0,0,0,1.41,0l.72-.72a1,1,0,0,0,0-1.41L4.41,12.29a1,1,0,0,0-1.41,0L2.29,13a1,1,0,0,0,0,1.41ZM3,22H13a1,1,0,0,0,0-2H3a1,1,0,0,0,0,2Z"/></svg>