<svg id="Layer_1" data-name="Layer 1" xmlns="http://www.w3.org/2000/svg" viewBox="0 0 24 24"><title>Gift Card</title><path d="M5,22H19a3,3,0,0,0,3-3V9a3,3,0,0,0-3-3h-.18A3,3,0,0,0,16,2c-1.07,0-2.88,1.07-4,1.8C10.88,3.07,9.07,2,8,2A3,3,0,0,0,5.18,6H5A3,3,0,0,0,2,9V19A3,3,0,0,0,5,22ZM17,5a1,1,0,0,1-1,1,6.93,6.93,0,0,1-2-.93V4.93A6.93,6.93,0,0,1,16,4,1,1,0,0,1,17,5ZM7,5A1,1,0,0,1,8,4a6.93,6.93,0,0,1,2,.93v.14A6.93,6.93,0,0,1,8,6,1,1,0,0,1,7,5ZM4,9A1,1,0,0,1,5,8H8.59l-.3.29a1,1,0,0,0,0,1.42,1,1,0,0,0,1.42,0L11.41,8h1.18l1.7,1.71a1,1,0,0,0,1.42,0,1,1,0,0,0,0-1.42L15.41,8H19a1,1,0,0,1,1,1v2H4Zm0,5H20v5a1,1,0,0,1-1,1H5a1,1,0,0,1-1-1Z"/></svg>