<svg id="Layer_1" data-name="Layer 1" xmlns="http://www.w3.org/2000/svg" viewBox="0 0 24 24"><title>Input Component</title><path d="M4,17.82V21a1,1,0,0,0,2,0V17.82A3,3,0,0,0,8,15V6A1,1,0,0,0,7,5H6V3A1,1,0,0,0,4,3V5H3A1,1,0,0,0,2,6v9A3,3,0,0,0,4,17.82ZM4,7H6v8a1,1,0,0,1-2,0Zm8-5a1,1,0,0,0-1,1V5H10A1,1,0,0,0,9,6v9a3,3,0,0,0,2,2.82V21a1,1,0,0,0,2,0V17.82A3,3,0,0,0,15,15V6a1,1,0,0,0-1-1H13V3A1,1,0,0,0,12,2Zm1,13a1,1,0,0,1-2,0V7h2ZM21,5H20V3a1,1,0,0,0-2,0V5H17a1,1,0,0,0-1,1v9a3,3,0,0,0,2,2.82V21a1,1,0,0,0,2,0V17.82A3,3,0,0,0,22,15V6A1,1,0,0,0,21,5ZM20,15a1,1,0,0,1-2,0V7h2Z"/></svg>