<svg id="Layer_1" data-name="Layer 1" xmlns="http://www.w3.org/2000/svg" viewBox="0 0 24 24"><title>Language</title><path d="M12,22A10,10,0,1,0,2,12,10,10,0,0,0,12,22ZM12,5a9.87,9.87,0,0,1,2.14,3H9.86A9.87,9.87,0,0,1,12,5Zm2.79,5A10.2,10.2,0,0,1,15,12a10.2,10.2,0,0,1-.21,2H9.21A10.2,10.2,0,0,1,9,12a10.2,10.2,0,0,1,.21-2ZM20,12a8.24,8.24,0,0,1-.26,2H16.81A12.1,12.1,0,0,0,17,12a12.1,12.1,0,0,0-.19-2h2.93A8.24,8.24,0,0,1,20,12Zm-8,7a9.87,9.87,0,0,1-2.14-3h4.28A9.87,9.87,0,0,1,12,19ZM7.19,14H4.26a7.82,7.82,0,0,1,0-4H7.19A12.1,12.1,0,0,0,7,12,12.1,12.1,0,0,0,7.19,14ZM5.08,16H7.7a11.62,11.62,0,0,0,2.19,3.71A8,8,0,0,1,5.08,16Zm9,3.71A11.62,11.62,0,0,0,16.3,16h2.62A8,8,0,0,1,14.11,19.71ZM18.92,8H16.3a11.62,11.62,0,0,0-2.19-3.71A8,8,0,0,1,18.92,8Zm-9-3.71A11.62,11.62,0,0,0,7.7,8H5.08A8,8,0,0,1,9.89,4.29Z"/></svg>