<svg id="Layer_1" data-name="Layer 1" xmlns="http://www.w3.org/2000/svg" viewBox="0 0 24 24"><title>Line Style</title><path d="M2,7V5A1,1,0,0,1,3,4H21a1,1,0,0,1,1,1V7a1,1,0,0,1-1,1H3A1,1,0,0,1,2,7Zm1,5h7a1,1,0,0,0,0-2H3a1,1,0,0,0,0,2Zm0,4H7a1,1,0,0,0,0-2H3a1,1,0,0,0,0,2Zm18-2H17a1,1,0,0,0,0,2h4a1,1,0,0,0,0-2Zm-6,1a1,1,0,0,0-1-1H10a1,1,0,0,0,0,2h4A1,1,0,0,0,15,15Zm6-5H14a1,1,0,0,0,0,2h7a1,1,0,0,0,0-2ZM3,20H4a1,1,0,0,0,0-2H3a1,1,0,0,0,0,2Zm5-2a1,1,0,0,0,0,2h2a1,1,0,0,0,0-2Zm6,2h2a1,1,0,0,0,0-2H14a1,1,0,0,0,0,2Zm7-2H20a1,1,0,0,0,0,2h1a1,1,0,0,0,0-2Z"/></svg>