<svg id="Layer_1" data-name="Layer 1" xmlns="http://www.w3.org/2000/svg" viewBox="0 0 24 24"><title>Loyalty</title><path d="M5,20H19a3,3,0,0,0,3-3V7a3,3,0,0,0-3-3H5A3,3,0,0,0,2,7V17A3,3,0,0,0,5,20ZM4,7A1,1,0,0,1,5,6H19a1,1,0,0,1,1,1V17a1,1,0,0,1-1,1H5a1,1,0,0,1-1-1Zm10,8.5a.5.5,0,0,1,.5-.5h2a.5.5,0,0,1,0,1h-2A.5.5,0,0,1,14,15.5Zm0-2a.5.5,0,0,1,.5-.5h4a.5.5,0,0,1,0,1h-4A.5.5,0,0,1,14,13.5ZM5.69,12.42A2.49,2.49,0,0,1,5.68,9,2.32,2.32,0,0,1,9,9a2.32,2.32,0,0,1,3.32,0,2.49,2.49,0,0,1,0,3.41l-3,2.94a.48.48,0,0,1-.7,0Z"/></svg>