<svg id="Layer_1" data-name="Layer 1" xmlns="http://www.w3.org/2000/svg" viewBox="0 0 24 24"><title>Maximize</title><path d="M22,21a1,1,0,0,1-1,1H19.5a1,1,0,0,1,0-2H20v-.5a1,1,0,0,1,2,0Zm-5.83-1h-2.5a1,1,0,0,0,0,2h2.5a1,1,0,0,0,0-2ZM3,11.33a1,1,0,0,0,1-1V7.83a1,1,0,0,0-2,0v2.5A1,1,0,0,0,3,11.33ZM3,5.5a1,1,0,0,0,1-1V4h.5a1,1,0,0,0,0-2H3A1,1,0,0,0,2,3V4.5A1,1,0,0,0,3,5.5ZM10.33,2H7.83a1,1,0,0,0,0,2h2.5a1,1,0,0,0,0-2Zm5.84,2a1,1,0,0,0,0-2h-2.5a1,1,0,0,0,0,2ZM22,3a1,1,0,0,0-1-1H19.5a1,1,0,0,0,0,2H20v.5a1,1,0,0,0,2,0Zm0,4.83a1,1,0,1,0-2,0v2.5a1,1,0,0,0,2,0Zm0,5.84a1,1,0,0,0-2,0v2.5a1,1,0,0,0,2,0ZM2,21V14a1,1,0,0,1,1-1h7a1,1,0,0,1,1,1v7a1,1,0,0,1-1,1H3A1,1,0,0,1,2,21Zm2-1H9V15H4Zm8.29-8.29a1,1,0,0,0,1.42,0l2.64-2.65.8.79a.47.47,0,0,0,.35.15.43.43,0,0,0,.19,0A.5.5,0,0,0,18,9.5v-3a.5.5,0,0,0-.5-.5h-3a.5.5,0,0,0-.46.31.47.47,0,0,0,.11.54l.79.8-2.65,2.64A1,1,0,0,0,12.29,11.71Z"/></svg>