<svg id="Layer_1" data-name="Layer 1" xmlns="http://www.w3.org/2000/svg" viewBox="0 0 24 24"><title>Open In Browser</title><path d="M5,21H8a1,1,0,0,0,0-2H5a1,1,0,0,1-1-1V10H20v8a1,1,0,0,1-1,1H16a1,1,0,0,0,0,2h3a3,3,0,0,0,3-3V6a3,3,0,0,0-3-3H5A3,3,0,0,0,2,6V18A3,3,0,0,0,5,21ZM4,6A1,1,0,0,1,5,5H19a1,1,0,0,1,1,1V8H4Zm2,.5A.5.5,0,1,1,5.5,6,.5.5,0,0,1,6,6.5Zm2,0A.5.5,0,1,1,7.5,6,.5.5,0,0,1,8,6.5Zm11,0a.5.5,0,0,1-.5.5h-8a.5.5,0,0,1,0-1h8A.5.5,0,0,1,19,6.5ZM11,20V16H8.5A.5.5,0,0,1,8,15.67a.52.52,0,0,1,.14-.55l3.5-3a.51.51,0,0,1,.66,0l3.5,3a.52.52,0,0,1,.14.55.5.5,0,0,1-.47.33H13v4a1,1,0,0,1-2,0Z"/></svg>