<svg id="Layer_1" data-name="Layer 1" xmlns="http://www.w3.org/2000/svg" viewBox="0 0 24 24"><title>Pan Tool</title><path d="M22,19V8.5A2.5,2.5,0,0,0,19.5,6a2.35,2.35,0,0,0-.54.06A2.5,2.5,0,0,0,16.5,4a2.35,2.35,0,0,0-.54.06,2.5,2.5,0,0,0-4.92,0A2.35,2.35,0,0,0,10.5,4,2.5,2.5,0,0,0,8,6.5V13l-1-.76a3,3,0,0,0-3.92.28l-.78.77a1,1,0,0,0,0,1.36L7.64,21A3,3,0,0,0,9.92,22H19A3,3,0,0,0,22,19Zm-2,0a1,1,0,0,1-1,1H9.92a1,1,0,0,1-.76-.35l-4.8-5.6.12-.12a1,1,0,0,1,1.31-.09l2.61,2A1,1,0,0,0,10,15V6.5a.5.5,0,0,1,1,0V12a1,1,0,0,0,2,0V4.5a.5.5,0,0,1,1,0V12a1,1,0,0,0,2,0V6.5a.5.5,0,0,1,1,0V12a1,1,0,0,0,2,0V8.5a.5.5,0,0,1,1,0Z"/></svg>