<svg id="Layer_1" data-name="Layer 1" xmlns="http://www.w3.org/2000/svg" viewBox="0 0 24 24"><title>Perm Phone Msg</title><path d="M19,2H14a3,3,0,0,0-3,3v6a1,1,0,0,0,.53.88,1,1,0,0,0,1-.05L15.3,10H19a3,3,0,0,0,3-3V5A3,3,0,0,0,19,2Zm1,5a1,1,0,0,1-1,1H15a1,1,0,0,0-.55.17L13,9.13V5a1,1,0,0,1,1-1h5a1,1,0,0,1,1,1ZM2.62,2.71A15.09,15.09,0,0,0,2,7a15.61,15.61,0,0,0,.15,2.14,15,15,0,0,0,8.42,11.41A14.79,14.79,0,0,0,17,22a1,1,0,0,0,1-1V17.78a2,2,0,0,0-1.51-1.94L13.24,15a1,1,0,0,0-1,.26L9.78,17.81a12.94,12.94,0,0,1-5.21-7l0,0,4-3A1,1,0,0,0,9,7V4A2,2,0,0,0,7,2H3.58A1,1,0,0,0,2.62,2.71Zm10.69,14.4,2.69.67V20a12.5,12.5,0,0,1-4.41-1.14ZM4.35,4H7V6.5L4.11,8.67A13.51,13.51,0,0,1,4,7,13,13,0,0,1,4.35,4Z"/></svg>