<svg id="Layer_1" data-name="Layer 1" xmlns="http://www.w3.org/2000/svg" viewBox="0 0 24 24"><title>Perm Camera Mic</title><path d="M19,5H17.62l-.17-.34A3,3,0,0,0,14.76,3H9.24A3,3,0,0,0,6.55,4.66L6.38,5H5A3,3,0,0,0,2,8V18a3,3,0,0,0,3,3H19a3,3,0,0,0,3-3V8A3,3,0,0,0,19,5Zm1,13a1,1,0,0,1-1,1H13V17a.29.29,0,0,0,0-.09A6,6,0,0,0,18,11a1,1,0,0,0-2,0,4,4,0,0,1-8,0,1,1,0,0,0-2,0,6,6,0,0,0,5,5.91A.29.29,0,0,0,11,17v2H5a1,1,0,0,1-1-1V8A1,1,0,0,1,5,7H7a1,1,0,0,0,.89-.55l.45-.9A1,1,0,0,1,9.24,5h5.52a1,1,0,0,1,.9.55l.45.9A1,1,0,0,0,17,7h2a1,1,0,0,1,1,1ZM12,7a2,2,0,0,0-2,2v3a2,2,0,0,0,4,0V9A2,2,0,0,0,12,7Zm0,5V9h0Z"/></svg>