<svg id="Layer_1" data-name="Layer 1" xmlns="http://www.w3.org/2000/svg" viewBox="0 0 24 24"><title>Pets</title><path d="M15,6a2,2,0,1,1,2-2A2,2,0,0,1,15,6ZM11,4A2,2,0,1,0,9,6,2,2,0,0,0,11,4Zm9,2a2,2,0,1,0,2,2A2,2,0,0,0,20,6ZM4,10A2,2,0,1,0,2,8,2,2,0,0,0,4,10Zm17.32,5.77A3.93,3.93,0,0,1,22,18a4,4,0,0,1-1.17,2.83A4,4,0,0,1,18,22h-.17L17.68,22A17.54,17.54,0,0,0,6.32,22L6.17,22H6a4,4,0,0,1-4-4,4.07,4.07,0,0,1,0-.61,4.17,4.17,0,0,1,.62-1.62l.1-.14.13-.11a20.81,20.81,0,0,0,3.34-3.16A21.59,21.59,0,0,0,8.63,8.84l.27-.37a4,4,0,0,1,6.19,0l.28.38a21.59,21.59,0,0,0,2.39,3.52,20.81,20.81,0,0,0,3.34,3.16l.13.11ZM20,18a2.07,2.07,0,0,0-.26-1,22.71,22.71,0,0,1-3.5-3.36,22.7,22.7,0,0,1-2.59-3.77l-.13-.16a2.06,2.06,0,0,0-3,0l-.12.16a22.7,22.7,0,0,1-2.59,3.77A23.1,23.1,0,0,1,4.27,17a2,2,0,0,0-.25.69c0,.1,0,.21,0,.31a2,2,0,0,0,1.85,2,19.64,19.64,0,0,1,12.29,0,2.06,2.06,0,0,0,1.28-.57A2,2,0,0,0,20,18Z"/></svg>