<svg id="Layer_1" data-name="Layer 1" xmlns="http://www.w3.org/2000/svg" viewBox="0 0 24 24"><title>Print</title><path d="M10,22h4a3,3,0,0,0,3-3V18h1a3,3,0,0,0,3-3V11a3,3,0,0,0-3-3H17V5a3,3,0,0,0-3-3H10A3,3,0,0,0,7,5V8H6a3,3,0,0,0-3,3v4a3,3,0,0,0,3,3H7v1A3,3,0,0,0,10,22Zm5-3a1,1,0,0,1-1,1H10a1,1,0,0,1-1-1V17a1,1,0,0,1,1-1h4a1,1,0,0,1,1,1ZM9,5a1,1,0,0,1,1-1h4a1,1,0,0,1,1,1V8H9ZM5,15V11a1,1,0,0,1,1-1H18a1,1,0,0,1,1,1v4a1,1,0,0,1-1,1H16.82A3,3,0,0,0,14,14H10a3,3,0,0,0-2.82,2H6A1,1,0,0,1,5,15Zm11-3a1,1,0,1,1,1,1A1,1,0,0,1,16,12Z"/></svg>