<svg id="Layer_1" data-name="Layer 1" xmlns="http://www.w3.org/2000/svg" viewBox="0 0 24 24"><title>Receipt</title><path d="M18,21a1,1,0,0,0,1-1V3.5A.51.51,0,0,0,18.7,3a.51.51,0,0,0-.54.09l-.74.69-.75-.69a.52.52,0,0,0-.68,0l-.74.69-.74-.69a.52.52,0,0,0-.68,0l-.75.69-.74-.69a.52.52,0,0,0-.68,0l-.74.69-.75-.69a.52.52,0,0,0-.68,0l-.74.69L8,3.13a.52.52,0,0,0-.68,0l-.75.69-.74-.69A.51.51,0,0,0,5.3,3,.51.51,0,0,0,5,3.5V20a1,1,0,0,0,1,1ZM7,19V5H17V19ZM15,8a1,1,0,0,1-1,1H10a1,1,0,0,1,0-2h4A1,1,0,0,1,15,8Zm0,4a1,1,0,0,1-1,1H10a1,1,0,0,1,0-2h4A1,1,0,0,1,15,12Zm0,4a1,1,0,0,1-1,1H10a1,1,0,0,1,0-2h4A1,1,0,0,1,15,16Z"/></svg>