<svg id="Layer_1" data-name="Layer 1" xmlns="http://www.w3.org/2000/svg" viewBox="0 0 24 24"><title>Redeem</title><path d="M2,15V9A2,2,0,0,1,4,7H5A1,1,0,0,1,5,9H4v6H5a1,1,0,0,1,0,2H4A2,2,0,0,1,2,15Zm17,2h1a2,2,0,0,0,2-2V9a2,2,0,0,0-2-2H19a1,1,0,0,0,0,2h1v6H19a1,1,0,0,0,0,2ZM8.85,10.15a.48.48,0,0,0-.7,0L7,11.29,5.85,10.15a.49.49,0,0,0-.7.7L6.29,12,5.15,13.15a.48.48,0,0,0,0,.7.48.48,0,0,0,.7,0L7,12.71l1.15,1.14a.48.48,0,0,0,.7,0,.48.48,0,0,0,0-.7L7.71,12l1.14-1.15A.48.48,0,0,0,8.85,10.15Zm6.3,3.7a.48.48,0,0,0,.7,0L17,12.71l1.15,1.14a.48.48,0,0,0,.7,0,.48.48,0,0,0,0-.7L17.71,12l1.14-1.15a.49.49,0,1,0-.7-.7L17,11.29l-1.15-1.14a.49.49,0,0,0-.7.7L16.29,12l-1.14,1.15A.48.48,0,0,0,15.15,13.85Zm-1.3-3.7a.48.48,0,0,0-.7,0L12,11.29l-1.15-1.14a.49.49,0,0,0-.7.7L11.29,12l-1.14,1.15a.48.48,0,0,0,0,.7.48.48,0,0,0,.7,0L12,12.71l1.15,1.14a.48.48,0,0,0,.7,0,.48.48,0,0,0,0-.7L12.71,12l1.14-1.15A.48.48,0,0,0,13.85,10.15Z"/></svg>