<svg id="Layer_1" data-name="Layer 1" xmlns="http://www.w3.org/2000/svg" viewBox="0 0 24 24"><title>Remove Shopping Cart</title><path d="M18.22,12l1.5-6H10.05l-2-2H21a1,1,0,0,1,.79.38,1,1,0,0,1,.18.86l-2,8A1,1,0,0,1,19,14h-.95l-2-2ZM2.08,3.38a1,1,0,0,1,0-.76.77.77,0,0,1,.14-.21.75.75,0,0,1,.07-.12l.12-.07a.77.77,0,0,1,.21-.14A1,1,0,0,1,3,2h.23l.06.06a.92.92,0,0,1,.42.23l18,18a1,1,0,0,1,0,1.42,1,1,0,0,1-1.42,0L19,20.4s0,.07,0,.1A1.5,1.5,0,1,1,17.5,19h.1l-1-1H8a1,1,0,0,1-1-.79L4.63,6,2.29,3.71a.75.75,0,0,1-.07-.12A.77.77,0,0,1,2.08,3.38ZM8,12h2.59L7.23,8.65,8,12Zm6.59,4-2-2H8.38l.43,2ZM12,20.5A1.5,1.5,0,1,0,10.5,22,1.5,1.5,0,0,0,12,20.5Z"/></svg>