<svg id="Layer_1" data-name="Layer 1" xmlns="http://www.w3.org/2000/svg" viewBox="0 0 24 24"><title>Restore Page</title><path d="M4,5V19a3,3,0,0,0,3,3H17a3,3,0,0,0,3-3V9.83a3,3,0,0,0-.88-2.12L14.29,2.88A3,3,0,0,0,12.17,2H7A3,3,0,0,0,4,5ZM6,5A1,1,0,0,1,7,4h5V9a1,1,0,0,0,1,1h5v9a1,1,0,0,1-1,1H7a1,1,0,0,1-1-1Zm2,9.5v-2A.5.5,0,0,1,8.31,12a.47.47,0,0,1,.54.11l.19.18a4,4,0,1,1,0,5.34,1,1,0,1,1,1.49-1.34A2,2,0,0,0,12,17a2,2,0,1,0-1.55-3.25l.4.4a.47.47,0,0,1,.11.54.5.5,0,0,1-.46.31h-2A.5.5,0,0,1,8,14.5Z"/></svg>