<svg id="Layer_1" data-name="Layer 1" xmlns="http://www.w3.org/2000/svg" viewBox="0 0 24 24"><title>Rounded Corner</title><path d="M22,8h0v7.86a1,1,0,0,1-2,0V8a4,4,0,0,0-4-4H8.14a1,1,0,0,1,0-2H16A6,6,0,0,1,22,8ZM21,18.5a1,1,0,0,0-1,1V20h-.5a1,1,0,0,0,0,2H21a1,1,0,0,0,1-1V19.5A1,1,0,0,0,21,18.5ZM17.17,21a1,1,0,0,0-1-1h-2.5a1,1,0,0,0,0,2h2.5A1,1,0,0,0,17.17,21Zm-6.84-1H7.83a1,1,0,1,0,0,2h2.5a1,1,0,0,0,0-2ZM3,22H4.5a1,1,0,0,0,0-2H4v-.5a1,1,0,0,0-2,0V21A1,1,0,0,0,3,22ZM3,11.33a1,1,0,0,0,1-1V7.83a1,1,0,0,0-2,0v2.5A1,1,0,0,0,3,11.33Zm0,5.84a1,1,0,0,0,1-1v-2.5a1,1,0,0,0-2,0v2.5A1,1,0,0,0,3,17.17ZM3,5.5a1,1,0,0,0,1-1V4h.5a1,1,0,0,0,0-2H3A1,1,0,0,0,2,3V4.5A1,1,0,0,0,3,5.5Z"/></svg>