<svg id="Layer_1" data-name="Layer 1" xmlns="http://www.w3.org/2000/svg" viewBox="0 0 24 24"><title>Settings Overscan</title><path d="M3,20H21a1,1,0,0,0,1-1V5a1,1,0,0,0-1-1H3A1,1,0,0,0,2,5V19A1,1,0,0,0,3,20ZM4,6H20V18H4Zm9.78,2.08a.51.51,0,0,1,.2.56A.49.49,0,0,1,13.5,9h-3A.49.49,0,0,1,10,8.64a.51.51,0,0,1,.2-.56l1.5-1a.52.52,0,0,1,.56,0Zm.2,7.28a.51.51,0,0,1-.2.56l-1.5,1a.53.53,0,0,1-.56,0l-1.5-1a.51.51,0,0,1-.2-.56A.49.49,0,0,1,10.5,15h3A.49.49,0,0,1,14,15.36Zm4.94-3.64a.52.52,0,0,1,0,.56l-1,1.5a.52.52,0,0,1-.42.22l-.14,0A.49.49,0,0,1,17,13.5v-3a.49.49,0,0,1,.36-.48.51.51,0,0,1,.56.2ZM7,10.5v3a.49.49,0,0,1-.36.48L6.5,14a.52.52,0,0,1-.42-.22l-1-1.5a.52.52,0,0,1,0-.56l1-1.5a.51.51,0,0,1,.56-.2A.49.49,0,0,1,7,10.5Z"/></svg>