<svg id="Layer_1" data-name="Layer 1" xmlns="http://www.w3.org/2000/svg" viewBox="0 0 24 24"><title>Settings Brightness</title><path d="M19,2H5A3,3,0,0,0,2,5V19a3,3,0,0,0,3,3H19a3,3,0,0,0,3-3V5A3,3,0,0,0,19,2Zm1,17a1,1,0,0,1-1,1H5a1,1,0,0,1-1-1V5A1,1,0,0,1,5,4H19a1,1,0,0,1,1,1ZM17,9.59V8a1,1,0,0,0-1-1H14.41l-1.7-1.71a1,1,0,0,0-1.42,0L9.59,7H8A1,1,0,0,0,7,8V9.59l-1.71,1.7a1,1,0,0,0,0,1.42L7,14.41V16a1,1,0,0,0,1,1H9.59l1.7,1.71a1,1,0,0,0,1.42,0L14.41,17H16a1,1,0,0,0,1-1V14.41l1.71-1.7a1,1,0,0,0,0-1.42Zm-6.29,5.7a1,1,0,0,0-.33-.21A1,1,0,0,0,10,15H9V14a1,1,0,0,0-.08-.38,1,1,0,0,0-.21-.33L7.41,12l1.3-1.29a1,1,0,0,0,.21-.33A1,1,0,0,0,9,10V9h1a1,1,0,0,0,.38-.08,1,1,0,0,0,.33-.21L12,7.41v9.18Z"/></svg>