<svg id="Layer_1" data-name="Layer 1" xmlns="http://www.w3.org/2000/svg" viewBox="0 0 24 24"><title>Settings Button</title><path d="M12,16a4,4,0,1,0-4-4A4,4,0,0,0,12,16Zm0-6a2,2,0,1,1-2,2A2,2,0,0,1,12,10ZM2.7,15.88,4,18.12a1,1,0,0,0,1.25.43L6.69,18,7,18.2a6.47,6.47,0,0,0,.91.64,7.67,7.67,0,0,0,1.41.67l.38,1.71a1,1,0,0,0,1,.78h2.74a1,1,0,0,0,1-.78l.38-1.7A7.68,7.68,0,0,0,17.33,18l1.44.59A1,1,0,0,0,20,18.12l1.28-2.24a1,1,0,0,0-.25-1.29l-1.22-.94a8.09,8.09,0,0,0,0-3.3l1.22-.94a1,1,0,0,0,.25-1.29L20,5.88a1,1,0,0,0-1.25-.43L17.33,6a7.68,7.68,0,0,0-2.6-1.56l-.38-1.7a1,1,0,0,0-1-.78H10.63a1,1,0,0,0-1,.78c0,.19-.08.37-.11.56l-.1.46c0,.09,0,.21-.06.33s0,.23-.06.34l-.22.07A8.11,8.11,0,0,0,8,5.08a7.71,7.71,0,0,0-1,.65L6.71,6l0,0-1.46-.6A1,1,0,0,0,4,5.88L2.7,8.12A1,1,0,0,0,3,9.41l1.22.94a8.09,8.09,0,0,0,0,3.3L3,14.59A1,1,0,0,0,2.7,15.88Zm3.55-2.15a6.11,6.11,0,0,1,0-3.46,1,1,0,0,0-.33-1.09l-1-.82.41-.73,1.24.51c.63.25,1-.1,1.58-.67l.17-.17A5.17,5.17,0,0,1,9,6.81a5.18,5.18,0,0,1,.82-.4l.1,0a1.7,1.7,0,0,0,1-.61,3,3,0,0,0,.44-1.31c0-.08,0-.16.05-.23l0-.23h1.13l.33,1.48a1,1,0,0,0,.72.74,6,6,0,0,1,2.75,1.67,1,1,0,0,0,1.11.25l1.24-.51.41.73-1.05.82a1,1,0,0,0-.33,1.09,6.11,6.11,0,0,1,0,3.46,1,1,0,0,0,.33,1.09l1.05.82-.41.73-1.24-.51a1,1,0,0,0-1.11.25,6,6,0,0,1-2.75,1.67,1,1,0,0,0-.72.74L12.57,20H11.43l-.33-1.47a1,1,0,0,0-.69-.74,6.68,6.68,0,0,1-1.52-.66,5.37,5.37,0,0,1-.65-.46l-.17-.16c-.56-.55-.92-.91-1.55-.65l-1.24.51-.41-.73,1-.82A1,1,0,0,0,6.25,13.73Z"/></svg>