<svg id="Layer_1" data-name="Layer 1" xmlns="http://www.w3.org/2000/svg" viewBox="0 0 24 24"><title>Settings Phone</title><path d="M8.6,7.8A1,1,0,0,0,9,7V4A2,2,0,0,0,7,2H3.58a1,1,0,0,0-1,.71A15.09,15.09,0,0,0,2,7a15.61,15.61,0,0,0,.15,2.14,15,15,0,0,0,8.42,11.41A14.79,14.79,0,0,0,17,22a1,1,0,0,0,1-1V17.78a2,2,0,0,0-1.51-1.94L13.24,15a1,1,0,0,0-1,.26L9.78,17.81a12.94,12.94,0,0,1-5.21-7l0,0Zm4.71,9.31,2.69.67V20a12.5,12.5,0,0,1-4.41-1.14ZM4.11,8.67A13.51,13.51,0,0,1,4,7a13,13,0,0,1,.35-3H7V6.5ZM12.64,9l.57,1a1,1,0,0,0,.86.5,1,1,0,0,0,.38-.08l.62-.25a3.35,3.35,0,0,0,.52.3l.1.67a1,1,0,0,0,1,.86h1.14a1,1,0,0,0,1-.86l.1-.67a3.35,3.35,0,0,0,.52-.3l.62.25A1,1,0,0,0,21.3,10l.57-1a1,1,0,0,0-.25-1.29l-.54-.41c0-.1,0-.2,0-.3s0-.2,0-.3l.54-.41A1,1,0,0,0,21.87,5L21.3,4a1,1,0,0,0-1.25-.42l-.62.25a3.35,3.35,0,0,0-.52-.3l-.1-.67a1,1,0,0,0-1-.86H16.68a1,1,0,0,0-1,.86l-.1.67a3.35,3.35,0,0,0-.52.3l-.62-.25A1,1,0,0,0,13.21,4l-.57,1a1,1,0,0,0,.25,1.29l.53.41c0,.1,0,.2,0,.3s0,.2,0,.3l-.53.41A1,1,0,0,0,12.64,9Zm4.61-3.86A1.86,1.86,0,1,1,15.39,7,1.86,1.86,0,0,1,17.25,5.14Z"/></svg>