<svg id="Layer_1" data-name="Layer 1" xmlns="http://www.w3.org/2000/svg" viewBox="0 0 24 24"><title>Shopping Basket</title><path d="M4.11,14.87l.66,4.56a3,3,0,0,0,3,2.57h8.54a3,3,0,0,0,3-2.57l.66-4.56A3,3,0,0,0,19,9h-.49L14.33,3.24a2.81,2.81,0,0,0-4.66,0L5.49,9H5a3,3,0,0,0-.89,5.87ZM11.29,4.42a.83.83,0,0,1,1.42,0L16,9H8ZM5,11H19a1,1,0,0,1,0,2,1,1,0,0,0-1,.86l-.76,5.29a1,1,0,0,1-1,.85H7.73a1,1,0,0,1-1-.86L6,13.86A1,1,0,0,0,5,13a1,1,0,0,1,0-2Zm3,7V13a1,1,0,0,1,2,0v5a1,1,0,0,1-2,0Zm3,0V13a1,1,0,0,1,2,0v5a1,1,0,0,1-2,0Zm3,0V13a1,1,0,0,1,2,0v5a1,1,0,0,1-2,0Z"/></svg>