<svg id="Layer_1" data-name="Layer 1" xmlns="http://www.w3.org/2000/svg" viewBox="0 0 24 24"><title>Speaker Notes Off</title><path d="M22,5V16a1,1,0,0,1-2,0V5a1,1,0,0,0-1-1H8A1,1,0,0,1,8,2H19A3,3,0,0,1,22,5ZM17,9a1,1,0,0,0,0-2H13a1,1,0,0,0,0,2ZM7,11a1,1,0,1,0,1,1A1,1,0,0,0,7,11Zm14.71,9.29a1,1,0,0,1,0,1.42,1,1,0,0,1-1.42,0L16.59,18H12.35L7.62,21.78A1,1,0,0,1,7,22a.91.91,0,0,1-.43-.1A1,1,0,0,1,6,21V18H5a3,3,0,0,1-3-3V5a3,3,0,0,1,.3-1.29h0A1,1,0,0,1,3.71,2.29l9,9h0l5,5h0ZM14.59,16l-3-3H10a1,1,0,0,1-1-1,1,1,0,0,1,.66-.93l-2.2-2.2A.91.91,0,0,1,7,9,1,1,0,0,1,6,8a.91.91,0,0,1,.13-.46L4,5.41V15a1,1,0,0,0,1,1H7a1,1,0,0,1,1,1v1.92l3.38-2.7A1,1,0,0,1,12,16Z"/></svg>