<svg id="Layer_1" data-name="Layer 1" xmlns="http://www.w3.org/2000/svg" viewBox="0 0 24 24"><title>Split Vertical</title><path d="M22,14a1,1,0,0,1-1,1H3a1,1,0,0,1,0-2H21A1,1,0,0,1,22,14ZM21,9H3a1,1,0,0,0,0,2H21a1,1,0,0,0,0-2ZM14.88,5.82A.47.47,0,0,0,15,5.29.49.49,0,0,0,14.5,5H13V3a1,1,0,0,0-2,0V5H9.5a.49.49,0,0,0-.45.29.47.47,0,0,0,.07.53l2.5,3a.49.49,0,0,0,.76,0ZM12,22a1,1,0,0,0,1-1V19h1.5a.49.49,0,0,0,.45-.29.47.47,0,0,0-.07-.53l-2.5-3a.5.5,0,0,0-.76,0l-2.5,3a.47.47,0,0,0-.07.53A.49.49,0,0,0,9.5,19H11v2A1,1,0,0,0,12,22Z"/></svg>