<svg id="Layer_1" data-name="Layer 1" xmlns="http://www.w3.org/2000/svg" viewBox="0 0 24 24"><title>Star</title><path d="M21,9H14.85L13,3.13a1,1,0,0,0-1.9,0L9.15,9H3a1,1,0,0,0-1,.69,1,1,0,0,0,.36,1.12l5,3.61-1.9,5.85a1,1,0,0,0,.36,1.12,1,1,0,0,0,1.18,0l5-3.62,5,3.62a1,1,0,0,0,.59.19,1,1,0,0,0,1-1.31l-1.9-5.85,5-3.61A1,1,0,0,0,22,9.67,1,1,0,0,0,21,9Zm-6.15,4.23a1,1,0,0,0-.36,1.12l1.17,3.61-3.07-2.23a1,1,0,0,0-1.18,0L8.34,17.94l1.17-3.61a1,1,0,0,0-.36-1.12L6.08,11h3.8a1,1,0,0,0,.95-.69L12,6.68l1.17,3.61a1,1,0,0,0,.95.69h3.8Z"/></svg>