<svg id="Layer_1" data-name="Layer 1" xmlns="http://www.w3.org/2000/svg" viewBox="0 0 24 24"><title>Supervisor Account</title><path d="M2,19v-.78a1,1,0,0,1,0-.29A8.28,8.28,0,0,1,9.94,12h0a1,1,0,0,1,0,2,6.28,6.28,0,0,0-5.83,4H7a1,1,0,0,1,0,2H3A1,1,0,0,1,2,19Zm8-9a3,3,0,1,1,3-3A3,3,0,0,1,10,10Zm0-2A1,1,0,1,0,9,7,1,1,0,0,0,10,8Zm6,5.71a6.18,6.18,0,0,0-6,4.45.86.86,0,0,0,0,.28V19a1,1,0,0,0,1,1H21a1,1,0,0,0,1-1v-.56a.86.86,0,0,0,0-.28A6.18,6.18,0,0,0,16,13.71ZM18,10a2,2,0,1,0-2,2A2,2,0,0,0,18,10Z"/></svg>