<svg id="Layer_1" data-name="Layer 1" xmlns="http://www.w3.org/2000/svg" viewBox="0 0 24 24"><title>Tab Unselected</title><path d="M2,11.08a1,1,0,0,1,2,0V14a1,1,0,0,1-2,0ZM19,20a1,1,0,0,0,1-1,1,1,0,0,0-1-1H16.12a1,1,0,0,0,0,2Zm2-7.61a1,1,0,0,0-1,1v2.88a1,1,0,0,0,2,0V13.39A1,1,0,0,0,21,12.39ZM8.39,19a1,1,0,0,0,1,1h2.88a1,1,0,0,0,0-2H9.39A1,1,0,0,0,8.39,19ZM4.27,4.09A3,3,0,0,0,2,7v.23a1,1,0,0,0,2,0V7a1,1,0,0,1,.75-1,1,1,0,0,0-.48-1.94Zm-.19,13.3a1,1,0,1,0-1.84.79A3,3,0,0,0,5,20h.55a1,1,0,1,0,0-2H5A1,1,0,0,1,4.08,17.39ZM11.23,4H8.35a1,1,0,0,0,0,2h2.88a1,1,0,0,0,0-2ZM19,4H17a3,3,0,0,0,0,6h2a3,3,0,0,0,0-6Z"/></svg>