<svg id="Layer_1" data-name="Layer 1" xmlns="http://www.w3.org/2000/svg" viewBox="0 0 24 24"><title>Thumb Down</title><path d="M22,4V16a1,1,0,0,1-1,1H19a1,1,0,0,1-1-1V4a1,1,0,0,1,1-1h2A1,1,0,0,1,22,4ZM7.7,17.29,8.32,16H5.46a3,3,0,0,1-2.91-2.27L2.09,11.9A3,3,0,0,1,2.24,10L4.46,4.82A3,3,0,0,1,7.22,3H16a1,1,0,0,1,1,1V16a1,1,0,0,1-.5.87l-7,4A1,1,0,0,1,9,21a1,1,0,0,1-.71-.29A3,3,0,0,1,7.7,17.29ZM9.9,14a1,1,0,0,1,.9,1.43L9.51,18.15a1.09,1.09,0,0,0-.1.46L15,15.42V5H7.22a1,1,0,0,0-.93.61L4.08,10.77a1.08,1.08,0,0,0,0,.64l.46,1.83a1,1,0,0,0,1,.76Z"/></svg>