<svg id="Layer_1" data-name="Layer 1" xmlns="http://www.w3.org/2000/svg" viewBox="0 0 24 24"><title>Thumb Up</title><path d="M2,20V8A1,1,0,0,1,3,7H5A1,1,0,0,1,6,8V20a1,1,0,0,1-1,1H3A1,1,0,0,1,2,20ZM16.3,6.71,15.68,8h2.86a3,3,0,0,1,2.91,2.27l.46,1.83A3,3,0,0,1,21.76,14l-2.22,5.17A3,3,0,0,1,16.78,21H8a1,1,0,0,1-1-1V8a1,1,0,0,1,.5-.87l7-4a1,1,0,0,1,1.21.16A3,3,0,0,1,16.3,6.71ZM14.1,10a1,1,0,0,1-.9-1.43l1.29-2.72a1.09,1.09,0,0,0,.1-.46L9,8.58V19h7.78a1,1,0,0,0,.93-.61l2.21-5.16a1.08,1.08,0,0,0,0-.64l-.46-1.83a1,1,0,0,0-1-.76Z"/></svg>