<svg id="Layer_1" data-name="Layer 1" xmlns="http://www.w3.org/2000/svg" viewBox="0 0 24 24"><title>Translate</title><path d="M18,9.5a6.5,6.5,0,0,0-12,0H6a6.5,6.5,0,0,0,0,5H6a6.5,6.5,0,0,0,12,0h0a6.5,6.5,0,0,0,0-5Zm-1.11,0H14.78a8.62,8.62,0,0,0-1.52-2.85A5.49,5.49,0,0,1,16.89,9.5ZM17.5,12a5.72,5.72,0,0,1-.21,1.5H15a8.29,8.29,0,0,0,.15-1.5A8.29,8.29,0,0,0,15,10.5h2.27A5.72,5.72,0,0,1,17.5,12ZM12,17.26a7.54,7.54,0,0,1-1.73-2.76h3.46A7.54,7.54,0,0,1,12,17.26ZM10,13.5a7.11,7.11,0,0,1,0-3h4a7.11,7.11,0,0,1,0,3ZM6.5,12a5.72,5.72,0,0,1,.21-1.5H9A8.29,8.29,0,0,0,8.83,12,8.29,8.29,0,0,0,9,13.5H6.71A5.72,5.72,0,0,1,6.5,12ZM12,6.74A7.54,7.54,0,0,1,13.73,9.5H10.27A7.54,7.54,0,0,1,12,6.74Zm-1.26-.09A8.62,8.62,0,0,0,9.22,9.5H7.11A5.49,5.49,0,0,1,10.74,6.65ZM7.11,14.5H9.22a8.62,8.62,0,0,0,1.52,2.85A5.49,5.49,0,0,1,7.11,14.5Zm6.15,2.85a8.62,8.62,0,0,0,1.52-2.85h2.11A5.49,5.49,0,0,1,13.26,17.35ZM12,2A10,10,0,0,0,2.93,16.22L2,20.8a1,1,0,0,0,.27.91A1,1,0,0,0,3,22l.2,0,4.58-.91A10,10,0,1,0,12,2Zm0,18a8,8,0,0,1-3.63-.87A1,1,0,0,0,7.91,19l-.19,0-3.45.69L5,16.28a1,1,0,0,0-.09-.65A8,8,0,1,1,12,20Z"/></svg>