<svg id="Layer_1" data-name="Layer 1" xmlns="http://www.w3.org/2000/svg" viewBox="0 0 24 24"><title>User Group Remove</title><path d="M3,21H17a1,1,0,0,0,1-1v-.78a.92.92,0,0,0,0-.29A8.31,8.31,0,0,0,2,18.93a.92.92,0,0,0,0,.29V20A1,1,0,0,0,3,21Zm7-6a6.27,6.27,0,0,1,5.87,4H4.13A6.27,6.27,0,0,1,10,15ZM10,5a3,3,0,1,0,3,3A3,3,0,0,0,10,5Zm0,4a1,1,0,1,1,1-1A1,1,0,0,1,10,9Zm11.91,7.76.09.62V18a1,1,0,0,1-1,1h-.59a.48.48,0,0,1-.44-.27.65.65,0,0,1,0-.2,1.6,1.6,0,0,0-.05-.21c0-.1-.06-.2-.1-.3s-.13-.39-.21-.58A11.45,11.45,0,0,0,19,16.32a11,11,0,0,0-.65-1,11.44,11.44,0,0,0-.75-.94l-.18-.19q-.19-.21-.42-.42A10,10,0,0,0,16.1,13a11.35,11.35,0,0,0-1-.64c-.23-.13-.46-.25-.7-.36l-.09,0a.51.51,0,0,1-.22-.42.51.51,0,0,1,.39-.49,1.2,1.2,0,0,1,.42,0l.35,0,.68.13c.22,0,.45.12.66.19l.65.23.61.29c.2.11.4.22.59.34l.56.38.52.43c.17.15.33.31.49.47s.31.34.45.52.28.36.41.55a5.8,5.8,0,0,1,.36.59c.12.2.22.41.32.62s.19.43.27.65c0,.05,0,.09,0,.14A.58.58,0,0,1,21.91,16.76ZM13,4a.51.51,0,0,1,.15-.89,3,3,0,0,1,3.77,2.23,3.06,3.06,0,0,1,0,1.38,2.84,2.84,0,0,1-.56,1.11,3.56,3.56,0,0,1-.42.45,1.12,1.12,0,0,1-.22.16.38.38,0,0,1-.21.05A.5.5,0,0,1,15,8,5,5,0,0,0,13,4ZM8,4A1,1,0,0,1,7,5H3A1,1,0,0,1,3,3H7A1,1,0,0,1,8,4Z"/></svg>