<svg id="Layer_1" data-name="Layer 1" xmlns="http://www.w3.org/2000/svg" viewBox="0 0 24 24"><title>View List</title><path d="M6,2A3,3,0,0,0,3,5V19a3,3,0,0,0,3,3H18a3,3,0,0,0,3-3V5a3,3,0,0,0-3-3ZM19,5V19a1,1,0,0,1-1,1H6a1,1,0,0,1-1-1V5A1,1,0,0,1,6,4H18A1,1,0,0,1,19,5ZM9,8A1,1,0,1,1,8,7,1,1,0,0,1,9,8Zm8,0a1,1,0,0,1-1,1H12a1,1,0,0,1,0-2h4A1,1,0,0,1,17,8ZM9,12a1,1,0,1,1-1-1A1,1,0,0,1,9,12Zm8,0a1,1,0,0,1-1,1H12a1,1,0,0,1,0-2h4A1,1,0,0,1,17,12ZM9,16a1,1,0,1,1-1-1A1,1,0,0,1,9,16Zm8,0a1,1,0,0,1-1,1H12a1,1,0,0,1,0-2h4A1,1,0,0,1,17,16Z"/></svg>