<svg id="Layer_1" data-name="Layer 1" xmlns="http://www.w3.org/2000/svg" viewBox="0 0 24 24"><title>Visibility Off</title><path d="M16,11.86,12.14,8A4,4,0,0,1,16,11.86ZM12,5a10.3,10.3,0,0,0-2.55.32L11.17,7A7.56,7.56,0,0,1,12,7a8.8,8.8,0,0,1,7.9,5,9,9,0,0,1-1.54,2.23l1.42,1.42a11.17,11.17,0,0,0,2.14-3.26,1,1,0,0,0,0-.78A10.8,10.8,0,0,0,12,5Zm9.71,15.29a1,1,0,0,1,0,1.42,1,1,0,0,1-1.42,0L16.55,18A10.61,10.61,0,0,1,12,19a10.8,10.8,0,0,1-9.92-6.61,1,1,0,0,1,0-.78A11,11,0,0,1,5.67,7.08L2.29,3.71A1,1,0,0,1,3.71,2.29ZM10,12a1.95,1.95,0,0,0,2.5,1.92L10.08,11.5A2,2,0,0,0,10,12Zm5,4.43-1-1A3.92,3.92,0,0,1,12,16a4,4,0,0,1-4-4,3.92,3.92,0,0,1,.56-2L7.11,8.52A8.78,8.78,0,0,0,4.1,12,8.8,8.8,0,0,0,12,17,8.57,8.57,0,0,0,15,16.43Z"/></svg>