<svg id="Layer_1" data-name="Layer 1" xmlns="http://www.w3.org/2000/svg" viewBox="0 0 24 24"><title>Voice Over Off</title><path d="M13,8.89,10.11,6A3,3,0,0,1,13,8.89Zm5.68-6.73a1,1,0,0,0-.29,1.39,9.95,9.95,0,0,1,.06,10.79l1.42,1.42a.67.67,0,0,0,.2-.21,12,12,0,0,0,0-13.1A1,1,0,0,0,18.67,2.16ZM17,12.89A7.78,7.78,0,0,0,18,9a7.79,7.79,0,0,0-1.46-4.59,1,1,0,0,0-1.62,1.16,6,6,0,0,1,.58,5.83Zm4.72,7.4a1,1,0,0,1,0,1.42,1,1,0,0,1-1.42,0L17.61,19a9,9,0,0,1,.35.91.92.92,0,0,1,0,.29V21a1,1,0,0,1-1,1H3a1,1,0,0,1-1-1v-.78a.92.92,0,0,1,0-.29A8.25,8.25,0,0,1,10,14a8.41,8.41,0,0,1,3.28.69l-2.75-2.75A3.07,3.07,0,0,1,10,12,3,3,0,0,1,7,9a3.19,3.19,0,0,1,.06-.53L2.29,3.71A1,1,0,0,1,3.71,2.29ZM15.87,20A6.31,6.31,0,0,0,4.13,20Z"/></svg>