<svg id="Layer_1" data-name="Layer 1" xmlns="http://www.w3.org/2000/svg" viewBox="0 0 24 24"><title>Work Off</title><path d="M21.7,20.28h0a.47.47,0,0,0-.09-.06L3.71,2.29A1,1,0,0,0,2.29,3.71L4.62,6A3,3,0,0,0,2,9V19a3,3,0,0,0,3,3H19a3,3,0,0,0,1.29-.3h0a1,1,0,0,0,1.42,0,1,1,0,0,0,0-1.42ZM5,20a1,1,0,0,1-1-1V9A1,1,0,0,1,5,8H6.59l12,12ZM22,9v6.44a1,1,0,0,1-1.7.7h0a1,1,0,0,1-.29-.71V9a1,1,0,0,0-1-1H12.58a1,1,0,0,1-.71-.29h0a1,1,0,0,1,.7-1.7H15V5a1,1,0,0,0-1-1H10a1,1,0,0,0-.57.19A1,1,0,0,1,8.2,4a1,1,0,0,1,.17-1.55A3,3,0,0,1,10,2h4a3,3,0,0,1,3,3V6h2A3,3,0,0,1,22,9Z"/></svg>