<svg id="Layer_1" data-name="Layer 1" xmlns="http://www.w3.org/2000/svg" viewBox="0 0 24 24"><title>Wrench</title><path d="M15,10.2A6.66,6.66,0,0,0,13.24,4,6.57,6.57,0,0,0,6,2.5a1,1,0,0,0-.6.72,1,1,0,0,0,.27.91L7.58,6,6,7.58,4.13,5.71a1,1,0,0,0-.91-.27A1,1,0,0,0,2.5,6,6.57,6.57,0,0,0,4,13.24,6.66,6.66,0,0,0,10.2,15l5.3,5.29a3,3,0,0,0,2.13.88,3,3,0,0,0,2.13-.88l.53-.53a3,3,0,0,0,0-4.26Zm3.87,8.14-.53.53a1,1,0,0,1-1.42,0L11.2,13.16a1,1,0,0,0-.71-.29,1,1,0,0,0-.33.06,4.63,4.63,0,0,1-4.79-1.11A4.69,4.69,0,0,1,4,8.42L5.29,9.71a1,1,0,0,0,1.42,0l3-3a1,1,0,0,0,0-1.42L8.42,4a4.89,4.89,0,0,1,3.4,1.37,4.63,4.63,0,0,1,1.11,4.79,1,1,0,0,0,.23,1l5.71,5.72A1,1,0,0,1,18.87,18.34Z"/></svg>