<svg id="Layer_1" data-name="Layer 1" xmlns="http://www.w3.org/2000/svg" viewBox="0 0 24 24"><title>Border Color</title><path d="M6.31,18l4.23-1.39a1.08,1.08,0,0,0,.39-.25l7.78-7.77h0l1.41-1.42a3,3,0,0,0,0-4.24,3.08,3.08,0,0,0-4.24,0L14.47,4.29h0L6.69,12.07a1.08,1.08,0,0,0-.25.39L5.05,16.69A1,1,0,0,0,6,18,1.12,1.12,0,0,0,6.31,18ZM18.71,4.29a1,1,0,0,1,0,1.42l-.71.7L16.59,5l.7-.71A1,1,0,0,1,18.71,4.29Zm-10.44,9,6.9-6.91,1.42,1.42-6.91,6.9-2.11.7ZM4.5,19h15a1.5,1.5,0,0,1,0,3H4.5a1.5,1.5,0,0,1,0-3Z"/></svg>