<svg id="Layer_1" data-name="Layer 1" xmlns="http://www.w3.org/2000/svg" viewBox="0 0 24 24"><title>Border Horizontal</title><path d="M19,4a1,1,0,1,1,1,1A1,1,0,0,1,19,4ZM17,4a1,1,0,1,0-1,1A1,1,0,0,0,17,4ZM12,5a1,1,0,1,0-1-1A1,1,0,0,0,12,5ZM9,4A1,1,0,1,0,8,5,1,1,0,0,0,9,4ZM4,5A1,1,0,1,0,3,4,1,1,0,0,0,4,5ZM4,9A1,1,0,1,0,3,8,1,1,0,0,0,4,9ZM4,21a1,1,0,1,0-1-1A1,1,0,0,0,4,21Zm0-4a1,1,0,1,0-1-1A1,1,0,0,0,4,17ZM20,9a1,1,0,1,0-1-1A1,1,0,0,0,20,9ZM12,9a1,1,0,1,0-1-1A1,1,0,0,0,12,9Zm0,12a1,1,0,1,0-1-1A1,1,0,0,0,12,21Zm0-4a1,1,0,1,0-1-1A1,1,0,0,0,12,17ZM9,20a1,1,0,1,0-1,1A1,1,0,0,0,9,20Zm8,0a1,1,0,1,0-1,1A1,1,0,0,0,17,20Zm4,0a1,1,0,1,0-1,1A1,1,0,0,0,21,20Zm-1-5a1,1,0,1,0,1,1A1,1,0,0,0,20,15ZM4,13H20a1,1,0,0,0,0-2H4a1,1,0,0,0,0,2Z"/></svg>