<svg id="Layer_1" data-name="Layer 1" xmlns="http://www.w3.org/2000/svg" viewBox="0 0 24 24"><title>Border Right</title><path d="M3,4A1,1,0,1,1,4,5,1,1,0,0,1,3,4ZM4,9A1,1,0,1,0,3,8,1,1,0,0,0,4,9Zm0,4a1,1,0,1,0-1-1A1,1,0,0,0,4,13Zm0,4a1,1,0,1,0-1-1A1,1,0,0,0,4,17Zm0,4a1,1,0,1,0-1-1A1,1,0,0,0,4,21Zm4,0a1,1,0,1,0-1-1A1,1,0,0,0,8,21Zm4-2a1,1,0,1,0,1,1A1,1,0,0,0,12,19Zm4,2a1,1,0,1,0-1-1A1,1,0,0,0,16,21ZM7,4A1,1,0,1,0,8,3,1,1,0,0,0,7,4Zm1,9a1,1,0,1,0-1-1A1,1,0,0,0,8,13Zm4-2a1,1,0,1,0,1,1A1,1,0,0,0,12,11Zm4,2a1,1,0,1,0-1-1A1,1,0,0,0,16,13Zm-4,2a1,1,0,1,0,1,1A1,1,0,0,0,12,15Zm0-8a1,1,0,1,0,1,1A1,1,0,0,0,12,7Zm0-4a1,1,0,1,0,1,1A1,1,0,0,0,12,3Zm4,2a1,1,0,1,0-1-1A1,1,0,0,0,16,5Zm3-1V20a1,1,0,0,0,2,0V4a1,1,0,0,0-2,0Z"/></svg>