<svg id="Layer_1" data-name="Layer 1" xmlns="http://www.w3.org/2000/svg" viewBox="0 0 24 24"><title>Border Inner</title><path d="M19,4a1,1,0,1,1,1,1A1,1,0,0,1,19,4ZM17,4a1,1,0,1,0-1,1A1,1,0,0,0,17,4ZM9,4A1,1,0,1,0,8,5,1,1,0,0,0,9,4ZM4,5A1,1,0,1,0,3,4,1,1,0,0,0,4,5ZM4,9A1,1,0,1,0,3,8,1,1,0,0,0,4,9ZM4,21a1,1,0,1,0-1-1A1,1,0,0,0,4,21Zm0-4a1,1,0,1,0-1-1A1,1,0,0,0,4,17ZM20,9a1,1,0,1,0-1-1A1,1,0,0,0,20,9ZM7,20a1,1,0,1,0,1-1A1,1,0,0,0,7,20Zm8,0a1,1,0,1,0,1-1A1,1,0,0,0,15,20Zm5-1a1,1,0,1,0,1,1A1,1,0,0,0,20,19Zm0-4a1,1,0,1,0,1,1A1,1,0,0,0,20,15ZM4,13h7v7a1,1,0,0,0,2,0V13h7a1,1,0,0,0,0-2H13V4a1,1,0,0,0-2,0v7H4a1,1,0,0,0,0,2Z"/></svg>