<svg id="Layer_1" data-name="Layer 1" xmlns="http://www.w3.org/2000/svg" viewBox="0 0 24 24"><title>Border Left</title><path d="M19,20a1,1,0,1,1,1,1A1,1,0,0,1,19,20Zm1-3a1,1,0,1,0-1-1A1,1,0,0,0,20,17Zm0-4a1,1,0,1,0-1-1A1,1,0,0,0,20,13Zm0-4a1,1,0,1,0-1-1A1,1,0,0,0,20,9Zm0-4a1,1,0,1,0-1-1A1,1,0,0,0,20,5ZM16,3a1,1,0,1,0,1,1A1,1,0,0,0,16,3ZM12,3a1,1,0,1,0,1,1A1,1,0,0,0,12,3ZM8,3A1,1,0,1,0,9,4,1,1,0,0,0,8,3Zm8,16a1,1,0,1,0,1,1A1,1,0,0,0,16,19Zm0-8a1,1,0,1,0,1,1A1,1,0,0,0,16,11Zm-4,0a1,1,0,1,0,1,1A1,1,0,0,0,12,11ZM8,11a1,1,0,1,0,1,1A1,1,0,0,0,8,11Zm4-4a1,1,0,1,0,1,1A1,1,0,0,0,12,7Zm0,8a1,1,0,1,0,1,1A1,1,0,0,0,12,15Zm0,4a1,1,0,1,0,1,1A1,1,0,0,0,12,19ZM8,19a1,1,0,1,0,1,1A1,1,0,0,0,8,19ZM4,21a1,1,0,0,0,1-1V4A1,1,0,0,0,3,4V20A1,1,0,0,0,4,21Z"/></svg>