<svg id="Layer_1" data-name="Layer 1" xmlns="http://www.w3.org/2000/svg" viewBox="0 0 24 24"><title>Border Bottom</title><path d="M20,3a1,1,0,1,1-1,1A1,1,0,0,1,20,3ZM16,3a1,1,0,1,0,1,1A1,1,0,0,0,16,3ZM12,3a1,1,0,1,0,1,1A1,1,0,0,0,12,3ZM8,3A1,1,0,1,0,9,4,1,1,0,0,0,8,3ZM4,5A1,1,0,1,0,3,4,1,1,0,0,0,4,5ZM4,9A1,1,0,1,0,3,8,1,1,0,0,0,4,9Zm0,4a1,1,0,1,0-1-1A1,1,0,0,0,4,13Zm0,4a1,1,0,1,0-1-1A1,1,0,0,0,4,17ZM20,7a1,1,0,1,0,1,1A1,1,0,0,0,20,7ZM12,7a1,1,0,1,0,1,1A1,1,0,0,0,12,7Zm0,4a1,1,0,1,0,1,1A1,1,0,0,0,12,11Zm0,4a1,1,0,1,0,1,1A1,1,0,0,0,12,15ZM8,11a1,1,0,1,0,1,1A1,1,0,0,0,8,11Zm8,0a1,1,0,1,0,1,1A1,1,0,0,0,16,11Zm4,0a1,1,0,1,0,1,1A1,1,0,0,0,20,11Zm0,4a1,1,0,1,0,1,1A1,1,0,0,0,20,15ZM4,21H20a1,1,0,0,0,0-2H4a1,1,0,0,0,0,2Z"/></svg>