<svg id="Layer_1" data-name="Layer 1" xmlns="http://www.w3.org/2000/svg" viewBox="0 0 24 24"><title>Border Vertical</title><path d="M21,20a1,1,0,1,1-1-1A1,1,0,0,1,21,20Zm-1-5a1,1,0,1,0,1,1A1,1,0,0,0,20,15Zm0-4a1,1,0,1,0,1,1A1,1,0,0,0,20,11Zm0-4a1,1,0,1,0,1,1A1,1,0,0,0,20,7Zm0-4a1,1,0,1,0,1,1A1,1,0,0,0,20,3ZM16,3a1,1,0,1,0,1,1A1,1,0,0,0,16,3ZM4,5A1,1,0,1,0,3,4,1,1,0,0,0,4,5ZM8,3A1,1,0,1,0,9,4,1,1,0,0,0,8,3Zm8,16a1,1,0,1,0,1,1A1,1,0,0,0,16,19Zm0-8a1,1,0,1,0,1,1A1,1,0,0,0,16,11ZM4,13a1,1,0,1,0-1-1A1,1,0,0,0,4,13Zm4-2a1,1,0,1,0,1,1A1,1,0,0,0,8,11ZM4,9A1,1,0,1,0,3,8,1,1,0,0,0,4,9Zm0,8a1,1,0,1,0-1-1A1,1,0,0,0,4,17Zm0,4a1,1,0,1,0-1-1A1,1,0,0,0,4,21Zm4-2a1,1,0,1,0,1,1A1,1,0,0,0,8,19ZM11,4V20a1,1,0,0,0,2,0V4a1,1,0,0,0-2,0Z"/></svg>