<svg id="Layer_1" data-name="Layer 1" xmlns="http://www.w3.org/2000/svg" viewBox="0 0 24 24"><title>Border Top</title><path d="M3,20a1,1,0,1,1,1,1A1,1,0,0,1,3,20Zm5-1a1,1,0,1,0,1,1A1,1,0,0,0,8,19Zm4,0a1,1,0,1,0,1,1A1,1,0,0,0,12,19Zm4,0a1,1,0,1,0,1,1A1,1,0,0,0,16,19Zm4,0a1,1,0,1,0,1,1A1,1,0,0,0,20,19Zm0-4a1,1,0,1,0,1,1A1,1,0,0,0,20,15Zm0-4a1,1,0,1,0,1,1A1,1,0,0,0,20,11Zm0-4a1,1,0,1,0,1,1A1,1,0,0,0,20,7ZM4,17a1,1,0,1,0-1-1A1,1,0,0,0,4,17Zm8-2a1,1,0,1,0,1,1A1,1,0,0,0,12,15Zm0-4a1,1,0,1,0,1,1A1,1,0,0,0,12,11Zm0-4a1,1,0,1,0,1,1A1,1,0,0,0,12,7Zm4,4a1,1,0,1,0,1,1A1,1,0,0,0,16,11ZM8,11a1,1,0,1,0,1,1A1,1,0,0,0,8,11ZM4,13a1,1,0,1,0-1-1A1,1,0,0,0,4,13ZM4,9A1,1,0,1,0,3,8,1,1,0,0,0,4,9ZM4,5H20a1,1,0,0,0,0-2H4A1,1,0,0,0,4,5Z"/></svg>