<svg id="Layer_1" data-name="Layer 1" xmlns="http://www.w3.org/2000/svg" viewBox="0 0 24 24"><title>Border Clear</title><path d="M7,4A1,1,0,1,1,8,5,1,1,0,0,1,7,4ZM4,5A1,1,0,1,0,3,4,1,1,0,0,0,4,5ZM8,21a1,1,0,1,0-1-1A1,1,0,0,0,8,21ZM4,21a1,1,0,1,0-1-1A1,1,0,0,0,4,21ZM4,9A1,1,0,1,0,3,8,1,1,0,0,0,4,9Zm0,4a1,1,0,1,0-1-1A1,1,0,0,0,4,13Zm0,4a1,1,0,1,0-1-1A1,1,0,0,0,4,17Zm4-4a1,1,0,1,0-1-1A1,1,0,0,0,8,13ZM20,5a1,1,0,1,0-1-1A1,1,0,0,0,20,5ZM15,4a1,1,0,1,1,1,1A1,1,0,0,1,15,4ZM11,4a1,1,0,1,1,1,1A1,1,0,0,1,11,4Zm8,16a1,1,0,1,1,1,1A1,1,0,0,1,19,20Zm-4,0a1,1,0,1,1,1,1A1,1,0,0,1,15,20Zm-4,0a1,1,0,1,1,1,1A1,1,0,0,1,11,20ZM19,8a1,1,0,1,1,1,1A1,1,0,0,1,19,8ZM11,8a1,1,0,1,1,1,1A1,1,0,0,1,11,8Zm0,4a1,1,0,1,1,1,1A1,1,0,0,1,11,12Zm0,4a1,1,0,1,1,1,1A1,1,0,0,1,11,16Zm4-4a1,1,0,1,1,1,1A1,1,0,0,1,15,12Zm4,0a1,1,0,1,1,1,1A1,1,0,0,1,19,12Zm0,4a1,1,0,1,1,1,1A1,1,0,0,1,19,16Z"/></svg>