<svg id="Layer_1" data-name="Layer 1" xmlns="http://www.w3.org/2000/svg" viewBox="0 0 24 24"><title>Format Shapes</title><path d="M21,2H17a1,1,0,0,0-1,1V4H8V3A1,1,0,0,0,7,2H3A1,1,0,0,0,2,3V7A1,1,0,0,0,3,8H4v8H3a1,1,0,0,0-1,1v4a1,1,0,0,0,1,1H7a1,1,0,0,0,1-1V20h8v1a1,1,0,0,0,1,1h4a1,1,0,0,0,1-1V17a1,1,0,0,0-1-1H20V8h1a1,1,0,0,0,1-1V3A1,1,0,0,0,21,2ZM4,4H6V6H4ZM6,20H4V18H6Zm14,0H18V18h2Zm-2-4H17a1,1,0,0,0-1,1v1H8V17a1,1,0,0,0-1-1H6V8H7A1,1,0,0,0,8,7V6h8V7a1,1,0,0,0,1,1h1ZM20,6H18V4h2ZM16,9a1,1,0,0,1-1,1H13v5a1,1,0,0,1-2,0V10H9A1,1,0,0,1,9,8h6A1,1,0,0,1,16,9Z"/></svg>