<svg id="Layer_1" data-name="Layer 1" xmlns="http://www.w3.org/2000/svg" viewBox="0 0 24 24"><title>List Numbered</title><path d="M8,6A1,1,0,0,1,9,5H20a1,1,0,0,1,0,2H9A1,1,0,0,1,8,6Zm1,7H20a1,1,0,0,0,0-2H9a1,1,0,0,0,0,2Zm0,6H20a1,1,0,0,0,0-2H9a1,1,0,0,0,0,2ZM4.54,8.29A.45.45,0,0,0,5,7.84V4.46A.45.45,0,0,0,4.54,4h0a1.59,1.59,0,0,0-.43.08l-.59.17a.41.41,0,0,0-.31.4A.41.41,0,0,0,3.6,5l.16,0,.33-.08v2.9A.45.45,0,0,0,4.54,8.29Zm-.11,3.83-1.19,1a.57.57,0,0,0-.24.46.44.44,0,0,0,.5.44H5.78a.39.39,0,0,0,.4-.4.4.4,0,0,0-.4-.4H4.31L5,12.67c.74-.57,1.1-.92,1.1-1.62h0a1.3,1.3,0,0,0-1.44-1.3,1.65,1.65,0,0,0-1.37.62.46.46,0,0,0-.11.29.42.42,0,0,0,.42.42.45.45,0,0,0,.31-.13.88.88,0,0,1,.68-.37.52.52,0,0,1,.57.55C5.16,11.46,5,11.7,4.43,12.12Zm.13,7.05a1.21,1.21,0,0,1-.82-.31.43.43,0,0,0-.3-.11.44.44,0,0,0-.44.44.44.44,0,0,0,.16.33A2.06,2.06,0,0,0,4.55,20a1.37,1.37,0,0,0,1.51-1.37v0c0-.78-.56-1.07-1.13-1.17l.82-.79A.65.65,0,0,0,6,16.14a.42.42,0,0,0-.47-.41h-2a.4.4,0,1,0,0,.79H4.81L4,17.34a.55.55,0,0,0-.2.38.4.4,0,0,0,.4.4h.14c.52,0,.82.19.82.53h0A.52.52,0,0,1,4.56,19.17Z"/></svg>