<svg id="Layer_1" data-name="Layer 1" xmlns="http://www.w3.org/2000/svg" viewBox="0 0 24 24"><title>Money Off</title><path d="M21.71,20.29a1,1,0,0,1,0,1.42,1,1,0,0,1-1.42,0l-4-4A5,5,0,0,1,13,19.91V21a1,1,0,0,1-2,0V19.91A4.66,4.66,0,0,1,7,15.5a1,1,0,0,1,2,0A2.79,2.79,0,0,0,12,18a3,3,0,0,0,2.84-1.74L11.54,13A4.71,4.71,0,0,1,7,8.5s0-.05,0-.08L2.29,3.71A1,1,0,0,1,3.71,2.29ZM12,2a1,1,0,0,0-1,1V4.09a6,6,0,0,0-.61.15A1,1,0,0,0,10,5.9a1,1,0,0,0,1,.24A3.46,3.46,0,0,1,12,6a2.79,2.79,0,0,1,3,2.5,1,1,0,0,0,2,0,4.66,4.66,0,0,0-4-4.41V3A1,1,0,0,0,12,2Z"/></svg>