<svg id="Layer_1" data-name="Layer 1" xmlns="http://www.w3.org/2000/svg" viewBox="0 0 24 24"><title>Move</title><path d="M21.88,11.67a.51.51,0,0,1,0,.66l-3,3.5a.52.52,0,0,1-.38.17.47.47,0,0,1-.17,0A.5.5,0,0,1,18,15.5V13H13v5h2.5a.5.5,0,0,1,.47.33.52.52,0,0,1-.14.55l-3.5,3a.51.51,0,0,1-.66,0l-3.5-3A.52.52,0,0,1,8,18.33.5.5,0,0,1,8.5,18H11V13H6v2.5a.5.5,0,0,1-.33.47.47.47,0,0,1-.17,0,.52.52,0,0,1-.38-.17l-3-3.5a.51.51,0,0,1,0-.66l3-3.5A.5.5,0,0,1,6,8.5V11h5V6H8.5A.5.5,0,0,1,8,5.67a.52.52,0,0,1,.14-.55l3.5-3a.51.51,0,0,1,.66,0l3.5,3a.52.52,0,0,1,.14.55A.5.5,0,0,1,15.5,6H13v5h5V8.5a.5.5,0,0,1,.88-.33Z"/></svg>