<svg id="Layer_1" data-name="Layer 1" xmlns="http://www.w3.org/2000/svg" viewBox="0 0 24 24"><title>Score</title><path d="M19,4H18V3a1,1,0,0,0-2,0V4H8V3A1,1,0,0,0,6,3V4H5A3,3,0,0,0,2,7V19a3,3,0,0,0,3,3H19a3,3,0,0,0,3-3V7A3,3,0,0,0,19,4ZM4,7A1,1,0,0,1,5,6H6V7A1,1,0,0,0,8,7V6h8V7a1,1,0,0,0,2,0V6h1a1,1,0,0,1,1,1v3H4ZM4,19V12h7v8H5A1,1,0,0,1,4,19Zm16,0a1,1,0,0,1-1,1H13V12h7ZM7.5,14A1.5,1.5,0,0,0,6,15.5v1a1.5,1.5,0,0,0,3,0v-1A1.5,1.5,0,0,0,7.5,14ZM8,16.5a.5.5,0,0,1-1,0v-1a.5.5,0,0,1,1,0ZM16.5,18A1.5,1.5,0,0,0,18,16.5v-1a1.5,1.5,0,0,0-3,0v1A1.5,1.5,0,0,0,16.5,18ZM16,15.5a.5.5,0,0,1,1,0v1a.5.5,0,0,1-1,0Z"/></svg>