<svg id="Layer_1" data-name="Layer 1" xmlns="http://www.w3.org/2000/svg" viewBox="0 0 24 24"><title>4k</title><path d="M19,2H5A3,3,0,0,0,2,5V19a3,3,0,0,0,3,3H19a3,3,0,0,0,3-3V5A3,3,0,0,0,19,2Zm1,17a1,1,0,0,1-1,1H5a1,1,0,0,1-1-1V5A1,1,0,0,1,5,4H19a1,1,0,0,1,1,1Zm-8-6a1,1,0,0,1-1,1v1a1,1,0,0,1-2,0V14H6a1,1,0,0,1-1-1V9A1,1,0,0,1,7,9v3H9V9a1,1,0,0,1,2,0v3A1,1,0,0,1,12,13Zm6.71-3.29L16.41,12l2.3,2.29a1,1,0,0,1,0,1.42,1,1,0,0,1-1.42,0L15,13.41V15a1,1,0,0,1-2,0V9a1,1,0,0,1,2,0v1.59l2.29-2.3a1,1,0,0,1,1.42,1.42Z"/></svg>