<svg id="Layer_1" data-name="Layer 1" xmlns="http://www.w3.org/2000/svg" viewBox="0 0 24 24"><title>Add Camera</title><path d="M22,10v8a3,3,0,0,1-3,3H7a3,3,0,0,1-3-3V12a1,1,0,0,1,2,0v6a1,1,0,0,0,1,1H19a1,1,0,0,0,1-1V10a1,1,0,0,0-1-1H18a1,1,0,0,1-.89-.55l-.45-.9a1,1,0,0,0-.9-.55H11a1,1,0,0,1,0-2h4.76a3,3,0,0,1,2.69,1.66l.17.34H19A3,3,0,0,1,22,10Zm-9,8a4,4,0,1,1,4-4A4,4,0,0,1,13,18Zm0-2a2,2,0,1,0-2-2A2,2,0,0,0,13,16ZM3,7H4V8A1,1,0,0,0,6,8V7H7A1,1,0,0,0,7,5H6V4A1,1,0,0,0,4,4V5H3A1,1,0,0,0,3,7Z"/></svg>