<svg id="Layer_1" data-name="Layer 1" xmlns="http://www.w3.org/2000/svg" viewBox="0 0 24 24"><title>Add Photo</title><path d="M2,19V7A3,3,0,0,1,5,4h8a1,1,0,0,1,0,2H5A1,1,0,0,0,4,7V19a1,1,0,0,0,1,1H17a1,1,0,0,0,1-1V11a1,1,0,0,1,2,0v8a3,3,0,0,1-3,3H5A3,3,0,0,1,2,19Zm10.67-5.88-1.2,1L9.41,11.21a.53.53,0,0,0-.82,0l-3.5,5a.49.49,0,0,0,0,.52A.48.48,0,0,0,5.5,17h11a.5.5,0,0,0,.47-.33.52.52,0,0,0-.14-.55l-3.5-3A.51.51,0,0,0,12.67,13.12ZM13,10a1,1,0,1,0,1-1A1,1,0,0,0,13,10Zm8-6H20V3a1,1,0,0,0-2,0V4H17a1,1,0,0,0,0,2h1V7a1,1,0,0,0,2,0V6h1a1,1,0,0,0,0-2Z"/></svg>