<svg id="Layer_1" data-name="Layer 1" xmlns="http://www.w3.org/2000/svg" viewBox="0 0 24 24"><title>Alphabetical Sorting</title><path d="M13.17,18.88a.52.52,0,0,1-.14-.55A.5.5,0,0,1,13.5,18H16V3a1,1,0,0,1,2,0V18h2.5a.5.5,0,0,1,.47.33.52.52,0,0,1-.14.55l-3.5,3a.51.51,0,0,1-.66,0ZM3.08,9.61l3-7a1,1,0,0,1,1.84,0l3,7a1,1,0,0,1-.53,1.31A1,1,0,0,1,10,11a1,1,0,0,1-.92-.61L8.48,9h-3l-.6,1.39a1,1,0,1,1-1.84-.78ZM7,5.54,6.37,7H7.63ZM3.08,21.38A1,1,0,0,0,4,22h6a1,1,0,0,0,0-2H6.41l4.3-4.29a1,1,0,0,0,.21-1.09A1,1,0,0,0,10,14H4a1,1,0,0,0,0,2H7.59l-4.3,4.29A1,1,0,0,0,3.08,21.38Z"/></svg>