<svg id="Layer_1" data-name="Layer 1" xmlns="http://www.w3.org/2000/svg" viewBox="0 0 24 24"><title>Art Track</title><path d="M5.05,13.72a.51.51,0,0,1,0-.52l1.5-2a.52.52,0,0,1,.8,0l.88,1.18.44-.3a.52.52,0,0,1,.56,0l1.5,1a.52.52,0,0,1,.2.57.5.5,0,0,1-.48.35h-5A.51.51,0,0,1,5.05,13.72ZM2,15V9A3,3,0,0,1,5,6h6a3,3,0,0,1,3,3v6a3,3,0,0,1-3,3H5A3,3,0,0,1,2,15Zm2,0a1,1,0,0,0,1,1h6a1,1,0,0,0,1-1V9a1,1,0,0,0-1-1H5A1,1,0,0,0,4,9ZM21,7H17a1,1,0,0,0,0,2h4a1,1,0,0,0,0-2Zm0,4H17a1,1,0,0,0,0,2h4a1,1,0,0,0,0-2Zm0,4H17a1,1,0,0,0,0,2h4a1,1,0,0,0,0-2Z"/></svg>