<svg id="Layer_1" data-name="Layer 1" xmlns="http://www.w3.org/2000/svg" viewBox="0 0 24 24"><title>Blur Linear</title><path d="M17,7a.5.5,0,1,1-.5-.5A.5.5,0,0,1,17,7ZM13,6a1,1,0,1,0,1,1A1,1,0,0,0,13,6Zm5,16H6a3,3,0,0,1-3-3V5A3,3,0,0,1,6,2H18a3,3,0,0,1,3,3V19A3,3,0,0,1,18,22ZM6,20H18a1,1,0,0,0,1-1V5a1,1,0,0,0-1-1H6A1,1,0,0,0,5,5V19A1,1,0,0,0,6,20Zm10.5-8.5a.5.5,0,1,0,.5.5A.5.5,0,0,0,16.5,11.5ZM13,11a1,1,0,1,0,1,1A1,1,0,0,0,13,11Zm-4.5-.5A1.5,1.5,0,1,0,10,12,1.5,1.5,0,0,0,8.5,10.5Zm0,5A1.5,1.5,0,1,0,10,17,1.5,1.5,0,0,0,8.5,15.5Zm0-10A1.5,1.5,0,1,0,10,7,1.5,1.5,0,0,0,8.5,5.5Zm8,11a.5.5,0,1,0,.5.5A.5.5,0,0,0,16.5,16.5ZM13,16a1,1,0,1,0,1,1A1,1,0,0,0,13,16Z"/></svg>