<svg id="Layer_1" data-name="Layer 1" xmlns="http://www.w3.org/2000/svg" viewBox="0 0 24 24"><title>Brightness 7</title><path d="M19,8.59V6a1,1,0,0,0-1-1H15.41l-2.7-2.71a1,1,0,0,0-1.42,0L8.59,5H6A1,1,0,0,0,5,6V8.59l-2.71,2.7a1,1,0,0,0,0,1.42L5,15.41V18a1,1,0,0,0,1,1H8.59l2.7,2.71a1,1,0,0,0,1.42,0L15.41,19H18a1,1,0,0,0,1-1V15.41l2.71-2.7a1,1,0,0,0,0-1.42Zm-1.71,5.7A1,1,0,0,0,17,15v2H15a1,1,0,0,0-.71.29L12,19.59l-2.29-2.3A1,1,0,0,0,9,17H7V15a1,1,0,0,0-.29-.71L4.41,12l2.3-2.29A1,1,0,0,0,7,9V7H9a1,1,0,0,0,.71-.29L12,4.41l2.29,2.3A1,1,0,0,0,15,7h2V9a1,1,0,0,0,.29.71L19.59,12ZM16,12a4,4,0,0,1-3.43,3.94H12.5a.5.5,0,0,1-.33-.12.52.52,0,0,1-.17-.38V8.55a.52.52,0,0,1,.17-.38.49.49,0,0,1,.4-.11A4,4,0,0,1,16,12Z"/></svg>