<svg id="Layer_1" data-name="Layer 1" xmlns="http://www.w3.org/2000/svg" viewBox="0 0 24 24"><title>Broken Image</title><path d="M21,2H3A1,1,0,0,0,2,3v7a1,1,0,0,0,.4.8,1,1,0,0,0,.87.16l6-1.71.75,3a1,1,0,0,0,.58.68A1,1,0,0,0,11,13a1,1,0,0,0,.5-.13L18,9.17l2.49,1.66a1,1,0,0,0,1,.05A1,1,0,0,0,22,10V3A1,1,0,0,0,21,2ZM20,8.13l-1.45-1a1,1,0,0,0-1.05,0l-5.85,3.35L11,7.76a1,1,0,0,0-.47-.63A1.09,1.09,0,0,0,10,7a.84.84,0,0,0-.27,0L4,8.67V4H20Zm1.55,5-3-2a1,1,0,0,0-1.08,0l-7,4.37L8.93,11.63a1,1,0,0,0-1.3-.56l-5,2A1,1,0,0,0,2,14v7a1,1,0,0,0,1,1H21a1,1,0,0,0,1-1V14A1,1,0,0,0,21.55,13.17ZM20,20H4V14.68L7.44,13.3l1.63,4.07a1,1,0,0,0,.62.58,1,1,0,0,0,.84-.1L18,13.19l2,1.35Z"/></svg>