<svg id="Layer_1" data-name="Layer 1" xmlns="http://www.w3.org/2000/svg" viewBox="0 0 24 24"><title>Brush</title><path d="M16.88,2.88,7.8,12A4.77,4.77,0,0,0,3.86,13.3a3.44,3.44,0,0,0-.51.68,3.23,3.23,0,0,0,.38,3.69,1.42,1.42,0,0,1,.32.91A1.46,1.46,0,0,1,2.84,20,1,1,0,0,0,2,21.08,1,1,0,0,0,3,22H4.12a12.39,12.39,0,0,0,4.21-.68A6.25,6.25,0,0,0,10.61,20,4.72,4.72,0,0,0,12,16.28l9.16-9.16A3,3,0,0,0,22,5a2.93,2.93,0,0,0-.88-2.11A3,3,0,0,0,16.88,2.88ZM9.2,18.61a4.56,4.56,0,0,1-1.55.83,10.22,10.22,0,0,1-1.85.45,3.59,3.59,0,0,0,.25-1.31,3.45,3.45,0,0,0-.76-2.16A1.3,1.3,0,0,1,5.06,15a1.13,1.13,0,0,1,.23-.3,2.72,2.72,0,0,1,2-.81,2.76,2.76,0,0,1,2,4.71Zm1.41-5.32a5.1,5.1,0,0,0-.73-.59l1.32-1.31,1.41,1.41-1.34,1.34A4.42,4.42,0,0,0,10.61,13.29ZM19.7,5.7,14,11.39,12.61,10,18.3,4.29A1,1,0,1,1,19.7,5.7Z"/></svg>