<svg id="Layer_1" data-name="Layer 1" xmlns="http://www.w3.org/2000/svg" viewBox="0 0 24 24"><title>Burst Mode</title><path d="M5.05,9.72a.51.51,0,0,1,0-.52l1.5-2a.52.52,0,0,1,.8,0l.88,1.18.44-.3a.52.52,0,0,1,.56,0l1.5,1a.52.52,0,0,1,.2.57.5.5,0,0,1-.48.35h-5A.51.51,0,0,1,5.05,9.72ZM2,11V5A3,3,0,0,1,5,2h6a3,3,0,0,1,3,3v6a3,3,0,0,1-3,3H5A3,3,0,0,1,2,11Zm2,0a1,1,0,0,0,1,1h6a1,1,0,0,0,1-1V5a1,1,0,0,0-1-1H5A1,1,0,0,0,4,5ZM16,5V15a1,1,0,0,1-1,1H5a1,1,0,0,0,0,2H15a3,3,0,0,0,3-3V5a1,1,0,0,0-2,0Zm5,3a1,1,0,0,0-1,1V19a1,1,0,0,1-1,1H9a1,1,0,0,0,0,2H19a3,3,0,0,0,3-3V9A1,1,0,0,0,21,8ZM9.5,7A.5.5,0,1,0,9,6.5.5.5,0,0,0,9.5,7Z"/></svg>