<svg id="Layer_1" data-name="Layer 1" xmlns="http://www.w3.org/2000/svg" viewBox="0 0 24 24"><title>Camera Rear</title><path d="M16,2H8A3,3,0,0,0,5,5v9a3,3,0,0,0,3,3h8a3,3,0,0,0,3-3V5A3,3,0,0,0,16,2Zm1,12a1,1,0,0,1-1,1H8a1,1,0,0,1-1-1V5A1,1,0,0,1,8,4h8a1,1,0,0,1,1,1ZM14,7a2,2,0,1,1-2-2A2,2,0,0,1,14,7Zm5,13a1,1,0,0,1-1,1H14a1,1,0,0,1,0-2h4A1,1,0,0,1,19,20Zm-9,1.5V21H6a1,1,0,0,1,0-2h4v-.5a.5.5,0,0,1,.36-.48.51.51,0,0,1,.56.2l1,1.5a.52.52,0,0,1,0,.56l-1,1.5a.52.52,0,0,1-.42.22l-.14,0A.5.5,0,0,1,10,21.5Z"/></svg>