<svg id="Layer_1" data-name="Layer 1" xmlns="http://www.w3.org/2000/svg" viewBox="0 0 24 24"><title>Camera Roll</title><path d="M5,22h6a3,3,0,0,0,2.82-2H19a3,3,0,0,0,3-3V10a3,3,0,0,0-3-3H13.82A3,3,0,0,0,11,5h0V4A2,2,0,0,0,9,2H7A2,2,0,0,0,5,4V5H5A3,3,0,0,0,2,8V19A3,3,0,0,0,5,22ZM20,10v7a1,1,0,0,1-1,1H14V17h1.5a.5.5,0,0,0,.5-.5v-1a.5.5,0,0,0-.5-.5H14V12h1.5a.5.5,0,0,0,.5-.5v-1a.5.5,0,0,0-.5-.5H14V9h5A1,1,0,0,1,20,10ZM7,4H9V5H7ZM4,8A1,1,0,0,1,5,7h6a1,1,0,0,1,1,1h0V19h0a1,1,0,0,1-1,1H5a1,1,0,0,1-1-1Zm13,3.5v-1a.51.51,0,0,1,.5-.5h1a.51.51,0,0,1,.5.5v1a.51.51,0,0,1-.5.5h-1A.51.51,0,0,1,17,11.5Zm0,5v-1a.51.51,0,0,1,.5-.5h1a.51.51,0,0,1,.5.5v1a.51.51,0,0,1-.5.5h-1A.51.51,0,0,1,17,16.5ZM5,18V9A1,1,0,0,1,7,9v9a1,1,0,0,1-2,0Z"/></svg>