<svg id="Layer_1" data-name="Layer 1" xmlns="http://www.w3.org/2000/svg" viewBox="0 0 24 24"><title>Close Up</title><path d="M15,12a1.07,1.07,0,0,0,.31-.06,5.42,5.42,0,0,0,3.15-1.39c2.41-2.31,1.28-5.64,1.23-5.78a1,1,0,0,0-.64-.62,7.12,7.12,0,0,0-4.14.08A7,7,0,0,0,12.43,2.1a1,1,0,0,0-.86,0A7,7,0,0,0,9.09,4.23,7.12,7.12,0,0,0,5,4.15a1,1,0,0,0-.64.62c0,.14-1.18,3.47,1.24,5.79a5.42,5.42,0,0,0,3.14,1.38A1.07,1.07,0,0,0,9,12h2v4.22a4.85,4.85,0,0,0-4.14-.59,1,1,0,0,0-.63.63,4.69,4.69,0,0,0,.95,4.56A4,4,0,0,0,10,22h4.1a4,4,0,0,0,2.77-1.17,4.69,4.69,0,0,0,.95-4.56,1,1,0,0,0-.63-.63,4.85,4.85,0,0,0-4.14.59V12Zm2.93-6a3.44,3.44,0,0,1-.85,3.15,3.48,3.48,0,0,1-2.32.89,4.9,4.9,0,0,0,1-3,4.65,4.65,0,0,0-.1-.93A4.86,4.86,0,0,1,17.93,6ZM12,4.16A3.61,3.61,0,0,1,13.8,7,3.64,3.64,0,0,1,12,9.84,3.64,3.64,0,0,1,10.2,7,3.65,3.65,0,0,1,12,4.16ZM6.07,6a4.86,4.86,0,0,1,2.23.12A4.65,4.65,0,0,0,8.2,7a4.9,4.9,0,0,0,1,3A3.48,3.48,0,0,1,6.92,9.1,3.47,3.47,0,0,1,6.07,6ZM8,17.43A2.44,2.44,0,0,1,10,18a2.41,2.41,0,0,1,.56,2,2.4,2.4,0,0,1-2-.57A2.39,2.39,0,0,1,8,17.43ZM14,18a2.41,2.41,0,0,1,2-.56,2.39,2.39,0,0,1-.57,2,2.39,2.39,0,0,1-2,.57A2.38,2.38,0,0,1,14,18Z"/></svg>