<svg id="Layer_1" data-name="Layer 1" xmlns="http://www.w3.org/2000/svg" viewBox="0 0 24 24"><title>Closed Caption</title><path d="M19,4H5A3,3,0,0,0,2,7V17a3,3,0,0,0,3,3H19a3,3,0,0,0,3-3V7A3,3,0,0,0,19,4Zm1,13a1,1,0,0,1-1,1H5a1,1,0,0,1-1-1V7A1,1,0,0,1,5,6H19a1,1,0,0,1,1,1ZM9,10H7v4H9a1,1,0,0,1,2,0,2,2,0,0,1-2,2H7a2,2,0,0,1-2-2V10A2,2,0,0,1,7,8H9a2,2,0,0,1,2,2,1,1,0,0,1-.95.94A1,1,0,0,1,9,10Zm8,0H15v4h2a1,1,0,0,1,2,0,2,2,0,0,1-2,2H15a2,2,0,0,1-2-2V10a2,2,0,0,1,2-2h2a2,2,0,0,1,2,2,1,1,0,0,1-.95.94A1,1,0,0,1,17,10Z"/></svg>