<svg id="Layer_1" data-name="Layer 1" xmlns="http://www.w3.org/2000/svg" viewBox="0 0 24 24"><title>Collections Bookmark</title><path d="M19,2H9A3,3,0,0,0,6,5V15a3,3,0,0,0,3,3H19a3,3,0,0,0,3-3V5A3,3,0,0,0,19,2ZM17,4V9.59l-.29-.3a1,1,0,0,0-1.42,0l-.29.3V4Zm3,11a1,1,0,0,1-1,1H9a1,1,0,0,1-1-1V5A1,1,0,0,1,9,4h4v8a1,1,0,0,0,.62.92,1,1,0,0,0,1.09-.21L16,11.41l1.29,1.3A1,1,0,0,0,18,13a.84.84,0,0,0,.38-.08A1,1,0,0,0,19,12V4h0a1,1,0,0,1,1,1ZM2,19V7A1,1,0,0,1,4,7V19a1,1,0,0,0,1,1H17a1,1,0,0,1,0,2H5A3,3,0,0,1,2,19Z"/></svg>