<svg id="Layer_1" data-name="Layer 1" xmlns="http://www.w3.org/2000/svg" viewBox="0 0 24 24"><title>Colorize</title><path d="M3.41,22a1.41,1.41,0,0,0,1-.41L5,21A1.19,1.19,0,0,0,5.32,21l3-1a1.06,1.06,0,0,0,.39-.24l8.44-8.44,1.29,1.29a1.5,1.5,0,0,0,2.12,0,1.49,1.49,0,0,0,0-2.12L19.27,9.15l1.82-1.82a3.13,3.13,0,1,0-4.42-4.42L14.85,4.73,13.56,3.44a1.5,1.5,0,0,0-2.12,2.12l1.29,1.29L4.29,15.29a1.06,1.06,0,0,0-.24.39l-1,3A1.77,1.77,0,0,0,3,19l-.59.59a1.42,1.42,0,0,0,0,2A1.44,1.44,0,0,0,3.41,22ZM18.09,4.33a1.12,1.12,0,1,1,1.58,1.58L17.85,7.73,16.27,6.15ZM14.15,8.27l1.58,1.58L7.46,18.13l-1.88.62-.33-.33.62-1.88Z"/></svg>