<svg id="Layer_1" data-name="Layer 1" xmlns="http://www.w3.org/2000/svg" viewBox="0 0 24 24"><title>Control Camera</title><path d="M15.71,5.29a1,1,0,0,1,0,1.42,1,1,0,0,1-1.42,0L12,4.41,9.71,6.71A1,1,0,0,1,8.29,5.29l3-3a1,1,0,0,1,1.42,0Zm3,3a1,1,0,0,0-1.42,1.42L19.59,12l-2.3,2.29a1,1,0,0,0,0,1.42,1,1,0,0,0,1.42,0l3-3a1,1,0,0,0,0-1.42Zm-10.42,9a1,1,0,0,0,0,1.42l3,3a1,1,0,0,0,1.42,0l3-3a1,1,0,0,0-1.42-1.42L12,19.59l-2.29-2.3A1,1,0,0,0,8.29,17.29Zm-3-1.58a1,1,0,0,0,1.42,0,1,1,0,0,0,0-1.42L4.41,12l2.3-2.29A1,1,0,0,0,5.29,8.29l-3,3a1,1,0,0,0,0,1.42ZM12,15a3,3,0,1,0-3-3A3,3,0,0,0,12,15Z"/></svg>