<svg id="Layer_1" data-name="Layer 1" xmlns="http://www.w3.org/2000/svg" viewBox="0 0 24 24"><title>Crop Rotate</title><path d="M17,8v5a1,1,0,0,1-2,0V9H11a1,1,0,0,1,0-2h5A1,1,0,0,1,17,8Zm3,8a1,1,0,0,0-1-1H9V5A1,1,0,0,0,7,5V16a1,1,0,0,0,1,1H19A1,1,0,0,0,20,16ZM4,7A1,1,0,0,0,4,9H5A1,1,0,0,0,5,7ZM17,20V19a1,1,0,0,0-2,0v1a1,1,0,0,0,2,0ZM12,2a1,1,0,0,0-.55,1.83l3,2a1,1,0,0,0,1.26-.12l.5-.51A8,8,0,0,1,20,12a1,1,0,0,0,2,0A10,10,0,0,0,12,2Zm0,20a1,1,0,0,0,.55-1.83l-3-2a1,1,0,0,0-1.26.12l-.5.51A8,8,0,0,1,4,12a1,1,0,0,0-2,0A10,10,0,0,0,12,22Z"/></svg>