<svg id="Layer_1" data-name="Layer 1" xmlns="http://www.w3.org/2000/svg" viewBox="0 0 24 24"><title>Edit Photo</title><path d="M22,9V19a3,3,0,0,1-3,3H5a3,3,0,0,1-3-3V5A3,3,0,0,1,5,2H15a1,1,0,0,1,0,2H5A1,1,0,0,0,4,5V19a1,1,0,0,0,1,1H19a1,1,0,0,0,1-1V9a1,1,0,0,1,2,0Zm-7.33,5.12-1.43,1.23-2.87-3.18a.5.5,0,0,0-.74,0l-4.5,5A.49.49,0,0,0,5,17.7a.51.51,0,0,0,.46.3h13a.5.5,0,0,0,.47-.33.52.52,0,0,0-.14-.55l-3.5-3A.51.51,0,0,0,14.67,14.12ZM18.45,3.89l-4,4a.58.58,0,0,0-.13.23C14.2,8.5,14,9.42,14,9.42a.46.46,0,0,0,.14.43.47.47,0,0,0,.35.15h.08s.93-.19,1.28-.28a.53.53,0,0,0,.23-.13l4-4a.5.5,0,0,0,0-.71l-.95-.95A.51.51,0,0,0,18.45,3.89Zm2.72.51a.32.32,0,0,0,.24-.13,2.67,2.67,0,0,0,.42-.47A1.19,1.19,0,0,0,22,3.32a1.21,1.21,0,0,0-.33-1,1.17,1.17,0,0,0-1.67,0c-.1.11-.21.22-.34.38a.21.21,0,0,0,0,.11.28.28,0,0,0,.07.17L20.9,4.22C21,4.3,21,4.4,21.17,4.4Z"/></svg>