<svg id="Layer_1" data-name="Layer 1" xmlns="http://www.w3.org/2000/svg" viewBox="0 0 24 24"><title>Forward 30</title><path d="M15.82,6.38l-3,2.5A.47.47,0,0,1,12.5,9,.54.54,0,0,1,12.29,9,.49.49,0,0,1,12,8.5V7a6,6,0,1,0,6,6,1,1,0,0,1,2,0,8,8,0,1,1-8-8V3.5a.5.5,0,0,1,.82-.38l3,2.5a.49.49,0,0,1,0,.76Zm-6,7.79A1.21,1.21,0,0,1,9,13.86a.43.43,0,0,0-.3-.11.44.44,0,0,0-.44.44.44.44,0,0,0,.16.33A2.06,2.06,0,0,0,9.82,15a1.37,1.37,0,0,0,1.51-1.37v0a1.17,1.17,0,0,0-1.13-1.17l.82-.79a.65.65,0,0,0,.28-.51.42.42,0,0,0-.47-.41h-2a.4.4,0,1,0,0,.79h1.28l-.81.82a.53.53,0,0,0-.2.38.4.4,0,0,0,.4.4H9.6c.52,0,.82.19.82.53h0A.52.52,0,0,1,9.83,14.17Zm4-3.51a2,2,0,0,1,1.86,2.16h0A2,2,0,0,1,13.86,15,2,2,0,0,1,12,12.84h0A2,2,0,0,1,13.87,10.66Zm0,.83c-.55,0-.91.56-.91,1.33h0c0,.77.36,1.34.92,1.34s.91-.57.91-1.33h0C14.78,12.07,14.41,11.49,13.86,11.49Z"/></svg>