<svg id="Layer_1" data-name="Layer 1" xmlns="http://www.w3.org/2000/svg" viewBox="0 0 24 24"><title>Forward 5</title><path d="M15.82,6.38l-3,2.5A.47.47,0,0,1,12.5,9,.54.54,0,0,1,12.29,9,.49.49,0,0,1,12,8.5V7a6,6,0,1,0,6,6,1,1,0,0,1,2,0,8,8,0,1,1-8-8V3.5a.5.5,0,0,1,.82-.38l3,2.5a.49.49,0,0,1,0,.76ZM12,14.16a1.29,1.29,0,0,1-.8-.27.39.39,0,0,0-.25-.08.44.44,0,0,0-.44.44.4.4,0,0,0,.19.35A2.16,2.16,0,0,0,12,15a1.43,1.43,0,0,0,1.57-1.45h0a1.29,1.29,0,0,0-1.47-1.35,1.79,1.79,0,0,0-.56.08l.05-.73H13a.41.41,0,0,0,.41-.4.42.42,0,0,0-.41-.41H11.15a.4.4,0,0,0-.4.4l-.09,1.42a.41.41,0,0,0,.17.37.72.72,0,0,0,.42.18,3.67,3.67,0,0,1,.64-.1c.43,0,.74.21.74.57h0C12.63,14,12.34,14.16,12,14.16Z"/></svg>