<svg id="Layer_1" data-name="Layer 1" xmlns="http://www.w3.org/2000/svg" viewBox="0 0 24 24"><title>Forward 10</title><path d="M4,13a8,8,0,0,1,8-8V3.5a.5.5,0,0,1,.82-.38l3,2.5a.49.49,0,0,1,0,.76l-3,2.5A.47.47,0,0,1,12.5,9,.54.54,0,0,1,12.29,9,.49.49,0,0,1,12,8.5V7a6,6,0,1,0,6,6,1,1,0,0,1,2,0A8,8,0,0,1,4,13Zm6.14,2a.46.46,0,0,0,.46-.45V11.13a.46.46,0,0,0-.46-.46h0a1.52,1.52,0,0,0-.43.08l-.6.17a.42.42,0,0,0-.3.4.4.4,0,0,0,.4.39l.16,0,.32-.08v2.9A.46.46,0,0,0,10.14,15Zm3.2-4.3a2,2,0,0,1,1.86,2.16h0A2,2,0,0,1,13.33,15a2,2,0,0,1-1.86-2.16h0A2,2,0,0,1,13.34,10.66Zm0,.83c-.55,0-.91.56-.91,1.33h0c0,.77.37,1.34.92,1.34s.92-.57.92-1.33h0C14.26,12.07,13.88,11.49,13.33,11.49Z"/></svg>