<svg id="Layer_1" data-name="Layer 1" xmlns="http://www.w3.org/2000/svg" viewBox="0 0 24 24"><title>Gradient</title><path d="M5,21H19a3,3,0,0,0,3-3V6a3,3,0,0,0-3-3H5A3,3,0,0,0,2,6V18A3,3,0,0,0,5,21ZM12.2,5a.2.2,0,0,0-.2.2V6.8a.2.2,0,0,0,.2.2h1.6a.2.2,0,0,0,.2-.2V5.2a.2.2,0,0,0-.2-.2H19a1,1,0,0,1,1,1V18a1,1,0,0,1-1,1H13.8a.2.2,0,0,0,.2-.2V17.2a.2.2,0,0,0-.2-.2H12.2a.2.2,0,0,0-.2.2v1.6a.2.2,0,0,0,.2.2H9.8a.2.2,0,0,0,.2-.2V17.2a.2.2,0,0,0-.2-.2H8V15H9.8a.2.2,0,0,0,.2-.2V13.2a.2.2,0,0,0-.2-.2H8V11H9.8a.2.2,0,0,0,.2-.2V9.2A.2.2,0,0,0,9.8,9H8V7H9.8a.2.2,0,0,0,.2-.2V5.2A.2.2,0,0,0,9.8,5ZM10,7.2a.2.2,0,0,1,.2-.2h1.6a.2.2,0,0,1,.2.2V8.8a.2.2,0,0,1-.2.2H10.2a.2.2,0,0,1-.2-.2Zm2,2a.2.2,0,0,1,.2-.2h1.6a.2.2,0,0,1,.2.2v1.6a.2.2,0,0,1-.2.2H12.2a.2.2,0,0,1-.2-.2Zm2-.4V7.2a.2.2,0,0,1,.2-.2h1.6a.2.2,0,0,1,.2.2V8.8a.2.2,0,0,1-.2.2H14.2A.2.2,0,0,1,14,8.8Zm2,2.4v1.6a.2.2,0,0,1-.2.2H14.2a.2.2,0,0,1-.2-.2V11.2a.2.2,0,0,1,.2-.2h1.6A.2.2,0,0,1,16,11.2Zm0,4v1.6a.2.2,0,0,1-.2.2H14.2a.2.2,0,0,1-.2-.2V15.2a.2.2,0,0,1,.2-.2h1.6A.2.2,0,0,1,16,15.2Zm-2-.4a.2.2,0,0,1-.2.2H12.2a.2.2,0,0,1-.2-.2V13.2a.2.2,0,0,1,.2-.2h1.6a.2.2,0,0,1,.2.2Zm-4-2V11.2a.2.2,0,0,1,.2-.2h1.6a.2.2,0,0,1,.2.2v1.6a.2.2,0,0,1-.2.2H10.2A.2.2,0,0,1,10,12.8Zm2,2.4v1.6a.2.2,0,0,1-.2.2H10.2a.2.2,0,0,1-.2-.2V15.2a.2.2,0,0,1,.2-.2h1.6A.2.2,0,0,1,12,15.2Z"/></svg>