<svg id="Layer_1" data-name="Layer 1" xmlns="http://www.w3.org/2000/svg" viewBox="0 0 24 24"><title>Grid Off</title><path d="M20,16a1,1,0,0,0,1-1V6a3,3,0,0,0-3-3H9A1,1,0,0,0,9,5h2V7a1,1,0,0,0,.29.71l1,1A1,1,0,0,0,13,9h2v2a1,1,0,0,0,.29.71l1,1A1,1,0,0,0,17,13h2v2A1,1,0,0,0,20,16ZM19,6V7H17V5h1A1,1,0,0,1,19,6ZM13.41,7,13,6.59V5h2V7Zm4,4L17,10.59V9h2v2Zm-.7,4.29h0l-4-4h0l-4-4h0l-5-5A1,1,0,0,0,2.29,3.71l1,1A3,3,0,0,0,3,6V18a3,3,0,0,0,3,3H18a3,3,0,0,0,1.29-.3l1,1a1,1,0,0,0,1.42,0,1,1,0,0,0,0-1.42ZM7,11H5V9H7Zm2-.59.59.59H9ZM5,13H7v2H5Zm4,0h2v2H9Zm4,1.41.59.59H13ZM11,17v2H9V17Zm2,0h2v2H13ZM5.59,7H5V6.41ZM5,18V17H7v2H6A1,1,0,0,1,5,18Zm12,1v-.59l.59.59Z"/></svg>