<svg id="Layer_1" data-name="Layer 1" xmlns="http://www.w3.org/2000/svg" viewBox="0 0 24 24"><title>HDR Off</title><path d="M12.44,8.28a3.94,3.94,0,0,1,2.28,2.28ZM22,11a3,3,0,0,1-1.57,2.62l.46.93a1,1,0,0,1-.44,1.34,1.18,1.18,0,0,1-.3.1L18.6,14.44,18.38,14h-.22L16,11.84V9a1,1,0,0,1,1-1h2A3,3,0,0,1,22,11Zm-2,0a1,1,0,0,0-1-1H18v2h1A1,1,0,0,0,20,11Zm1.71,9.29a1,1,0,0,1,0,1.42,1,1,0,0,1-1.42,0L13.61,15A4,4,0,0,1,11,16H10a1,1,0,0,1-1-1V10.41l-1-1V15a1,1,0,0,1-2,0V13H4v2a1,1,0,0,1-2,0V9A1,1,0,0,1,4,9v2H6V9a1,1,0,0,1,.66-.93L2.29,3.71A1,1,0,0,1,3.71,2.29ZM12.19,13.6,11,12.41V14A2,2,0,0,0,12.19,13.6Z"/></svg>