<svg id="Layer_1" data-name="Layer 1" xmlns="http://www.w3.org/2000/svg" viewBox="0 0 24 24"><title>Image Search</title><path d="M2,15V5A3,3,0,0,1,5,2H15a3,3,0,0,1,3,3v5a1,1,0,0,1-2,0V5a1,1,0,0,0-1-1H5A1,1,0,0,0,4,5V15a1,1,0,0,0,1,1h5a1,1,0,0,1,0,2H5A3,3,0,0,1,2,15Zm19.71,5.29a1,1,0,0,1,0,1.42,1,1,0,0,1-1.42,0L18,19.43A4.05,4.05,0,1,1,19.43,18ZM18,16a2,2,0,1,0-2,2A2,2,0,0,0,18,16Zm-4-5a.3.3,0,0,0,0-.1s0,0,0,0l0-.05s0,0,0-.05l-.51-.61A.49.49,0,0,0,13,10h0a.49.49,0,0,0-.38.18l-1,1.19L9.41,8.21a.53.53,0,0,0-.82,0l-3.5,5a.49.49,0,0,0,0,.52A.48.48,0,0,0,5.5,14h5.61a.51.51,0,0,0,.24-.07l.05,0a.73.73,0,0,0,.14-.16l0,0a4.68,4.68,0,0,1,2.17-2.16s0,0,0,0l.06,0,0,0,.06-.07a.36.36,0,0,0,0-.09.32.32,0,0,0,0-.09A.41.41,0,0,0,14,11Zm0-4a1,1,0,1,0-1,1A1,1,0,0,0,14,7Z"/></svg>