<svg id="Layer_1" data-name="Layer 1" xmlns="http://www.w3.org/2000/svg" viewBox="0 0 24 24"><title>Incandescent</title><path d="M12,5a1,1,0,0,1-1-1V3a1,1,0,0,1,2,0V4A1,1,0,0,1,12,5Zm9,6H20a1,1,0,0,0,0,2h1a1,1,0,0,0,0-2ZM3,11a1,1,0,0,0,0,2H4a1,1,0,0,0,0-2ZM5.63,17l-.7.7a1,1,0,0,0,0,1.42,1,1,0,0,0,1.42,0l.7-.7A1,1,0,0,0,5.63,17Zm13.44-12a1,1,0,0,0-1.42,0l-.7.7a1,1,0,0,0,0,1.42,1,1,0,0,0,1.42,0l.7-.7A1,1,0,0,0,19.07,4.93Zm-12.72,0A1,1,0,0,0,4.93,6.35l.7.7a1,1,0,0,0,1.42,0,1,1,0,0,0,0-1.42ZM19.07,17.65l-.7-.7A1,1,0,0,0,17,18.37l.7.7a1,1,0,0,0,1.42,0A1,1,0,0,0,19.07,17.65ZM12,6a6,6,0,0,1,3,11.19V21a1,1,0,0,1-1,1H10a1,1,0,0,1-1-1V17.19A6,6,0,0,1,12,6ZM8,12a4,4,0,0,0,2.41,3.68s.06.05.1.07a.74.74,0,0,1,.21.15.62.62,0,0,1,.1.16.54.54,0,0,1,.1.16,1,1,0,0,1,.06.25s0,.08,0,.12v0h0V20h2V16.61h0v0s0-.08,0-.12a1,1,0,0,1,.06-.25.54.54,0,0,1,.1-.16.62.62,0,0,1,.1-.16.74.74,0,0,1,.21-.15s.06-.06.1-.07A4,4,0,1,0,8,12Z"/></svg>