<svg id="Layer_1" data-name="Layer 1" xmlns="http://www.w3.org/2000/svg" viewBox="0 0 24 24"><title>ISO</title><path d="M21,13V11a3,3,0,0,0-6,0v2a3,3,0,0,0,6,0Zm-4,0V11a1,1,0,0,1,2,0v2a1,1,0,0,1-2,0ZM4,16a1,1,0,0,1-1-1V9A1,1,0,0,1,5,9v6A1,1,0,0,1,4,16Zm7-2.5a.5.5,0,0,0-.5-.5h-1a2.5,2.5,0,0,1,0-5H12a1,1,0,0,1,0,2H9.5a.5.5,0,0,0,0,1h1a2.5,2.5,0,0,1,0,5H8a1,1,0,0,1,0-2h2.5A.5.5,0,0,0,11,13.5ZM22,5V6a1,1,0,0,1-2,0V5a1,1,0,0,0-1-1H5A1,1,0,0,0,4,5V6A1,1,0,0,1,2,6V5A3,3,0,0,1,5,2H19A3,3,0,0,1,22,5Zm0,13v1a3,3,0,0,1-3,3H5a3,3,0,0,1-3-3V18a1,1,0,0,1,2,0v1a1,1,0,0,0,1,1H19a1,1,0,0,0,1-1V18a1,1,0,0,1,2,0Z"/></svg>