<svg id="Layer_1" data-name="Layer 1" xmlns="http://www.w3.org/2000/svg" viewBox="0 0 24 24"><title>Mic Off</title><path d="M13,8.42V5a.93.93,0,0,0-.29-.69A1,1,0,0,0,11,4.75,1,1,0,0,1,9.1,4.23,3,3,0,0,1,12,2a3,3,0,0,1,3,3V8.42a1,1,0,1,1-2,0ZM17,11a4.79,4.79,0,0,1-.12,1.06,1,1,0,0,0,.76,1.2l.22,0a1,1,0,0,0,1-.78A7.65,7.65,0,0,0,19,11a1,1,0,0,0-2,0ZM10.71,9.29h0l-7-7A1,1,0,0,0,2.29,3.71L9,10.41V11a3,3,0,0,0,3,3,3.07,3.07,0,0,0,.53-.06l1.57,1.58A4.86,4.86,0,0,1,12,16a5,5,0,0,1-5-5,1,1,0,0,0-2,0,7,7,0,0,0,6,6.92V21a1,1,0,0,0,2,0V17.92A7,7,0,0,0,15.58,17l4.71,4.72a1,1,0,0,0,1.42,0,1,1,0,0,0,0-1.42Z"/></svg>