<svg id="Layer_1" data-name="Layer 1" xmlns="http://www.w3.org/2000/svg" viewBox="0 0 24 24"><title>Missed Video Call</title><path d="M21.38,6.08a1,1,0,0,0-1.09.21L18,8.62A3,3,0,0,0,15,6H5A3,3,0,0,0,2,9v6a3,3,0,0,0,3,3H15a3,3,0,0,0,3-2.62l2.33,2.33A1,1,0,0,0,21,18a.84.84,0,0,0,.38-.08A1,1,0,0,0,22,17V7A1,1,0,0,0,21.38,6.08ZM16,15a1,1,0,0,1-1,1H5a1,1,0,0,1-1-1V9A1,1,0,0,1,5,8H15a1,1,0,0,1,1,1v6Zm4-.41-2-2V11.41l2-2Zm-6.65-3.94a.48.48,0,0,1,0,.7l-3,3a.48.48,0,0,1-.7,0L7,11.71v.79a.5.5,0,0,1-1,0v-2a.5.5,0,0,1,.5-.5h2a.5.5,0,0,1,0,1H7.71L10,13.29l2.65-2.64A.48.48,0,0,1,13.35,10.65Z"/></svg>