<svg id="Layer_1" data-name="Layer 1" xmlns="http://www.w3.org/2000/svg" viewBox="0 0 24 24"><title>Night Landscape</title><path d="M5,20H19a3,3,0,0,0,3-3V7a3,3,0,0,0-3-3H5A3,3,0,0,0,2,7V17A3,3,0,0,0,5,20ZM4,7A1,1,0,0,1,5,6H19a1,1,0,0,1,1,1V17a1,1,0,0,1-1,1H5a1,1,0,0,1-1-1Zm1,8.7a.49.49,0,0,1,.09-.53l4.5-5a.5.5,0,0,1,.74,0l2.87,3.18,1.43-1.23a.51.51,0,0,1,.66,0l3.5,3a.52.52,0,0,1,.14.55.5.5,0,0,1-.47.33H5.5A.51.51,0,0,1,5,15.7ZM16.61,9.43A.53.53,0,0,0,16.83,9a.51.51,0,0,0-.22-.43.24.24,0,0,1-.11-.21.23.23,0,0,1,.11-.2A.91.91,0,0,1,18,9a1,1,0,0,1-.92,1,.81.81,0,0,1-.47-.16.24.24,0,0,1-.11-.21A.23.23,0,0,1,16.61,9.43Z"/></svg>