<svg id="Layer_1" data-name="Layer 1" xmlns="http://www.w3.org/2000/svg" viewBox="0 0 24 24"><title>Opacity</title><path d="M2,5.8V2.2A.2.2,0,0,1,2.2,2H5.8a.2.2,0,0,1,.2.2V5.8a.2.2,0,0,1-.2.2H2.2A.2.2,0,0,1,2,5.8Zm8.2.2h3.6a.2.2,0,0,0,.2-.2V2.2a.2.2,0,0,0-.2-.2H10.2a.2.2,0,0,0-.2.2V5.8A.2.2,0,0,0,10.2,6ZM21.8,2H18.2a.2.2,0,0,0-.2.2V5.8a.2.2,0,0,0,.2.2h3.6a.2.2,0,0,0,.2-.2V2.2A.2.2,0,0,0,21.8,2ZM2.2,22H5.8a.2.2,0,0,0,.2-.2V18.2a.2.2,0,0,0-.2-.2H2.2a.2.2,0,0,0-.2.2v3.6A.2.2,0,0,0,2.2,22Zm8,0h3.6a.2.2,0,0,0,.2-.2V18.2a.2.2,0,0,0-.2-.2H10.2a.2.2,0,0,0-.2.2v3.6A.2.2,0,0,0,10.2,22Zm11.6-4H18.2a.2.2,0,0,0-.2.2v3.6a.2.2,0,0,0,.2.2h3.6a.2.2,0,0,0,.2-.2V18.2A.2.2,0,0,0,21.8,18ZM2.2,14H5.8a.2.2,0,0,0,.2-.2V10.2a.2.2,0,0,0-.2-.2H2.2a.2.2,0,0,0-.2.2v3.6A.2.2,0,0,0,2.2,14ZM14,10.2a.2.2,0,0,0-.2-.2H10.2a.2.2,0,0,0-.2.2v3.6a.2.2,0,0,0,.2.2h3.6a.2.2,0,0,0,.2-.2Zm7.8-.2H18.2a.2.2,0,0,0-.2.2v3.6a.2.2,0,0,0,.2.2h3.6a.2.2,0,0,0,.2-.2V10.2A.2.2,0,0,0,21.8,10ZM18,6.2a.2.2,0,0,0-.2-.2H14.2a.2.2,0,0,0-.2.2V9.8a.2.2,0,0,0,.2.2h3.6a.2.2,0,0,0,.2-.2ZM6.2,10H9.8a.2.2,0,0,0,.2-.2V6.2A.2.2,0,0,0,9.8,6H6.2a.2.2,0,0,0-.2.2V9.8A.2.2,0,0,0,6.2,10Zm8,8h3.6a.2.2,0,0,0,.2-.2V14.2a.2.2,0,0,0-.2-.2H14.2a.2.2,0,0,0-.2.2v3.6A.2.2,0,0,0,14.2,18ZM6,17.8a.2.2,0,0,0,.2.2H9.8a.2.2,0,0,0,.2-.2V14.2a.2.2,0,0,0-.2-.2H6.2a.2.2,0,0,0-.2.2Z"/></svg>