<svg id="Layer_1" data-name="Layer 1" xmlns="http://www.w3.org/2000/svg" viewBox="0 0 24 24"><title>Panorama</title><path d="M21,4h-.27a1,1,0,0,0-.44.1A18.86,18.86,0,0,1,12,6,18.86,18.86,0,0,1,3.71,4.1,1,1,0,0,0,3.27,4H3A1,1,0,0,0,2,5V19a1,1,0,0,0,1,1h.27a1,1,0,0,0,.44-.1,19,19,0,0,1,16.58,0,1,1,0,0,0,.44.1H21a1,1,0,0,0,1-1V5A1,1,0,0,0,21,4ZM4,6.42a20.91,20.91,0,0,0,3,1v9.25a20.13,20.13,0,0,0-3,1Zm5,9.82V7.76a21.53,21.53,0,0,0,6,0v8.48A21.3,21.3,0,0,0,12,16,21.3,21.3,0,0,0,9,16.24Zm11,1.34a20.13,20.13,0,0,0-3-1V7.37a20.91,20.91,0,0,0,3-1Z"/></svg>