<svg id="Layer_1" data-name="Layer 1" xmlns="http://www.w3.org/2000/svg" viewBox="0 0 24 24"><title>Photo Gallery</title><path d="M5,18H15a3,3,0,0,0,3-3V5a3,3,0,0,0-3-3H5A3,3,0,0,0,2,5V15A3,3,0,0,0,5,18ZM4,5A1,1,0,0,1,5,4H15a1,1,0,0,1,1,1V15a1,1,0,0,1-1,1H5a1,1,0,0,1-1-1ZM22,7V19a3,3,0,0,1-3,3H7a1,1,0,0,1,0-2H19a1,1,0,0,0,1-1V7a1,1,0,0,1,2,0ZM5.05,13.71a.47.47,0,0,1,.07-.53l2.5-3a.5.5,0,0,1,.76,0l1.79,2.14,1.52-1.21a.48.48,0,0,1,.62,0l2.5,2a.5.5,0,0,1-.31.89h-9A.49.49,0,0,1,5.05,13.71ZM12,7a1,1,0,1,1,1,1A1,1,0,0,1,12,7Z"/></svg>