<svg id="Layer_1" data-name="Layer 1" xmlns="http://www.w3.org/2000/svg" viewBox="0 0 24 24"><title>Photo Album</title><path d="M5.05,14.72a.51.51,0,0,1,0-.52l1.5-2a.52.52,0,0,1,.8,0l.88,1.18.44-.3a.52.52,0,0,1,.56,0l1.5,1a.52.52,0,0,1,.2.57.5.5,0,0,1-.48.35h-5A.51.51,0,0,1,5.05,14.72ZM2,16V8A3,3,0,0,1,5,5h6a3,3,0,0,1,3,3v8a3,3,0,0,1-3,3H5A3,3,0,0,1,2,16Zm2,0a1,1,0,0,0,1,1h6a1,1,0,0,0,1-1V8a1,1,0,0,0-1-1H5A1,1,0,0,0,4,8Zm5.5-5a.5.5,0,1,0-.5-.5A.5.5,0,0,0,9.5,11ZM17,19a1,1,0,0,0,1-1V6a1,1,0,0,0-2,0V18A1,1,0,0,0,17,19ZM21,5a1,1,0,0,0-1,1V18a1,1,0,0,0,2,0V6A1,1,0,0,0,21,5Z"/></svg>