<svg id="Layer_1" data-name="Layer 1" xmlns="http://www.w3.org/2000/svg" viewBox="0 0 24 24"><title>Remove Photo</title><path d="M14,5a1,1,0,0,1-1,1H5A1,1,0,0,0,4,7V19a1,1,0,0,0,1,1H17a1,1,0,0,0,1-1V11a1,1,0,0,1,2,0v8a3,3,0,0,1-3,3H5a3,3,0,0,1-3-3V7A3,3,0,0,1,5,4h8A1,1,0,0,1,14,5Zm-1.33,8.12-1.2,1L9.41,11.21a.53.53,0,0,0-.82,0l-3.5,5a.49.49,0,0,0,0,.52A.48.48,0,0,0,5.5,17h11a.5.5,0,0,0,.47-.33.52.52,0,0,0-.14-.55l-3.5-3A.51.51,0,0,0,12.67,13.12ZM14,9a1,1,0,1,0,1,1A1,1,0,0,0,14,9Zm7.71-6.71a1,1,0,0,0-1.42,0L19,3.59l-1.29-1.3a1,1,0,0,0-1.42,1.42L17.59,5l-1.3,1.29a1,1,0,0,0,0,1.42,1,1,0,0,0,1.42,0L19,6.41l1.29,1.3a1,1,0,0,0,1.42,0,1,1,0,0,0,0-1.42L20.41,5l1.3-1.29A1,1,0,0,0,21.71,2.29Z"/></svg>