<svg id="Layer_1" data-name="Layer 1" xmlns="http://www.w3.org/2000/svg" viewBox="0 0 24 24"><title>Repeat One</title><path d="M16,19H8v1.5a.5.5,0,0,1-.33.47.5.5,0,0,1-.56-.16l-2-2.5a.48.48,0,0,1,0-.62l2-2.5A.5.5,0,0,1,8,15.5V17h8a1,1,0,0,0,1-1V13a1,1,0,0,1,2,0v3A3,3,0,0,1,16,19ZM18.89,5.69l-2-2.5A.5.5,0,0,0,16,3.5V5H8A3,3,0,0,0,5,8v3a1,1,0,0,0,2,0V8A1,1,0,0,1,8,7h8V8.5a.5.5,0,0,0,.33.47.5.5,0,0,0,.56-.16l2-2.5A.48.48,0,0,0,18.89,5.69Zm-6.45,8.46a.46.46,0,0,0,.46-.46V10.31a.46.46,0,0,0-.46-.46h0a1.59,1.59,0,0,0-.43.08l-.59.17a.41.41,0,0,0-.31.4.41.41,0,0,0,.4.4l.16,0,.33-.08v2.9A.46.46,0,0,0,12.44,14.15Z"/></svg>