<svg id="Layer_1" data-name="Layer 1" xmlns="http://www.w3.org/2000/svg" viewBox="0 0 24 24"><title>Replay 30</title><path d="M12,19A6,6,0,0,0,12,7V8.5a.49.49,0,0,1-.29.45A.54.54,0,0,1,11.5,9a.49.49,0,0,1-.32-.12l-3-2.5a.49.49,0,0,1,0-.76l3-2.5A.5.5,0,0,1,12,3.5V5a8,8,0,1,1-8,8,1,1,0,0,1,2,0A6,6,0,0,0,12,19ZM9.83,14.51A1.16,1.16,0,0,1,9,14.2a.43.43,0,0,0-.3-.11.44.44,0,0,0-.44.44.44.44,0,0,0,.16.33,2,2,0,0,0,1.39.48A1.37,1.37,0,0,0,11.33,14h0a1.17,1.17,0,0,0-1.13-1.18L11,12a.69.69,0,0,0,.28-.52.42.42,0,0,0-.47-.41h-2a.4.4,0,1,0,0,.79h1.28l-.81.83a.49.49,0,0,0-.2.37.4.4,0,0,0,.4.4H9.6c.52,0,.82.19.82.53h0C10.42,14.32,10.18,14.51,9.83,14.51Zm4,.83A2,2,0,0,1,12,13.18h0A2,2,0,0,1,13.87,11a2,2,0,0,1,1.86,2.16h0A2,2,0,0,1,13.86,15.34Zm0-.83c.56,0,.91-.57.91-1.33h0c0-.76-.37-1.34-.92-1.34s-.91.56-.91,1.33h0C13,13.94,13.31,14.51,13.87,14.51Z"/></svg>