<svg id="Layer_1" data-name="Layer 1" xmlns="http://www.w3.org/2000/svg" viewBox="0 0 24 24"><title>Replay 10</title><path d="M9.68,14.51v-2.9l-.32.08-.16,0a.4.4,0,0,1-.4-.39.42.42,0,0,1,.3-.4l.6-.17a1.52,1.52,0,0,1,.43-.08h0a.46.46,0,0,1,.46.46v3.38a.46.46,0,0,1-.92,0Zm3.65.49a2,2,0,0,1-1.86-2.16h0a2,2,0,0,1,1.87-2.17,2,2,0,0,1,1.86,2.16h0A2,2,0,0,1,13.33,15Zm0-.83c.56,0,.92-.57.92-1.33h0c0-.76-.38-1.34-.93-1.34s-.91.56-.91,1.33h0C12.42,13.6,12.79,14.17,13.34,14.17ZM4,13a8,8,0,1,0,8-8V3.5a.5.5,0,0,0-.82-.38l-3,2.5a.49.49,0,0,0,0,.76l3,2.5A.49.49,0,0,0,11.5,9,.54.54,0,0,0,11.71,9,.49.49,0,0,0,12,8.5V7a6,6,0,1,1-6,6,1,1,0,0,0-2,0Z"/></svg>