<svg id="Layer_1" data-name="Layer 1" xmlns="http://www.w3.org/2000/svg" viewBox="0 0 24 24"><title>Rotate Right</title><path d="M15.82,5.62a.49.49,0,0,1,0,.76l-3,2.5A.47.47,0,0,1,12.5,9,.54.54,0,0,1,12.29,9,.49.49,0,0,1,12,8.5V7a6,6,0,0,0,0,12,1,1,0,0,1,0,2A8,8,0,0,1,12,5V3.5a.5.5,0,0,1,.82-.38Zm2.23,2.14a1,1,0,0,0-1.41-.1,1,1,0,0,0-.1,1.41,6.19,6.19,0,0,1,.92,1.44,1,1,0,0,0,.91.58,1.06,1.06,0,0,0,.42-.09,1,1,0,0,0,.49-1.33A8.2,8.2,0,0,0,18.05,7.76ZM18,13a6,6,0,0,1-.24,1.69,1,1,0,0,0,.68,1.24.86.86,0,0,0,.28,0,1,1,0,0,0,1-.72A8.1,8.1,0,0,0,20,13a1,1,0,0,0-2,0Zm-2.76,5.05a1,1,0,0,0,.55,1.84,1,1,0,0,0,.54-.16,7.88,7.88,0,0,0,1.72-1.49,1,1,0,0,0-1.52-1.31A5.78,5.78,0,0,1,15.24,18.05Z"/></svg>