<svg id="Layer_1" data-name="Layer 1" xmlns="http://www.w3.org/2000/svg" viewBox="0 0 24 24"><title>Rotate Left</title><path d="M12,3.5V5a8,8,0,0,1,0,16,1,1,0,0,1,0-2A6,6,0,0,0,12,7V8.5a.49.49,0,0,1-.29.45A.54.54,0,0,1,11.5,9a.47.47,0,0,1-.32-.12l-3-2.5a.49.49,0,0,1,0-.76l3-2.5a.47.47,0,0,1,.53-.07A.49.49,0,0,1,12,3.5ZM6.24,14.69A6,6,0,0,1,6,13a1,1,0,0,0-2,0,8.1,8.1,0,0,0,.32,2.25,1,1,0,0,0,1,.72.86.86,0,0,0,.28,0A1,1,0,0,0,6.24,14.69Zm-.18,2.14A1,1,0,0,0,6,18.24a7.88,7.88,0,0,0,1.72,1.49,1,1,0,0,0,.54.16,1,1,0,0,0,.55-1.84,5.78,5.78,0,0,1-1.29-1.12A1,1,0,0,0,6.06,16.83ZM6,7.76A8.2,8.2,0,0,0,4.72,9.67,1,1,0,0,0,5.21,11a1.06,1.06,0,0,0,.42.09,1,1,0,0,0,.91-.58,6.19,6.19,0,0,1,.92-1.44,1,1,0,0,0-.1-1.41A1,1,0,0,0,6,7.76Z"/></svg>