<svg id="Layer_1" data-name="Layer 1" xmlns="http://www.w3.org/2000/svg" viewBox="0 0 24 24"><title>scale photo</title><path d="M2,18a2,2,0,0,0,2,2H15a1,1,0,0,0,0-2H14V14a2,2,0,0,0-2-2H4a2,2,0,0,0-2,2Zm8.5-4a.5.5,0,1,1-.5.5A.5.5,0,0,1,10.5,14ZM4.34,17.66l2.52-2.52a.19.19,0,0,1,.28,0l1.72,1.72a.19.19,0,0,0,.28,0l.72-.72a.19.19,0,0,1,.28,0l1.52,1.52a.2.2,0,0,1-.14.34h-7A.2.2,0,0,1,4.34,17.66ZM3,6.57a1,1,0,0,1,1,1v2a1,1,0,0,1-2,0v-2A1,1,0,0,1,3,6.57ZM19.14,6a1,1,0,0,1-.85-1.13A1,1,0,0,1,19.43,4a3,3,0,0,1,2.3,1.72,1,1,0,0,1-.49,1.33,1.06,1.06,0,0,1-.42.09,1,1,0,0,1-.91-.59A1,1,0,0,0,19.14,6ZM17.28,5a1,1,0,0,1-1,1h-2a1,1,0,0,1,0-2h2A1,1,0,0,1,17.28,5ZM22,9.14v2a1,1,0,0,1-2,0v-2a1,1,0,0,1,2,0ZM3.36,5.48A1,1,0,0,1,4,4.19,2.91,2.91,0,0,1,5,4H6.28a1,1,0,1,1,0,2H5a1,1,0,0,0-.35.06.87.87,0,0,1-.35.07A1,1,0,0,1,3.36,5.48ZM9.28,6a1,1,0,0,1,0-2h2a1,1,0,1,1,0,2ZM18,18h1a1,1,0,0,0,.48-.12,1,1,0,0,1,1,1.75A3,3,0,0,1,19,20H18a1,1,0,0,1,0-2Zm4-3.86v2a1,1,0,0,1-2,0v-2a1,1,0,0,1,2,0Z"/></svg>