<svg id="Layer_1" data-name="Layer 1" xmlns="http://www.w3.org/2000/svg" viewBox="0 0 24 24"><title>Showing Video Frames</title><path d="M19,3H5A3,3,0,0,0,2,6v8a3,3,0,0,0,3,3H19a3,3,0,0,0,3-3V6A3,3,0,0,0,19,3Zm1,11a1,1,0,0,1-1,1H5a1,1,0,0,1-1-1V6A1,1,0,0,1,5,5H19a1,1,0,0,1,1,1ZM7,21a1,1,0,0,1,0-2H17a1,1,0,0,1,0,2ZM7,6.5v1a.51.51,0,0,1-.5.5h-1A.51.51,0,0,1,5,7.5v-1A.51.51,0,0,1,5.5,6h1A.51.51,0,0,1,7,6.5Zm0,3v1a.51.51,0,0,1-.5.5h-1a.51.51,0,0,1-.5-.5v-1A.51.51,0,0,1,5.5,9h1A.51.51,0,0,1,7,9.5Zm0,3v1a.51.51,0,0,1-.5.5h-1a.51.51,0,0,1-.5-.5v-1a.51.51,0,0,1,.5-.5h1A.51.51,0,0,1,7,12.5Zm12-6v1a.51.51,0,0,1-.5.5h-1a.51.51,0,0,1-.5-.5v-1a.51.51,0,0,1,.5-.5h1A.51.51,0,0,1,19,6.5Zm0,3v1a.51.51,0,0,1-.5.5h-1a.51.51,0,0,1-.5-.5v-1a.51.51,0,0,1,.5-.5h1A.51.51,0,0,1,19,9.5Zm0,3v1a.51.51,0,0,1-.5.5h-1a.51.51,0,0,1-.5-.5v-1a.51.51,0,0,1,.5-.5h1A.51.51,0,0,1,19,12.5Z"/></svg>