<svg id="Layer_1" data-name="Layer 1" xmlns="http://www.w3.org/2000/svg" viewBox="0 0 24 24"><title>Shuffle</title><path d="M20.89,7.31l-2,2.5a.5.5,0,0,1-.56.16A.5.5,0,0,1,18,9.5V8H15.48l-1.9,2.37a1,1,0,0,1-1.41.16A1,1,0,0,1,12,9.13l2.2-2.75A1,1,0,0,1,15,6h3V4.5a.5.5,0,0,1,.89-.31l2,2.5A.48.48,0,0,1,20.89,7.31ZM18.33,20a.5.5,0,0,0,.56-.16l2-2.5a.48.48,0,0,0,0-.62l-2-2.5a.5.5,0,0,0-.89.31V16H15.48L7.78,6.38A1,1,0,0,0,7,6H4A1,1,0,0,0,4,8H6.52l7.7,9.62A1,1,0,0,0,15,18h3v1.5A.5.5,0,0,0,18.33,20ZM8.42,13.63,6.52,16H4a1,1,0,0,0,0,2H7a1,1,0,0,0,.78-.38L10,14.87a1,1,0,1,0-1.56-1.24Z"/></svg>