<svg id="Layer_1" data-name="Layer 1" xmlns="http://www.w3.org/2000/svg" viewBox="0 0 24 24"><title>Subtitles</title><path d="M19,3H5A3,3,0,0,0,2,6V18a3,3,0,0,0,3,3H19a3,3,0,0,0,3-3V6A3,3,0,0,0,19,3Zm1,15a1,1,0,0,1-1,1H5a1,1,0,0,1-1-1V6A1,1,0,0,1,5,5H19a1,1,0,0,1,1,1Zm-2-8H6a1,1,0,0,0-1,1v5a1,1,0,0,0,1,1H16.05l1.44.86A1,1,0,0,0,18,18a1,1,0,0,0,.49-.13A1,1,0,0,0,19,17V11A1,1,0,0,0,18,10Zm-1,5.24-.16-.1a1,1,0,0,0-.51-.14H7V12H17ZM8,13.5a.5.5,0,1,1,.5.5A.5.5,0,0,1,8,13.5Zm2,0a.5.5,0,1,1,.5.5A.5.5,0,0,1,10,13.5Zm2,0a.5.5,0,1,1,.5.5A.5.5,0,0,1,12,13.5Zm2,0a.5.5,0,1,1,.5.5A.5.5,0,0,1,14,13.5Z"/></svg>