<svg id="Layer_1" data-name="Layer 1" xmlns="http://www.w3.org/2000/svg" viewBox="0 0 24 24"><title>Surround Sound</title><path d="M19,4H5A3,3,0,0,0,2,7V17a3,3,0,0,0,3,3H19a3,3,0,0,0,3-3V7A3,3,0,0,0,19,4Zm1,13a1,1,0,0,1-1,1H5a1,1,0,0,1-1-1V7A1,1,0,0,1,5,6H19a1,1,0,0,1,1,1ZM12,9a3,3,0,1,0,3,3A3,3,0,0,0,12,9Zm0,4a1,1,0,1,1,1-1A1,1,0,0,1,12,13Zm5.2-5.67a7,7,0,0,1,0,9.34,1,1,0,0,1-.74.33,1,1,0,0,1-.67-.26,1,1,0,0,1-.07-1.41,5,5,0,0,0,0-6.66A1,1,0,0,1,17.2,7.33ZM8.28,8.67a5,5,0,0,0,0,6.66,1,1,0,0,1-.07,1.41,1,1,0,0,1-.67.26,1,1,0,0,1-.74-.33,7,7,0,0,1,0-9.34A1,1,0,1,1,8.28,8.67Z"/></svg>