<svg id="Layer_1" data-name="Layer 1" xmlns="http://www.w3.org/2000/svg" viewBox="0 0 24 24"><title>Switch Camera</title><path d="M17,8.5v3a.5.5,0,0,1-.5.5h-3a.5.5,0,0,1-.46-.31.47.47,0,0,1,.11-.54l.57-.58a3,3,0,0,0-4.32.93,1,1,0,1,1-1.73-1,5,5,0,0,1,7.49-1.36l1-1A.48.48,0,0,1,16.69,8,.5.5,0,0,1,17,8.5ZM22,8V18a3,3,0,0,1-3,3H5a3,3,0,0,1-3-3V8A3,3,0,0,1,5,5H6.38l.17-.34A3,3,0,0,1,9.24,3h5.52a3,3,0,0,1,2.69,1.66l.17.34H19A3,3,0,0,1,22,8ZM20,8a1,1,0,0,0-1-1H17a1,1,0,0,1-.89-.55l-.45-.9a1,1,0,0,0-.9-.55H9.24a1,1,0,0,0-.9.55l-.45.9A1,1,0,0,1,7,7H5A1,1,0,0,0,4,8V18a1,1,0,0,0,1,1H19a1,1,0,0,0,1-1Zm-4,6.13a1,1,0,0,0-1.37.37,3,3,0,0,1-4.32.93l.57-.58a.47.47,0,0,0,.11-.54A.5.5,0,0,0,10.5,14h-3a.5.5,0,0,0-.5.5v3a.5.5,0,0,0,.31.46.43.43,0,0,0,.19,0,.47.47,0,0,0,.35-.15l1-1a5,5,0,0,0,7.49-1.36A1,1,0,0,0,16,14.13Z"/></svg>