<svg id="Layer_1" data-name="Layer 1" xmlns="http://www.w3.org/2000/svg" viewBox="0 0 24 24"><title>Switch Video</title><path d="M21.38,6.08a1,1,0,0,0-1.09.21L18,8.62A3,3,0,0,0,15,6H5A3,3,0,0,0,2,9v6a3,3,0,0,0,3,3H15a3,3,0,0,0,3-2.62l2.33,2.33A1,1,0,0,0,21,18a.84.84,0,0,0,.38-.08A1,1,0,0,0,22,17V7A1,1,0,0,0,21.38,6.08ZM16,15a1,1,0,0,1-1,1H5a1,1,0,0,1-1-1V9A1,1,0,0,1,5,8H15a1,1,0,0,1,1,1v6Zm4-.41-2-2V11.41l2-2Zm-5.2-3a.5.5,0,0,1,0,.8l-2,1.5a.47.47,0,0,1-.3.1.54.54,0,0,1-.22-.05A.51.51,0,0,1,12,13.5V13H8v.5a.51.51,0,0,1-.28.45A.54.54,0,0,1,7.5,14a.47.47,0,0,1-.3-.1l-2-1.5a.5.5,0,0,1,0-.8l2-1.5a.53.53,0,0,1,.53,0A.5.5,0,0,1,8,10.5V11h4v-.5a.5.5,0,0,1,.8-.4Z"/></svg>