<svg id="Layer_1" data-name="Layer 1" xmlns="http://www.w3.org/2000/svg" viewBox="0 0 24 24"><title>Tag Faces</title><path d="M12.59,3.05a3.11,3.11,0,0,0-2.17-.93L5.05,2A3,3,0,0,0,2,5.05l.12,5.37a3.11,3.11,0,0,0,.93,2.17l8.48,8.48a3.15,3.15,0,0,0,2.23.93,3,3,0,0,0,2.12-.87l5.25-5.25a3.09,3.09,0,0,0-.06-4.35Zm7.13,11.41-5.26,5.26a1.08,1.08,0,0,1-1.52-.07L4.46,11.17a1.14,1.14,0,0,1-.34-.79L4,5a1,1,0,0,1,.28-.73A1,1,0,0,1,5,4H5l5.37.12a1.14,1.14,0,0,1,.79.34l8.48,8.48A1.08,1.08,0,0,1,19.72,14.46Z"/></svg>