<svg id="Layer_1" data-name="Layer 1" xmlns="http://www.w3.org/2000/svg" viewBox="0 0 24 24"><title>Timelapse</title><path d="M12,2A10,10,0,1,0,22,12,10,10,0,0,0,12,2ZM4,12a8,8,0,0,1,7-7.93v7.52L5.69,16.9A7.92,7.92,0,0,1,4,12Zm8,8a7.92,7.92,0,0,1-4.9-1.69l1.82-1.82a1,1,0,0,0,.58.92,5.72,5.72,0,0,0,1.47.46,6.15,6.15,0,0,0,.84.09h0a1,1,0,0,0,0-2,5.32,5.32,0,0,1-.56-.06,3.8,3.8,0,0,1-1-.31,1.06,1.06,0,0,0-.43-.08l3.1-3.1V8.1a4.11,4.11,0,0,1,1.18.5,1,1,0,1,0,1.09-1.68,6,6,0,0,0-2.22-.87H13v-2A8,8,0,0,1,12,20ZM17.55,9.64A6.15,6.15,0,0,1,18,12a1,1,0,0,1-1,1,1,1,0,0,1-1-1,3.91,3.91,0,0,0-.31-1.56,1,1,0,0,1,1.85-.78ZM16.7,14A1,1,0,0,1,17,15.37,5.88,5.88,0,0,1,15.23,17a.94.94,0,0,1-.53.16,1,1,0,0,1-.85-.46,1,1,0,0,1,.31-1.39,4.15,4.15,0,0,0,1.15-1.1A1,1,0,0,1,16.7,14Z"/></svg>