<svg id="Layer_1" data-name="Layer 1" xmlns="http://www.w3.org/2000/svg" viewBox="0 0 24 24"><title>Video Playlist</title><path d="M19,8H5a3,3,0,0,0-3,3v8a3,3,0,0,0,3,3H19a3,3,0,0,0,3-3V11A3,3,0,0,0,19,8Zm1,11a1,1,0,0,1-1,1H5a1,1,0,0,1-1-1V11a1,1,0,0,1,1-1H19a1,1,0,0,1,1,1ZM5,5H19a1,1,0,0,1,0,2H5A1,1,0,0,1,5,5ZM7,4A1,1,0,0,1,7,2H17a1,1,0,0,1,0,2Zm9,11a.51.51,0,0,1-.28.45l-5,2.5a.54.54,0,0,1-.22.05.48.48,0,0,1-.26-.07A.52.52,0,0,1,10,17.5v-5a.52.52,0,0,1,.24-.43.51.51,0,0,1,.48,0l5,2.5A.51.51,0,0,1,16,15Z"/></svg>