<svg id="Layer_1" data-name="Layer 1" xmlns="http://www.w3.org/2000/svg" viewBox="0 0 24 24"><title>Volume Up</title><path d="M13.38,2.08a1,1,0,0,0-1.09.21L6.59,8H3A1,1,0,0,0,2,9v6a1,1,0,0,0,1,1H6.59l5.7,5.71A1,1,0,0,0,13,22a.84.84,0,0,0,.38-.08A1,1,0,0,0,14,21V3A1,1,0,0,0,13.38,2.08ZM12,18.59l-4.29-4.3A1,1,0,0,0,7,14H4V10H7a1,1,0,0,0,.71-.29L12,5.41ZM22,12a10,10,0,0,1-5.56,9,1,1,0,0,1-.44.1,1,1,0,0,1-.44-1.9,8,8,0,0,0,0-14.32A1,1,0,1,1,16.44,3,10,10,0,0,1,22,12Zm-6.9,3.44a1,1,0,0,1-.1-.39V9h0a1,1,0,0,1,.25-.66h0l.16-.15a1,1,0,0,1,.5-.19h.16a1,1,0,0,1,.52.19,1.17,1.17,0,0,1,.16.15.18.18,0,0,1,.05.07,6,6,0,0,1,0,7.18l0,.05a1.15,1.15,0,0,1-.33.26,1,1,0,0,1-.39.1H16a1.06,1.06,0,0,1-.31-.05h0a.92.92,0,0,1-.32-.18A1.15,1.15,0,0,1,15.1,15.44Z"/></svg>