<svg id="Layer_1" data-name="Layer 1" xmlns="http://www.w3.org/2000/svg" viewBox="0 0 24 24"><title>Volume Off</title><path d="M12.29,8.68,9.81,6.2a1,1,0,0,1,0-1.42l2.48-2.49a1,1,0,0,1,1.09-.21A1,1,0,0,1,14,3V8a1,1,0,0,1-1,1A1,1,0,0,1,12.29,8.68ZM16.44,3a1,1,0,1,0-.88,1.8A8,8,0,0,1,19.43,15a1,1,0,0,0,.56,1.3,1,1,0,0,0,.37.07,1,1,0,0,0,.93-.63A10,10,0,0,0,16.44,3ZM17,13a1.09,1.09,0,0,0,.39-.08A1,1,0,0,0,18,12,5.94,5.94,0,0,0,16.8,8.4,1,1,0,0,0,15,9v2a1,1,0,0,0,.29.71l1,1A1,1,0,0,0,17,13Zm4.71,7.32a1,1,0,0,1,0,1.42,1,1,0,0,1-1.42,0l-2-2A9.6,9.6,0,0,1,16.45,21a.93.93,0,0,1-.45.11,1,1,0,0,1-.89-.55,1,1,0,0,1,.44-1.34,7.89,7.89,0,0,0,1.34-.87L14,15.41V21a1,1,0,0,1-.62.92A.84.84,0,0,1,13,22a1,1,0,0,1-.71-.29L6.59,16H3a1,1,0,0,1-1-1V9A1,1,0,0,1,3,8H6.59L2.29,3.71A1,1,0,0,1,3.71,2.29l5,5,5,5,5.36,5.36h0ZM12,13.41l-4-4-.29.3A1,1,0,0,1,7,10H4v4H7a1,1,0,0,1,.71.29L12,18.59Z"/></svg>