<svg id="Layer_1" data-name="Layer 1" xmlns="http://www.w3.org/2000/svg" viewBox="0 0 24 24"><title>Volume Down</title><path d="M15.38,2.08a1,1,0,0,0-1.09.21L8.59,8H5A1,1,0,0,0,4,9v6a1,1,0,0,0,1,1H8.59l5.7,5.71A1,1,0,0,0,15,22a.84.84,0,0,0,.38-.08A1,1,0,0,0,16,21V3A1,1,0,0,0,15.38,2.08ZM14,18.59l-4.29-4.3A1,1,0,0,0,9,14H6V10H9a1,1,0,0,0,.71-.29L14,5.41ZM18.8,8.41a6,6,0,0,1,0,7.18l0,.05a1.15,1.15,0,0,1-.33.26,1,1,0,0,1-.39.1H18a1.06,1.06,0,0,1-.31-.05h0a.92.92,0,0,1-.32-.18,1.15,1.15,0,0,1-.26-.33,1,1,0,0,1-.1-.39V9h0a1,1,0,0,1,.25-.66h0l.16-.15a1,1,0,0,1,.5-.19h.16a1,1,0,0,1,.52.19,1.17,1.17,0,0,1,.16.15A.18.18,0,0,1,18.8,8.41Z"/></svg>