<svg id="Layer_1" data-name="Layer 1" xmlns="http://www.w3.org/2000/svg" viewBox="0 0 24 24"><title>Wb Iridescent</title><path d="M12,6a6,6,0,1,0,6,6A6,6,0,0,0,12,6Zm0,10a4,4,0,1,1,4-4A4,4,0,0,1,12,16Zm0-7a3,3,0,1,0,3,3A3,3,0,0,0,12,9Zm0,4a1,1,0,1,1,1-1A1,1,0,0,1,12,13ZM4,13H3a1,1,0,0,1,0-2H4a1,1,0,0,1,0,2Zm8-8a1,1,0,0,1-1-1V3a1,1,0,0,1,2,0V4A1,1,0,0,1,12,5Zm1,15v1a1,1,0,0,1-2,0V20a1,1,0,0,1,2,0Zm9-8a1,1,0,0,1-1,1H20a1,1,0,0,1,0-2h1A1,1,0,0,1,22,12ZM7.05,17a1,1,0,0,1,0,1.42l-.7.7a1,1,0,0,1-1.42,0,1,1,0,0,1,0-1.42l.7-.7A1,1,0,0,1,7.05,17ZM17.66,7.34A1,1,0,0,1,17,7.05a1,1,0,0,1,0-1.42l.7-.7a1,1,0,1,1,1.42,1.42l-.7.7A1,1,0,0,1,17.66,7.34Zm-12.73-1A1,1,0,0,1,6.35,4.93l.7.7a1,1,0,0,1,0,1.42,1,1,0,0,1-1.42,0Zm14.14,11.3a1,1,0,0,1,0,1.42,1,1,0,0,1-1.42,0l-.7-.7A1,1,0,0,1,18.37,17Z"/></svg>