<svg id="Layer_1" data-name="Layer 1" xmlns="http://www.w3.org/2000/svg" viewBox="0 0 24 24"><title>Access Alarm</title><path d="M3,12a9,9,0,0,0,3,6.64L4.29,20.29a1,1,0,0,0,0,1.42,1,1,0,0,0,1.42,0l1.87-1.88a8.93,8.93,0,0,0,8.84,0l1.87,1.88a1,1,0,0,0,1.42,0,1,1,0,0,0,0-1.42l-1.66-1.65A9,9,0,1,0,3,12Zm9-7a7,7,0,1,1-7,7A7,7,0,0,1,12,5ZM2,5.93A4,4,0,0,1,5.93,2a1,1,0,0,1,1,.7,1,1,0,0,1-.39,1.13A10,10,0,0,0,3.83,6.51,1,1,0,0,1,3,7a.79.79,0,0,1-.3,0A1,1,0,0,1,2,5.93ZM17.05,3.1S17,3,17,3h0a1,1,0,0,1,1-1h.07A4,4,0,0,1,22,5.93a1,1,0,0,1-.62,1,1,1,0,0,1-1.1-.24h0l-.11-.13A9.62,9.62,0,0,0,17.5,3.84l-.07,0a1,1,0,0,1-.38-.69Zm-5.76,9.61A1,1,0,0,1,11,12V8a1,1,0,0,1,2,0v3.59l2.71,2.7a1,1,0,0,1,0,1.42,1,1,0,0,1-1.42,0Z"/></svg>