<svg id="Layer_1" data-name="Layer 1" xmlns="http://www.w3.org/2000/svg" viewBox="0 0 24 24"><title>Add Phone</title><path d="M11.57,20.55A14.79,14.79,0,0,0,18,22a1,1,0,0,0,1-1V17.78a2,2,0,0,0-1.51-1.94L14.24,15a1,1,0,0,0-1,.26l-2.51,2.52a12.9,12.9,0,0,1-5.21-7l0,0,4-3A1,1,0,0,0,10,7V4A2,2,0,0,0,8,2H4.58a1,1,0,0,0-1,.71A15.09,15.09,0,0,0,3,7a15.61,15.61,0,0,0,.15,2.14A15,15,0,0,0,11.57,20.55Zm2.74-3.44,2.69.67V20a12.5,12.5,0,0,1-4.41-1.14ZM5.35,4H8V6.5L5.11,8.67A13.51,13.51,0,0,1,5,7,13,13,0,0,1,5.35,4ZM13,8a1,1,0,0,1,1-1h2V5a1,1,0,0,1,2,0V7h2a1,1,0,0,1,0,2H18v2a1,1,0,0,1-2,0V9H14A1,1,0,0,1,13,8Z"/></svg>