<svg id="Layer_1" data-name="Layer 1" xmlns="http://www.w3.org/2000/svg" viewBox="0 0 24 24"><title>Battery Charging</title><path d="M13,2H11A2,2,0,0,0,9,4,3,3,0,0,0,6,7V19a3,3,0,0,0,3,3h6a3,3,0,0,0,3-3V7a3,3,0,0,0-3-3A2,2,0,0,0,13,2Zm3,5V17H8V7A1,1,0,0,1,9,6h1a1,1,0,0,0,1-1V4h2V5a1,1,0,0,0,1,1h1A1,1,0,0,1,16,7Zm-1.09,3.22a.47.47,0,0,1,.05.47l-2,5a.49.49,0,0,1-.46.31h-.09A.49.49,0,0,1,12,15.5V13H9.5a.48.48,0,0,1-.41-.22A.47.47,0,0,1,9,12.31l2-5a.5.5,0,0,1,1,.19V10h2.5A.48.48,0,0,1,14.91,10.22Z"/></svg>