<svg id="Layer_1" data-name="Layer 1" xmlns="http://www.w3.org/2000/svg" viewBox="0 0 24 24"><title>Battery Charging 90</title><path d="M15,4a2,2,0,0,0-2-2H11A2,2,0,0,0,9,4,3,3,0,0,0,6,7V19a3,3,0,0,0,3,3h6a3,3,0,0,0,3-3V7A3,3,0,0,0,15,4ZM9,6h1a1,1,0,0,0,1-1V4h2V5a1,1,0,0,0,1,1h1a1,1,0,0,1,1,1H8A1,1,0,0,1,9,6Zm5.5,7a.48.48,0,0,1,.41.22.47.47,0,0,1,.05.47l-2,5a.49.49,0,0,1-.46.31h-.09A.49.49,0,0,1,12,18.5V16H9.5a.48.48,0,0,1-.41-.22A.47.47,0,0,1,9,15.31l2-5A.49.49,0,0,1,11.5,10h.09a.49.49,0,0,1,.41.49V13Z"/></svg>