<svg id="Layer_1" data-name="Layer 1" xmlns="http://www.w3.org/2000/svg" viewBox="0 0 24 24"><title>Bluetooth Searching</title><path d="M2.17,16.55A1,1,0,0,0,3,17a.94.94,0,0,0,.55-.17l4.45-3V20a1,1,0,0,0,.53.88,1,1,0,0,0,1-.05l6-4a1,1,0,0,0,0-1.66L10.8,12l4.75-3.17a1,1,0,0,0,0-1.66l-6-4a1,1,0,0,0-1,0A1,1,0,0,0,8,4v6.13l-4.45-3a1,1,0,1,0-1.1,1.66L7.2,12,2.45,15.17A1,1,0,0,0,2.17,16.55ZM10,18.13V13.87L13.2,16ZM10,5.87,13.2,8,10,10.13ZM20.89,8.51a6,6,0,0,1,0,7,1,1,0,0,1-.82.42,1,1,0,0,1-.58-.18,1,1,0,0,1-.24-1.4,4,4,0,0,0,0-4.66,1,1,0,1,1,1.64-1.16Zm-4.72,2.14s0,0,0,0a1,1,0,0,1,.76-.18l.08,0a1.25,1.25,0,0,1,.27.1.89.89,0,0,1,.14.13.93.93,0,0,1,.15.13h0a.55.55,0,0,1,.08.15,1.85,1.85,0,0,1,0,2,.55.55,0,0,1-.08.15h0a.78.78,0,0,1-.24.2.54.54,0,0,1-.12.09,1,1,0,0,1-.44.11,1.12,1.12,0,0,1-.31-.05l-.09,0-.18-.1-.81-.58a1,1,0,0,1,0-1.62Z"/></svg>