<svg id="Layer_1" data-name="Layer 1" xmlns="http://www.w3.org/2000/svg" viewBox="0 0 24 24"><title>Bluetooth Connected</title><path d="M10.2,12,5.45,15.17A1,1,0,0,0,6,17a.94.94,0,0,0,.55-.17l4.45-3V20a1,1,0,0,0,.53.88,1,1,0,0,0,1-.05l6-4a1,1,0,0,0,0-1.66L13.8,12l4.75-3.17a1,1,0,0,0,0-1.66l-6-4a1,1,0,0,0-1,0A1,1,0,0,0,11,4v6.13l-4.45-3a1,1,0,1,0-1.1,1.66ZM13,18.13V13.87L16.2,16ZM13,5.87,16.2,8,13,10.13Zm5.15,5.78,1.5-1.5a.48.48,0,0,1,.7,0l1.5,1.5a.48.48,0,0,1,0,.7l-1.5,1.5a.48.48,0,0,1-.7,0l-1.5-1.5A.48.48,0,0,1,18.15,11.65Zm-16,.7a.48.48,0,0,1,0-.7l1.5-1.5a.48.48,0,0,1,.7,0l1.5,1.5a.48.48,0,0,1,0,.7l-1.5,1.5a.48.48,0,0,1-.7,0Z"/></svg>