<svg id="Layer_1" data-name="Layer 1" xmlns="http://www.w3.org/2000/svg" viewBox="0 0 24 24"><title>Brightness Medium</title><path d="M12,19a1,1,0,0,1,1,1v1a1,1,0,0,1-2,0V20A1,1,0,0,1,12,19ZM13,4V3a1,1,0,0,0-2,0V4a1,1,0,0,0,2,0ZM3,13H4a1,1,0,0,0,0-2H3a1,1,0,0,0,0,2Zm16-1a1,1,0,0,0,1,1h1a1,1,0,0,0,0-2H20A1,1,0,0,0,19,12ZM4.93,17.65a1,1,0,0,0,0,1.42,1,1,0,0,0,1.42,0l.7-.7A1,1,0,0,0,5.63,17Zm12-12a1,1,0,0,0,0,1.42,1,1,0,0,0,1.42,0l.7-.7a1,1,0,1,0-1.42-1.42ZM5.63,7.05a1,1,0,0,0,1.42,0,1,1,0,0,0,0-1.42l-.7-.7A1,1,0,0,0,4.93,6.35ZM17,18.37l.7.7a1,1,0,0,0,1.42,0,1,1,0,0,0,0-1.42l-.7-.7A1,1,0,0,0,17,18.37ZM12,6a6,6,0,1,1-6,6A6,6,0,0,1,12,6ZM8,12a4,4,0,0,0,4,4V8A4,4,0,0,0,8,12Z"/></svg>