<svg id="Layer_1" data-name="Layer 1" xmlns="http://www.w3.org/2000/svg" viewBox="0 0 24 24"><title>Brightness Auto</title><path d="M19,8.59V6a1,1,0,0,0-1-1H15.41l-2.7-2.71a1,1,0,0,0-1.42,0L8.59,5H6A1,1,0,0,0,5,6V8.59l-2.71,2.7a1,1,0,0,0,0,1.42L5,15.41V18a1,1,0,0,0,1,1H8.59l2.7,2.71a1,1,0,0,0,1.42,0L15.41,19H18a1,1,0,0,0,1-1V15.41l2.71-2.7a1,1,0,0,0,0-1.42Zm-1.71,5.7A1,1,0,0,0,17,15v2H15a1,1,0,0,0-.71.29L12,19.59l-2.29-2.3A1,1,0,0,0,9,17H7V15a1,1,0,0,0-.29-.71L4.41,12l2.3-2.29A1,1,0,0,0,7,9V7H9a1,1,0,0,0,.71-.29L12,4.41l2.29,2.3A1,1,0,0,0,15,7h2V9a1,1,0,0,0,.29.71L19.59,12ZM12.92,7.61A1,1,0,0,0,12,7h0a1,1,0,0,0-.92.61l-3,7a1,1,0,0,0,1.84.78l.6-1.39h3l.63,1.46a1,1,0,0,0,.92.6.91.91,0,0,0,.39-.08,1,1,0,0,0,.53-1.31ZM11.37,12,12,10.54,12.62,12Z"/></svg>