<svg id="Layer_1" data-name="Layer 1" xmlns="http://www.w3.org/2000/svg" viewBox="0 0 24 24"><title>Brightness High</title><path d="M12,19a1,1,0,0,1,1,1v1a1,1,0,0,1-2,0V20A1,1,0,0,1,12,19ZM13,4V3a1,1,0,0,0-2,0V4a1,1,0,0,0,2,0ZM3,13H4a1,1,0,0,0,0-2H3a1,1,0,0,0,0,2Zm18,0a1,1,0,0,0,0-2H20a1,1,0,0,0,0,2ZM4.93,19.07a1,1,0,0,0,1.42,0l.7-.7A1,1,0,0,0,5.63,17l-.7.7A1,1,0,0,0,4.93,19.07ZM17.65,4.93l-.7.7a1,1,0,0,0,0,1.42,1,1,0,0,0,1.42,0l.7-.7a1,1,0,1,0-1.42-1.42Zm-12.72,0a1,1,0,0,0,0,1.42l.7.7a1,1,0,0,0,1.42,0,1,1,0,0,0,0-1.42l-.7-.7A1,1,0,0,0,4.93,4.93ZM17.65,19.07a1,1,0,0,0,1.42,0,1,1,0,0,0,0-1.42l-.7-.7A1,1,0,0,0,17,18.37ZM18,12a6,6,0,1,0-6,6A6,6,0,0,0,18,12Z"/></svg>