<svg id="Layer_1" data-name="Layer 1" xmlns="http://www.w3.org/2000/svg" viewBox="0 0 24 24"><title>Call Split</title><path d="M12.79,9.79l2.65-2.64-1.79-1.8a.47.47,0,0,1-.11-.54A.5.5,0,0,1,14,4.5h5a.5.5,0,0,1,.5.5v5a.5.5,0,0,1-.31.46.43.43,0,0,1-.19,0,.47.47,0,0,1-.35-.15l-1.8-1.79-2.64,2.65a1,1,0,0,1-1.42,0A1,1,0,0,1,12.79,9.79Zm-9,.67a.43.43,0,0,0,.19,0,.47.47,0,0,0,.35-.15l1.8-1.79,4.35,4.35V19.5a1,1,0,0,0,2,0v-7a1,1,0,0,0-.08-.38,1,1,0,0,0-.21-.33L7.56,7.15l1.79-1.8a.47.47,0,0,0,.11-.54A.5.5,0,0,0,9,4.5H4a.5.5,0,0,0-.5.5v5A.5.5,0,0,0,3.81,10.46Z"/></svg>