<svg id="Layer_1" data-name="Layer 1" xmlns="http://www.w3.org/2000/svg" viewBox="0 0 24 24"><title>Call End</title><path d="M12,5A13.57,13.57,0,0,0,2.29,9.07a1,1,0,0,0,0,1.41l1.92,1.95a2,2,0,0,0,2.72,0l1.92-1.95a1,1,0,0,0,.29-.7V7.35a12,12,0,0,1,5.72,0V9.78a1,1,0,0,0,.29.7l1.92,1.95a1.91,1.91,0,0,0,2.72,0l1.92-1.95a1,1,0,0,0,0-1.41A13.57,13.57,0,0,0,12,5ZM7.14,9.37,5.57,11,4.43,9.81A11.51,11.51,0,0,1,7.14,8.06ZM18.43,11,16.86,9.37V8.06a11.51,11.51,0,0,1,2.71,1.75ZM13,14v2h1.5a.5.5,0,0,1,.31.89l-2.5,2a.49.49,0,0,1-.62,0l-2.5-2A.5.5,0,0,1,9.5,16H11V14a1,1,0,0,1,2,0Z"/></svg>