<svg id="Layer_1" data-name="Layer 1" xmlns="http://www.w3.org/2000/svg" viewBox="0 0 24 24"><title>Call Disconnected</title><path d="M10.6,7.8A1,1,0,0,0,11,7V4A2,2,0,0,0,9,2H5.58a1,1,0,0,0-1,.71A15.09,15.09,0,0,0,4,7a15.61,15.61,0,0,0,.15,2.14,15,15,0,0,0,8.42,11.41A14.79,14.79,0,0,0,19,22a1,1,0,0,0,1-1V17.78a2,2,0,0,0-1.51-1.94L15.24,15a1,1,0,0,0-1,.26l-2.51,2.52a12.94,12.94,0,0,1-5.21-7l0,0Zm4.71,9.31,2.69.67V20a12.5,12.5,0,0,1-4.41-1.14ZM6.11,8.67A13.51,13.51,0,0,1,6,7a13,13,0,0,1,.35-3H9V6.5Zm7.18,1.62L14.59,9l-1.3-1.29a1,1,0,0,1,1.42-1.42L16,7.59l1.29-1.3a1,1,0,1,1,1.42,1.42L17.41,9l1.3,1.29a1,1,0,0,1,0,1.42,1,1,0,0,1-1.42,0L16,10.41l-1.29,1.3a1,1,0,0,1-1.42,0A1,1,0,0,1,13.29,10.29Z"/></svg>