<svg id="Layer_1" data-name="Layer 1" xmlns="http://www.w3.org/2000/svg" viewBox="0 0 24 24"><title>Call back</title><path d="M10.57,20.55A14.79,14.79,0,0,0,17,22a1,1,0,0,0,1-1V17.78a2,2,0,0,0-1.51-1.94L13.24,15a1,1,0,0,0-1,.26L9.78,17.81a12.94,12.94,0,0,1-5.21-7l0,0,4-3A1,1,0,0,0,9,7V4A2,2,0,0,0,7,2H3.58a1,1,0,0,0-1,.71A15.09,15.09,0,0,0,2,7a15.61,15.61,0,0,0,.15,2.14A15,15,0,0,0,10.57,20.55Zm2.74-3.44,2.69.67V20a12.5,12.5,0,0,1-4.41-1.14ZM4.35,4H7V6.5L4.11,8.67A13.51,13.51,0,0,1,4,7,13,13,0,0,1,4.35,4ZM17.5,5.5a4,4,0,0,1,0,8h-1a1,1,0,0,1,0-2h1a2,2,0,0,0,0-4h-3V9a.49.49,0,0,1-.29.45A.54.54,0,0,1,14,9.5a.47.47,0,0,1-.32-.12l-3-2.5a.49.49,0,0,1,0-.76l3-2.5A.5.5,0,0,1,14.5,4V5.5Z"/></svg>