<svg id="Layer_1" data-name="Layer 1" xmlns="http://www.w3.org/2000/svg" viewBox="0 0 24 24"><title>Call Made</title><path d="M9.6,7.8A1,1,0,0,0,10,7V4A2,2,0,0,0,8,2H4.58a1,1,0,0,0-1,.71A15.09,15.09,0,0,0,3,7a15.61,15.61,0,0,0,.15,2.14,15,15,0,0,0,8.42,11.41A14.79,14.79,0,0,0,18,22a1,1,0,0,0,1-1V17.78a2,2,0,0,0-1.51-1.94L14.24,15a1,1,0,0,0-1,.26l-2.51,2.52a12.9,12.9,0,0,1-5.21-7l0,0Zm4.71,9.31,2.69.67V20a12.5,12.5,0,0,1-4.41-1.14ZM5.11,8.67A13.51,13.51,0,0,1,5,7a13,13,0,0,1,.35-3H8V6.5ZM19,8V5.41l-4.29,4.3a1,1,0,0,1-1.42,0,1,1,0,0,1,0-1.42L17.59,4H15a1,1,0,0,1,0-2h5a1,1,0,0,1,.38.08,1,1,0,0,1,.54.54A1,1,0,0,1,21,3V8a1,1,0,0,1-2,0Z"/></svg>