<svg id="Layer_1" data-name="Layer 1" xmlns="http://www.w3.org/2000/svg" viewBox="0 0 24 24"><title>Call Outgoing</title><path d="M3.62,2.71A15.09,15.09,0,0,0,3,7a15.61,15.61,0,0,0,.15,2.14,15,15,0,0,0,8.42,11.41A14.79,14.79,0,0,0,18,22a1,1,0,0,0,1-1V17.78a2,2,0,0,0-1.51-1.94L14.24,15a1,1,0,0,0-1,.26l-2.51,2.52a12.9,12.9,0,0,1-5.21-7l0,0,4-3A1,1,0,0,0,10,7V4A2,2,0,0,0,8,2H4.58A1,1,0,0,0,3.62,2.71Zm10.69,14.4,2.69.67V20a12.5,12.5,0,0,1-4.41-1.14ZM5.35,4H8V6.5L5.11,8.67A13.51,13.51,0,0,1,5,7,13,13,0,0,1,5.35,4Zm15.47,6.38-3,2.5a.49.49,0,0,1-.32.12.54.54,0,0,1-.21-.05A.49.49,0,0,1,17,12.5V11H13a1,1,0,0,1,0-2h4V7.5a.49.49,0,0,1,.29-.45.47.47,0,0,1,.53.07l3,2.5a.49.49,0,0,1,0,.76Z"/></svg>