<svg id="Layer_1" data-name="Layer 1" xmlns="http://www.w3.org/2000/svg" viewBox="0 0 24 24"><title>Cast</title><path d="M22,7V17a3,3,0,0,1-3,3H15a1,1,0,0,1,0-2h4a1,1,0,0,0,1-1V7a1,1,0,0,0-1-1H5A1,1,0,0,0,4,7,1,1,0,0,1,2,7,3,3,0,0,1,5,4H19A3,3,0,0,1,22,7ZM3.17,13.1a1,1,0,1,0-.34,2,5,5,0,0,1,4.09,4.09,1,1,0,0,0,1,.83h.17a1,1,0,0,0,.82-1.16A7,7,0,0,0,3.17,13.1ZM12,20h.1a1,1,0,0,0,.9-1.1A11,11,0,0,0,3.1,9.05a1,1,0,1,0-.2,2A9,9,0,0,1,11,19.1,1,1,0,0,0,12,20ZM3,20h.73a1,1,0,0,0,.87-.51,1,1,0,0,0,0-1,3.35,3.35,0,0,0-1.08-1.07A1,1,0,0,0,2,18.27V19A1,1,0,0,0,3,20Z"/></svg>