<svg id="Layer_1" data-name="Layer 1" xmlns="http://www.w3.org/2000/svg" viewBox="0 0 24 24"><title>Cell Wifi</title><path d="M11.5,8.17a4.13,4.13,0,0,0-5.68,0,1,1,0,1,1-1.4-1.42,6,6,0,0,1,8.48,0,1,1,0,0,1,0,1.41,1,1,0,0,1-.71.3A1,1,0,0,1,11.5,8.17ZM3.71,6.05a7,7,0,0,1,9.91,0A1,1,0,0,0,15,4.63a9,9,0,0,0-12.74,0A1,1,0,0,0,3.71,6.05ZM6.53,8.89a1,1,0,0,0,0,1.41L8,11.71a1,1,0,0,0,1.42,0l1.41-1.41a1,1,0,0,0,0-1.41A3.06,3.06,0,0,0,6.53,8.89ZM22,5V21a1,1,0,0,1-1,1H5a1,1,0,0,1-.92-.62,1,1,0,0,1,.21-1.09l16-16a1,1,0,0,1,1.09-.21A1,1,0,0,1,22,5ZM20,7.41l-2,2V20h2Z"/></svg>