<svg id="Layer_1" data-name="Layer 1" xmlns="http://www.w3.org/2000/svg" viewBox="0 0 24 24"><title>Chat Settings</title><path d="M19,2H5A3,3,0,0,0,2,5V15a3,3,0,0,0,3,3H6v3a1,1,0,0,0,.57.9A.91.91,0,0,0,7,22a1,1,0,0,0,.62-.22L12.35,18H19a3,3,0,0,0,3-3V5A3,3,0,0,0,19,2Zm1,13a1,1,0,0,1-1,1H12a1,1,0,0,0-.62.22L8,18.92V17a1,1,0,0,0-1-1H5a1,1,0,0,1-1-1V5A1,1,0,0,1,5,4H19a1,1,0,0,1,1,1ZM15.71,8.44l-.5-.87a.5.5,0,0,0-.62-.22l-.73.3a3.14,3.14,0,0,0-.75-.44L13,6.43A.49.49,0,0,0,12.5,6h-1a.49.49,0,0,0-.49.43l-.12.78a3.14,3.14,0,0,0-.75.44l-.73-.3a.5.5,0,0,0-.62.22l-.5.87a.5.5,0,0,0,.12.64L9,9.57a2.33,2.33,0,0,0,0,.86l-.63.49a.5.5,0,0,0-.12.64l.5.87a.51.51,0,0,0,.43.26.65.65,0,0,0,.19,0l.73-.3a3.14,3.14,0,0,0,.75.44l.12.78a.49.49,0,0,0,.49.43h1a.49.49,0,0,0,.49-.43l.12-.78a3.14,3.14,0,0,0,.75-.44l.73.3a.65.65,0,0,0,.19,0,.51.51,0,0,0,.43-.26l.5-.87a.5.5,0,0,0-.12-.64L15,10.43a2.33,2.33,0,0,0,0-.86l.63-.49A.5.5,0,0,0,15.71,8.44ZM12,11a1,1,0,1,1,1-1A1,1,0,0,1,12,11Z"/></svg>