<svg id="Layer_1" data-name="Layer 1" xmlns="http://www.w3.org/2000/svg" viewBox="0 0 24 24"><title>Comment</title><path d="M19,2H5A3,3,0,0,0,2,5V15a3,3,0,0,0,3,3H6v3a1,1,0,0,0,.57.9A.91.91,0,0,0,7,22a1,1,0,0,0,.62-.22L12.35,18H19a3,3,0,0,0,3-3V5A3,3,0,0,0,19,2Zm1,13a1,1,0,0,1-1,1H12a1,1,0,0,0-.62.22L8,18.92V17a1,1,0,0,0-1-1H5a1,1,0,0,1-1-1V5A1,1,0,0,1,5,4H19a1,1,0,0,1,1,1ZM6,7A1,1,0,0,1,7,6h4a1,1,0,0,1,0,2H7A1,1,0,0,1,6,7Zm12,3a1,1,0,0,1-1,1H7A1,1,0,0,1,7,9H17A1,1,0,0,1,18,10Zm0,3a1,1,0,0,1-1,1H7a1,1,0,0,1,0-2H17A1,1,0,0,1,18,13Z"/></svg>