<svg id="Layer_1" data-name="Layer 1" xmlns="http://www.w3.org/2000/svg" viewBox="0 0 24 24"><title>Contacts</title><path d="M15,3H5A3,3,0,0,0,2,6V18a3,3,0,0,0,3,3H15a3,3,0,0,0,3-3V6A3,3,0,0,0,15,3Zm1,15a1,1,0,0,1-1,1H5a1,1,0,0,1-1-1V6A1,1,0,0,1,5,5H15a1,1,0,0,1,1,1Zm-6-6A3,3,0,1,0,7,9,3,3,0,0,0,10,12Zm0-4A1,1,0,1,1,9,9,1,1,0,0,1,10,8Zm0,5a6,6,0,0,0-4.79,2.39A1,1,0,0,0,5,16v1a1,1,0,0,0,1,1h8a1,1,0,0,0,1-1V16a1,1,0,0,0-.2-.61A6,6,0,0,0,10,13ZM7.36,16a4.09,4.09,0,0,1,5.28,0ZM22,4V20a1,1,0,0,1-2,0V4a1,1,0,0,1,2,0Z"/></svg>