<svg id="Layer_1" data-name="Layer 1" xmlns="http://www.w3.org/2000/svg" viewBox="0 0 24 24"><title>Contact Phone</title><path d="M19,3H5A3,3,0,0,0,2,6V18a3,3,0,0,0,3,3H19a3,3,0,0,0,3-3V6A3,3,0,0,0,19,3Zm1,15a1,1,0,0,1-1,1H5a1,1,0,0,1-1-1V6A1,1,0,0,1,5,5H19a1,1,0,0,1,1,1ZM10,12A3,3,0,1,0,7,9,3,3,0,0,0,10,12Zm0-4A1,1,0,1,1,9,9,1,1,0,0,1,10,8Zm0,5a6,6,0,0,0-4.79,2.39A1,1,0,0,0,5,16v1a1,1,0,0,0,1,1h8a1,1,0,0,0,1-1V16a1,1,0,0,0-.2-.61A6,6,0,0,0,10,13ZM7.36,16a4.09,4.09,0,0,1,5.28,0Zm11.45-1.38a1,1,0,0,1,0,1.24l-.83,1a.52.52,0,0,1-.38.17.5.5,0,0,1-.38-.17,7.57,7.57,0,0,1-1.49-6.76.32.32,0,0,1,0-.14,7.14,7.14,0,0,1,1.46-2.76A.5.5,0,0,1,17.55,7a.52.52,0,0,1,.38.17l.83,1a1,1,0,0,1,0,1.3l-.84,1.33a.5.5,0,0,1-.42.23h-1a6.7,6.7,0,0,0,0,2h1a.5.5,0,0,1,.42.23Z"/></svg>