<svg id="Layer_1" data-name="Layer 1" xmlns="http://www.w3.org/2000/svg" viewBox="0 0 24 24"><title>Developer Mode</title><path d="M18,5V7a1,1,0,0,1-2,0V5H8V7A1,1,0,0,1,6,7V5A3,3,0,0,1,9,2h6A3,3,0,0,1,18,5ZM7,16a1,1,0,0,0-1,1v2a3,3,0,0,0,3,3h6a3,3,0,0,0,3-3V17a1,1,0,0,0-2,0v2H8V17A1,1,0,0,0,7,16ZM5.29,12.71l3,3a1,1,0,0,0,1.42,0,1,1,0,0,0,0-1.42L7.41,12l2.3-2.29A1,1,0,0,0,8.29,8.29l-3,3A1,1,0,0,0,5.29,12.71Zm13.42-1.42-3-3a1,1,0,0,0-1.42,1.42L16.59,12l-2.3,2.29a1,1,0,0,0,0,1.42,1,1,0,0,0,1.42,0l3-3A1,1,0,0,0,18.71,11.29Z"/></svg>