<svg id="Layer_1" data-name="Layer 1" xmlns="http://www.w3.org/2000/svg" viewBox="0 0 24 24"><title>Developer Board</title><path d="M5,21H17a3,3,0,0,0,3-3V17h1a1,1,0,0,0,0-2H20V13h1a1,1,0,0,0,0-2H20V9h1a1,1,0,0,0,0-2H20V6a3,3,0,0,0-3-3H5A3,3,0,0,0,2,6V18A3,3,0,0,0,5,21ZM4,6A1,1,0,0,1,5,5H17a1,1,0,0,1,1,1V18a1,1,0,0,1-1,1H5a1,1,0,0,1-1-1Zm2,5V8A1,1,0,0,1,7,7h3a1,1,0,0,1,1,1v3a1,1,0,0,1-1,1H7A1,1,0,0,1,6,11Zm6-2V8a1,1,0,0,1,1-1h2a1,1,0,0,1,1,1V9a1,1,0,0,1-1,1H13A1,1,0,0,1,12,9Zm0,7V12a1,1,0,0,1,1-1h2a1,1,0,0,1,1,1v4a1,1,0,0,1-1,1H13A1,1,0,0,1,12,16ZM6,16V14a1,1,0,0,1,1-1h3a1,1,0,0,1,1,1v2a1,1,0,0,1-1,1H7A1,1,0,0,1,6,16Z"/></svg>