<svg id="Layer_1" data-name="Layer 1" xmlns="http://www.w3.org/2000/svg" viewBox="0 0 24 24"><title>Dialer Sip</title><path d="M19,17.78a2,2,0,0,0-1.51-1.94L14.24,15a1,1,0,0,0-1,.26l-2.51,2.52a12.94,12.94,0,0,1-5.21-7l0,0,4-3A1,1,0,0,0,10,7V4A2,2,0,0,0,8,2H4.58a1,1,0,0,0-1,.71A15.09,15.09,0,0,0,3,7a15.61,15.61,0,0,0,.15,2.14,15,15,0,0,0,8.42,11.41A14.79,14.79,0,0,0,18,22a1,1,0,0,0,1-1ZM5,7a13,13,0,0,1,.35-3H8V6.5L5.11,8.67A13.51,13.51,0,0,1,5,7ZM17,20a12.5,12.5,0,0,1-4.41-1.14l1.72-1.71,2.69.67ZM14,9.5a.5.5,0,0,0-.5-.5,1.5,1.5,0,0,1,0-3h1a.5.5,0,0,1,0,1h-1a.5.5,0,0,0,0,1,1.5,1.5,0,0,1,0,3h-1a.5.5,0,0,1,0-1h1A.5.5,0,0,0,14,9.5ZM16.5,11a.5.5,0,0,1-.5-.5v-4a.5.5,0,0,1,1,0v4A.5.5,0,0,1,16.5,11Zm3-5h-1a.5.5,0,0,0-.5.5v4a.5.5,0,0,0,1,0V9h.5a1.5,1.5,0,0,0,0-3Zm0,2H19V7h.5a.5.5,0,0,1,0,1Z"/></svg>