<svg id="Layer_1" data-name="Layer 1" xmlns="http://www.w3.org/2000/svg" viewBox="0 0 24 24"><title>Disconnect</title><path d="M16.25,8.75a6,6,0,0,1,1.3,1.95A1,1,0,0,1,17,12a1,1,0,0,1-.38.07,1,1,0,0,1-.93-.62,4,4,0,0,0-2.15-2.15,1,1,0,0,1,.76-1.86A6,6,0,0,1,16.25,8.75Zm4.23,7.41a1.07,1.07,0,0,0,.25,0,1,1,0,0,0,1-.75,10,10,0,0,0-2.63-9.5A10,10,0,0,0,9.56,3.3a1,1,0,0,0,.5,1.94A7.7,7.7,0,0,1,12,5a8,8,0,0,1,8,8,7.7,7.7,0,0,1-.24,1.94A1,1,0,0,0,20.48,16.16ZM4.94,20.07a1,1,0,0,0,1.41,0,1,1,0,0,0,0-1.41A8,8,0,0,1,6.15,7.56L7.56,9a6,6,0,0,0,.19,8.27,1,1,0,0,0,.71.3,1,1,0,0,0,.7-.29,1,1,0,0,0,0-1.41A4,4,0,0,1,8,13a4,4,0,0,1,1-2.6l1.42,1.41A2,2,0,0,0,10,13a2,2,0,0,0,2,2,2,2,0,0,0,1.19-.4l7.1,7.11a1,1,0,0,0,1.42,0,1,1,0,0,0,0-1.42L14,12.59,12.41,11,3.71,2.29A1,1,0,0,0,2.29,3.71L4.74,6.15a10,10,0,0,0,.2,13.92Z"/></svg>