<svg id="Layer_1" data-name="Layer 1" xmlns="http://www.w3.org/2000/svg" viewBox="0 0 24 24"><title>Forum</title><path d="M5,14v1a1,1,0,0,0,1,1,1,1,0,0,0,.45-.11L10.24,14H14a3,3,0,0,0,3-3V5a3,3,0,0,0-3-3H5A3,3,0,0,0,2,5v6A3,3,0,0,0,5,14ZM5,4h9a1,1,0,0,1,1,1v6a1,1,0,0,1-1,1H10a1,1,0,0,0-.45.11L7,13.38V13a1,1,0,0,0-1-1H5a1,1,0,0,1-1-1V5A1,1,0,0,1,5,4Zm17,7v6a3,3,0,0,1-3,3v1a1,1,0,0,1-.47.85A1,1,0,0,1,18,22a1.06,1.06,0,0,1-.45-.11L13.77,20H11a1,1,0,0,1-1-1V17a1,1,0,0,1,1-1h5a3,3,0,0,0,3-3V9.27a1,1,0,0,1,.5-.86,1,1,0,0,1,1,0A3,3,0,0,1,22,11ZM6,6A1,1,0,0,1,7,5h5a1,1,0,0,1,0,2H7A1,1,0,0,1,6,6ZM6,9A1,1,0,0,1,7,8h3a1,1,0,0,1,0,2H7A1,1,0,0,1,6,9Z"/></svg>