<svg id="Layer_1" data-name="Layer 1" xmlns="http://www.w3.org/2000/svg" viewBox="0 0 24 24"><title>Keyboard Hide</title><path d="M2,15a1,1,0,0,0,1,1H21a1,1,0,0,0,1-1V3a1,1,0,0,0-1-1H3A1,1,0,0,0,2,3ZM4,4H20V14H4Zm13,8a1,1,0,0,1-1,1H8a1,1,0,0,1,0-2h8A1,1,0,0,1,17,12ZM5,6.5v-1A.5.5,0,0,1,5.5,5h1a.5.5,0,0,1,.5.5v1a.5.5,0,0,1-.5.5h-1A.5.5,0,0,1,5,6.5Zm2,3a.5.5,0,0,1-.5.5h-1A.5.5,0,0,1,5,9.5v-1A.5.5,0,0,1,5.5,8h1a.5.5,0,0,1,.5.5Zm1-3v-1A.5.5,0,0,1,8.5,5h1a.5.5,0,0,1,.5.5v1a.5.5,0,0,1-.5.5h-1A.5.5,0,0,1,8,6.5Zm0,3v-1A.5.5,0,0,1,8.5,8h1a.5.5,0,0,1,.5.5v1a.5.5,0,0,1-.5.5h-1A.5.5,0,0,1,8,9.5Zm3-3v-1a.5.5,0,0,1,.5-.5h1a.5.5,0,0,1,.5.5v1a.5.5,0,0,1-.5.5h-1A.5.5,0,0,1,11,6.5Zm0,3v-1a.5.5,0,0,1,.5-.5h1a.5.5,0,0,1,.5.5v1a.5.5,0,0,1-.5.5h-1A.5.5,0,0,1,11,9.5Zm3-3v-1a.5.5,0,0,1,.5-.5h1a.5.5,0,0,1,.5.5v1a.5.5,0,0,1-.5.5h-1A.5.5,0,0,1,14,6.5Zm0,3v-1a.5.5,0,0,1,.5-.5h1a.5.5,0,0,1,.5.5v1a.5.5,0,0,1-.5.5h-1A.5.5,0,0,1,14,9.5Zm5-4v1a.5.5,0,0,1-.5.5h-1a.5.5,0,0,1-.5-.5v-1a.5.5,0,0,1,.5-.5h1A.5.5,0,0,1,19,5.5Zm0,3v1a.5.5,0,0,1-.5.5h-1a.5.5,0,0,1-.5-.5v-1a.5.5,0,0,1,.5-.5h1A.5.5,0,0,1,19,8.5ZM11.67,21.88l-3.5-3A.52.52,0,0,1,8,18.33.5.5,0,0,1,8.5,18h7a.5.5,0,0,1,.47.33.52.52,0,0,1-.14.55l-3.5,3a.51.51,0,0,1-.66,0Z"/></svg>