<svg id="Layer_1" data-name="Layer 1" xmlns="http://www.w3.org/2000/svg" viewBox="0 0 24 24"><title>List</title><path d="M21,6a3,3,0,0,0-3-3H6A3,3,0,0,0,3,6V18a3,3,0,0,0,3,3H18a3,3,0,0,0,3-3ZM19,18a1,1,0,0,1-1,1H6a1,1,0,0,1-1-1V6A1,1,0,0,1,6,5H18a1,1,0,0,1,1,1ZM17,8a1,1,0,0,1-1,1H12a1,1,0,0,1,0-2h4A1,1,0,0,1,17,8Zm0,4a1,1,0,0,1-1,1H12a1,1,0,0,1,0-2h4A1,1,0,0,1,17,12Zm0,4a1,1,0,0,1-1,1H12a1,1,0,0,1,0-2h4A1,1,0,0,1,17,16ZM9,8A1,1,0,1,1,8,7,1,1,0,0,1,9,8Zm0,4a1,1,0,1,1-1-1A1,1,0,0,1,9,12Zm0,4a1,1,0,1,1-1-1A1,1,0,0,1,9,16Z"/></svg>