<svg id="Layer_1" data-name="Layer 1" xmlns="http://www.w3.org/2000/svg" viewBox="0 0 24 24"><title>Multiple Devices</title><path d="M2,8A3,3,0,0,1,5,5H20a1,1,0,0,1,0,2H5A1,1,0,0,0,4,8v8a1,1,0,0,0,1,1H7a1,1,0,0,1,0,2H5a3,3,0,0,1-3-3ZM20,19H17a2,2,0,0,1-2-2V11a2,2,0,0,1,2-2h3a2,2,0,0,1,2,2v6A2,2,0,0,1,20,19Zm-3-8v6h3V11Zm-4,2v.51a2.48,2.48,0,0,1,0,4V18a1,1,0,0,1-1,1H11a1,1,0,0,1-1-1v-.51a2.48,2.48,0,0,1,0-4V13a1,1,0,0,1,1-1h1A1,1,0,0,1,13,13Zm0,2.5A1.5,1.5,0,1,0,11.5,17,1.5,1.5,0,0,0,13,15.5Z"/></svg>