<svg id="Layer_1" data-name="Layer 1" xmlns="http://www.w3.org/2000/svg" viewBox="0 0 24 24"><title>Offline</title><path d="M22,12a9.93,9.93,0,0,1-2.26,6.33l2,2a1,1,0,0,1,0,1.42,1,1,0,0,1-1.42,0l-7.78-7.78A2.09,2.09,0,0,1,12,14a2,2,0,0,1-2-2,2.09,2.09,0,0,1,.07-.51L8.56,10a4,4,0,0,0,.61,4.86,1,1,0,0,1,0,1.41,1,1,0,0,1-.7.29,1,1,0,0,1-.71-.3,6,6,0,0,1-.64-7.71L5.69,7.1a8,8,0,0,0,.65,10.55,1,1,0,0,1-.7,1.71,1,1,0,0,1-.71-.29,10,10,0,0,1-.67-13.4l-2-2A1,1,0,0,1,3.71,2.29L15.44,14a4,4,0,0,0-.61-4.86,1,1,0,1,1,1.42-1.4,6,6,0,0,1,.64,7.71l1.42,1.43a8,8,0,0,0-.65-10.55,1,1,0,0,1,0-1.41,1,1,0,0,1,1.42,0A9.9,9.9,0,0,1,22,12Z"/></svg>