<svg id="Layer_1" data-name="Layer 1" xmlns="http://www.w3.org/2000/svg" viewBox="0 0 24 24"><title>Online</title><path d="M12,14a2,2,0,1,1,2-2A2,2,0,0,1,12,14Zm2.84,2.25a1,1,0,0,0,.7.29,1,1,0,0,0,.71-.3,6,6,0,0,0,0-8.48,1,1,0,1,0-1.42,1.4,4,4,0,0,1,0,5.68A1,1,0,0,0,14.84,16.25ZM9.16,7.75a1,1,0,0,0-1.41,0,6,6,0,0,0,0,8.48,1,1,0,0,0,.71.3,1,1,0,0,0,.7-.29,1,1,0,0,0,0-1.41,4,4,0,0,1,0-5.68A1,1,0,0,0,9.16,7.75Zm8.49-2.81a1,1,0,0,0,0,1.41,8,8,0,0,1,0,11.3,1,1,0,0,0,.7,1.71,1,1,0,0,0,.71-.29,10,10,0,0,0,0-14.14A1,1,0,0,0,17.65,4.94Zm-12.72,0a10,10,0,0,0,0,14.14,1,1,0,0,0,.71.29,1,1,0,0,0,.7-1.71,8,8,0,0,1,0-11.3,1,1,0,0,0,0-1.41A1,1,0,0,0,4.93,4.93Z"/></svg>