<svg id="Layer_1" data-name="Layer 1" xmlns="http://www.w3.org/2000/svg" viewBox="0 0 24 24"><title>Phone link Off</title><path d="M18,9V6a1,1,0,0,0-1-1H9.17l-2-2H17a3,3,0,0,1,3,3V9a1,1,0,0,1-2,0Zm3,7.83V13.5A1.5,1.5,0,0,0,19.5,12h-2a1.45,1.45,0,0,0-1,.36L18.17,14H20v1.83Zm.71,3.46a1,1,0,0,1,0,1.42,1,1,0,0,1-1.42,0L19.57,21H17.5A1.5,1.5,0,0,1,16,19.5V17.41L15.59,17H13v2a1,1,0,0,1,0,2H8a1,1,0,0,1,0-2h2V17H6a3,3,0,0,1-3-3V6a3,3,0,0,1,.3-1.29l-1-1A1,1,0,0,1,3.71,2.29ZM13.59,15,5,6.41V14a1,1,0,0,0,1,1h7.59Zm4,4L17,18.41V19Z"/></svg>