<svg id="Layer_1" data-name="Layer 1" xmlns="http://www.w3.org/2000/svg" viewBox="0 0 24 24"><title>Phone Link Setup</title><path d="M9,18v1h8V5H9V6A1,1,0,0,1,7,6V5a3,3,0,0,1,3-3h6a3,3,0,0,1,3,3V19a3,3,0,0,1-3,3H10a3,3,0,0,1-3-3V18a1,1,0,0,1,2,0ZM5.14,12.69l.47-.36c0-.11,0-.22,0-.33s0-.22,0-.33l-.47-.36a.38.38,0,0,1-.09-.48l.37-.66A.39.39,0,0,1,5.89,10l.55.23A2.12,2.12,0,0,1,7,9.91l.09-.59A.38.38,0,0,1,7.46,9h.75a.38.38,0,0,1,.37.32l.09.59a2.12,2.12,0,0,1,.56.33L9.78,10a.39.39,0,0,1,.47.16l.37.66a.38.38,0,0,1-.09.48l-.47.36c0,.11,0,.22,0,.33s0,.22,0,.33l.47.36a.38.38,0,0,1,.09.48l-.37.66a.38.38,0,0,1-.33.18.34.34,0,0,1-.14,0l-.55-.23a2.12,2.12,0,0,1-.56.33l-.09.59a.38.38,0,0,1-.37.32H7.46a.38.38,0,0,1-.37-.32L7,14.09a2.12,2.12,0,0,1-.56-.33L5.89,14a.34.34,0,0,1-.14,0,.38.38,0,0,1-.33-.18l-.37-.66A.38.38,0,0,1,5.14,12.69ZM6.84,12a1,1,0,1,0,1-1A1,1,0,0,0,6.84,12Z"/></svg>