<svg id="Layer_1" data-name="Layer 1" xmlns="http://www.w3.org/2000/svg" viewBox="0 0 24 24"><title>Print Disabled</title><path d="M10,2h4a3,3,0,0,1,3,3V8h1a3,3,0,0,1,3,3v3.69a1,1,0,0,1-2,0V11a1,1,0,0,0-1-1H14.31a1,1,0,0,1,0-2H15V5a1,1,0,0,0-1-1H10a1,1,0,0,0-.61.21A1,1,0,0,1,8.11,2.67,3,3,0,0,1,10,2Zm6,10a1,1,0,1,0,1-1A1,1,0,0,0,16,12Zm5.71,8.29a1,1,0,0,1,0,1.42,1,1,0,0,1-1.42,0L17,18.41V19a3,3,0,0,1-3,3H10a3,3,0,0,1-3-3V18H6a3,3,0,0,1-3-3V11A3,3,0,0,1,6,8h.59L2.29,3.71A1,1,0,0,1,3.71,2.29l5,5h0l1,1h0l8,8h0ZM6,16H7.18A3,3,0,0,1,10,14h2.59l-4-4H6a1,1,0,0,0-1,1v4A1,1,0,0,0,6,16Zm9,1a1,1,0,0,0-1-1H10a1,1,0,0,0-1,1v2a1,1,0,0,0,1,1h4a1,1,0,0,0,1-1Z"/></svg>