<svg id="Layer_1" data-name="Layer 1" xmlns="http://www.w3.org/2000/svg" viewBox="0 0 24 24"><title>Ram Memory</title><path d="M11,15h2a2,2,0,0,0,2-2V11a2,2,0,0,0-2-2H11a2,2,0,0,0-2,2v2A2,2,0,0,0,11,15Zm0-4h2v2H11Zm1,10a1,1,0,0,0,1-1V19h2v1a1,1,0,0,0,2,0V18.82A3,3,0,0,0,18.82,17H20a1,1,0,0,0,0-2H19V13h1a1,1,0,0,0,0-2H19V9h1a1,1,0,0,0,0-2H18.82A3,3,0,0,0,17,5.18V4a1,1,0,0,0-2,0V5H13V4a1,1,0,0,0-2,0V5H9V4A1,1,0,0,0,7,4V5.18A3,3,0,0,0,5.18,7H4A1,1,0,0,0,4,9H5v2H4a1,1,0,0,0,0,2H5v2H4a1,1,0,0,0,0,2H5.18A3,3,0,0,0,7,18.82V20a1,1,0,0,0,2,0V19h2v1A1,1,0,0,0,12,21ZM7,8A1,1,0,0,1,8,7h8a1,1,0,0,1,1,1v8a1,1,0,0,1-1,1H8a1,1,0,0,1-1-1Z"/></svg>