<svg id="Layer_1" data-name="Layer 1" xmlns="http://www.w3.org/2000/svg" viewBox="0 0 24 24"><title>Router</title><path d="M20.89,5.61a1,1,0,0,1-.71-.29,4.49,4.49,0,0,0-6.36,0A1,1,0,1,1,12.4,3.9a6.52,6.52,0,0,1,9.2,0,1,1,0,0,1,0,1.42A1,1,0,0,1,20.89,5.61ZM17,5.5a4.41,4.41,0,0,0-3.18,1.33,1,1,0,0,0,1.42,1.4,2.55,2.55,0,0,1,3.52,0,1,1,0,0,0,.71.3,1,1,0,0,0,.7-.29,1,1,0,0,0,0-1.41A4.41,4.41,0,0,0,17,5.5ZM22,17v2a3,3,0,0,1-3,3H5a3,3,0,0,1-3-3V17a3,3,0,0,1,3-3H16V11a1,1,0,0,1,2,0v3h1A3,3,0,0,1,22,17Zm-2,0a1,1,0,0,0-1-1H5a1,1,0,0,0-1,1v2a1,1,0,0,0,1,1H19a1,1,0,0,0,1-1ZM6,17a1,1,0,1,0,1,1A1,1,0,0,0,6,17Zm12,0a1,1,0,1,0,1,1A1,1,0,0,0,18,17Zm-4,0a1,1,0,1,0,1,1A1,1,0,0,0,14,17Zm-4,0a1,1,0,1,0,1,1A1,1,0,0,0,10,17Z"/></svg>