<svg id="Layer_1" data-name="Layer 1" xmlns="http://www.w3.org/2000/svg" viewBox="0 0 24 24"><title>RSS Feed</title><path d="M11.93,17.82A4.39,4.39,0,0,0,12,17a5,5,0,0,0-5-5,4.39,4.39,0,0,0-.82.07,1,1,0,1,1-.36-2A6.39,6.39,0,0,1,7,10a7,7,0,0,1,7,7,6.39,6.39,0,0,1-.11,1.18,1,1,0,0,1-1,.82l-.18,0A1,1,0,0,1,11.93,17.82ZM7,19a2,2,0,1,0-2-2A2,2,0,0,0,7,19Zm10.86,0H18a1,1,0,0,0,1-.91c0-.36.05-.72.05-1.09A12,12,0,0,0,7,5c-.37,0-.73,0-1.09,0a1,1,0,0,0,.18,2A9.08,9.08,0,0,1,7,7,10,10,0,0,1,17,17a9.08,9.08,0,0,1-.05.91A1,1,0,0,0,17.86,19Z"/></svg>