<svg id="Layer_1" data-name="Layer 1" xmlns="http://www.w3.org/2000/svg" viewBox="0 0 24 24"><title>Screen Resolution</title><path d="M19,19V5a3,3,0,0,0-3-3H8A3,3,0,0,0,5,5V19a3,3,0,0,0,3,3h8A3,3,0,0,0,19,19Zm-2,0a1,1,0,0,1-1,1H8a1,1,0,0,1-1-1V5A1,1,0,0,1,8,4h8a1,1,0,0,1,1,1ZM16,8.5v2a.5.5,0,0,1-.31.46.43.43,0,0,1-.19,0,.47.47,0,0,1-.35-.15l-.3-.29-4.29,4.29.29.3a.47.47,0,0,1,.11.54.5.5,0,0,1-.46.31h-2a.5.5,0,0,1-.5-.5v-2A.5.5,0,0,1,8.31,13a.47.47,0,0,1,.54.11l.3.29,4.29-4.29-.29-.3A.47.47,0,0,1,13,8.31.5.5,0,0,1,13.5,8h2A.5.5,0,0,1,16,8.5Z"/></svg>