<svg id="Layer_1" data-name="Layer 1" xmlns="http://www.w3.org/2000/svg" viewBox="0 0 24 24"><title>Screen Lock Rotation</title><path d="M2,13.27v-.5a.75.75,0,0,1,1.5,0v.5a7.23,7.23,0,0,0,3.66,6.29.21.21,0,0,0,.25,0L8,18.9a1,1,0,0,1,1.41,0l2.25,2.25a.5.5,0,0,1-.35.85h-.61A8.73,8.73,0,0,1,2,13.27ZM14,6h0V5a2,2,0,0,1,4,0V6h0a1,1,0,0,1,1,1v3a1,1,0,0,1-1,1H14a1,1,0,0,1-1-1V7A1,1,0,0,1,14,6Zm1,0h2V5a1,1,0,0,0-2,0V6ZM8,4.29a1,1,0,0,1,1.4,0l.93.92a1,1,0,0,0,1.41,0,1,1,0,0,0,0-1.42l-.92-.92a3,3,0,0,0-4.23,0L2.88,6.56a3,3,0,0,0,0,4.23L13.21,21.12a3,3,0,0,0,4.23,0l3.68-3.68a3,3,0,0,0,0-4.23l-.45-.45a1,1,0,0,0-1.41,0,1,1,0,0,0,0,1.42l.45.45a1,1,0,0,1,0,1.4L16,19.71a1,1,0,0,1-1.4,0L4.29,9.37a1,1,0,0,1,0-1.4Z"/></svg>