<svg id="Layer_1" data-name="Layer 1" xmlns="http://www.w3.org/2000/svg" viewBox="0 0 24 24"><title>Screen Rotation</title><path d="M3.5,12.75v.5a7.26,7.26,0,0,0,3.67,6.3.21.21,0,0,0,.25,0L8,18.9a1,1,0,0,1,1.42,0l2.25,2.25a.5.5,0,0,1-.35.85h-.61A8.75,8.75,0,0,1,2,13.25v-.5a.75.75,0,0,1,1.5,0ZM21.25,12a.76.76,0,0,0,.75-.75v-.5A8.75,8.75,0,0,0,13.25,2h-.61a.5.5,0,0,0-.35.85L14.54,5.1A1,1,0,0,0,16,5.1l.62-.62a.21.21,0,0,1,.25,0,7.26,7.26,0,0,1,3.67,6.3v.5A.76.76,0,0,0,21.25,12ZM2.84,10.78a3,3,0,0,1,0-4.24l3.7-3.7a3.08,3.08,0,0,1,4.24,0L21.16,13.22h0a3,3,0,0,1,0,4.24l-3.7,3.7a3,3,0,0,1-4.24,0ZM4.25,9.37,14.64,19.75a1,1,0,0,0,1.41,0l3.7-3.7a1,1,0,0,0,0-1.42L9.36,4.25A1,1,0,0,0,8,4.25L4.25,8A1,1,0,0,0,4.25,9.37Z"/></svg>