<svg id="Layer_1" data-name="Layer 1" xmlns="http://www.w3.org/2000/svg" viewBox="0 0 24 24"><title>Screen Share</title><path d="M19,2H5A3,3,0,0,0,2,5V15a3,3,0,0,0,3,3h5v2H7a1,1,0,0,0,0,2H17a1,1,0,0,0,0-2H14V18h5a3,3,0,0,0,3-3V5A3,3,0,0,0,19,2Zm1,13a1,1,0,0,1-1,1H5a1,1,0,0,1-1-1V5A1,1,0,0,1,5,4H19a1,1,0,0,1,1,1ZM15.88,9.67a.51.51,0,0,1,0,.66l-3,3.5a.52.52,0,0,1-.38.17.47.47,0,0,1-.17,0A.5.5,0,0,1,12,13.5V12H10.5c-.75,0-1,.22-1.65.85a.48.48,0,0,1-.54.11A.5.5,0,0,1,8,12.5C8,9.85,9.44,8,11.5,8H12V6.5A.5.5,0,0,1,12.33,6a.52.52,0,0,1,.55.14Z"/></svg>