<svg id="Layer_1" data-name="Layer 1" xmlns="http://www.w3.org/2000/svg" viewBox="0 0 24 24"><title>Settings System Daydream</title><path d="M15.88,10a4,4,0,0,0-7.75,0,3.5,3.5,0,0,0,.37,7h7a3.5,3.5,0,0,0,.38-7Zm-.38,5h-7a1.5,1.5,0,0,1,0-3,1.66,1.66,0,0,1,.32,0,1,1,0,0,0,.82-.24A1,1,0,0,0,10,11a2,2,0,1,1,4,.05,1,1,0,0,0,.36.77,1,1,0,0,0,.82.21,1.66,1.66,0,0,1,.32,0,1.5,1.5,0,0,1,0,3ZM19,3H5A3,3,0,0,0,2,6V18a3,3,0,0,0,3,3H19a3,3,0,0,0,3-3V6A3,3,0,0,0,19,3Zm1,15a1,1,0,0,1-1,1H5a1,1,0,0,1-1-1V6A1,1,0,0,1,5,5H19a1,1,0,0,1,1,1Z"/></svg>