<svg id="Layer_1" data-name="Layer 1" xmlns="http://www.w3.org/2000/svg" viewBox="0 0 24 24"><title>Signal Wifi Off</title><path d="M16.7,11.73l2.95-4.08A12.31,12.31,0,0,0,12,5a12,12,0,0,0-2.36.23,1,1,0,0,1-.4-2A13.74,13.74,0,0,1,12,3a14.36,14.36,0,0,1,9.67,3.74,1,1,0,0,1,.14,1.32l-3.49,4.85a1,1,0,0,1-.81.41,1,1,0,0,1-.81-1.59Zm-14.41-8a1,1,0,0,1,0-1.42,1,1,0,0,1,1.42,0l18,18a1,1,0,0,1-1.42,1.42l-4.82-4.83-2.66,3.7A1,1,0,0,1,12,21h0a1,1,0,0,1-.81-.42l-9-12.52a1,1,0,0,1,.14-1.32A14.06,14.06,0,0,1,4,5.44ZM14,15.45,5.46,6.88a11.49,11.49,0,0,0-1.11.76L12,18.28Z"/></svg>