<svg id="Layer_1" data-name="Layer 1" xmlns="http://www.w3.org/2000/svg" viewBox="0 0 24 24"><title>Speaker Phone</title><path d="M15,5a1,1,0,0,1-2,0H5V19h8a1,1,0,0,1,2,0,3,3,0,0,1-3,3H6a3,3,0,0,1-3-3V5A3,3,0,0,1,6,2h6A3,3,0,0,1,15,5ZM12.22,8.08,9.35,10H7.5a.5.5,0,0,0-.5.5v3a.5.5,0,0,0,.5.5H9.35l2.87,1.92a.57.57,0,0,0,.28.08.53.53,0,0,0,.24-.06A.51.51,0,0,0,13,15.5v-7a.5.5,0,0,0-.78-.42Zm6.72-1.27a1,1,0,0,0-1.4,1.42,5,5,0,0,1,0,7.06,1,1,0,1,0,1.4,1.42,7,7,0,0,0,0-9.9Zm-4.25,7.06a1,1,0,0,0,1.42,0,3,3,0,0,0,0-4.26,1,1,0,0,0-1.4,1.44,1,1,0,0,1,0,1.38A1,1,0,0,0,14.69,13.87Z"/></svg>