<svg id="Layer_1" data-name="Layer 1" xmlns="http://www.w3.org/2000/svg" viewBox="0 0 24 24"><title>Stop Screen Share</title><path d="M22,5V15a3,3,0,0,1-.85,2.08l-1.41-1.41A1,1,0,0,0,20,15V5a1,1,0,0,0-1-1H8.07l-2-2H19A3,3,0,0,1,22,5ZM15.88,9.67l-3-3.5A.52.52,0,0,0,12.33,6,.5.5,0,0,0,12,6.5V7.93l3.2,3.2.68-.8A.51.51,0,0,0,15.88,9.67Zm5.83,10.62a1,1,0,0,1,0,1.42,1,1,0,0,1-1.42,0L16.59,18H14v2h3a1,1,0,0,1,0,2H7a1,1,0,0,1,0-2h3V18H5a3,3,0,0,1-3-3V5a3,3,0,0,1,.3-1.29h0A1,1,0,0,1,3.71,2.29ZM14.59,16l-4-4H10.5c-.75,0-1,.22-1.65.85a.48.48,0,0,1-.54.11A.5.5,0,0,1,8,12.5,5.73,5.73,0,0,1,8.55,10L4,5.41V15a1,1,0,0,0,1,1Z"/></svg>