<svg id="Layer_1" data-name="Layer 1" xmlns="http://www.w3.org/2000/svg" viewBox="0 0 24 24"><title>Storage</title><path d="M19,2H5A3,3,0,0,0,2,5V19a3,3,0,0,0,3,3H19a3,3,0,0,0,3-3V5A3,3,0,0,0,19,2ZM4,10H20v4H4ZM4,5A1,1,0,0,1,5,4H19a1,1,0,0,1,1,1V8H4ZM20,19a1,1,0,0,1-1,1H5a1,1,0,0,1-1-1V16H20ZM7,6A1,1,0,1,1,6,5,1,1,0,0,1,7,6Zm0,6a1,1,0,1,1-1-1A1,1,0,0,1,7,12ZM5,18a1,1,0,1,1,1,1A1,1,0,0,1,5,18ZM19,6a1,1,0,0,1-1,1H10a1,1,0,0,1,0-2h8A1,1,0,0,1,19,6Zm0,6a1,1,0,0,1-1,1H10a1,1,0,0,1,0-2h8A1,1,0,0,1,19,12ZM9,18a1,1,0,0,1,1-1h8a1,1,0,0,1,0,2H10A1,1,0,0,1,9,18Z"/></svg>