<svg id="Layer_1" data-name="Layer 1" xmlns="http://www.w3.org/2000/svg" viewBox="0 0 24 24"><title>Toys</title><path d="M11,7a1,1,0,1,1,1,1A1,1,0,0,1,11,7Zm0,8v4a2,2,0,0,1-2,2H5a2,2,0,0,1-2-2V15a2,2,0,0,1,2-2H9A2,2,0,0,1,11,15ZM9,15H5v4H9Zm12,0v4a2,2,0,0,1-2,2H15a2,2,0,0,1-2-2V15a2,2,0,0,1,2-2h4A2,2,0,0,1,21,15Zm-2,0H15v4h4ZM16,5V9a2,2,0,0,1-2,2H10A2,2,0,0,1,8,9V5a2,2,0,0,1,2-2h4A2,2,0,0,1,16,5ZM14,5H10V9h4ZM6.5,18h1a.52.52,0,0,0,.43-.24.51.51,0,0,0,0-.48l-.5-1a.52.52,0,0,0-.9,0l-.5,1a.51.51,0,0,0,0,.48A.52.52,0,0,0,6.5,18Zm10.15-.15a.48.48,0,0,0,.7,0l.5-.5a.48.48,0,0,0,0-.7l-.5-.5a.48.48,0,0,0-.7,0l-.5.5a.48.48,0,0,0,0,.7Z"/></svg>