<svg id="Layer_1" data-name="Layer 1" xmlns="http://www.w3.org/2000/svg" viewBox="0 0 24 24"><title>Unsubscribe</title><path d="M19,5H5A3,3,0,0,0,2,8v8a3,3,0,0,0,3,3h8a1,1,0,0,0,0-2H5a1,1,0,0,1-1-1V8.33l7.34,6.42A1,1,0,0,0,12,15a1,1,0,0,0,.66-.25L20,8.33V12a1,1,0,0,0,1,1h0a1,1,0,0,0,1-1V8A3,3,0,0,0,19,5Zm-7,7.67L5.52,7h13Zm9.71,4L20.41,18l1.3,1.29a1,1,0,0,1,0,1.42,1,1,0,0,1-1.42,0L19,19.41l-1.29,1.3a1,1,0,0,1-1.42,0,1,1,0,0,1,0-1.42L17.59,18l-1.3-1.29a1,1,0,0,1,1.42-1.42L19,16.59l1.29-1.3a1,1,0,0,1,1.42,1.42Z"/></svg>