<svg id="Layer_1" data-name="Layer 1" xmlns="http://www.w3.org/2000/svg" viewBox="0 0 24 24"><title>USB</title><path d="M7,8a2,2,0,0,1,2,2,2,2,0,0,1-1,1.72v1.6l3,1.2V6H9.5a.49.49,0,0,1-.45-.29.47.47,0,0,1,.07-.53l2.5-3a.5.5,0,0,1,.76,0l2.5,3a.47.47,0,0,1,.07.53A.49.49,0,0,1,14.5,6H13v8.52l3-1.2V12h-.5a.51.51,0,0,1-.5-.5v-3a.51.51,0,0,1,.5-.5h3a.51.51,0,0,1,.5.5v3a.51.51,0,0,1-.5.5H18v2a1,1,0,0,1-.63.93L13,16.68v1.6A2,2,0,0,1,14,20a2,2,0,0,1-4,0,2,2,0,0,1,1-1.72v-1.6L6.63,14.93A1,1,0,0,1,6,14V11.72A2,2,0,0,1,5,10,2,2,0,0,1,7,8Z"/></svg>