<svg id="Layer_1" data-name="Layer 1" xmlns="http://www.w3.org/2000/svg" viewBox="0 0 24 24"><title>VPN</title><path d="M18,2H6A3,3,0,0,0,3,5v8a3,3,0,0,0,3,3H18a3,3,0,0,0,3-3V5A3,3,0,0,0,18,2Zm1,11a1,1,0,0,1-1,1H6a1,1,0,0,1-1-1V5A1,1,0,0,1,6,4H18a1,1,0,0,1,1,1Zm2,7a1,1,0,0,1-1,1H16a1,1,0,0,1-1,1H9a1,1,0,0,1-1-1H4a1,1,0,0,1,0-2H8a1,1,0,0,1,1-1h6a1,1,0,0,1,1,1h4A1,1,0,0,1,21,20ZM16.8,8.6a.5.5,0,0,1,0,.8l-2,1.5a.47.47,0,0,1-.3.1.54.54,0,0,1-.22-.05A.51.51,0,0,1,14,10.5V10H10v.5a.51.51,0,0,1-.28.45A.54.54,0,0,1,9.5,11a.47.47,0,0,1-.3-.1l-2-1.5a.5.5,0,0,1,0-.8l2-1.5a.5.5,0,0,1,.8.4V8h4V7.5a.5.5,0,0,1,.8-.4Z"/></svg>