<svg id="Layer_1" data-name="Layer 1" xmlns="http://www.w3.org/2000/svg" viewBox="0 0 24 24"><title>Wallpaper</title><path d="M11,3a1,1,0,0,1-1,1H5A1,1,0,0,0,4,5v5a1,1,0,0,1-2,0V5A3,3,0,0,1,5,2h5A1,1,0,0,1,11,3ZM10,20H5a1,1,0,0,1-1-1V15a1,1,0,0,0-2,0v4a3,3,0,0,0,3,3h5a1,1,0,0,0,0-2Zm11-7a1,1,0,0,0-1,1v5a1,1,0,0,1-1,1H14a1,1,0,0,0,0,2h5a3,3,0,0,0,3-3V14A1,1,0,0,0,21,13ZM19,2H14a1,1,0,0,0,0,2h5a1,1,0,0,1,1,1v5a1,1,0,0,0,2,0V5A3,3,0,0,0,19,2ZM13.67,13.12l-1.2,1-2.06-2.94a.53.53,0,0,0-.82,0l-3.5,5a.49.49,0,0,0,0,.52A.48.48,0,0,0,6.5,17h11a.5.5,0,0,0,.47-.33.52.52,0,0,0-.14-.55l-3.5-3A.51.51,0,0,0,13.67,13.12ZM17,8a1,1,0,1,0-1,1A1,1,0,0,0,17,8Z"/></svg>