<svg id="Layer_1" data-name="Layer 1" xmlns="http://www.w3.org/2000/svg" viewBox="0 0 24 24"><title>Web</title><path d="M19,3H5A3,3,0,0,0,2,6V18a3,3,0,0,0,3,3H19a3,3,0,0,0,3-3V6A3,3,0,0,0,19,3ZM4,6A1,1,0,0,1,5,5H19a1,1,0,0,1,1,1V8H4ZM19,19H5a1,1,0,0,1-1-1V10H20v8A1,1,0,0,1,19,19Zm-7-6.5v4a.5.5,0,0,1-.5.5h-5a.5.5,0,0,1-.5-.5v-4a.5.5,0,0,1,.5-.5h5A.5.5,0,0,1,12,12.5Zm6,0v4a.5.5,0,0,1-.5.5h-3a.5.5,0,0,1-.5-.5v-4a.5.5,0,0,1,.5-.5h3A.5.5,0,0,1,18,12.5ZM6,6.5A.5.5,0,1,1,5.5,6,.5.5,0,0,1,6,6.5Zm2,0A.5.5,0,1,1,7.5,6,.5.5,0,0,1,8,6.5Zm11,0a.5.5,0,0,1-.5.5h-8a.5.5,0,0,1,0-1h8A.5.5,0,0,1,19,6.5Z"/></svg>