<svg id="Layer_1" data-name="Layer 1" xmlns="http://www.w3.org/2000/svg" viewBox="0 0 24 24"><title>Widgets</title><path d="M8,3H6A3,3,0,0,0,3,6V8a3,3,0,0,0,3,3H8a3,3,0,0,0,3-3V6A3,3,0,0,0,8,3ZM9,8A1,1,0,0,1,8,9H6A1,1,0,0,1,5,8V6A1,1,0,0,1,6,5H8A1,1,0,0,1,9,6Zm8-5a4,4,0,1,0,4,4A4,4,0,0,0,17,3Zm0,6a2,2,0,1,1,2-2A2,2,0,0,1,17,9ZM8,13H6a3,3,0,0,0-3,3v2a3,3,0,0,0,3,3H8a3,3,0,0,0,3-3V16A3,3,0,0,0,8,13Zm1,5a1,1,0,0,1-1,1H6a1,1,0,0,1-1-1V16a1,1,0,0,1,1-1H8a1,1,0,0,1,1,1Zm9-5H16a3,3,0,0,0-3,3v2a3,3,0,0,0,3,3h2a3,3,0,0,0,3-3V16A3,3,0,0,0,18,13Zm1,5a1,1,0,0,1-1,1H16a1,1,0,0,1-1-1V16a1,1,0,0,1,1-1h2a1,1,0,0,1,1,1Z"/></svg>