<svg id="Layer_1" data-name="Layer 1" xmlns="http://www.w3.org/2000/svg" viewBox="0 0 24 24"><title>Wifi Tethering</title><path d="M14,13a2,2,0,1,1-2-2A2,2,0,0,1,14,13Zm2.24-4.25a6,6,0,0,0-8.49,8.49,1,1,0,1,0,1.42-1.4,4,4,0,1,1,5.66,0,1,1,0,0,0,0,1.41,1,1,0,0,0,.7.29,1,1,0,0,0,.71-.3,6,6,0,0,0,0-8.49ZM12,3A10,10,0,0,0,2,13a9.9,9.9,0,0,0,2.93,7.07,1,1,0,0,0,1.42,0,1,1,0,0,0,0-1.41,8,8,0,0,1,0-11.3,8,8,0,0,1,11.31,0,8,8,0,0,1,0,11.3,1,1,0,0,0,.7,1.71,1,1,0,0,0,.71-.29,10,10,0,0,0,0-14.13A9.87,9.87,0,0,0,12,3Z"/></svg>