<svg id="Layer_1" data-name="Layer 1" xmlns="http://www.w3.org/2000/svg" viewBox="0 0 24 24"><title>Wifi Lock</title><path d="M21,16h0V15a2,2,0,0,0-4,0v1h0a1,1,0,0,0-1,1v3a1,1,0,0,0,1,1h4a1,1,0,0,0,1-1V17A1,1,0,0,0,21,16Zm-1,0H18V15a1,1,0,0,1,2,0Zm-4.94-1.69a1.57,1.57,0,0,1-.34.74A3,3,0,0,0,14,17v1.29a1.94,1.94,0,0,1-.38,1.16l-.81,1.13a1,1,0,0,1-1.62,0l-9-12.52a1,1,0,0,1,.12-1.3,14.37,14.37,0,0,1,19.38,0,1,1,0,0,1,.12,1.3L20.55,9.81c-.17.23-.34.46-.5.7a1,1,0,0,1-.86.5H19A4,4,0,0,0,15.06,14.31Z"/></svg>