<svg id="Layer_1" data-name="Layer 1" xmlns="http://www.w3.org/2000/svg" viewBox="0 0 24 24"><title>World Wide Web</title><path d="M3.55,13.72l-1.5-3a.5.5,0,0,1,.9-.44l1,1.92.62-1.86a.51.51,0,0,1,.94,0l.62,1.86,1-1.92a.5.5,0,0,1,.9.44l-1.5,3A.51.51,0,0,1,6,14H6a.5.5,0,0,1-.43-.34L5,12.08l-.53,1.58A.5.5,0,0,1,4,14,.52.52,0,0,1,3.55,13.72Zm10.5-3.44-1,1.92-.62-1.86a.51.51,0,0,0-.94,0l-.62,1.86-1-1.92a.5.5,0,1,0-.9.44l1.5,3A.51.51,0,0,0,11,14a.5.5,0,0,0,.43-.34L12,12.08l.53,1.58A.5.5,0,0,0,13,14h0a.51.51,0,0,0,.45-.28l1.5-3a.5.5,0,0,0-.9-.44Zm7.67-.23a.51.51,0,0,0-.67.23l-1,1.92-.62-1.86a.51.51,0,0,0-.94,0l-.62,1.86-1-1.92a.5.5,0,1,0-.9.44l1.5,3A.51.51,0,0,0,18,14a.5.5,0,0,0,.43-.34L19,12.08l.53,1.58A.5.5,0,0,0,20,14h0a.51.51,0,0,0,.45-.28l1.5-3A.51.51,0,0,0,21.72,10.05Zm-1.22,5a1,1,0,0,0-1.34.46,8,8,0,0,1-5.06,4.16,11.92,11.92,0,0,0,2.06-3.35,1,1,0,0,0-1.86-.74A9.75,9.75,0,0,1,12,19a9.75,9.75,0,0,1-2.3-3.4,1,1,0,1,0-1.86.74A11.92,11.92,0,0,0,9.9,19.72a8,8,0,0,1-5.06-4.16,1,1,0,1,0-1.8.88,10,10,0,0,0,17.92,0A1,1,0,0,0,20.5,15.1ZM3,7.56a1,1,0,1,0,1.8.88A8,8,0,0,1,9.9,4.28,11.92,11.92,0,0,0,7.84,7.63a1,1,0,0,0,.56,1.3A1,1,0,0,0,8.77,9a1,1,0,0,0,.93-.63A9.75,9.75,0,0,1,12,5a9.75,9.75,0,0,1,2.3,3.4,1,1,0,0,0,.93.63,1,1,0,0,0,.37-.07,1,1,0,0,0,.56-1.3A11.92,11.92,0,0,0,14.1,4.28a8,8,0,0,1,5.06,4.16,1,1,0,0,0,.9.56,1,1,0,0,0,.44-.1A1,1,0,0,0,21,7.56,10,10,0,0,0,3,7.56Z"/></svg>