<svg id="Layer_1" data-name="Layer 1" xmlns="http://www.w3.org/2000/svg" viewBox="0 0 24 24"><title>Alert</title><path d="M6,10v4.59l-1.71,1.7a1,1,0,0,0-.21,1.09A1,1,0,0,0,5,18H19a1,1,0,0,0,.92-.62,1,1,0,0,0-.21-1.09L18,14.59V10a6,6,0,0,0-5-5.91V3a1,1,0,0,0-2,0V4.09A6,6,0,0,0,6,10Zm2,0a4,4,0,0,1,8,0v5a1,1,0,0,0,.29.71l.3.29H7.41l.3-.29A1,1,0,0,0,8,15Zm6.44,9a.53.53,0,0,1,.39.18.53.53,0,0,1,.1.42,3.06,3.06,0,0,1-6,0,.53.53,0,0,1,.1-.42A.53.53,0,0,1,9.44,19ZM17.66,4.35a1,1,0,1,1,1.4-1.42A9.87,9.87,0,0,1,22,10a1,1,0,0,1-2,0A7.91,7.91,0,0,0,17.66,4.35ZM2,10A9.87,9.87,0,0,1,4.94,2.93a1,1,0,0,1,1.4,1.42A7.91,7.91,0,0,0,4,10a1,1,0,0,1-2,0Z"/></svg>