<svg id="Layer_1" data-name="Layer 1" xmlns="http://www.w3.org/2000/svg" viewBox="0 0 24 24"><title>Authentication</title><path d="M8.71,9.71l-.3.29.3.29a1,1,0,0,1-1.42,1.42L7,11.41l-.29.3a1,1,0,0,1-1.42-1.42l.3-.29-.3-.29A1,1,0,0,1,6.71,8.29l.29.3.29-.3A1,1,0,0,1,8.71,9.71Zm10-1.42a1,1,0,0,0-1.42,0l-.29.3-.29-.3a1,1,0,0,0-1.42,1.42l.3.29-.3.29a1,1,0,0,0,1.42,1.42l.29-.3.29.3a1,1,0,0,0,1.42-1.42l-.3-.29.3-.29A1,1,0,0,0,18.71,8.29Zm-5,0a1,1,0,0,0-1.42,0l-.29.3-.29-.3a1,1,0,0,0-1.42,1.42l.3.29-.3.29a1,1,0,0,0,1.42,1.42l.29-.3.29.3a1,1,0,0,0,1.42-1.42l-.3-.29.3-.29A1,1,0,0,0,13.71,8.29ZM22,5V15a3,3,0,0,1-3,3H12.35L7.62,21.78A1,1,0,0,1,7,22a.91.91,0,0,1-.43-.1A1,1,0,0,1,6,21V18H5a3,3,0,0,1-3-3V5A3,3,0,0,1,5,2H19A3,3,0,0,1,22,5ZM20,5a1,1,0,0,0-1-1H5A1,1,0,0,0,4,5V15a1,1,0,0,0,1,1H7a1,1,0,0,1,1,1v1.92l3.38-2.7A1,1,0,0,1,12,16h7a1,1,0,0,0,1-1Z"/></svg>