<svg id="Layer_1" data-name="Layer 1" xmlns="http://www.w3.org/2000/svg" viewBox="0 0 24 24"><title>Bookmark Favorite Folder</title><path d="M19,6H12.83a1,1,0,0,1-.71-.29l-.83-.83A3,3,0,0,0,9.17,4H5A3,3,0,0,0,2,7V17a3,3,0,0,0,3,3H19a3,3,0,0,0,3-3V9A3,3,0,0,0,19,6Zm1,11a1,1,0,0,1-1,1H5a1,1,0,0,1-1-1V7A1,1,0,0,1,5,6H9.17a1,1,0,0,1,.71.29l.83.83A3,3,0,0,0,12.83,8H19a1,1,0,0,1,1,1Zm-4.31-4.65a.49.49,0,0,1-.18.55l-1.69,1.23.64,2a.48.48,0,0,1-.18.56.46.46,0,0,1-.29.1.47.47,0,0,1-.3-.1L12,15.45l-1.69,1.23a.5.5,0,0,1-.59,0,.48.48,0,0,1-.18-.56l.64-2L8.49,12.9a.49.49,0,0,1-.18-.55A.5.5,0,0,1,8.79,12h2.09l.64-2a.53.53,0,0,1,1,0l.64,2h2.09A.5.5,0,0,1,15.69,12.35Z"/></svg>