<svg id="Layer_1" data-name="Layer 1" xmlns="http://www.w3.org/2000/svg" viewBox="0 0 24 24"><title>Event Busy</title><path d="M9.29,16.29,10.59,15l-1.3-1.29a1,1,0,0,1,1.42-1.42L12,13.59l1.29-1.3a1,1,0,0,1,1.42,1.42L13.41,15l1.3,1.29a1,1,0,0,1,0,1.42,1,1,0,0,1-1.42,0L12,16.41l-1.29,1.3a1,1,0,0,1-1.42,0A1,1,0,0,1,9.29,16.29ZM22,7V19a3,3,0,0,1-3,3H5a3,3,0,0,1-3-3V7A3,3,0,0,1,5,4H6V3A1,1,0,0,1,8,3V4h8V3a1,1,0,0,1,2,0V4h1A3,3,0,0,1,22,7ZM4,8H20V7a1,1,0,0,0-1-1H18a1,1,0,0,1-2,0H8A1,1,0,0,1,6,6H5A1,1,0,0,0,4,7Zm16,2H4v9a1,1,0,0,0,1,1H19a1,1,0,0,0,1-1Z"/></svg>