<svg id="Layer_1" data-name="Layer 1" xmlns="http://www.w3.org/2000/svg" viewBox="0 0 24 24"><title>Live TV</title><path d="M5,19H19a3,3,0,0,0,3-3V8a3,3,0,0,0-3-3H14.41l1.3-1.29a1,1,0,1,0-1.42-1.42L12,4.59,9.71,2.29A1,1,0,0,0,8.29,3.71L9.59,5H5A3,3,0,0,0,2,8v8A3,3,0,0,0,5,19ZM4,8A1,1,0,0,1,5,7H19a1,1,0,0,1,1,1v8a1,1,0,0,1-1,1H5a1,1,0,0,1-1-1ZM8,22a1,1,0,0,1,0-2h8a1,1,0,0,1,0,2Zm1.24-7.07A.52.52,0,0,1,9,14.5v-5a.52.52,0,0,1,.24-.43.48.48,0,0,1,.48,0l5,2.5a.5.5,0,0,1,0,.9l-5,2.5A.54.54,0,0,1,9.5,15,.48.48,0,0,1,9.24,14.93Z"/></svg>