<svg id="Layer_1" data-name="Layer 1" xmlns="http://www.w3.org/2000/svg" viewBox="0 0 24 24"><title>MMS</title><path d="M19,2H5A3,3,0,0,0,2,5V15a3,3,0,0,0,3,3H6v3a1,1,0,0,0,.57.9A.94.94,0,0,0,7,22a1,1,0,0,0,.62-.22L12.35,18H19a3,3,0,0,0,3-3V5A3,3,0,0,0,19,2Zm1,13a1,1,0,0,1-1,1H12a1,1,0,0,0-.62.22L8,18.92V17a1,1,0,0,0-1-1H5a1,1,0,0,1-1-1V5A1,1,0,0,1,5,4H19a1,1,0,0,1,1,1Zm-2.17-1.88a.52.52,0,0,1,.14.55.5.5,0,0,1-.47.33H6.5a.48.48,0,0,1-.44-.27.49.49,0,0,1,0-.52l3.5-5a.53.53,0,0,1,.82,0l2.06,2.94,1.2-1a.51.51,0,0,1,.66,0ZM15,7a1,1,0,1,1,1,1A1,1,0,0,1,15,7Z"/></svg>