<svg id="Layer_1" data-name="Layer 1" xmlns="http://www.w3.org/2000/svg" viewBox="0 0 24 24"><title>Network</title><path d="M12,2a10,10,0,0,0,0,20,1,1,0,0,0,1-1V20a1,1,0,0,0-.38-.78A9.38,9.38,0,0,1,10,16h2a1,1,0,0,0,0-2H9.36a9.2,9.2,0,0,1,0-4h5.27a9.82,9.82,0,0,1,.23,2,1,1,0,0,0,2,0,11.39,11.39,0,0,0-.2-2h3.08A7.78,7.78,0,0,1,20,12a1,1,0,0,0,2,0A10,10,0,0,0,12,2ZM10.29,4.18A11.14,11.14,0,0,0,7.88,8H5.08A8,8,0,0,1,10.29,4.18Zm0,15.64A8,8,0,0,1,5.08,16h2.8A11.14,11.14,0,0,0,10.29,19.82ZM7.33,14H4.26a7.82,7.82,0,0,1,0-4H7.33a10.62,10.62,0,0,0,0,4ZM12,5.31A9.41,9.41,0,0,1,14,8H10A9.39,9.39,0,0,1,12,5.31ZM16.12,8a11.31,11.31,0,0,0-2.43-3.82A8,8,0,0,1,18.92,8Zm5.59,12.29a1,1,0,0,1,0,1.42,1,1,0,0,1-1.42,0l-2.36-2.37-1.22,1.22a1,1,0,0,1-.71.3,1,1,0,0,1-1-1V16a1,1,0,0,1,1-1h3.86a1,1,0,0,1,.7,1.71l-1.22,1.22Z"/></svg>