<svg id="Layer_1" data-name="Layer 1" xmlns="http://www.w3.org/2000/svg" viewBox="0 0 24 24"><title>No Encryption</title><path d="M3.71,2.29A1,1,0,0,0,2.29,3.71L7,8.41v.78A3,3,0,0,0,5,12v6a3,3,0,0,0,3,3h8a3,3,0,0,0,2.39-1.2l1.91,1.91a1,1,0,0,0,1.42,0,1,1,0,0,0,0-1.42ZM16,19H8a1,1,0,0,1-1-1V12a1,1,0,0,1,1-1H9.59l7.34,7.34A1,1,0,0,1,16,19ZM17,8.25v.94A3,3,0,0,1,19,12v.45a1,1,0,0,1-1.7.7h0a1,1,0,0,1-.29-.71V12a1,1,0,0,0-1-1h-.5a1,1,0,0,1-.48-.12,1,1,0,0,1-.46-.46,1,1,0,0,1-.12-.48A1.06,1.06,0,0,1,15,9V8.19A3.14,3.14,0,0,0,11.84,5a3,3,0,0,0-1.25.36A1.18,1.18,0,0,1,10,5.5a1,1,0,0,1-.69-.28,1,1,0,0,1,.21-1.58A5.14,5.14,0,0,1,11.86,3,5.19,5.19,0,0,1,17,8.25Z"/></svg>