<svg id="Layer_1" data-name="Layer 1" xmlns="http://www.w3.org/2000/svg" viewBox="0 0 24 24"><title>Notifications Off</title><path d="M14.83,19.18a.53.53,0,0,1,.1.42,3.06,3.06,0,0,1-6,0,.53.53,0,0,1,.1-.42A.53.53,0,0,1,9.44,19h5A.53.53,0,0,1,14.83,19.18ZM12,2a1,1,0,0,0-1,1V4.09a5.63,5.63,0,0,0-.9.22,1,1,0,1,0,.64,1.9,4,4,0,0,1,2.12-.12A4.09,4.09,0,0,1,16,10.18V12a1,1,0,0,0,2,0V10.18a6.1,6.1,0,0,0-4.74-6l-.26,0V3A1,1,0,0,0,12,2Zm9.71,18.29a1,1,0,0,1,0,1.42,1,1,0,0,1-1.42,0L16.59,18H5a1,1,0,0,1-.92-.62,1,1,0,0,1,.21-1.09L6,14.59V10a6,6,0,0,1,.41-2.18L2.29,3.71A1,1,0,0,1,3.71,2.29l14,14h0ZM14.59,16,8,9.45A3.31,3.31,0,0,0,8,10v5a1,1,0,0,1-.29.71l-.3.29Z"/></svg>