<svg id="Layer_1" data-name="Layer 1" xmlns="http://www.w3.org/2000/svg" viewBox="0 0 24 24"><title>Phone Missed</title><path d="M12,12a13.54,13.54,0,0,0-9.71,4.08,1,1,0,0,0,0,1.4l1.93,1.95a2,2,0,0,0,2.71,0l1.92-1.95a1,1,0,0,0,.29-.7V14.35a12,12,0,0,1,5.72,0v2.43a1,1,0,0,0,.29.7l1.92,1.95a1.91,1.91,0,0,0,2.72,0l1.92-1.95a1,1,0,0,0,0-1.4A13.54,13.54,0,0,0,12,12ZM7.14,16.37,5.57,18,4.43,16.81a11.51,11.51,0,0,1,2.71-1.75ZM18.43,18l-1.57-1.59V15.06a11.51,11.51,0,0,1,2.71,1.75ZM11,6H9.41L12,8.59l4.29-4.3a1,1,0,1,1,1.42,1.42l-5,5a1,1,0,0,1-1.42,0L8,7.41V9A1,1,0,0,1,6,9V5a1,1,0,0,1,.08-.38,1,1,0,0,1,.54-.54A1,1,0,0,1,7,4h4a1,1,0,0,1,0,2Z"/></svg>