<svg id="Layer_1" data-name="Layer 1" xmlns="http://www.w3.org/2000/svg" viewBox="0 0 24 24"><title>Phone Forwarded</title><path d="M11.57,20.55A14.79,14.79,0,0,0,18,22a1,1,0,0,0,1-1V17.78a2,2,0,0,0-1.51-1.94L14.24,15a1,1,0,0,0-1,.26l-2.51,2.52a12.94,12.94,0,0,1-5.21-7l0,0,4-3A1,1,0,0,0,10,7V4A2,2,0,0,0,8,2H4.58a1,1,0,0,0-1,.71A15.09,15.09,0,0,0,3,7a15.61,15.61,0,0,0,.15,2.14A15,15,0,0,0,11.57,20.55Zm2.74-3.44,2.69.67V20a12.5,12.5,0,0,1-4.41-1.14ZM5,7a13,13,0,0,1,.35-3H8V6.5L5.11,8.67A13.51,13.51,0,0,1,5,7ZM20.71,8.29a1,1,0,0,1,0,1.42l-2,2A1,1,0,0,1,18,12a.84.84,0,0,1-.38-.08A1,1,0,0,1,17,11V10H14a1,1,0,0,1,0-2h3V7a1,1,0,0,1,.62-.92,1,1,0,0,1,1.09.21Z"/></svg>