<svg id="Layer_1" data-name="Layer 1" xmlns="http://www.w3.org/2000/svg" viewBox="0 0 24 24"><title>Phone Bluetooth Speaker</title><path d="M4.62,2.71A15.09,15.09,0,0,0,4,7a15.61,15.61,0,0,0,.15,2.14,15,15,0,0,0,8.42,11.41A14.79,14.79,0,0,0,19,22a1,1,0,0,0,1-1V17.78a2,2,0,0,0-1.51-1.94L15.24,15a1,1,0,0,0-1,.26l-2.51,2.52a12.94,12.94,0,0,1-5.21-7l0,0,4-3A1,1,0,0,0,11,7V4A2,2,0,0,0,9,2H5.58A1,1,0,0,0,4.62,2.71Zm10.69,14.4,2.69.67V20a12.5,12.5,0,0,1-4.41-1.14ZM6.35,4H9V6.5L6.11,8.67A13.51,13.51,0,0,1,6,7,13,13,0,0,1,6.35,4ZM20,5.5a.51.51,0,0,0-.22-.42l-3-2A.5.5,0,0,0,16,3.5V6.57L13.78,5.08a.5.5,0,1,0-.56.84L15.6,7.5,13.22,9.08a.51.51,0,0,0-.14.7.52.52,0,0,0,.42.22.57.57,0,0,0,.28-.08L16,8.43V11.5a.51.51,0,0,0,.26.44.53.53,0,0,0,.24.06.57.57,0,0,0,.28-.08l3-2a.51.51,0,0,0,0-.84L17.4,7.5l2.38-1.58A.51.51,0,0,0,20,5.5Zm-1.4,4L17,10.57V8.43ZM17,6.57V4.43L18.6,5.5Z"/></svg>