<svg id="Layer_1" data-name="Layer 1" xmlns="http://www.w3.org/2000/svg" viewBox="0 0 24 24"><title>Phone In Talk</title><path d="M20.67,6.29A9,9,0,0,1,22,11a1,1,0,1,1-2,0h0a7,7,0,0,0-1-3.63A6.9,6.9,0,0,0,16.66,5,7.09,7.09,0,0,0,13,4a1,1,0,0,1,0-2,9,9,0,0,1,7.67,4.29ZM17,12a1,1,0,0,0,1-1,5,5,0,0,0-5-5,1,1,0,0,0,0,2,3,3,0,0,1,3,3h0A1,1,0,0,0,17,12ZM2.15,9.14A15.61,15.61,0,0,1,2,7a15.09,15.09,0,0,1,.62-4.29,1,1,0,0,1,1-.71H7A2,2,0,0,1,9,4V7a1,1,0,0,1-.4.8l-4,3,0,0a12.9,12.9,0,0,0,5.21,7l2.51-2.52a1,1,0,0,1,1-.26l3.25.81A2,2,0,0,1,18,17.78V21a1,1,0,0,1-1,1,14.79,14.79,0,0,1-6.43-1.45A15,15,0,0,1,2.15,9.14Zm9.44,9.68A12.5,12.5,0,0,0,16,20V17.78l-2.69-.67ZM4,7a13.51,13.51,0,0,0,.11,1.67L7,6.5V4H4.35A13,13,0,0,0,4,7Z"/></svg>