<svg id="Layer_1" data-name="Layer 1" xmlns="http://www.w3.org/2000/svg" viewBox="0 0 24 24"><title>Phone Locked</title><path d="M18.49,15.84,15.24,15a1,1,0,0,0-1,.26l-2.51,2.52a12.9,12.9,0,0,1-5.21-7l0,0,4-3A1,1,0,0,0,11,7V4A2,2,0,0,0,9,2H5.58a1,1,0,0,0-1,.71A15.09,15.09,0,0,0,4,7a15.61,15.61,0,0,0,.15,2.14,15,15,0,0,0,8.42,11.41A14.79,14.79,0,0,0,19,22a1,1,0,0,0,1-1V17.78A2,2,0,0,0,18.49,15.84ZM6,7a13,13,0,0,1,.35-3H9V6.5L6.11,8.67A13.51,13.51,0,0,1,6,7ZM18,20a12.5,12.5,0,0,1-4.41-1.14l1.72-1.71,2.69.67ZM19.09,7H19V6a2,2,0,0,0-4,0V7h-.09a.91.91,0,0,0-.91.91v3.18a.91.91,0,0,0,.91.91h4.18a.91.91,0,0,0,.91-.91V7.91A.91.91,0,0,0,19.09,7ZM16,6a1,1,0,0,1,2,0V7H16Z"/></svg>