<svg id="Layer_1" data-name="Layer 1" xmlns="http://www.w3.org/2000/svg" viewBox="0 0 24 24"><title>Sync Disabled</title><path d="M17.91,13.05A6,6,0,0,0,18,12a4.67,4.67,0,0,0-.09-1,1,1,0,0,1,2-.42A6.67,6.67,0,0,1,20,12a8.09,8.09,0,0,1-.15,1.56.94.94,0,0,1-1.59.47l0,0A1.05,1.05,0,0,1,17.91,13.05ZM12.29,8a.54.54,0,0,0,.21,0,.49.49,0,0,0,.32-.12l3-2.5a.49.49,0,0,0,0-.76l-3-2.5a.47.47,0,0,0-.53-.07A.49.49,0,0,0,12,2.5V4a7.91,7.91,0,0,0-1.55.15A.94.94,0,0,0,10,5.75a1.17,1.17,0,0,0,1,.34A5.69,5.69,0,0,1,12,6V7.5A.49.49,0,0,0,12.29,8ZM3.71,2.29A1,1,0,0,0,2.29,3.71L5.69,7.1A8,8,0,0,0,4,12a6.67,6.67,0,0,0,.13,1.4,1,1,0,0,0,1,.79l.21,0A1,1,0,0,0,6.09,13,4.67,4.67,0,0,1,6,12,6,6,0,0,1,7.12,8.53l8.35,8.35A6,6,0,0,1,12,18V16.5a.5.5,0,0,0-.82-.38l-3,2.5a.49.49,0,0,0,0,.76l3,2.5a.49.49,0,0,0,.32.12.54.54,0,0,0,.21-.05A.49.49,0,0,0,12,21.5V20a8,8,0,0,0,4.9-1.69l3.39,3.4a1,1,0,0,0,1.42,0,1,1,0,0,0,0-1.42Z"/></svg>