<svg id="Layer_1" data-name="Layer 1" xmlns="http://www.w3.org/2000/svg" viewBox="0 0 24 24"><title>Sync Problem</title><path d="M19.87,10.6A6.67,6.67,0,0,1,20,12a8,8,0,0,1-8,8v1.5a.49.49,0,0,1-.29.45.54.54,0,0,1-.21.05.49.49,0,0,1-.32-.12l-3-2.5a.49.49,0,0,1,0-.76l3-2.5a.5.5,0,0,1,.82.38V18a6,6,0,0,0,6-6,4.67,4.67,0,0,0-.09-1,1,1,0,0,1,2-.42ZM12,6V7.5a.49.49,0,0,0,.29.45.54.54,0,0,0,.21,0,.49.49,0,0,0,.32-.12l3-2.5a.49.49,0,0,0,0-.76l-3-2.5a.47.47,0,0,0-.53-.07A.49.49,0,0,0,12,2.5V4a8,8,0,0,0-8,8,6.67,6.67,0,0,0,.13,1.4,1,1,0,0,0,1,.79l.21,0A1,1,0,0,0,6.09,13,4.67,4.67,0,0,1,6,12,6,6,0,0,1,12,6Zm1,4a1,1,0,0,0-2,0v1a1,1,0,0,0,2,0Zm-1,3a1,1,0,1,0,1,1A1,1,0,0,0,12,13Z"/></svg>