<svg id="Layer_1" data-name="Layer 1" xmlns="http://www.w3.org/2000/svg" viewBox="0 0 24 24"><title>Voice Message</title><path d="M19,2H5A3,3,0,0,0,2,5V15a3,3,0,0,0,3,3H6v3a1,1,0,0,0,.57.9A.94.94,0,0,0,7,22a1,1,0,0,0,.62-.22L12.35,18H19a3,3,0,0,0,3-3V5A3,3,0,0,0,19,2Zm1,13a1,1,0,0,1-1,1H12a1,1,0,0,0-.62.22L8,18.92V17a1,1,0,0,0-1-1H5a1,1,0,0,1-1-1V5A1,1,0,0,1,5,4H19a1,1,0,0,1,1,1ZM16,7a3,3,0,0,0-2.82,4H10.82A3,3,0,1,0,8,13h8a3,3,0,0,0,0-6ZM7,10a1,1,0,1,1,1,1A1,1,0,0,1,7,10Zm9,1a1,1,0,1,1,1-1A1,1,0,0,1,16,11Z"/></svg>