<svg id="Layer_1" data-name="Layer 1" xmlns="http://www.w3.org/2000/svg" viewBox="0 0 24 24"><title>Wifi</title><path d="M13.64,17.82l-1.31,1.43a.51.51,0,0,1-.75,0l-1.25-1.42a.51.51,0,0,1,.13-.78,3.17,3.17,0,0,1,3.06,0A.52.52,0,0,1,13.64,17.82Zm2.8-6.2A9.25,9.25,0,0,0,12,10.48,9.12,9.12,0,0,0,7.43,11.7a1.45,1.45,0,0,0-.38,2.21,1.62,1.62,0,0,0,2,.4,6.18,6.18,0,0,1,3-.76,6.11,6.11,0,0,1,3,.77A1.48,1.48,0,0,0,16.84,14h0A1.59,1.59,0,0,0,16.44,11.62ZM20.67,7A15.34,15.34,0,0,0,3.33,7,1.53,1.53,0,0,0,5.09,9.53a12.3,12.3,0,0,1,13.82,0A1.53,1.53,0,0,0,20.67,7Z"/></svg>