<svg id="Layer_1" data-name="Layer 1" xmlns="http://www.w3.org/2000/svg" viewBox="0 0 24 24"><title>Apps</title><path d="M4,7V5A1,1,0,0,1,5,4H7A1,1,0,0,1,8,5V7A1,1,0,0,1,7,8H5A1,1,0,0,1,4,7Zm7,1h2a1,1,0,0,0,1-1V5a1,1,0,0,0-1-1H11a1,1,0,0,0-1,1V7A1,1,0,0,0,11,8Zm6,0h2a1,1,0,0,0,1-1V5a1,1,0,0,0-1-1H17a1,1,0,0,0-1,1V7A1,1,0,0,0,17,8ZM5,14H7a1,1,0,0,0,1-1V11a1,1,0,0,0-1-1H5a1,1,0,0,0-1,1v2A1,1,0,0,0,5,14Zm6,0h2a1,1,0,0,0,1-1V11a1,1,0,0,0-1-1H11a1,1,0,0,0-1,1v2A1,1,0,0,0,11,14Zm6,0h2a1,1,0,0,0,1-1V11a1,1,0,0,0-1-1H17a1,1,0,0,0-1,1v2A1,1,0,0,0,17,14ZM5,20H7a1,1,0,0,0,1-1V17a1,1,0,0,0-1-1H5a1,1,0,0,0-1,1v2A1,1,0,0,0,5,20Zm6,0h2a1,1,0,0,0,1-1V17a1,1,0,0,0-1-1H11a1,1,0,0,0-1,1v2A1,1,0,0,0,11,20Zm6,0h2a1,1,0,0,0,1-1V17a1,1,0,0,0-1-1H17a1,1,0,0,0-1,1v2A1,1,0,0,0,17,20Z"/></svg>