<svg id="Layer_1" data-name="Layer 1" xmlns="http://www.w3.org/2000/svg" viewBox="0 0 24 24"><title>Attachment</title><path d="M3.29,12.69a1,1,0,0,1,0-1.42l7.57-7.54a6,6,0,0,1,8.4,0,5.91,5.91,0,0,1,0,8.38L10.65,20.7a4.48,4.48,0,0,1-6.31,0,4.45,4.45,0,0,1,0-6.29l6.58-6.53a3,3,0,0,1,4.21,0,3,3,0,0,1,0,4.2L9.6,17.57a1,1,0,0,1-1.42,0,1,1,0,0,1,0-1.41l5.53-5.48A1,1,0,0,0,14,10a1,1,0,0,0-.28-.68,1,1,0,0,0-1.39,0L5.75,15.83a2.45,2.45,0,0,0,0,3.45,2.46,2.46,0,0,0,3.48,0l8.62-8.58a3.92,3.92,0,0,0,0-5.55,4,4,0,0,0-5.58,0L4.71,12.69A1,1,0,0,1,3.29,12.69Z"/></svg>