<svg id="Layer_1" data-name="Layer 1" xmlns="http://www.w3.org/2000/svg" viewBox="0 0 24 24"><title>Cloud Off</title><path d="M22,14.5a4.28,4.28,0,0,1-.32,1.64,1,1,0,0,1-.92.62.84.84,0,0,1-.38-.08,1,1,0,0,1-.55-1.3A2.3,2.3,0,0,0,20,14.5,2.5,2.5,0,0,0,17.5,12a1.56,1.56,0,0,0-.31,0A1,1,0,0,1,16,11a4,4,0,0,0-4-4,3.35,3.35,0,0,0-.71.07,1,1,0,0,1-.4-2A5.88,5.88,0,0,1,12,5a6,6,0,0,1,5.92,5A4.5,4.5,0,0,1,22,14.5Zm-.29,5.79a1,1,0,0,1,0,1.42,1,1,0,0,1-1.42,0L17.58,19H6.5a4.5,4.5,0,0,1-.42-9,5.83,5.83,0,0,1,.65-1.88L2.29,3.71A1,1,0,0,1,3.71,2.29ZM15.59,17,8.24,9.65A3.84,3.84,0,0,0,8,11a1,1,0,0,1-.36.79,1,1,0,0,1-.83.23,1.56,1.56,0,0,0-.31,0,2.5,2.5,0,0,0,0,5Z"/></svg>