<svg id="Layer_1" data-name="Layer 1" xmlns="http://www.w3.org/2000/svg" viewBox="0 0 24 24"><title>Cloud Upload</title><path d="M22,14.5A4.51,4.51,0,0,1,17.5,19H17a1,1,0,0,1,0-2h.5a2.5,2.5,0,0,0,0-5,1.56,1.56,0,0,0-.31,0A1,1,0,0,1,16,11a4,4,0,1,0-8,0,1,1,0,0,1-.36.79,1,1,0,0,1-.83.23,1.56,1.56,0,0,0-.31,0,2.5,2.5,0,0,0,0,5H7a1,1,0,0,1,0,2H6.5a4.5,4.5,0,0,1-.42-9,6,6,0,0,1,11.84,0A4.5,4.5,0,0,1,22,14.5ZM12,19a1,1,0,0,0,1-1V15h1a1,1,0,0,0,.92-.62,1,1,0,0,0-.21-1.09l-2-2a1,1,0,0,0-1.42,0l-2,2a1,1,0,0,0-.21,1.09A1,1,0,0,0,10,15h1v3A1,1,0,0,0,12,19Z"/></svg>