<svg id="Layer_1" data-name="Layer 1" xmlns="http://www.w3.org/2000/svg" viewBox="0 0 24 24"><title>Folder Download</title><path d="M19,6H12.83a1.05,1.05,0,0,1-.71-.29l-.83-.83A3,3,0,0,0,9.17,4H5A3,3,0,0,0,2,7V17a3,3,0,0,0,3,3H19a3,3,0,0,0,3-3V9A3,3,0,0,0,19,6Zm1,11a1,1,0,0,1-1,1H5a1,1,0,0,1-1-1V7A1,1,0,0,1,5,6H9.17a1.05,1.05,0,0,1,.71.29l.83.83A3,3,0,0,0,12.83,8H19a1,1,0,0,1,1,1Zm-4-1a1,1,0,0,1-1,1H9a1,1,0,0,1,0-2h6A1,1,0,0,1,16,16Zm-5.78-3.08a.52.52,0,0,1-.2-.57A.5.5,0,0,1,10.5,12H11V10a1,1,0,0,1,2,0v2h.5a.5.5,0,0,1,.48.35.52.52,0,0,1-.2.57l-1.5,1a.53.53,0,0,1-.56,0Z"/></svg>