<svg id="Layer_1" data-name="Layer 1" xmlns="http://www.w3.org/2000/svg" viewBox="0 0 24 24"><title>Folder Music</title><path d="M19,6H12.83a1,1,0,0,1-.71-.29l-.83-.83A3,3,0,0,0,9.17,4H5A3,3,0,0,0,2,7V17a3,3,0,0,0,3,3H19a3,3,0,0,0,3-3V9A3,3,0,0,0,19,6Zm1,11a1,1,0,0,1-1,1H5a1,1,0,0,1-1-1V7A1,1,0,0,1,5,6H9.17a1,1,0,0,1,.71.29l.83.83A3,3,0,0,0,12.83,8H19a1,1,0,0,1,1,1Zm-5-6.5v1a.52.52,0,0,1-.24.43.59.59,0,0,1-.26.07.54.54,0,0,1-.22-.05L13,11.31V15a2,2,0,1,1-1-1.72V10.5h0v-1a.52.52,0,0,1,.24-.43.51.51,0,0,1,.48,0l2,1A.51.51,0,0,1,15,10.5Z"/></svg>