<svg id="Layer_1" data-name="Layer 1" xmlns="http://www.w3.org/2000/svg" viewBox="0 0 24 24"><title>Folder Favorite</title><path d="M19,6H12.83a1.05,1.05,0,0,1-.71-.29l-.83-.83A3,3,0,0,0,9.17,4H5A3,3,0,0,0,2,7V17a3,3,0,0,0,3,3H19a3,3,0,0,0,3-3V9A3,3,0,0,0,19,6Zm1,11a1,1,0,0,1-1,1H5a1,1,0,0,1-1-1V7A1,1,0,0,1,5,6H9.17a1.05,1.05,0,0,1,.71.29l.83.83A3,3,0,0,0,12.83,8H19a1,1,0,0,1,1,1Zm-4.66-6.42a2,2,0,0,1,0,2.94L13.05,15.6a1.61,1.61,0,0,1-2.11,0h0l-2.22-2A2.14,2.14,0,0,1,8,12a1.92,1.92,0,0,1,.72-1.46,2.41,2.41,0,0,1,3,.07l.3.28.23-.28A2.36,2.36,0,0,1,15.34,10.58Z"/></svg>