<svg id="Layer_1" data-name="Layer 1" xmlns="http://www.w3.org/2000/svg" viewBox="0 0 24 24"><title>Google Maps</title><path d="M15,6a2,2,0,0,0,.58,1.43A1.85,1.85,0,0,0,17,8a2,2,0,0,0,2-2,1.93,1.93,0,0,0-.61-1.41A1.92,1.92,0,0,0,17,4a1.88,1.88,0,0,0-1.4.59A2,2,0,0,0,15,6m6.5,0a7.75,7.75,0,0,1-1.14,3.56,19.77,19.77,0,0,1-2.25,3.38L17,14.25c-.36-.37-.78-.86-1.28-1.45a21.81,21.81,0,0,1-2-3.1A7.9,7.9,0,0,1,12.5,6,4.46,4.46,0,0,1,17,1.5a4.34,4.34,0,0,1,3.17,1.31A4.35,4.35,0,0,1,21.5,6m-1,7.08V20.5a2.09,2.09,0,0,1-2,2H4.5a1.91,1.91,0,0,1-1.39-.61A1.91,1.91,0,0,1,2.5,20.5V6.5a1.91,1.91,0,0,1,.61-1.39A1.91,1.91,0,0,1,4.5,4.5h6.2A8.88,8.88,0,0,0,10.5,6a9.45,9.45,0,0,0,1.28,4.2,24.62,24.62,0,0,0,2.13,3.51c.59.74,1.12,1.37,1.62,1.9L17,17.2l1.5-1.59c1.27-1.61,1.94-2.47,2-2.53M8.5,16v1.39h2.25A2,2,0,0,1,8.5,19a2.26,2.26,0,0,1-1.73-.75,2.59,2.59,0,0,1,0-3.56A2.26,2.26,0,0,1,8.5,14a2.12,2.12,0,0,1,1.59.61l1.08-1A3.76,3.76,0,0,0,8.55,12.5H8.5a3.86,3.86,0,0,0-2.81,1.19,3.91,3.91,0,0,0,0,5.62A3.86,3.86,0,0,0,8.5,20.5a3.72,3.72,0,0,0,2.79-1.09,3.83,3.83,0,0,0,1.05-2.82,2.69,2.69,0,0,0,0-.59Z"/></svg>