<svg id="Layer_1" data-name="Layer 1" xmlns="http://www.w3.org/2000/svg" viewBox="0 0 24 24"><title>Pinterest Box</title><path d="M5,3H19a2,2,0,0,1,2,2V19a2,2,0,0,1-2,2H9.29a10.76,10.76,0,0,0,1.1-2.36l.66-2.3a2.53,2.53,0,0,0,2.17,1.11c3,0,5-2.67,5-6A5.64,5.64,0,0,0,12.3,5.89C8.14,5.89,6,8.67,6,11.72c0,1.42.72,3.17,1.94,3.73.17.11.28.05.28-.11l.28-1.06c0-.14,0-.22-.06-.28a3.68,3.68,0,0,1-.72-2.22A4.15,4.15,0,0,1,12,7.61a3.79,3.79,0,0,1,4,3.89c0,2.61-1.33,4.45-3,4.45a1.49,1.49,0,0,1-1.48-1.78A18.64,18.64,0,0,0,12.39,11c0-.78-.39-1.39-1.23-1.39A2.11,2.11,0,0,0,9.39,12a3.59,3.59,0,0,0,.27,1.44L8.55,18.17a11.16,11.16,0,0,0,0,2.83H5a2,2,0,0,1-2-2V5A2,2,0,0,1,5,3Z"/></svg>