<svg id="Layer_1" data-name="Layer 1" xmlns="http://www.w3.org/2000/svg" viewBox="0 0 24 24"><title>Pinterest</title><path d="M9,21.54A10.12,10.12,0,0,0,12,22a10,10,0,1,0-3.56-.66,10.86,10.86,0,0,1,0-3l1.15-4.94a3.63,3.63,0,0,1-.29-1.5,2.18,2.18,0,0,1,1.84-2.41c.86,0,1.26.63,1.26,1.44a19,19,0,0,1-.86,3.27,1.53,1.53,0,0,0,1.52,1.84c1.78,0,3.16-1.9,3.16-4.58a3.93,3.93,0,0,0-4.19-4,4.29,4.29,0,0,0-4.48,4.31,3.79,3.79,0,0,0,.74,2.3c.09.06.09.14.06.29l-.29,1.09c0,.17-.11.23-.28.11-1.28-.56-2-2.38-2-3.85,0-3.16,2.24-6,6.56-6a5.84,5.84,0,0,1,6.12,5.75c0,3.44-2.13,6.2-5.18,6.2A2.71,2.71,0,0,1,11,16.5l-.67,2.37A11.81,11.81,0,0,1,9,21.57Z"/></svg>