<svg id="Layer_1" data-name="Layer 1" xmlns="http://www.w3.org/2000/svg" viewBox="0 0 24 24"><title>Twitter</title><path d="M22.46,5.5A8.57,8.57,0,0,1,20,6.19a4.3,4.3,0,0,0,1.88-2.38,8.64,8.64,0,0,1-2.72,1.05A4.22,4.22,0,0,0,16,3.5a4.28,4.28,0,0,0-4.27,4.29,4.46,4.46,0,0,0,.11,1A12.19,12.19,0,0,1,3,4.29,4.27,4.27,0,0,0,4.33,10a4.24,4.24,0,0,1-1.95-.5v0a4.29,4.29,0,0,0,3.44,4.21,4.21,4.21,0,0,1-1.93.07,4.28,4.28,0,0,0,4,3,8.52,8.52,0,0,1-5.33,1.84,8.72,8.72,0,0,1-1-.06A12.14,12.14,0,0,0,8.12,20.5,12.14,12.14,0,0,0,20.33,8.29c0-.19,0-.37,0-.56A8.57,8.57,0,0,0,22.46,5.5Z"/></svg>