<svg id="Layer_1" data-name="Layer 1" xmlns="http://www.w3.org/2000/svg" viewBox="0 0 24 24"><title>Whatsapp</title><path d="M16.75,14c.25.13.41.2.46.3A2,2,0,0,1,17,15.44a2.44,2.44,0,0,1-1.7,1.12c-.46,0-.47.36-3-.73a10.24,10.24,0,0,1-4.11-3.92A4.85,4.85,0,0,1,7.31,9.3a2.73,2.73,0,0,1,1-2A.75.75,0,0,1,8.94,7h.47c.15,0,.36-.06.55.45l.69,1.87a.46.46,0,0,1,0,.44l-.27.41-.39.42c-.12.12-.26.25-.12.5a7.42,7.42,0,0,0,1.32,1.78,6.61,6.61,0,0,0,2,1.3c.24.14.39.12.54,0l.81-.94c.19-.25.35-.19.58-.11l1.67.88M12,2A10,10,0,1,1,6.65,20.45L2,22l1.55-4.65A10,10,0,0,1,12,2m0,2A8,8,0,0,0,5.46,16.61l-1,2.89,2.89-1A8,8,0,1,0,12,4Z"/></svg>