<svg id="Layer_1" data-name="Layer 1" xmlns="http://www.w3.org/2000/svg" viewBox="0 0 24 24"><title>Archive</title><path d="M6,21H18a3,3,0,0,0,3-3V8.47a3,3,0,0,0-.32-1.34L19.45,4.66A3,3,0,0,0,16.76,3H7.24A3,3,0,0,0,4.55,4.66L3.32,7.13A3,3,0,0,0,3,8.47V18A3,3,0,0,0,6,21Zm12-2H6a1,1,0,0,1-1-1V9H19v9A1,1,0,0,1,18,19ZM7.24,5h9.52a1,1,0,0,1,.9.56L18.38,7H5.62l.72-1.44A1,1,0,0,1,7.24,5ZM15,14.33a.5.5,0,0,1-.16.56l-2.5,2a.49.49,0,0,1-.62,0l-2.5-2A.5.5,0,0,1,9.5,14H11V12a1,1,0,0,1,2,0v2h1.5A.5.5,0,0,1,15,14.33Z"/></svg>