<svg id="Layer_1" data-name="Layer 1" xmlns="http://www.w3.org/2000/svg" viewBox="0 0 24 24"><title>Ballot</title><path d="M6,22H18a3,3,0,0,0,3-3V5a3,3,0,0,0-3-3H6A3,3,0,0,0,3,5V19A3,3,0,0,0,6,22ZM5,5A1,1,0,0,1,6,4H18a1,1,0,0,1,1,1V19a1,1,0,0,1-1,1H6a1,1,0,0,1-1-1Zm2,6h4a1,1,0,0,0,1-1V6a1,1,0,0,0-1-1H7A1,1,0,0,0,6,6v4A1,1,0,0,0,7,11ZM8,7h2V9H8ZM7,19h4a1,1,0,0,0,1-1V14a1,1,0,0,0-1-1H7a1,1,0,0,0-1,1v4A1,1,0,0,0,7,19Zm1-4h2v2H8Zm5-7a1,1,0,0,1,1-1h3a1,1,0,0,1,0,2H14A1,1,0,0,1,13,8Zm0,8a1,1,0,0,1,1-1h3a1,1,0,0,1,0,2H14A1,1,0,0,1,13,16Z"/></svg>