<svg id="Layer_1" data-name="Layer 1" xmlns="http://www.w3.org/2000/svg" viewBox="0 0 24 24"><title>Delete Link</title><path d="M20.71,14.71,19.41,16l1.3,1.29a1,1,0,0,1,0,1.42,1,1,0,0,1-1.42,0L18,17.41l-1.29,1.3a1,1,0,0,1-1.42,0,1,1,0,0,1,0-1.42L16.59,16l-1.3-1.29a1,1,0,0,1,1.42-1.42L18,14.59l1.29-1.3a1,1,0,0,1,1.42,1.42ZM9,5H7A5,5,0,0,0,7,15H9a1,1,0,0,0,0-2H7A3,3,0,0,1,7,7H9A1,1,0,0,0,9,5Zm8,0H15a1,1,0,0,0,0,2h2a3,3,0,0,1,3,3,1,1,0,0,0,2,0A5,5,0,0,0,17,5ZM16,9H8a1,1,0,0,0,0,2h8a1,1,0,0,0,0-2Z"/></svg>