<svg id="Layer_1" data-name="Layer 1" xmlns="http://www.w3.org/2000/svg" viewBox="0 0 24 24"><title>Drafts</title><path d="M10,9H9.5a.5.5,0,0,0-.5.5v5a.5.5,0,0,0,.5.5H10a3,3,0,0,0,0-6Zm0,5V10a2,2,0,0,1,0,4Zm6-5H14.5a.5.5,0,0,0-.5.5v5a.5.5,0,0,0,1,0V13h.19l.86,1.72a.5.5,0,0,0,.45.28.54.54,0,0,0,.22-.05.51.51,0,0,0,.23-.67L16.29,13A2,2,0,0,0,16,9Zm0,3H15V10h1a1,1,0,0,1,0,2Zm3-7H9a3,3,0,0,0-2.12.88l-4,4a3,3,0,0,0,0,4.24l4,4A3,3,0,0,0,9,19H19a3,3,0,0,0,3-3V8A3,3,0,0,0,19,5Zm1,11a1,1,0,0,1-1,1H9a1.05,1.05,0,0,1-.71-.29l-4-4A1,1,0,0,1,4,12a1,1,0,0,1,.29-.7l4-4A1.05,1.05,0,0,1,9,7H19a1,1,0,0,1,1,1Z"/></svg>