<svg id="Layer_1" data-name="Layer 1" xmlns="http://www.w3.org/2000/svg" viewBox="0 0 24 24"><title>Link Off</title><path d="M19.31,13.92A3,3,0,0,0,20,11.73,3.1,3.1,0,0,0,16.85,9H15a1,1,0,0,1,0-2h1.8A5.14,5.14,0,0,1,22,11.45a5,5,0,0,1-1.08,3.68,1,1,0,0,1-1.5.09A1,1,0,0,1,19.31,13.92ZM16,11h-.83l1.62,1.62A1,1,0,0,0,17,12,1,1,0,0,0,16,11ZM3.71,2.29A1,1,0,0,0,2.29,3.71L5.76,7.17A5,5,0,0,0,7,17H9a1,1,0,0,0,0-2H7A3,3,0,0,1,7,9h.59l2,2H8a1,1,0,0,0,0,2h3.59l2.54,2.54A.91.91,0,0,0,14,16a1,1,0,0,0,1,1h.59l4.7,4.71a1,1,0,0,0,1.42,0,1,1,0,0,0,0-1.42Z"/></svg>