<svg id="Layer_1" data-name="Layer 1" xmlns="http://www.w3.org/2000/svg" viewBox="0 0 24 24"><title>Move To Inbox</title><path d="M9.19,9.89A.5.5,0,0,1,9.5,9H11V7a1,1,0,0,1,2,0V9h1.5a.5.5,0,0,1,.31.89l-2.5,2a.49.49,0,0,1-.62,0Zm12.67,2a3,3,0,0,1,.14.9V19a3,3,0,0,1-3,3H5a3,3,0,0,1-3-3v-6.2a3,3,0,0,1,.14-.9h0L4.61,4.09A3,3,0,0,1,7.46,2h9.08a3,3,0,0,1,2.85,2.09ZM4.21,12H8a1,1,0,0,1,1,1,3,3,0,0,0,6,0,1,1,0,0,1,1-1h3.79l-2.3-7.31A1,1,0,0,0,16.54,4H7.46a1,1,0,0,0-1,.7ZM20,19V14H16.9a5,5,0,0,1-9.8,0H4v5a1,1,0,0,0,1,1H19A1,1,0,0,0,20,19Z"/></svg>