<svg id="Layer_1" data-name="Layer 1" xmlns="http://www.w3.org/2000/svg" viewBox="0 0 24 24"><title>Satisfied Face</title><path d="M12,2A10,10,0,1,0,22,12,10,10,0,0,0,12,2Zm0,18a8,8,0,1,1,8-8A8,8,0,0,1,12,20ZM9.1,10.8,8,9.33,6.9,10.8a.5.5,0,0,1-.8-.6l1.5-2a.52.52,0,0,1,.8,0l1.5,2a.5.5,0,0,1-.1.7.49.49,0,0,1-.3.1A.51.51,0,0,1,9.1,10.8Zm8.7.1a.49.49,0,0,1-.3.1.51.51,0,0,1-.4-.2L16,9.33,14.9,10.8a.5.5,0,0,1-.8-.6l1.5-2a.52.52,0,0,1,.8,0l1.5,2A.5.5,0,0,1,17.8,10.9Zm-2.36,4.36a.51.51,0,0,1,0,.52A4.07,4.07,0,0,1,12,17.5a4.07,4.07,0,0,1-3.42-1.72A.5.5,0,0,1,9,15h6A.51.51,0,0,1,15.44,15.26Z"/></svg>