<svg id="Layer_1" data-name="Layer 1" xmlns="http://www.w3.org/2000/svg" viewBox="0 0 24 24"><title>Select All</title><path d="M18,7a1,1,0,0,0-1-1H7A1,1,0,0,0,6,7V17a1,1,0,0,0,1,1H17a1,1,0,0,0,1-1Zm-2,9H8V8h8Zm6,3v2a1,1,0,0,1-1,1H19a1,1,0,0,1,0-2h1V19a1,1,0,0,1,2,0Zm-6.67,2a1,1,0,0,1-1,1H9.67a1,1,0,0,1,0-2h4.66A1,1,0,0,1,15.33,21ZM6,21a1,1,0,0,1-1,1H3a1,1,0,0,1-1-1V19a1,1,0,0,1,2,0v1H5A1,1,0,0,1,6,21ZM2,14.33V9.67a1,1,0,0,1,2,0v4.66a1,1,0,0,1-2,0ZM2,5V3A1,1,0,0,1,3,2H5A1,1,0,0,1,5,4H4V5A1,1,0,0,1,2,5ZM9.67,4a1,1,0,0,1,0-2h4.66a1,1,0,0,1,0,2ZM22,3V5a1,1,0,0,1-2,0V4H19a1,1,0,0,1,0-2h2A1,1,0,0,1,22,3Zm0,6.67v4.66a1,1,0,0,1-2,0V9.67a1,1,0,0,1,2,0Z"/></svg>