<svg id="Layer_1" data-name="Layer 1" xmlns="http://www.w3.org/2000/svg" viewBox="0 0 24 24"><title>Terms and Conditions</title><path d="M18,6H10A3,3,0,0,0,7,9V19a3,3,0,0,0,3,3h8a3,3,0,0,0,3-3V9A3,3,0,0,0,18,6Zm1,13a1,1,0,0,1-1,1H10a1,1,0,0,1-1-1V9a1,1,0,0,1,1-1h8a1,1,0,0,1,1,1ZM17,4H6A1,1,0,0,0,5,5V18a1,1,0,0,1-2,0V5A3,3,0,0,1,6,2H17a1,1,0,0,1,0,2Zm0,7a1,1,0,0,1-1,1H12a1,1,0,0,1,0-2h4A1,1,0,0,1,17,11Zm0,3a1,1,0,0,1-1,1H12a1,1,0,0,1,0-2h4A1,1,0,0,1,17,14Zm0,3a1,1,0,0,1-1,1H12a1,1,0,0,1,0-2h4A1,1,0,0,1,17,17Z"/></svg>