<svg id="Layer_1" data-name="Layer 1" xmlns="http://www.w3.org/2000/svg" viewBox="0 0 24 24"><title>Behance</title><path d="M19.58,12.5A2,2,0,0,0,19,11.08a2,2,0,0,0-1.38-.47,1.84,1.84,0,0,0-1.39.51,2.33,2.33,0,0,0-.62,1.38m6.35-.24A10.72,10.72,0,0,1,22,14H15.5a2.15,2.15,0,0,0,.94,1.87,2.3,2.3,0,0,0,1.29.35A1.84,1.84,0,0,0,19,15.84a1.59,1.59,0,0,0,.5-.62h2.38A2.88,2.88,0,0,1,21,16.85a4.25,4.25,0,0,1-3.34,1.29A5,5,0,0,1,14.5,17a4.38,4.38,0,0,1-1.34-3.57,4.77,4.77,0,0,1,1.23-3.55,4.28,4.28,0,0,1,3.19-1.24,5,5,0,0,1,2.09.43,3.53,3.53,0,0,1,1.54,1.31,4.37,4.37,0,0,1,.71,1.84m-12.34,2A1.36,1.36,0,0,0,8.79,13a4,4,0,0,0-1.25-.23H4.87v3.35H7.5a2.73,2.73,0,0,0,1.26-.23,1.55,1.55,0,0,0,.82-1.55M4.87,10.68H7.5a2.43,2.43,0,0,0,1.32-.31,1.15,1.15,0,0,0,.5-1.08,1.15,1.15,0,0,0-.66-1.16,5,5,0,0,0-1.47-.19H4.87m6.85,4.7a3.31,3.31,0,0,1,.48,1.82,3.76,3.76,0,0,1-.55,2,3.33,3.33,0,0,1-.88,1,3.62,3.62,0,0,1-1.41.62,8.06,8.06,0,0,1-1.75.17H2V5.78H8a3.72,3.72,0,0,1,3.23,1.33A3.12,3.12,0,0,1,11.8,9a2.78,2.78,0,0,1-.57,1.83,3.06,3.06,0,0,1-1,.71,2.89,2.89,0,0,1,1.44,1.1m8.34-5.09h-5V6.3h5Z"/></svg>