<svg id="Layer_1" data-name="Layer 1" xmlns="http://www.w3.org/2000/svg" viewBox="0 0 24 24"><title>Google Translate</title><path d="M20,5H10.88L10,2H4A2,2,0,0,0,2,4V17a2,2,0,0,0,2,2h7l1,3h8a2,2,0,0,0,2-2V7a2,2,0,0,0-2-2M7.17,14.59a4.09,4.09,0,0,1,0-8.18A3.88,3.88,0,0,1,9.91,7.5l.09,0L8.75,8.72l-.06-.05a2.17,2.17,0,0,0-1.52-.59,2.42,2.42,0,0,0,0,4.84,2,2,0,0,0,2.12-1.46H7.08V9.91H11V10a2.82,2.82,0,0,1,.05.59,3.78,3.78,0,0,1-3.92,4m6-1.71a9.25,9.25,0,0,0,1.19,1.7l-.54.53-.65-2.23m.77-.76H13l-.33-1h4a7.68,7.68,0,0,1-1.56,2.74A9.18,9.18,0,0,1,14,12.12M21,20a1,1,0,0,1-1,1H13l2-2-.81-2.77.92-.92L17.79,18l.71-.73-2.69-2.68a8.73,8.73,0,0,0,1.92-3.51H19V10H15.36V9h-1v1h-2L11.18,6H20a1,1,0,0,1,1,1Z"/></svg>