<svg id="Layer_1" data-name="Layer 1" xmlns="http://www.w3.org/2000/svg" viewBox="0 0 24 24"><title>Vimeo</title><path d="M22,7.34q-.13,2.92-4.08,8c-2.72,3.56-5,5.31-6.92,5.31-1.15,0-2.14-1.08-2.95-3.25-.55-2-1.05-3.94-1.61-5.92C5.84,9.34,5.2,8.26,4.5,8.26a6.57,6.57,0,0,0-1.56,1L2,8c1-.87,2-1.74,2.92-2.61a6.66,6.66,0,0,1,3-1.8c1.56-.16,2.52.92,2.88,3.2.39,2.47.66,4,.81,4.6.43,2,.93,3,1.48,3s1-.64,1.89-2a7.75,7.75,0,0,0,1.35-3q.18-1.71-1.35-1.71A3.72,3.72,0,0,0,13.46,8q1.47-4.84,5.63-4.71Q22.18,3.42,22,7.34Z"/></svg>