<svg id="Layer_1" data-name="Layer 1" xmlns="http://www.w3.org/2000/svg" viewBox="0 0 24 24"><title>Alert</title><path d="M11,4.09V3a1,1,0,0,1,2,0V4.09A6,6,0,0,1,18,10v4.59l1.71,1.7a1,1,0,0,1,.21,1.09A1,1,0,0,1,19,18H5a1,1,0,0,1-.92-.62,1,1,0,0,1,.21-1.09L6,14.59V10A6,6,0,0,1,11,4.09ZM9.44,19a.53.53,0,0,0-.39.18.53.53,0,0,0-.1.42,3.06,3.06,0,0,0,6,0,.53.53,0,0,0-.1-.42.53.53,0,0,0-.39-.18ZM17.65,2.94a1,1,0,0,0,0,1.41A7.91,7.91,0,0,1,20,10a1,1,0,0,0,2,0,9.9,9.9,0,0,0-2.93-7.07A1,1,0,0,0,17.65,2.94ZM3,11a1,1,0,0,0,1-1A7.91,7.91,0,0,1,6.34,4.35a1,1,0,0,0,0-1.41,1,1,0,0,0-1.42,0A9.9,9.9,0,0,0,2,10,1,1,0,0,0,3,11Z"/></svg>