<svg id="Layer_1" data-name="Layer 1" xmlns="http://www.w3.org/2000/svg" viewBox="0 0 24 24"><title>Authentication</title><path d="M19,2H5A3,3,0,0,0,2,5V15a3,3,0,0,0,3,3H6v3a1,1,0,0,0,.57.9A.94.94,0,0,0,7,22a1,1,0,0,0,.62-.22L12.35,18H19a3,3,0,0,0,3-3V5A3,3,0,0,0,19,2ZM8.71,10.29a1,1,0,0,1-1.42,1.42L7,11.41l-.29.3a1,1,0,0,1-1.42-1.42l.3-.29-.3-.29A1,1,0,0,1,6.71,8.29l.29.3.29-.3A1,1,0,0,1,8.71,9.71l-.3.29Zm5,0a1,1,0,0,1-1.42,1.42l-.29-.3-.29.3a1,1,0,0,1-1.42-1.42l.3-.29-.3-.29a1,1,0,0,1,1.42-1.42l.29.3.29-.3a1,1,0,0,1,1.42,1.42l-.3.29Zm5,0a1,1,0,0,1-1.42,1.42l-.29-.3-.29.3a1,1,0,0,1-1.42-1.42l.3-.29-.3-.29a1,1,0,0,1,1.42-1.42l.29.3.29-.3a1,1,0,0,1,1.42,1.42l-.3.29Z"/></svg>