<svg id="Layer_1" data-name="Layer 1" xmlns="http://www.w3.org/2000/svg" viewBox="0 0 24 24"><title>Event Busy</title><path d="M19,4H18V3a1,1,0,0,0-2,0V4H8V3A1,1,0,0,0,6,3V4H5A3,3,0,0,0,2,7V19a3,3,0,0,0,3,3H19a3,3,0,0,0,3-3V7A3,3,0,0,0,19,4ZM14.71,16.29a1,1,0,0,1,0,1.42,1,1,0,0,1-1.42,0L12,16.41l-1.29,1.3a1,1,0,0,1-1.42,0,1,1,0,0,1,0-1.42L10.59,15l-1.3-1.29a1,1,0,0,1,1.42-1.42L12,13.59l1.29-1.3a1,1,0,0,1,1.42,1.42L13.41,15ZM20,8H4V7A1,1,0,0,1,5,6H6A1,1,0,0,0,8,6h8a1,1,0,0,0,2,0h1a1,1,0,0,1,1,1Z"/></svg>