<svg id="Layer_1" data-name="Layer 1" xmlns="http://www.w3.org/2000/svg" viewBox="0 0 24 24"><title>Network Locked</title><path d="M20.1,17H20V16a2,2,0,0,0-4,0v1h-.09a.91.91,0,0,0-.91.91v3.18a.91.91,0,0,0,.91.91H20.1a.91.91,0,0,0,.91-.91V17.91A.91.91,0,0,0,20.1,17ZM17,16a1,1,0,0,1,2,0v1H17ZM9.79,7.34A12.22,12.22,0,0,1,11.61,4a.51.51,0,0,1,.79,0,12.22,12.22,0,0,1,1.82,3.38.51.51,0,0,1-.48.66H10.28A.51.51,0,0,1,9.79,7.34ZM13,16.5V19a.41.41,0,0,1,0,.19s-.4.62-.56.83a.52.52,0,0,1-.8,0A12.47,12.47,0,0,1,9.8,16.66a.51.51,0,0,1,.48-.66h2.23A.5.5,0,0,1,13,16.5ZM6.58,14H2.63a.51.51,0,0,1-.5-.42,10.46,10.46,0,0,1,0-3.16.51.51,0,0,1,.5-.42h4a.5.5,0,0,1,.5.56C7,11,7,11.51,7,12s0,1,.07,1.44A.5.5,0,0,1,6.58,14ZM9.7,20.81a.5.5,0,0,1-.54.77,10,10,0,0,1-5.95-4.82A.52.52,0,0,1,3.65,16H7.14a.49.49,0,0,1,.48.37A14.47,14.47,0,0,0,9.7,20.81ZM3.21,7.24a10,10,0,0,1,6-4.82.5.5,0,0,1,.54.77A14.47,14.47,0,0,0,7.62,7.63.49.49,0,0,1,7.14,8H3.65A.52.52,0,0,1,3.21,7.24Zm11.1-4.05a.5.5,0,0,1,.54-.77,10,10,0,0,1,6,4.82.51.51,0,0,1-.44.76H16.87a.5.5,0,0,1-.48-.37A14.47,14.47,0,0,0,14.31,3.19ZM22,11.48a.5.5,0,0,1-.5.52h-4a.5.5,0,0,1-.5-.49c0-.32,0-.64-.07-.95a.49.49,0,0,1,.5-.56h3.95a.49.49,0,0,1,.49.4A7.59,7.59,0,0,1,22,11.48Zm-7.08-1c0,.34.07.69.08,1a.49.49,0,0,1-.5.52h-1a.5.5,0,0,0-.5.5v1a.5.5,0,0,1-.5.5H9.61a.5.5,0,0,1-.5-.44A13.33,13.33,0,0,1,9,12a13.33,13.33,0,0,1,.1-1.56.5.5,0,0,1,.5-.44h4.8A.51.51,0,0,1,14.91,10.44Z"/></svg>