<svg id="Layer_1" data-name="Layer 1" xmlns="http://www.w3.org/2000/svg" viewBox="0 0 24 24"><title>Network</title><path d="M21.71,20.29a1,1,0,0,1,0,1.42,1,1,0,0,1-1.42,0l-2.36-2.37-1.22,1.22a1,1,0,0,1-.71.3,1,1,0,0,1-1-1V16a1,1,0,0,1,1-1h3.86a1,1,0,0,1,.7,1.71l-1.22,1.22ZM10.27,8h3.46a.5.5,0,0,0,.48-.66A12.47,12.47,0,0,0,12.4,4a.52.52,0,0,0-.8,0A12.47,12.47,0,0,0,9.79,7.34.5.5,0,0,0,10.27,8Zm2.23,8H10.27a.51.51,0,0,0-.48.66A12.47,12.47,0,0,0,11.6,20a.52.52,0,0,0,.8,0c.16-.21.56-.81.56-.83A.41.41,0,0,0,13,19V16.5A.5.5,0,0,0,12.5,16Zm2.4-5.56a.51.51,0,0,0-.5-.44H9.6a.51.51,0,0,0-.5.44A13.33,13.33,0,0,0,9,12a13.33,13.33,0,0,0,.1,1.56.51.51,0,0,0,.5.44h2.9a.5.5,0,0,0,.5-.5.5.5,0,0,1,.5-.5h1a.49.49,0,0,0,.38-.18.73.73,0,0,0,.13-.46V12A13.33,13.33,0,0,0,14.9,10.44Zm2,.12A13.59,13.59,0,0,1,17,12c0,.17,0,.34,0,.5a.5.5,0,0,0,.5.5h4a.5.5,0,0,0,.48-.36,2.48,2.48,0,0,0,0-.38A2.26,2.26,0,0,0,22,12a9.11,9.11,0,0,0-.13-1.58.5.5,0,0,0-.5-.42H17.42A.51.51,0,0,0,16.92,10.56ZM7.08,13.44a13,13,0,0,1,0-2.88.51.51,0,0,0-.5-.56H2.63a.5.5,0,0,0-.5.42,9.67,9.67,0,0,0,0,3.16.5.5,0,0,0,.5.42h4A.51.51,0,0,0,7.08,13.44Zm.53,2.93A.49.49,0,0,0,7.14,16H3.65a.51.51,0,0,0-.44.76,10,10,0,0,0,6,4.82.5.5,0,0,0,.53-.77A15,15,0,0,1,7.61,16.37ZM3.65,8H7.14a.49.49,0,0,0,.47-.37A15,15,0,0,1,9.69,3.19a.5.5,0,0,0-.53-.77A10,10,0,0,0,3.21,7.24.51.51,0,0,0,3.65,8Zm12.74-.37a.49.49,0,0,0,.47.37h3.49a.51.51,0,0,0,.44-.76,10,10,0,0,0-5.95-4.82.5.5,0,0,0-.53.77A15,15,0,0,1,16.39,7.63Z"/></svg>