<svg id="Layer_1" data-name="Layer 1" xmlns="http://www.w3.org/2000/svg" viewBox="0 0 24 24"><title>No Encryption</title><path d="M21.71,20.29a1,1,0,0,1,0,1.42,1,1,0,0,1-1.42,0L18.38,19.8A3,3,0,0,1,16,21H8a3,3,0,0,1-3-3V12A3,3,0,0,1,7,9.19V8.41L2.29,3.71A1,1,0,0,1,3.71,2.29ZM11.86,3a5.14,5.14,0,0,0-2.3.64,1,1,0,0,0-.21,1.58A1,1,0,0,0,10,5.5a1.18,1.18,0,0,0,.55-.14A3,3,0,0,1,11.84,5,3.14,3.14,0,0,1,15,8.19V9a1.06,1.06,0,0,0-.57.94,1,1,0,0,0,.12.48c.1.2,2.56,2.55,2.74,2.74h0a1,1,0,0,0,1.7-.7V12a3,3,0,0,0-2-2.82V8.25A5.19,5.19,0,0,0,11.86,3Z"/></svg>