<svg id="Layer_1" data-name="Layer 1" xmlns="http://www.w3.org/2000/svg" viewBox="0 0 24 24"><title>Notifications Off</title><path d="M13,3V4.09l.26,0A6.1,6.1,0,0,1,18,10.18V12a1,1,0,0,1-1.72.7L9.7,6A1,1,0,0,1,9.45,5a1,1,0,0,1,.65-.72,5.63,5.63,0,0,1,.9-.22V3a1,1,0,0,1,2,0Zm1.44,16h-5a.53.53,0,0,0-.39.18.53.53,0,0,0-.1.42,3.06,3.06,0,0,0,6,0,.53.53,0,0,0-.1-.42A.53.53,0,0,0,14.44,19Zm3.27-2.71L8.32,6.9h0L3.71,2.29A1,1,0,0,0,2.29,3.71L6.41,7.82A6,6,0,0,0,6,10v4.59l-1.71,1.7a1,1,0,0,0-.21,1.09A1,1,0,0,0,5,18H16.59l3.7,3.71a1,1,0,0,0,1.42,0,1,1,0,0,0,0-1.42Z"/></svg>