<svg id="Layer_1" data-name="Layer 1" xmlns="http://www.w3.org/2000/svg" viewBox="0 0 24 24"><title>Phone Bluetooth Speaker</title><path d="M5.58,2H9a2,2,0,0,1,2,2V7a1,1,0,0,1-.4.8l-4,3,0,0a12.94,12.94,0,0,0,5.21,7l2.51-2.52a1,1,0,0,1,1-.26l3.25.81A2,2,0,0,1,20,17.78V21a1,1,0,0,1-1,1,14.79,14.79,0,0,1-6.43-1.45A15,15,0,0,1,4.15,9.14,15.61,15.61,0,0,1,4,7a15.09,15.09,0,0,1,.62-4.29A1,1,0,0,1,5.58,2Zm14.2,3.92L17.4,7.5l2.38,1.58a.51.51,0,0,1,0,.84l-3,2a.57.57,0,0,1-.28.08.53.53,0,0,1-.24-.06A.51.51,0,0,1,16,11.5V8.43L13.78,9.92a.57.57,0,0,1-.28.08.52.52,0,0,1-.42-.22.51.51,0,0,1,.14-.7L15.6,7.5,13.22,5.92a.5.5,0,1,1,.56-.84L16,6.57V3.5a.5.5,0,0,1,.78-.42l3,2a.51.51,0,0,1,0,.84ZM17,8.43v2.14L18.6,9.5ZM18.6,5.5,17,4.43V6.57Z"/></svg>