<svg id="Layer_1" data-name="Layer 1" xmlns="http://www.w3.org/2000/svg" viewBox="0 0 24 24"><title>Phone In Talk</title><path d="M20.67,6.29A9,9,0,0,1,22,11a1,1,0,1,1-2,0h0a7,7,0,0,0-1-3.63A6.9,6.9,0,0,0,16.66,5,7.06,7.06,0,0,0,13,4a1,1,0,0,1,0-2,9.09,9.09,0,0,1,4.67,1.3l.08.06A8.62,8.62,0,0,1,20.67,6.29ZM17,12a1,1,0,0,0,1-1,5,5,0,0,0-5-5,1,1,0,0,0,0,2,3,3,0,0,1,3,3h0A1,1,0,0,0,17,12Zm-6.43,8.55A14.79,14.79,0,0,0,17,22a1,1,0,0,0,1-1V17.78a2,2,0,0,0-1.51-1.94L13.24,15a1,1,0,0,0-1,.26L9.78,17.81a12.94,12.94,0,0,1-5.21-7l0,0,4-3A1,1,0,0,0,9,7V4A2,2,0,0,0,7,2H3.58a1,1,0,0,0-1,.71A15.09,15.09,0,0,0,2,7a15.61,15.61,0,0,0,.15,2.14A15,15,0,0,0,10.57,20.55Z"/></svg>