<svg id="Layer_1" data-name="Layer 1" xmlns="http://www.w3.org/2000/svg" viewBox="0 0 24 24"><title>Phone Missed</title><path d="M21.71,16.08a1,1,0,0,1,0,1.4l-1.92,1.95a1.91,1.91,0,0,1-1.36.57h0a1.87,1.87,0,0,1-1.36-.57l-1.92-1.95a1,1,0,0,1-.29-.7V14.35a12,12,0,0,0-5.72,0v2.43a1,1,0,0,1-.29.7L6.93,19.43A1.87,1.87,0,0,1,5.57,20h0a1.87,1.87,0,0,1-1.35-.57L2.29,17.48a1,1,0,0,1,0-1.4,13.59,13.59,0,0,1,19.42,0ZM12,5a1,1,0,0,0-1-1H7a1,1,0,0,0-.38.08,1,1,0,0,0-.54.54A1,1,0,0,0,6,5V9A1,1,0,0,0,8,9V7.41l3.29,3.3a1,1,0,0,0,1.42,0l5-5a1,1,0,1,0-1.42-1.42L12,8.59,9.41,6H11A1,1,0,0,0,12,5Z"/></svg>