<svg id="Layer_1" data-name="Layer 1" xmlns="http://www.w3.org/2000/svg" viewBox="0 0 24 24"><title>Phone Forwarded</title><path d="M3.15,9.14A15.61,15.61,0,0,1,3,7a15.09,15.09,0,0,1,.62-4.29,1,1,0,0,1,1-.71H8a2,2,0,0,1,2,2V7a1,1,0,0,1-.4.8l-4,3,0,0a12.94,12.94,0,0,0,5.21,7l2.51-2.52a1,1,0,0,1,1-.26l3.25.81A2,2,0,0,1,19,17.78V21a1,1,0,0,1-1,1,14.79,14.79,0,0,1-6.43-1.45A15,15,0,0,1,3.15,9.14ZM18.71,6.29a1,1,0,0,0-1.09-.21A1,1,0,0,0,17,7V8H14a1,1,0,0,0,0,2h3v1a1,1,0,0,0,.62.92A.84.84,0,0,0,18,12a1,1,0,0,0,.71-.29l2-2a1,1,0,0,0,0-1.42Z"/></svg>