<svg id="Layer_1" data-name="Layer 1" xmlns="http://www.w3.org/2000/svg" viewBox="0 0 24 24"><title>Wifi Off</title><path d="M13.64,18l-1.31,1.42a.5.5,0,0,1-.75,0l-1.25-1.42a.51.51,0,0,1,.14-.78,3.18,3.18,0,0,1,3,0A.51.51,0,0,1,13.64,18Zm1.8-6.68,1.79,1.79a1.56,1.56,0,0,0-.8-1.31A9,9,0,0,0,15.44,11.27Zm5.5-1.87a1.53,1.53,0,0,0-.27-2.25A15.38,15.38,0,0,0,12,4.47,14.75,14.75,0,0,0,9,4.78l2.77,2.77H12a12.23,12.23,0,0,1,6.91,2.13A1.53,1.53,0,0,0,20.94,9.4ZM3.71,2.29A1,1,0,0,0,2.29,3.71L4.84,6.25a15.31,15.31,0,0,0-1.51.89,1.48,1.48,0,0,0-.65,1.24,1.59,1.59,0,0,0,.38,1,1.54,1.54,0,0,0,2,.25,13.43,13.43,0,0,1,2-1.11l2.4,2.4a9.43,9.43,0,0,0-2.1.88,1.48,1.48,0,0,0-.73,1.27,1.43,1.43,0,0,0,.35.94,1.62,1.62,0,0,0,2,.41,6.08,6.08,0,0,1,3-.77l.27,0,8,8a1,1,0,0,0,1.42,0,1,1,0,0,0,0-1.42Z"/></svg>