<svg id="Layer_1" data-name="Layer 1" xmlns="http://www.w3.org/2000/svg" viewBox="0 0 24 24"><title>Wifi</title><path d="M13.64,18l-1.31,1.42a.5.5,0,0,1-.75,0L10.33,18a.52.52,0,0,1,.13-.79,3.2,3.2,0,0,1,3.06,0A.52.52,0,0,1,13.64,18Zm2.79-6.2A9.08,9.08,0,0,0,12,10.6a9.19,9.19,0,0,0-4.57,1.22A1.45,1.45,0,0,0,7.05,14a1.62,1.62,0,0,0,2,.41,6.09,6.09,0,0,1,5.93,0,1.48,1.48,0,0,0,1.87-.27A1.58,1.58,0,0,0,16.43,11.75Zm4.24-4.6a15.39,15.39,0,0,0-17.34,0A1.53,1.53,0,0,0,5.09,9.65a12.32,12.32,0,0,1,13.82,0,1.54,1.54,0,0,0,1.76-2.52Z"/></svg>