<svg id="Layer_1" data-name="Layer 1" xmlns="http://www.w3.org/2000/svg" viewBox="0 0 24 24"><title>AC Unit</title><path d="M12,22A10,10,0,1,0,2,12,10,10,0,0,0,12,22ZM12,4a8,8,0,1,1-8,8A8,8,0,0,1,12,4ZM6.75,15.92A1,1,0,0,1,6,15.63a1,1,0,0,1,0-1.42L7.26,13H6a1,1,0,0,1,0-2H7.26L6,9.79A1,1,0,1,1,7.46,8.37L10.08,11H11v-.92L8.37,7.46A1,1,0,1,1,9.79,6L11,7.26V6a1,1,0,0,1,2,0V7.26L14.21,6a1,1,0,1,1,1.42,1.42L13,10.08V11h.92l2.62-2.63A1,1,0,1,1,18,9.79L16.74,11H18a1,1,0,0,1,0,2H16.74L18,14.21a1,1,0,0,1,0,1.42,1,1,0,0,1-1.42,0L13.92,13H13v.92l2.63,2.62a1,1,0,0,1,0,1.42,1,1,0,0,1-1.42,0L13,16.74V18a1,1,0,0,1-2,0V16.74L9.79,18a1,1,0,1,1-1.42-1.42L11,13.92V13h-.92L7.46,15.63A1,1,0,0,1,6.75,15.92Z"/></svg>