<svg id="Layer_1" data-name="Layer 1" xmlns="http://www.w3.org/2000/svg" viewBox="0 0 24 24"><title>Airport Shuttle</title><path d="M20.35,11.55,17.9,10.33l-.64-3.82a3,3,0,0,0-3-2.51H5A3,3,0,0,0,2,7v8a3,3,0,0,0,2.14,2.86A3,3,0,0,0,9.82,18h3.36a3,3,0,0,0,5.64,0H19a3,3,0,0,0,3-3v-.78A3,3,0,0,0,20.35,11.55ZM15.29,6.84,15.82,10H12V6h2.31A1,1,0,0,1,15.29,6.84ZM5,6h5v4H4V7A1,1,0,0,1,5,6ZM7,18a1,1,0,1,1,1-1A1,1,0,0,1,7,18Zm9,0a1,1,0,1,1,1-1A1,1,0,0,1,16,18Zm4-3a1,1,0,0,1-1,1h-.19a3,3,0,0,0-5.64,0H9.82a3,3,0,0,0-5.52-.29A1,1,0,0,1,4,15V12H16.76l2.69,1.34a1,1,0,0,1,.55.89Z"/></svg>