<svg id="Layer_1" data-name="Layer 1" xmlns="http://www.w3.org/2000/svg" viewBox="0 0 24 24"><title>Category</title><path d="M7,11A4,4,0,1,0,3,7,4,4,0,0,0,7,11ZM7,5A2,2,0,1,1,5,7,2,2,0,0,1,7,5Zm9,6h2a3,3,0,0,0,3-3V6a3,3,0,0,0-3-3H16a3,3,0,0,0-3,3V8A3,3,0,0,0,16,11ZM15,6a1,1,0,0,1,1-1h2a1,1,0,0,1,1,1V8a1,1,0,0,1-1,1H16a1,1,0,0,1-1-1ZM10,21a1,1,0,0,0,.89-1.45l-3-6a1,1,0,0,0-1.78,0l-3,6A1,1,0,0,0,4,21ZM7,16.24,8.38,19H5.62Zm6.29,3.05L15.59,17l-2.3-2.29a1,1,0,0,1,1.42-1.42L17,15.59l2.29-2.3a1,1,0,0,1,1.42,1.42L18.41,17l2.3,2.29a1,1,0,0,1,0,1.42,1,1,0,0,1-1.42,0L17,18.41l-2.29,2.3a1,1,0,0,1-1.42,0A1,1,0,0,1,13.29,19.29Z"/></svg>