<svg id="Layer_1" data-name="Layer 1" xmlns="http://www.w3.org/2000/svg" viewBox="0 0 24 24"><title>Child Friendly</title><path d="M3,11h7a1,1,0,0,0,1-1V3a1,1,0,0,0-1-1,8,8,0,0,0-8,8A1,1,0,0,0,3,11ZM9,4.08V9H4.08A6,6,0,0,1,9,4.08ZM21,12a1,1,0,0,0,0-2H19a1,1,0,0,0-.89.55L17.38,12H3a1,1,0,0,0-.83.44,1,1,0,0,0-.1.93l1.54,3.84A3,3,0,0,0,3,19a3,3,0,0,0,6,0h3a3,3,0,1,0,5.16-2.08L19.62,12ZM6,20a1,1,0,1,1,1-1A1,1,0,0,1,6,20Zm2.22-3A3,3,0,0,0,6,16a2.61,2.61,0,0,0-.69.09L4.48,14h11.9l-1,2A2.2,2.2,0,0,0,15,16a3,3,0,0,0-2.22,1ZM15,20a1,1,0,1,1,1-1A1,1,0,0,1,15,20Z"/></svg>