<svg id="Layer_1" data-name="Layer 1" xmlns="http://www.w3.org/2000/svg" viewBox="0 0 24 24"><title>Departure Board</title><path d="M20,5H4A2,2,0,0,0,2,7V17a2,2,0,0,0,2,2H20a2,2,0,0,0,2-2V7A2,2,0,0,0,20,5ZM4,17V7H20V17Zm16,1V17h0ZM12.71,8.29a1,1,0,0,1,0,1.42L11.52,10.9l.74,3.72a.24.24,0,0,1-.07.23l-.7.71a.31.31,0,0,1-.18.07h0a.3.3,0,0,1-.19-.14L9.7,12.71l-.93.93.47,1.53a.25.25,0,0,1-.09.27l-1,.76a.27.27,0,0,1-.15.05H7.94a.21.21,0,0,1-.16-.13l-1-1.92-1.92-1a.21.21,0,0,1-.13-.16.25.25,0,0,1,0-.21l.76-1a.25.25,0,0,1,.27-.09l1.53.47.92-.92L5.52,9.93a.23.23,0,0,1-.13-.18.26.26,0,0,1,.07-.22l.71-.71a.26.26,0,0,1,.22-.07l3.7.74,1.2-1.2a1,1,0,0,1,1.42,0ZM19,9a1,1,0,0,1-1,1H15a1,1,0,0,1,0-2h3A1,1,0,0,1,19,9Zm0,3a1,1,0,0,1-1,1H15a1,1,0,0,1,0-2h3A1,1,0,0,1,19,12Zm0,3a1,1,0,0,1-1,1H15a1,1,0,0,1,0-2h3A1,1,0,0,1,19,15Z"/></svg>