<svg id="Layer_1" data-name="Layer 1" xmlns="http://www.w3.org/2000/svg" viewBox="0 0 24 24"><title>Directions Walk</title><path d="M16,4a2,2,0,1,1-2-2A2,2,0,0,1,16,4ZM5.22,12a1,1,0,0,0,.61,1.35h0a1.05,1.05,0,0,0,1.25-.52l1.47-3,2.06-.4-.37,1.15-3.72,10a1,1,0,0,0,1,1.34,1,1,0,0,0,1-.66l2.57-6.89L14,17,14,21a1,1,0,0,0,1,1h0a1,1,0,0,0,1-1l.05-4.55a1,1,0,0,0-.32-.75l-2.07-1.91.66-2.31.87,1.13A1,1,0,0,0,16.3,13l1.87-.63a1,1,0,0,0,.64-1.26,1,1,0,0,0-1.31-.62l-1.12.38L15,9a2,2,0,0,0-1.71-2,2.08,2.08,0,0,0-1.19.16L7.5,8a1,1,0,0,0-.71.56Z"/></svg>