<svg id="Layer_1" data-name="Layer 1" xmlns="http://www.w3.org/2000/svg" viewBox="0 0 24 24"><title>Edit Location</title><path d="M12,2A7,7,0,0,0,5,9c0,5.31,6,12.35,6.24,12.65a1,1,0,0,0,1.52,0C13,21.35,19,14.31,19,9A7,7,0,0,0,12,2Zm0,17.4c-1.56-2-5-6.85-5-10.4A5,5,0,0,1,17,9C17,12.55,13.56,17.39,12,19.4ZM13.67,9.29a.51.51,0,0,1,0,.71l-2.58,2.58a.53.53,0,0,1-.23.13c-.35.09-1.28.28-1.28.28H9.5a.47.47,0,0,1-.35-.15A.46.46,0,0,1,9,12.42s.19-.92.27-1.27a.58.58,0,0,1,.13-.23L12,8.33a.51.51,0,0,1,.71,0ZM15.21,6.8a1.19,1.19,0,0,1,.33,1,1.25,1.25,0,0,1-.17.49,3.55,3.55,0,0,1-.41.46.33.33,0,0,1-.24.14c-.13,0-.19-.1-.27-.18L13.23,7.46a.26.26,0,0,1-.07-.18.15.15,0,0,1,0-.11,3.23,3.23,0,0,1,.34-.37,1.17,1.17,0,0,1,1.67,0Z"/></svg>