<svg id="Layer_1" data-name="Layer 1" xmlns="http://www.w3.org/2000/svg" viewBox="0 0 24 24"><title>EV Station</title><path d="M21,10.07a3,3,0,0,0-1.33-2.49L14.94,4.43A3,3,0,0,0,12,2H6A3,3,0,0,0,3,5V19a3,3,0,0,0,3,3h6a3,3,0,0,0,3-3V15h1v4.5a2.5,2.5,0,0,0,5,0Zm-2.22-.61-.05-.07ZM13,19a1,1,0,0,1-1,1H6a1,1,0,0,1-1-1V5A1,1,0,0,1,6,4h6a1,1,0,0,1,1,1Zm5.5,1a.5.5,0,0,1-.5-.5V14a1,1,0,0,0-1-1H15V6.87l1,.67V10a1,1,0,0,0,1,1l2,0V19.5A.5.5,0,0,1,18.5,20Zm-6.57-8.76a.51.51,0,0,1,0,.48l-2,4A.49.49,0,0,1,9.5,16H9.38A.51.51,0,0,1,9,15.5V13H6.5a.52.52,0,0,1-.43-.24.51.51,0,0,1,0-.48l2-4A.5.5,0,0,1,9,8.5V11h2.5A.52.52,0,0,1,11.93,11.24Z"/></svg>