<svg id="Layer_1" data-name="Layer 1" xmlns="http://www.w3.org/2000/svg" viewBox="0 0 24 24"><title>Hot Tub</title><path d="M5,21H19a3,3,0,0,0,3-3V9a1,1,0,0,0-2,0v1H4V9A1,1,0,0,0,2,9v9A3,3,0,0,0,5,21Zm15-9v6a1,1,0,0,1-1,1H5a1,1,0,0,1-1-1V12ZM6,16a1,1,0,1,1,1,1A1,1,0,0,1,6,16Zm4-1.5a.5.5,0,1,1,.5.5A.5.5,0,0,1,10,14.5Zm7,1a.5.5,0,1,1,.5.5A.5.5,0,0,1,17,15.5ZM13,16a1,1,0,1,1,1,1A1,1,0,0,1,13,16ZM12,6.43a.62.62,0,0,0-.3-.56,1.64,1.64,0,0,1-.7-1.3,1.65,1.65,0,0,1,.7-1.3l.23-.17a.5.5,0,1,1,.6.8l-.23.18a.63.63,0,0,0-.3.49.66.66,0,0,0,.3.5A1.57,1.57,0,0,1,13,6.57,1.83,1.83,0,0,1,11.73,8l-.17,0a.48.48,0,0,1-.47-.33A.5.5,0,0,1,11.38,7,.87.87,0,0,0,12,6.43Zm-3,0a.62.62,0,0,0-.3-.56A1.64,1.64,0,0,1,8,4.57a1.65,1.65,0,0,1,.7-1.3l.23-.17a.5.5,0,0,1,.6.8l-.23.18a.63.63,0,0,0-.3.49.66.66,0,0,0,.3.5A1.57,1.57,0,0,1,10,6.57,1.83,1.83,0,0,1,8.73,8L8.56,8a.48.48,0,0,1-.47-.33A.5.5,0,0,1,8.38,7,.87.87,0,0,0,9,6.43Zm6,0a.62.62,0,0,0-.3-.56,1.64,1.64,0,0,1-.7-1.3,1.65,1.65,0,0,1,.7-1.3l.23-.17a.5.5,0,1,1,.6.8l-.23.18a.63.63,0,0,0-.3.49.66.66,0,0,0,.3.5A1.57,1.57,0,0,1,16,6.57,1.83,1.83,0,0,1,14.73,8l-.17,0a.48.48,0,0,1-.47-.33A.5.5,0,0,1,14.38,7,.87.87,0,0,0,15,6.43Z"/></svg>