<svg id="Layer_1" data-name="Layer 1" xmlns="http://www.w3.org/2000/svg" viewBox="0 0 24 24"><title>Kitchen</title><path d="M17,5l-.41,0A5,5,0,0,0,7.41,5L7,5a5,5,0,0,0-2,9.58V19a3,3,0,0,0,3,3h8a3,3,0,0,0,3-3V14.58A5,5,0,0,0,17,5Zm0,8a3,3,0,0,1-2-.75,1,1,0,1,0-1.33,1.5A5,5,0,0,0,17,15v4a1,1,0,0,1-1,1H15V17a1,1,0,0,0-2,0v3H11V17a1,1,0,0,0-2,0v3H8a1,1,0,0,1-1-1V15a5,5,0,0,0,3.31-1.25A1,1,0,1,0,9,12.25,3,3,0,1,1,7,7a3,3,0,0,1,.81.11A1,1,0,0,0,8.6,7a1,1,0,0,0,.47-.65,3,3,0,0,1,5.86,0A1,1,0,0,0,15.4,7a1,1,0,0,0,.79.1A3,3,0,0,1,17,7a3,3,0,0,1,0,6Z"/></svg>