<svg id="Layer_1" data-name="Layer 1" xmlns="http://www.w3.org/2000/svg" viewBox="0 0 24 24"><title>Layers Clear</title><path d="M15.16,9.52,17.28,8,12,4.23,10.49,5.31A1,1,0,0,1,9.33,3.69l2.09-1.5a1,1,0,0,1,1.16,0l7,5a1,1,0,0,1,0,1.62l-3.26,2.33a1,1,0,0,1-.58.19,1,1,0,0,1-.58-1.81Zm2.79,4a1,1,0,0,0,.6-.2L20.6,11.8a1,1,0,1,0-1.2-1.6l-2,1.54a1,1,0,0,0-.2,1.4A1,1,0,0,0,18,13.54ZM3.71,2.29A1,1,0,0,0,2.29,3.71L5.21,6.62l-.79.57a1,1,0,0,0,0,1.62l7,5A1,1,0,0,0,12,14a1,1,0,0,0,.46-.13l.88.88-1.34,1L4.6,10.2a1,1,0,0,0-1.2,1.6l8,6a1,1,0,0,0,1.2,0l2.17-1.62.85.85L12,19.75,4.6,14.2a1,1,0,0,0-1.2,1.6l8,6a1,1,0,0,0,1.2,0l4.45-3.34,3.24,3.25a1,1,0,0,0,1.42,0,1,1,0,0,0,0-1.42Z"/></svg>