<svg id="Layer_1" data-name="Layer 1" xmlns="http://www.w3.org/2000/svg" viewBox="0 0 24 24"><title>Local Gas Station</title><path d="M18.71,2.29a1,1,0,0,0-1.42,1.42l1.43,1.43A2.49,2.49,0,0,0,19.5,10,2.73,2.73,0,0,0,20,10V19a1,1,0,0,1-2,0V15a3,3,0,0,0-3-3V5a3,3,0,0,0-3-3H5A3,3,0,0,0,2,5V19a3,3,0,0,0,3,3h7a3,3,0,0,0,3-3V14a1,1,0,0,1,1,1v4a3,3,0,0,0,6,0V6a1,1,0,0,0-.29-.71ZM5,4h7a1,1,0,0,1,1,1v5H4V5A1,1,0,0,1,5,4Zm8,15a1,1,0,0,1-1,1H5a1,1,0,0,1-1-1V12h9ZM19.5,8a.5.5,0,1,1,.5-.5A.5.5,0,0,1,19.5,8Z"/></svg>