<svg id="Layer_1" data-name="Layer 1" xmlns="http://www.w3.org/2000/svg" viewBox="0 0 24 24"><title>Local Car Wash</title><path d="M9,15a1,1,0,1,1-1-1A1,1,0,0,1,9,15Zm7-1a1,1,0,1,0,1,1A1,1,0,0,0,16,14ZM8.24,7h7.52a3,3,0,0,1,2.69,1.66l1.23,2.47A3,3,0,0,1,20,12.47V20a1,1,0,0,1-2,0V19H6v1a1,1,0,0,1-2,0V12.47a3,3,0,0,1,.32-1.34L5.55,8.66A3,3,0,0,1,8.24,7ZM6,17H18V13H6ZM7.34,9.55,6.62,11H17.38l-.72-1.45a1,1,0,0,0-.9-.55H8.24A1,1,0,0,0,7.34,9.55ZM17,5a6.87,6.87,0,0,0-.54-1.69.52.52,0,0,0-.92,0A6.87,6.87,0,0,0,15,5a1,1,0,0,0,2,0ZM13,5a6.87,6.87,0,0,0-.54-1.69.52.52,0,0,0-.92,0A6.87,6.87,0,0,0,11,5a1,1,0,0,0,2,0ZM9,5a6.87,6.87,0,0,0-.54-1.69.52.52,0,0,0-.92,0A6.87,6.87,0,0,0,7,5,1,1,0,0,0,9,5Z"/></svg>