<svg id="Layer_1" data-name="Layer 1" xmlns="http://www.w3.org/2000/svg" viewBox="0 0 24 24"><title>Local School</title><path d="M3,17.5a1,1,0,0,0,1.17,1,7.72,7.72,0,0,1,1.16-.08,8.75,8.75,0,0,1,6,2.32l0,0a1.12,1.12,0,0,0,.28.18h0a.94.94,0,0,0,.76,0h0a1.12,1.12,0,0,0,.28-.18l0,0a8.75,8.75,0,0,1,6-2.32,7.72,7.72,0,0,1,1.16.08,1,1,0,0,0,1.17-1V10.1a1,1,0,0,0-.83-1A9.48,9.48,0,0,0,18.67,9,10.85,10.85,0,0,0,12,11.28,10.85,10.85,0,0,0,5.33,9a9.48,9.48,0,0,0-1.5.11,1,1,0,0,0-.83,1ZM19,11v5.4h-.33A10.93,10.93,0,0,0,13,18V13a8.77,8.77,0,0,1,5.67-2ZM5,11h.33A8.77,8.77,0,0,1,11,13V18A10.93,10.93,0,0,0,5.33,16.4H5ZM3.65,6.06l8-3a1.05,1.05,0,0,1,.7,0l8,3A1,1,0,0,1,20,8a1,1,0,0,1-.35-.06L12,5.07,4.35,7.94a1,1,0,1,1-.7-1.88Z"/></svg>