<svg id="Layer_1" data-name="Layer 1" xmlns="http://www.w3.org/2000/svg" viewBox="0 0 24 24"><title>Location Pin</title><path d="M12,2A6,6,0,0,0,6,8c0,4.54,5.09,9.51,5.31,9.72a1,1,0,0,0,1.38,0C12.91,17.51,18,12.54,18,8A6,6,0,0,0,12,2Zm0,13.55C10.69,14.11,8,10.81,8,8a4,4,0,0,1,8,0C16,10.81,13.31,14.11,12,15.55ZM14,8a2,2,0,1,1-2-2A2,2,0,0,1,14,8ZM2,17c0-1.29.89-2.5,2.52-3.39a1,1,0,1,1,1,1.75C4.54,15.88,4,16.48,4,17c0,1.22,3.12,3,8,3s8-1.78,8-3c0-.52-.54-1.12-1.48-1.64a1,1,0,1,1,1-1.75C21.11,14.5,22,15.71,22,17c0,2.85-4.3,5-10,5S2,19.85,2,17Z"/></svg>