<svg id="Layer_1" data-name="Layer 1" xmlns="http://www.w3.org/2000/svg" viewBox="0 0 24 24"><title>Location Off</title><path d="M16.38,12A8.77,8.77,0,0,0,17,9,5,5,0,0,0,9.4,4.73a1,1,0,1,1-1-1.7A7,7,0,0,1,19,9a10.83,10.83,0,0,1-.74,3.67,1,1,0,0,1-.94.65,1.12,1.12,0,0,1-.35-.06A1,1,0,0,1,16.38,12ZM11,7a1,1,0,0,0,1,1,1,1,0,0,1,1,1,1,1,0,0,0,2,0,3,3,0,0,0-3-3A1,1,0,0,0,11,7ZM21.71,20.29a1,1,0,0,1,0,1.42,1,1,0,0,1-1.42,0l-4.39-4.4a40.59,40.59,0,0,1-3.14,4.34A1,1,0,0,1,12,22h0a1,1,0,0,1-.76-.35C11,21.35,5,14.31,5,9a6.89,6.89,0,0,1,.36-2.22L2.29,3.71A1,1,0,0,1,3.71,2.29Zm-7.27-4.44L7.06,8.47A4.78,4.78,0,0,0,7,9c0,3.55,3.43,8.39,5,10.4A39.65,39.65,0,0,0,14.44,15.85Z"/></svg>