<svg id="Layer_1" data-name="Layer 1" xmlns="http://www.w3.org/2000/svg" viewBox="0 0 24 24"><title>Local Pizza</title><path d="M12.37,6.91A1.51,1.51,0,0,1,13.76,6a1.59,1.59,0,0,1,.59.12A1.5,1.5,0,0,1,13.74,9a1.59,1.59,0,0,1-.59-.12A1.5,1.5,0,0,1,12.37,6.91Zm.51,5.18a1.5,1.5,0,0,0-.78-2,1.59,1.59,0,0,0-.59-.12,1.5,1.5,0,0,0-.61,2.88,1.59,1.59,0,0,0,.59.12A1.51,1.51,0,0,0,12.88,12.09ZM3.59,3.76a20.27,20.27,0,0,1,16.83.14,1,1,0,0,1,.52.58,1,1,0,0,1-.05.78L12.74,21.45a1,1,0,0,1-.9.55h0a1,1,0,0,1-.89-.57L3.1,5.1a1,1,0,0,1,0-.77A1,1,0,0,1,3.59,3.76ZM5.36,5.19l6.51,13.55L18.63,5.3A18.36,18.36,0,0,0,5.36,5.19Z"/></svg>