<svg id="Layer_1" data-name="Layer 1" xmlns="http://www.w3.org/2000/svg" viewBox="0 0 24 24"><title>Local Florist</title><path d="M19.69,9.29A14.9,14.9,0,0,0,20,5,1,1,0,0,0,19,4.05a14.9,14.9,0,0,0-4.32.26,15.12,15.12,0,0,0-2.07-2.07,1,1,0,0,0-1.28,0A15.12,15.12,0,0,0,9.29,4.31,14.9,14.9,0,0,0,5,4.05,1,1,0,0,0,4.05,5a14.9,14.9,0,0,0,.26,4.32,15.12,15.12,0,0,0-2.07,2.07,1,1,0,0,0,0,1.28,15.12,15.12,0,0,0,2.07,2.07A14.9,14.9,0,0,0,4.05,19,1,1,0,0,0,5,20c.14,0,.7.05,1.44.05a11.49,11.49,0,0,0,2.88-.31,15.72,15.72,0,0,0,2.07,2.07,1,1,0,0,0,1.28,0,15.72,15.72,0,0,0,2.07-2.07,11.49,11.49,0,0,0,2.88.31c.74,0,1.3,0,1.44-.05A1,1,0,0,0,20,19a14.9,14.9,0,0,0-.26-4.32,15.12,15.12,0,0,0,2.07-2.07,1,1,0,0,0,0-1.28A15.12,15.12,0,0,0,19.69,9.29ZM17,14a5.05,5.05,0,0,1-2.06-1.41,2.93,2.93,0,0,0,0-1.18A5.05,5.05,0,0,1,17,10a6.79,6.79,0,0,1,2.66,2A6.79,6.79,0,0,1,17,14ZM4.34,12A6.79,6.79,0,0,1,7,10a5.05,5.05,0,0,1,2.06,1.41,2.93,2.93,0,0,0,0,1.18A5.05,5.05,0,0,1,7,14,6.79,6.79,0,0,1,4.34,12ZM18,6a15.37,15.37,0,0,1-.11,2.18A2.66,2.66,0,0,0,17,8a3.07,3.07,0,0,0-1.42.42A3.07,3.07,0,0,0,16,7a2.61,2.61,0,0,0-.18-.89A14.15,14.15,0,0,1,18,6ZM12,4.34A6.79,6.79,0,0,1,14,7a5.05,5.05,0,0,1-1.41,2.06,2.93,2.93,0,0,0-1.18,0A5.05,5.05,0,0,1,10,7,6.79,6.79,0,0,1,12,4.34ZM6,6a15.37,15.37,0,0,1,2.18.11A2.66,2.66,0,0,0,8,7a3.07,3.07,0,0,0,.42,1.42A3.07,3.07,0,0,0,7,8a2.61,2.61,0,0,0-.89.18A14.15,14.15,0,0,1,6,6ZM6,18a15.37,15.37,0,0,1,.11-2.18A2.66,2.66,0,0,0,7,16a3.07,3.07,0,0,0,1.42-.42A3.07,3.07,0,0,0,8,17a2.61,2.61,0,0,0,.18.89A14.15,14.15,0,0,1,6,18Zm6,1.66A6.79,6.79,0,0,1,10,17a5.05,5.05,0,0,1,1.41-2.06,2.93,2.93,0,0,0,1.18,0A5.05,5.05,0,0,1,14,17,6.79,6.79,0,0,1,12,19.66ZM18,18a14.15,14.15,0,0,1-2.18-.11A2.61,2.61,0,0,0,16,17a3.07,3.07,0,0,0-.42-1.42A3.07,3.07,0,0,0,17,16a2.61,2.61,0,0,0,.89-.18A14.15,14.15,0,0,1,18,18Z"/></svg>