<svg id="Layer_1" data-name="Layer 1" xmlns="http://www.w3.org/2000/svg" viewBox="0 0 24 24"><title>Local Library</title><path d="M15,6a3,3,0,1,0-3,3A3,3,0,0,0,15,6ZM11,6a1,1,0,1,1,1,1A1,1,0,0,1,11,6ZM3.83,9.11a1,1,0,0,0-.83,1v7.4a1,1,0,0,0,1.17,1,7.72,7.72,0,0,1,1.16-.08,8.75,8.75,0,0,1,6,2.32l0,0a1.12,1.12,0,0,0,.28.18h0a.94.94,0,0,0,.76,0h0a1.12,1.12,0,0,0,.28-.18l0,0a8.75,8.75,0,0,1,6-2.32,7.72,7.72,0,0,1,1.16.08,1,1,0,0,0,1.17-1V10.1a1,1,0,0,0-.83-1A9.48,9.48,0,0,0,18.67,9,10.85,10.85,0,0,0,12,11.28,10.85,10.85,0,0,0,5.33,9,9.48,9.48,0,0,0,3.83,9.11ZM19,11V16.4h-.33A10.93,10.93,0,0,0,13,18V13a8.77,8.77,0,0,1,5.67-2Zm-8,7A10.93,10.93,0,0,0,5.33,16.4H5V11h.33A8.77,8.77,0,0,1,11,13Z"/></svg>