<svg id="Layer_1" data-name="Layer 1" xmlns="http://www.w3.org/2000/svg" viewBox="0 0 24 24"><title>Local Laundry Service</title><path d="M16,5.5a.5.5,0,1,1,.5.5A.5.5,0,0,1,16,5.5ZM14.5,6a.5.5,0,1,0-.5-.5A.5.5,0,0,0,14.5,6ZM7,22a3,3,0,0,1-3-3V5A3,3,0,0,1,7,2H17a3,3,0,0,1,3,3V19a3,3,0,0,1-3,3ZM6,5V7H18V5a1,1,0,0,0-1-1H7A1,1,0,0,0,6,5ZM7,20H17a1,1,0,0,0,1-1V9H6V19A1,1,0,0,0,7,20Zm0-5.5A4.49,4.49,0,0,1,15.72,13h.76a.52.52,0,0,1,.52.52v2a.52.52,0,0,1-.52.52h-.76A4.49,4.49,0,0,1,7,14.5ZM9.05,14a1.4,1.4,0,0,1,.86.28c1.1.77.63,1.26,1.88,1.23a5.1,5.1,0,0,1,1.82.3A2.46,2.46,0,0,0,14,14.5,2.5,2.5,0,0,0,9.05,14Z"/></svg>