<svg id="Layer_1" data-name="Layer 1" xmlns="http://www.w3.org/2000/svg" viewBox="0 0 24 24"><title>Pool</title><path d="M16,8a2,2,0,1,1,2-2A2,2,0,0,1,16,8ZM9,4H7A1,1,0,0,0,7,6H8.59l1.5,1.5s-2.83,2.82-2.86,2.87a.47.47,0,0,0-.09.28.52.52,0,0,0,.22.42l1.07.77a1.19,1.19,0,0,0,.41.15,1.12,1.12,0,0,0,.95-.32,3.14,3.14,0,0,1,4.42,0,1.11,1.11,0,0,0,1.58,0l.32-.28a.49.49,0,0,0,.15-.35.4.4,0,0,0-.13-.31L9.7,4.29A1,1,0,0,0,9,4ZM20.85,14.15a.51.51,0,0,1-.42-.13l-.22-.23a3.14,3.14,0,0,0-4.42,0,1.11,1.11,0,0,1-1.58,0,3.14,3.14,0,0,0-4.42,0,1.11,1.11,0,0,1-1.58,0,3.14,3.14,0,0,0-4.42,0L3.57,14a.51.51,0,0,1-.42.13,1,1,0,0,0-.3,2A2.48,2.48,0,0,0,5,15.43l.23-.22a1.11,1.11,0,0,1,1.58,0,3.14,3.14,0,0,0,4.42,0,1.11,1.11,0,0,1,1.58,0,3.14,3.14,0,0,0,4.42,0,1.11,1.11,0,0,1,1.58,0l.23.22a2.48,2.48,0,0,0,1.75.73,2.34,2.34,0,0,0,.38,0,1,1,0,0,0-.3-2Zm0,3.84a.45.45,0,0,1-.42-.13l-.22-.23a3.14,3.14,0,0,0-4.42,0,1.11,1.11,0,0,1-1.58,0,3.14,3.14,0,0,0-4.42,0,1.11,1.11,0,0,1-1.58,0,3.14,3.14,0,0,0-4.42,0l-.22.23a.45.45,0,0,1-.42.13A1,1,0,0,0,2,18.83,1,1,0,0,0,2.85,20,2.48,2.48,0,0,0,5,19.27l.23-.22a1.11,1.11,0,0,1,1.58,0,3.13,3.13,0,0,0,4.42,0,1.11,1.11,0,0,1,1.58,0,3.13,3.13,0,0,0,4.42,0,1.11,1.11,0,0,1,1.58,0l.23.22a2.48,2.48,0,0,0,1.75.73,2.34,2.34,0,0,0,.38,0A1,1,0,0,0,22,18.83,1,1,0,0,0,20.85,18Z"/></svg>