<svg id="Layer_1" data-name="Layer 1" xmlns="http://www.w3.org/2000/svg" viewBox="0 0 24 24"><title>RV Hookup</title><path d="M22,16H21V15a1,1,0,0,0-2,0v1H18V7a3,3,0,0,0-3-3H6A3,3,0,0,0,3,7V18H2.5a.5.5,0,0,0-.48.36.51.51,0,0,0,.2.56l1.5,1a.53.53,0,0,0,.56,0l1.5-1a.51.51,0,0,0,.2-.56A.5.5,0,0,0,5.5,18H5V12H16v4h-.18a3,3,0,0,0-5.64,0H9V15h.5a.5.5,0,0,0,.48-.36.51.51,0,0,0-.2-.56l-1.5-1a.52.52,0,0,0-.56,0l-1.5,1a.51.51,0,0,0-.2.56A.5.5,0,0,0,6.5,15H7v4a1,1,0,0,0,2,0V18h1.18a3,3,0,0,0,5.64,0H19v1a1,1,0,0,0,2,0V18h1a1,1,0,0,0,0-2ZM5,7A1,1,0,0,1,6,6h5v4H5Zm8,3V6h2a1,1,0,0,1,1,1v3Zm0,8a1,1,0,1,1,1-1A1,1,0,0,1,13,18Z"/></svg>