<svg id="Layer_1" data-name="Layer 1" xmlns="http://www.w3.org/2000/svg" viewBox="0 0 24 24"><title>Satellite</title><path d="M12,15.59a1,1,0,0,0,.71-.3L17,11a2.83,2.83,0,1,0-4-4L8.71,11.29a1,1,0,0,0,0,1.42l2.58,2.58A1,1,0,0,0,12,15.59Zm2.41-7.18a.83.83,0,0,1,1.18,1.18L12,13.17,10.83,12ZM7,11a1,1,0,0,0,.71-.29l3-3a1,1,0,0,0,0-1.42l-4-4a1,1,0,0,0-1.42,0l-3,3a1,1,0,0,0,0,1.42l4,4A1,1,0,0,0,7,11ZM6,4.41,8.59,7,7,8.59,4.41,6Zm11.71,8.88a1,1,0,0,0-1.42,0l-3,3a1,1,0,0,0,0,1.42l4,4a1,1,0,0,0,1.42,0l3-3a1,1,0,0,0,0-1.42Zm.29,6.3L15.41,17,17,15.41,19.59,18Zm-9.29-5.3,1,1a1,1,0,0,1,0,1.42,1,1,0,0,1-1.42,0l-1-1a1,1,0,1,1,1.42-1.42Z"/></svg>