<svg id="Layer_1" data-name="Layer 1" xmlns="http://www.w3.org/2000/svg" viewBox="0 0 24 24"><title>Smoking Rooms</title><path d="M21.36,7.65a2.33,2.33,0,0,1,0,3.2A.51.51,0,0,1,21,11a.52.52,0,0,1-.35-.14.5.5,0,0,1,0-.71,1.3,1.3,0,0,0,0-1.8,2.33,2.33,0,0,1,0-3.2.5.5,0,1,1,.72.7A1.3,1.3,0,0,0,21.36,7.65Zm-2,3.2a2.33,2.33,0,0,0,0-3.2,1.3,1.3,0,0,1,0-1.8.5.5,0,1,0-.72-.7,2.33,2.33,0,0,0,0,3.2,1.3,1.3,0,0,1,0,1.8.5.5,0,0,0,0,.71A.52.52,0,0,0,19,11,.51.51,0,0,0,19.36,10.85ZM18,14v4a1,1,0,0,1-1,1H3a1,1,0,0,1-1-1V14a1,1,0,0,1,1-1H17A1,1,0,0,1,18,14Zm-2,1H9v2h7Zm5-2H20a1,1,0,0,0-1,1v4a1,1,0,0,0,1,1h1a1,1,0,0,0,1-1V14A1,1,0,0,0,21,13Z"/></svg>