<svg id="Layer_1" data-name="Layer 1" xmlns="http://www.w3.org/2000/svg" viewBox="0 0 24 24"><title>Smoke Free</title><path d="M21.36,4.65a2.33,2.33,0,0,1,0,3.2A.51.51,0,0,1,21,8a.52.52,0,0,1-.35-.14.5.5,0,0,1,0-.71,1.3,1.3,0,0,0,0-1.8,2.33,2.33,0,0,1,0-3.2.5.5,0,1,1,.72.7A1.3,1.3,0,0,0,21.36,4.65Zm-2-2.51a.5.5,0,0,0-.71,0,2.33,2.33,0,0,0,0,3.2,1.3,1.3,0,0,1,0,1.8.5.5,0,0,0,0,.71A.52.52,0,0,0,19,8a.51.51,0,0,0,.36-.15,2.33,2.33,0,0,0,0-3.2,1.3,1.3,0,0,1,0-1.8A.5.5,0,0,0,19.35,2.14ZM17,13a1,1,0,0,0,1-1V11a1,1,0,0,0-1-1H16a1,1,0,0,0,0,2A1,1,0,0,0,17,13Zm4-3H20a1,1,0,0,0-1,1v4a1,1,0,0,0,1,1h1a1,1,0,0,0,1-1V11A1,1,0,0,0,21,10Zm.71,10.29a1,1,0,0,1,0,1.42,1,1,0,0,1-1.42,0L14.59,16H3a1,1,0,0,1-1-1V11a1,1,0,0,1,1-1H8.59L2.29,3.71A1,1,0,0,1,3.71,2.29l8,8h0l4,4h0ZM12.59,14l-2-2H9v2Z"/></svg>