<svg id="Layer_1" data-name="Layer 1" xmlns="http://www.w3.org/2000/svg" viewBox="0 0 24 24"><title>Spa</title><path d="M21,9a12.64,12.64,0,0,0-5.27,1.24,13.24,13.24,0,0,0-3-4.95,1,1,0,0,0-1.42,0,13.24,13.24,0,0,0-3,5A12.64,12.64,0,0,0,3,9a1,1,0,0,0-1,1c0,.18,0,4.44,2.29,6.71S10.82,19,11,19h2c.18,0,4.44,0,6.71-2.29S22,10.18,22,10A1,1,0,0,0,21,9ZM12,7.52A8.07,8.07,0,0,1,14,12a8.07,8.07,0,0,1-2,4.48A8.07,8.07,0,0,1,10,12,8.07,8.07,0,0,1,12,7.52ZM4.08,11.07A8.22,8.22,0,0,1,8,12.48a9.54,9.54,0,0,0,1.8,4.43,7.4,7.4,0,0,1-4.12-1.62A7.41,7.41,0,0,1,4.08,11.07Zm14.21,4.22a7.36,7.36,0,0,1-4.12,1.62A9.58,9.58,0,0,0,16,12.48a8,8,0,0,1,4-1.4A7.54,7.54,0,0,1,18.29,15.29Z"/></svg>