<svg id="Layer_1" data-name="Layer 1" xmlns="http://www.w3.org/2000/svg" viewBox="0 0 24 24"><title>Traffic</title><path d="M14,7a2,2,0,1,1-2-2A2,2,0,0,1,14,7Zm-2,3a2,2,0,1,0,2,2A2,2,0,0,0,12,10Zm0,5a2,2,0,1,0,2,2A2,2,0,0,0,12,15Zm6-7.1V10h2A1,1,0,0,1,21,11.32,4,4,0,0,1,18,13.9V16h2A1,1,0,0,1,21,17.32a4,4,0,0,1-3.12,2.62A3,3,0,0,1,15,22H9a3,3,0,0,1-2.83-2.06,4,4,0,0,1-3.12-2.62A1,1,0,0,1,4,16H6V13.9a4,4,0,0,1-2.95-2.58A1,1,0,0,1,4,10H6V7.9A4,4,0,0,1,3.05,5.32,1,1,0,0,1,4,4H6.18A3,3,0,0,1,9,2h6a3,3,0,0,1,2.82,2H20A1,1,0,0,1,21,5.32,4,4,0,0,1,18,7.9ZM16,5a1,1,0,0,0-1-1H9A1,1,0,0,0,8,5V19a1,1,0,0,0,1,1h6a1,1,0,0,0,1-1Z"/></svg>