<svg id="Layer_1" data-name="Layer 1" xmlns="http://www.w3.org/2000/svg" viewBox="0 0 24 24"><title>Unknown Location</title><path d="M12,2A7,7,0,0,0,5,9c0,5.31,6,12.35,6.24,12.65a1,1,0,0,0,1.52,0C13,21.35,19,14.31,19,9A7,7,0,0,0,12,2Zm0,17.41c-1.56-2-5-6.86-5-10.41A5,5,0,0,1,17,9C17,12.55,13.56,17.39,12,19.41ZM13,15a1,1,0,1,1-1-1A1,1,0,0,1,13,15Zm2-6a3,3,0,0,1-1.62,2.67.63.63,0,0,0-.38.45A1,1,0,0,1,12,13h-.12A1,1,0,0,1,11,11.88a2.59,2.59,0,0,1,1.44-2A1,1,0,1,0,11,9,1,1,0,0,1,9,9a3,3,0,0,1,6,0Z"/></svg>