<svg id="Layer_1" data-name="Layer 1" xmlns="http://www.w3.org/2000/svg" viewBox="0 0 24 24"><title>User Location</title><path d="M19,2H5A1,1,0,0,0,4,3V18a1,1,0,0,0,1,1H8.59l2.7,2.71a1,1,0,0,0,1.42,0L15.41,19H19a1,1,0,0,0,1-1V3A1,1,0,0,0,19,2ZM18,17H15a1,1,0,0,0-.71.29L12,19.59l-2.29-2.3A1,1,0,0,0,9,17H6V4H18ZM10,7a2,2,0,1,1,2,2A2,2,0,0,1,10,7ZM8,16h8a1,1,0,0,0,1-1v-.8a1.23,1.23,0,0,0,0-.2A5.1,5.1,0,0,0,7,14a1.23,1.23,0,0,0,0,.2V15A1,1,0,0,0,8,16Zm4-4a3.09,3.09,0,0,1,2.91,2H9.09A3.09,3.09,0,0,1,12,12Z"/></svg>