<svg id="Layer_1" data-name="Layer 1" xmlns="http://www.w3.org/2000/svg" viewBox="0 0 24 24"><title>Zoom Out Map</title><path d="M22,2.5v5a.5.5,0,0,1-.31.46.43.43,0,0,1-.19,0,.47.47,0,0,1-.35-.15l-1.8-1.79L15.71,9.71a1,1,0,0,1-1.42,0,1,1,0,0,1,0-1.42l3.65-3.64-1.79-1.8A.47.47,0,0,1,16,2.31.5.5,0,0,1,16.5,2h5A.5.5,0,0,1,22,2.5ZM8.29,14.29,4.65,17.94l-1.8-1.79A.47.47,0,0,0,2.31,16,.5.5,0,0,0,2,16.5v5a.5.5,0,0,0,.5.5h5A.5.5,0,0,0,8,21.69a.47.47,0,0,0-.11-.54l-1.79-1.8,3.65-3.64a1,1,0,0,0-1.42-1.42ZM21.69,16a.47.47,0,0,0-.54.11l-1.8,1.79-3.64-3.65a1,1,0,0,0-1.42,1.42l3.65,3.64-1.79,1.8a.47.47,0,0,0-.11.54.5.5,0,0,0,.46.31h5a.5.5,0,0,0,.5-.5v-5A.5.5,0,0,0,21.69,16ZM6.06,4.65l1.79-1.8A.47.47,0,0,0,8,2.31.5.5,0,0,0,7.5,2h-5a.5.5,0,0,0-.5.5v5A.5.5,0,0,0,2.31,8,.43.43,0,0,0,2.5,8a.47.47,0,0,0,.35-.15l1.8-1.79L8.29,9.71a1,1,0,0,0,1.42,0,1,1,0,0,0,0-1.42Z"/></svg>